<svg xmlns="http://www.w3.org/2000/svg" width="200" height="134" fill="none"><path fill="#AAA" d="M193.693 54.328c-4.506-20.461-20.192-36.63-41.552-42.043-5.616-1.421-11.589-2.133-17.533-1.528C110.317 13.26 81.333 29.6 66.307 33.03 51.28 36.46 33.643 22.75 13.65 43.8c-19.992 21.05-15.376 69.757 24.602 79.301 39.979 9.544 62.23-13.949 80-8.8 17.771 5.15 49.55 2.934 68.323-12.237 11.117-8.997 11.024-29.97 7.117-47.736Z"/><path fill="#fff" d="M193.693 54.328c-4.506-20.461-20.192-36.63-41.552-42.043-5.616-1.421-11.589-2.133-17.533-1.528C110.317 13.26 81.333 29.6 66.307 33.03 51.28 36.46 33.643 22.75 13.65 43.8c-19.992 21.05-15.376 69.757 24.602 79.301 39.979 9.544 62.23-13.949 80-8.8 17.771 5.15 49.55 2.934 68.323-12.237 11.117-8.997 11.024-29.97 7.117-47.736Z" opacity=".8"/><path fill="#000" d="M108.171 59.072h-8.235v3.333h8.235v-3.333ZM105.035 47.21H96.8v3.334h8.235v-3.333ZM75.237 58.973h-8.234v3.334h8.234v-3.334ZM87.195 35.784H78.96v3.333h8.235v-3.333ZM96.213 35.784H87.98v3.333h8.234v-3.333ZM61.123 83.616h-8.235v3.333h8.235v-3.333ZM56.81 87.733h-8.234v3.334h8.235v-3.334Z" opacity=".2"/><path fill="#000" d="M100.525 51.819h-8.234v3.333h8.234V51.82ZM112.875 70.539h-8.235v3.333h8.235v-3.333ZM64.65 75.637h-8.234v3.334h8.235v-3.334ZM74.061 75.637h-8.234v3.334h8.234v-3.334ZM74.845 70.93h-8.234v3.334h8.234v-3.333ZM109.933 51.819h-8.234v3.333h8.234V51.82Z" opacity=".1"/><path fill="#000" d="M105.795 25.28H97.56v3.333h8.235V25.28ZM102.659 13.419h-8.235v3.333h8.235v-3.333Z" opacity=".2"/><path fill="#000" d="M98.15 18.027h-8.235v3.333h8.234v-3.333ZM107.56 18.027h-8.235v3.333h8.235v-3.333Z" opacity=".1"/><path fill="#000" d="M85.43 87.397h-8.235v3.334h8.234v-3.334Z" opacity=".2"/><path fill="#000" d="M80.923 92.005h-8.235v3.334h8.235v-3.334ZM90.33 92.005h-8.234v3.334h8.235v-3.334Z" opacity=".1"/><path fill="#000" d="M45.517 45.92h-8.234v3.333h8.234V45.92Z" opacity=".2"/><path fill="#000" d="M41.008 50.525h-8.235v3.334h8.235v-3.334ZM50.416 50.525h-8.235v3.334h8.235v-3.334Z" opacity=".1"/><path fill="#000" d="M42.304 70.736h-8.235v3.333h8.235v-3.333Z" opacity=".2"/><path fill="#000" d="M78.765 54.8h-8.234v3.333h8.234V54.8ZM66.416 87.539h-8.235v3.333h8.235v-3.333ZM91.899 31.67h-8.235v3.333H91.9v-3.334Z" opacity=".1"/><path fill="#000" d="M37.597 59.701h-8.234v3.334h8.234V59.7Z" opacity=".2"/><path fill="#000" d="M42.304 55.584h-8.235v3.333h8.235v-3.333ZM63.277 35.547h-8.234v3.333h8.234v-3.333Z" opacity=".1"/><path fill="#000" d="M91.899 59.072h-8.235v3.333H91.9v-3.333ZM128.037 62.403h8.235v-3.334h-8.235v3.334ZM131.176 50.544h8.235v-3.333h-8.235v3.333ZM160.971 62.307h8.234v-3.334h-8.234v3.334ZM149.013 39.117h8.235v-3.333h-8.235v3.333ZM139.997 39.117h8.235v-3.333h-8.235v3.333Z" opacity=".2"/><path fill="#000" d="M135.683 55.15h8.234v-3.334h-8.234v3.333ZM123.333 73.872h8.235V70.54h-8.235v3.333ZM171.557 78.968h8.235v-3.333h-8.235v3.333ZM162.147 78.968h8.234v-3.333h-8.234v3.333ZM161.363 74.264h8.234v-3.333h-8.234v3.333ZM126.275 55.15h8.234v-3.334h-8.234v3.333Z" opacity=".1"/><path fill="#000" d="M62.064 103.989h8.235v-3.333h-8.235v3.333Z" opacity=".2"/><path fill="#000" d="M66.573 108.597h8.235v-3.333h-8.235v3.333ZM57.163 108.597h8.234v-3.333h-8.234v3.333Z" opacity=".1"/><path fill="#000" d="M22.208 103.989h8.235v-3.333h-8.235v3.333Z" opacity=".2"/><path fill="#000" d="M26.717 108.597h8.235v-3.333h-8.235v3.333ZM17.31 108.597h8.234v-3.333H17.31v3.333Z" opacity=".1"/><path fill="#000" d="M150.779 90.73h8.234v-3.333h-8.234v3.334Z" opacity=".2"/><path fill="#000" d="M155.288 95.336h8.235v-3.333h-8.235v3.333ZM145.877 95.336h8.235v-3.333h-8.235v3.333ZM157.443 58.133h8.234V54.8h-8.234v3.333ZM169.792 90.87h8.235v-3.334h-8.235v3.333ZM129.629 95.555h8.235V92.22h-8.235v3.334ZM120.221 95.555h8.235V92.22h-8.235v3.334Z" opacity=".1"/><path fill="#000" d="M108.851 107.317h8.234v-3.333h-8.234v3.333Z" opacity=".2"/><path fill="#000" d="M179.189 111.925h8.235v-3.333h-8.235v3.333ZM179.189 103.4h8.235v-3.333h-8.235v3.333ZM183.408 107.547h8.235v-3.334h-8.235v3.334ZM173.963 107.547h8.234v-3.334h-8.234v3.334ZM127.867 107.456h8.234v-3.333h-8.234v3.333Z" opacity=".1"/><path fill="#000" d="M146.891 115.176h-8.235v3.333h8.235v-3.333Z" opacity=".2"/><path fill="#000" d="M142.381 119.784h-8.234v3.333h8.234v-3.333ZM151.792 119.784h-8.235v3.333h8.235v-3.333Z" opacity=".1"/><path fill="#000" d="M174.304 112.237h-8.235v3.334h8.235v-3.334Z" opacity=".2"/><path fill="#000" d="M169.795 119.784h-8.235v3.333h8.235v-3.333ZM179.205 119.784h-8.234v3.333h8.234v-3.333ZM26.712 123.112h-8.235v3.333h8.235v-3.333ZM53.723 118.733h-8.235v3.334h8.235v-3.334ZM38.517 114.587h-8.234v3.333h8.234v-3.333ZM34.299 118.733h-8.235v3.334H34.3v-3.334ZM43.744 118.733H35.51v3.334h8.235v-3.334ZM144.309 35h8.235v-3.333h-8.235V35ZM139.931 20.947h8.234v-3.334h-8.234v3.334ZM172.931 38.88h8.234v-3.333h-8.234v3.333Z" opacity=".1"/><path fill="#000" d="M144.309 62.403h8.235v-3.334h-8.235v3.334ZM60.552 12.92h-8.235v3.333h8.235V12.92Z" opacity=".2"/><path fill="#000" d="M27.288 36.533h-8.235v3.334h8.235v-3.334ZM37.555 39.408H29.32v3.333h8.235v-3.333ZM17.432 42.693H9.197v3.334h8.235v-3.334ZM32.307 42.843h-8.235v3.333h8.235v-3.333Z" opacity=".1"/><path fill="#000" d="M55.515 17.592H47.28v3.333h8.235v-3.333ZM143.717 12.92h-8.234v3.333h8.234V12.92ZM138.677 17.592h-8.234v3.333h8.234v-3.333Z" opacity=".2"/><path fill="#fff" d="M24.323 56.901H3.083v-3.466h19.506V3.253h3.467v51.915a1.733 1.733 0 0 1-1.733 1.733Z"/><path fill="#263238" d="M24.323 57.035H3.083a.133.133 0 0 1-.134-.134v-3.466a.133.133 0 0 1 .134-.134h19.373V3.253a.133.133 0 0 1 .133-.133h3.467a.136.136 0 0 1 .133.133v51.915a1.866 1.866 0 0 1-1.866 1.867Zm-21.107-.267h21.107a1.6 1.6 0 0 0 1.6-1.6V3.387h-3.2v50.048a.133.133 0 0 1-.134.133H3.216v3.2Z"/><path fill="#fff" d="M185.133 2.064v19.848H25.981v3.467h153.584v83.786H138.6a1.734 1.734 0 0 0-1.733 1.734v12.762h3.466v-11.029h39.232v11.733h3.467V25.379h3.835a1.733 1.733 0 0 0 1.733-1.734V2.064h-3.467Z"/><path fill="#263238" d="M183.032 124.491h-3.467a.133.133 0 0 1-.133-.134v-11.592h-38.965v10.896a.134.134 0 0 1-.134.134h-3.466a.134.134 0 0 1-.134-.134v-12.762a1.867 1.867 0 0 1 1.867-1.867h40.832v-83.52H25.982a.133.133 0 0 1-.134-.133v-3.467a.133.133 0 0 1 .133-.133H185V2.064a.133.133 0 0 1 .133-.133h3.467a.133.133 0 0 1 .133.133v21.581a1.866 1.866 0 0 1-1.866 1.867h-3.702v98.845a.134.134 0 0 1-.133.134Zm-3.333-.267h3.2V25.379a.133.133 0 0 1 .133-.134h3.835a1.6 1.6 0 0 0 1.6-1.6V2.197h-3.2v19.715a.133.133 0 0 1-.134.133H26.115v3.2h153.45a.134.134 0 0 1 .134.134v83.786a.134.134 0 0 1-.134.134H138.6a1.6 1.6 0 0 0-1.6 1.6v12.629h3.2v-10.896a.133.133 0 0 1 .133-.133h39.232a.134.134 0 0 1 .134.133v11.592Z"/><path fill="#fff" d="M188.571 12.747h-3.387v1.573h3.387v-1.573Z"/><path fill="#263238" d="M188.571 14.453h-3.387a.133.133 0 0 1-.133-.133v-1.573a.133.133 0 0 1 .133-.134h3.387a.133.133 0 0 1 .133.134v1.573a.128.128 0 0 1-.039.094.13.13 0 0 1-.094.04Zm-3.254-.266h3.12V12.88h-3.12v1.307Z"/><path fill="#fff" d="M152.56 112.608v-3.387h-1.573v3.387h1.573Z"/><path fill="#263238" d="M152.56 112.741h-1.573a.134.134 0 0 1-.134-.133v-3.387a.133.133 0 0 1 .134-.133h1.573a.133.133 0 0 1 .133.133v3.387a.133.133 0 0 1-.133.133Zm-1.44-.266h1.307v-3.12h-1.307v3.12Z"/><path fill="#fff" d="M155.987 112.608v-3.387h-1.574v3.387h1.574Z"/><path fill="#263238" d="M156 112.741h-1.573a.134.134 0 0 1-.134-.133v-3.387a.133.133 0 0 1 .134-.133H156a.133.133 0 0 1 .133.133v3.387a.133.133 0 0 1-.133.133Zm-1.44-.266h1.307v-3.12h-1.307v3.12Z"/><path fill="#fff" d="M63.888 115.485H7.984v3.467h55.904v-3.467Z"/><path fill="#263238" d="M63.888 119.085H7.984a.136.136 0 0 1-.093-.039.138.138 0 0 1-.04-.094v-3.467a.133.133 0 0 1 .133-.133h55.904a.133.133 0 0 1 .133.133v3.467a.133.133 0 0 1-.133.133Zm-55.77-.266h55.637v-3.2H8.117v3.2Z"/><path fill="#fff" d="M63.888 110.707H7.984v3.466h55.904v-3.466Z"/><path fill="#263238" d="M63.888 114.307H7.984a.133.133 0 0 1-.133-.134v-3.466a.137.137 0 0 1 .133-.134h55.904a.133.133 0 0 1 .133.134v3.466a.134.134 0 0 1-.133.134Zm-55.77-.267h55.637v-3.2H8.117v3.2Z"/><path fill="#fff" d="M34.227 110.773h-2.392v3.368h2.392v-3.368Z"/><path fill="#263238" d="M34.224 114.275h-2.4a.133.133 0 0 1-.133-.134v-3.368a.133.133 0 0 1 .133-.133h2.4a.133.133 0 0 1 .133.133v3.36a.133.133 0 0 1-.133.142Zm-2.256-.267h2.133v-3.101h-2.133v3.101Z"/><path fill="#fff" d="M39.208 110.773h-2.392v3.368h2.392v-3.368Z"/><path fill="#263238" d="M39.2 114.275h-2.4a.133.133 0 0 1-.133-.134v-3.368a.133.133 0 0 1 .133-.133h2.4a.133.133 0 0 1 .133.133v3.36a.133.133 0 0 1-.133.142Zm-2.256-.267h2.133v-3.101h-2.133v3.101Z"/><path fill="#fff" d="M34.227 115.549h-2.392v3.368h2.392v-3.368Z"/><path fill="#263238" d="M34.224 119.051h-2.4a.133.133 0 0 1-.133-.134v-3.368a.133.133 0 0 1 .133-.133h2.4a.133.133 0 0 1 .133.133v3.368a.134.134 0 0 1-.133.134Zm-2.256-.267h2.133v-3.101h-2.133v3.101Z"/><path fill="#fff" d="M39.208 115.549h-2.392v3.368h2.392v-3.368Z"/><path fill="#263238" d="M39.2 119.051h-2.4a.133.133 0 0 1-.133-.134v-3.368a.133.133 0 0 1 .133-.133h2.4a.133.133 0 0 1 .133.133v3.368a.134.134 0 0 1-.133.134Zm-2.256-.267h2.133v-3.101h-2.133v3.101Z"/><path fill="#fff" d="M71.488 45.997v-4.573h-2.784a13.44 13.44 0 0 0-.592-2.224l2.4-1.387-2.28-3.946-2.4 1.392a13.387 13.387 0 0 0-1.627-1.627l1.392-2.4-3.96-2.285-1.39 2.4a12.94 12.94 0 0 0-2.223-.592v-2.798H53.44v2.784c-.757.131-1.501.329-2.224.59l-1.39-2.4-3.96 2.269 1.395 2.4a13.025 13.025 0 0 0-1.626 1.627l-2.4-1.392-2.286 3.96 2.4 1.389c-.26.723-.458 1.467-.59 2.224h-2.788v4.57h2.786c.132.758.329 1.502.59 2.225l-2.4 1.389 2.285 3.96 2.413-1.392c.494.587 1.037 1.13 1.624 1.624l-1.39 2.4 3.958 2.288 1.392-2.4c.723.261 1.467.459 2.224.59v2.805h4.57v-2.78a13.18 13.18 0 0 0 2.225-.591l1.39 2.4 3.962-2.28-1.392-2.4c.586-.495 1.13-1.04 1.624-1.627l2.4 1.392L70.52 49.6l-2.4-1.39c.26-.722.458-1.466.59-2.223l2.778.01Zm-15.755 6.235a8.52 8.52 0 1 1-.006-17.038 8.52 8.52 0 0 1 .006 17.038Z"/><path fill="#263238" d="M58.019 59.605h-4.574a.133.133 0 0 1-.133-.133V56.8a13.347 13.347 0 0 1-2.03-.533l-1.333 2.312a.135.135 0 0 1-.184.048l-3.957-2.286a.136.136 0 0 1-.05-.184l1.333-2.312a13.952 13.952 0 0 1-1.486-1.485l-2.314 1.333a.134.134 0 0 1-.102 0 .14.14 0 0 1-.08-.061l-2.285-3.96a.133.133 0 0 1 .048-.181l2.31-1.334a13.307 13.307 0 0 1-.534-2.032H39.98a.133.133 0 0 1-.133-.133v-4.56a.133.133 0 0 1 .133-.133h2.667c.124-.69.302-1.37.533-2.032l-2.31-1.334a.136.136 0 0 1-.05-.181l2.288-3.96a.128.128 0 0 1 .08-.064.146.146 0 0 1 .102 0l2.314 1.333c.455-.532.95-1.028 1.483-1.482l-1.333-2.318a.14.14 0 0 1 0-.098.15.15 0 0 1 .06-.083l3.945-2.28a.136.136 0 0 1 .184.048l1.333 2.31a13.26 13.26 0 0 1 2.03-.534v-2.667a.133.133 0 0 1 .133-.133h4.573a.136.136 0 0 1 .134.133v2.667c.689.124 1.368.302 2.029.533l1.333-2.309a.129.129 0 0 1 .09-.048.125.125 0 0 1 .102 0l3.96 2.285a.131.131 0 0 1 .048.182l-1.333 2.314c.533.456 1.03.953 1.485 1.486l2.315-1.334a.147.147 0 0 1 .101-.013.127.127 0 0 1 .08.064l2.286 3.957a.137.137 0 0 1-.048.184l-2.31 1.334c.231.66.41 1.34.534 2.029h2.666a.136.136 0 0 1 .134.133v4.574a.136.136 0 0 1-.134.133H68.82c-.124.69-.303 1.368-.534 2.03l2.31 1.333a.127.127 0 0 1 .064.08.15.15 0 0 1-.014.101l-2.288 3.96a.13.13 0 0 1-.181.048l-2.315-1.333a13.671 13.671 0 0 1-1.482 1.485l1.333 2.315a.132.132 0 0 1-.009.147.13.13 0 0 1-.04.034l-3.96 2.288a.15.15 0 0 1-.1.013.128.128 0 0 1-.08-.064l-1.334-2.309c-.661.23-1.34.408-2.03.533v2.667a.132.132 0 0 1-.035.108.134.134 0 0 1-.105.041Zm-4.44-.266h4.306v-2.651a.135.135 0 0 1 .11-.133c.75-.129 1.487-.324 2.202-.584a.134.134 0 0 1 .16.058l1.334 2.291 3.733-2.152-1.333-2.296a.139.139 0 0 1 .029-.17 13.3 13.3 0 0 0 1.6-1.6.128.128 0 0 1 .168-.03l2.296 1.333 2.152-3.733-2.29-1.333a.13.13 0 0 1-.06-.16c.258-.716.454-1.453.585-2.203a.13.13 0 0 1 .13-.11h2.65v-4.309h-2.65a.134.134 0 0 1-.133-.109c-.13-.75-.325-1.485-.584-2.2a.136.136 0 0 1 .059-.163l2.29-1.333-2.152-3.733-2.296 1.333c-.027.015-.06.02-.09.015a.138.138 0 0 1-.08-.044 13.3 13.3 0 0 0-1.6-1.6.13.13 0 0 1-.032-.168l1.333-2.294-3.733-2.154-1.334 2.293a.136.136 0 0 1-.162.059c-.715-.26-1.451-.456-2.2-.584a.133.133 0 0 1-.11-.134v-2.65h-4.304v2.666a.13.13 0 0 1-.11.131c-.749.13-1.486.326-2.202.584a.13.13 0 0 1-.16-.059l-1.333-2.29-3.733 2.154 1.333 2.296a.136.136 0 0 1-.03.168 13.128 13.128 0 0 0-1.6 1.6.133.133 0 0 1-.167.03l-2.296-1.334-2.152 3.734 2.29 1.333a.133.133 0 0 1 .059.163 13.13 13.13 0 0 0-.584 2.2.133.133 0 0 1-.13.112h-2.651v4.288h2.666a.134.134 0 0 1 .13.112c.132.748.327 1.485.585 2.2a.13.13 0 0 1-.059.16l-2.29 1.333 2.154 3.733 2.296-1.333a.133.133 0 0 1 .168.032 13.3 13.3 0 0 0 1.6 1.6.136.136 0 0 1 .03.168l-1.334 2.296 3.734 2.152 1.333-2.29a.136.136 0 0 1 .163-.06c.715.259 1.45.454 2.2.585a.13.13 0 0 1 .109.13l-.013 2.654Zm2.154-6.971a8.654 8.654 0 1 1 8.65-8.653 8.661 8.661 0 0 1-8.65 8.653Zm0-17.04a8.386 8.386 0 1 0 8.384 8.387 8.397 8.397 0 0 0-8.384-8.387Z"/><path fill="#fff" d="M50.701 87.976v-4.57h-2.784a13.178 13.178 0 0 0-.592-2.225l2.4-1.389-2.285-3.96-2.4 1.392a13.568 13.568 0 0 0-1.627-1.624l1.392-2.4-3.96-2.285-1.389 2.4a13.177 13.177 0 0 0-2.224-.59v-2.789h-4.579v2.784a13.2 13.2 0 0 0-2.224.592l-1.389-2.4-3.96 2.285 1.395 2.4a13.379 13.379 0 0 0-1.627 1.627l-2.4-1.392-2.285 3.96 2.4 1.39c-.261.722-.458 1.466-.59 2.223h-2.789v4.574h2.787c.13.757.328 1.501.589 2.224l-2.4 1.389 2.285 3.96 2.4-1.395a13.182 13.182 0 0 0 1.624 1.627l-1.389 2.4 3.957 2.285 1.392-2.4c.723.262 1.467.46 2.224.59v2.784h4.571v-2.776a13.177 13.177 0 0 0 2.224-.59l1.39 2.4 3.962-2.28-1.392-2.413a13.195 13.195 0 0 0 1.624-1.627l2.4 1.392 2.285-3.957-2.4-1.392c.262-.722.46-1.467.59-2.224H50.7Zm-15.768 6.237a8.52 8.52 0 1 1 .027-17.04 8.52 8.52 0 0 1-.027 17.04Z"/><path fill="#263238" d="M37.232 101.6h-4.57a.133.133 0 0 1-.134-.133V98.8c-.69-.124-1.37-.302-2.032-.533l-1.333 2.309a.142.142 0 0 1-.083.064.138.138 0 0 1-.101-.016l-3.958-2.285a.133.133 0 0 1-.05-.182l1.333-2.314a13.418 13.418 0 0 1-1.483-1.483l-2.317 1.333a.134.134 0 0 1-.181-.05l-2.286-3.958a.123.123 0 0 1-.013-.101.139.139 0 0 1 .061-.083l2.31-1.333a13.26 13.26 0 0 1-.534-2.03h-2.666a.134.134 0 0 1-.134-.133v-4.594a.136.136 0 0 1 .134-.134h2.672c.123-.69.302-1.368.533-2.029l-2.31-1.333a.142.142 0 0 1-.063-.083.15.15 0 0 1 0-.101l2.288-3.96a.133.133 0 0 1 .18-.048l2.316 1.333c.454-.534.95-1.03 1.482-1.485l-1.333-2.315a.134.134 0 0 1 .048-.181l3.96-2.286a.136.136 0 0 1 .184.048l1.333 2.31c.662-.232 1.34-.41 2.03-.534v-2.666a.133.133 0 0 1 .133-.134h4.579a.135.135 0 0 1 .133.134v2.666c.69.124 1.368.303 2.03.534l1.333-2.31a.14.14 0 0 1 .082-.064.152.152 0 0 1 .102.014l3.96 2.28a.133.133 0 0 1 .048.181l-1.334 2.315c.533.462 1.03.965 1.486 1.504l2.314-1.334a.133.133 0 0 1 .182.048l2.282 3.952a.122.122 0 0 1 .014.102.117.117 0 0 1-.062.08l-2.31 1.333c.232.662.41 1.342.534 2.032h2.667a.133.133 0 0 1 .133.133v4.571a.133.133 0 0 1-.133.133H48.02c-.123.69-.302 1.37-.533 2.032l2.31 1.334a.133.133 0 0 1 .05.181l-2.288 3.96a.133.133 0 0 1-.181.05l-2.315-1.333c-.455.533-.95 1.028-1.483 1.483l1.334 2.317a.132.132 0 0 1-.048.182l-3.96 2.285a.137.137 0 0 1-.184-.048l-1.334-2.31c-.661.232-1.34.41-2.03.534v2.667a.128.128 0 0 1-.004.054.132.132 0 0 1-.123.095Zm-4.432-.267h4.304v-2.666a.134.134 0 0 1 .11-.131c.749-.13 1.486-.326 2.202-.584a.133.133 0 0 1 .16.059l1.333 2.29 3.734-2.154-1.334-2.296c-.015-.028-.02-.059-.015-.09a.136.136 0 0 1 .045-.078 13.128 13.128 0 0 0 1.6-1.6.133.133 0 0 1 .168-.03l2.296 1.334 2.152-3.734-2.291-1.333a.133.133 0 0 1-.059-.163 13.15 13.15 0 0 0 .584-2.2.133.133 0 0 1 .13-.112h2.652V83.54H47.92a.136.136 0 0 1-.133-.112 13.133 13.133 0 0 0-.587-2.2.134.134 0 0 1 .059-.16l2.29-1.334L47.397 76l-2.296 1.333c-.027.016-.06.02-.09.016a.138.138 0 0 1-.08-.045 12.925 12.925 0 0 0-1.6-1.6.131.131 0 0 1-.032-.168l1.333-2.296-3.733-2.152-1.334 2.29a.133.133 0 0 1-.162.06 13.065 13.065 0 0 0-2.2-.585.13.13 0 0 1-.11-.13v-2.651H32.8v2.65a.132.132 0 0 1-.11.134c-.75.13-1.486.326-2.202.584a.133.133 0 0 1-.16-.059l-1.333-2.29-3.734 2.152 1.334 2.296a.139.139 0 0 1-.03.17c-.579.486-1.114 1.021-1.6 1.6a.128.128 0 0 1-.168.03l-2.296-1.334-2.152 3.734 2.29 1.333a.131.131 0 0 1 .06.16 13.17 13.17 0 0 0-.584 2.203.13.13 0 0 1-.131.109h-2.667v4.307h2.667a.13.13 0 0 1 .13.109c.13.75.326 1.487.585 2.203a.131.131 0 0 1-.06.16l-2.29 1.333 2.155 3.733 2.296-1.333a.136.136 0 0 1 .168.03 13.142 13.142 0 0 0 1.6 1.6.133.133 0 0 1 .03.167l-1.334 2.296 3.733 2.152 1.334-2.293a.131.131 0 0 1 .162-.056c.715.258 1.451.453 2.2.584a.133.133 0 0 1 .112.13l-.005 2.667Zm2.133-6.986a8.653 8.653 0 1 1 8.65-8.654 8.661 8.661 0 0 1-8.65 8.654Zm0-17.038a8.386 8.386 0 1 0 8.384 8.384 8.395 8.395 0 0 0-8.384-8.384Z"/><path fill="#fff" d="M166.731 87.323v-3.086h-1.867a8.847 8.847 0 0 0-.397-1.501l1.624-.939-1.544-2.666-1.627.938a8.882 8.882 0 0 0-1.099-1.096l.926-1.64-2.667-1.541-.939 1.624a8.825 8.825 0 0 0-1.501-.397v-1.867h-3.091v1.867a8.777 8.777 0 0 0-1.501.4l-.939-1.624-2.666 1.541.938 1.63c-.396.332-.763.699-1.096 1.095l-1.629-.938-1.541 2.666 1.624.936c-.177.488-.311.99-.4 1.502h-1.867v3.088h1.867c.089.51.222 1.013.397 1.501l-1.624.936 1.544 2.667 1.629-.942c.333.398.7.765 1.096 1.099l-.938 1.627 2.666 1.544.939-1.627c.488.177.99.311 1.501.4v1.88h3.088v-1.88a8.909 8.909 0 0 0 1.502-.4l.936 1.624 2.666-1.544-.941-1.627a8.974 8.974 0 0 0 1.099-1.098l1.626.938 1.544-2.666-1.626-.939a8.85 8.85 0 0 0 .4-1.501l1.888.016Zm-10.638 4.21a5.751 5.751 0 1 1 0-11.502 5.751 5.751 0 0 1 0 11.502Z"/><path fill="#263238" d="M157.64 96.555h-3.088a.138.138 0 0 1-.094-.04.136.136 0 0 1-.039-.094v-1.754c-.444-.085-.88-.2-1.307-.347l-.883 1.528a.136.136 0 0 1-.184.048l-2.666-1.544a.119.119 0 0 1-.062-.08.13.13 0 0 1-.004-.052.11.11 0 0 1 .018-.05l.882-1.53a8.89 8.89 0 0 1-.954-.957l-1.526.872a.124.124 0 0 1-.101.013.134.134 0 0 1-.08-.061l-1.544-2.667a.13.13 0 0 1-.013-.101.134.134 0 0 1 .061-.08l1.528-.883a9.071 9.071 0 0 1-.347-1.307h-1.768a.133.133 0 0 1-.133-.133V84.24a.133.133 0 0 1 .133-.133h1.768c.082-.444.198-.881.347-1.307l-1.528-.883a.135.135 0 0 1-.063-.08.137.137 0 0 1 .012-.101l1.544-2.667a.133.133 0 0 1 .182-.048l1.53.883c.296-.341.616-.66.958-.955l-.886-1.541a.135.135 0 0 1 .051-.181l2.667-1.544a.146.146 0 0 1 .101-.014.132.132 0 0 1 .047.024.135.135 0 0 1 .033.04l.883 1.528a9.133 9.133 0 0 1 1.306-.349v-1.768a.133.133 0 0 1 .134-.133h3.088a.133.133 0 0 1 .133.133v1.768c.444.083.882.199 1.309.347l.88-1.528a.143.143 0 0 1 .083-.064.149.149 0 0 1 .101.013l2.667 1.544c.03.018.053.046.064.08a.131.131 0 0 1-.016.101l-.885 1.528c.341.296.66.617.954.96l1.531-.882a.134.134 0 0 1 .101-.015.122.122 0 0 1 .046.023c.014.011.026.024.034.04l1.544 2.666a.142.142 0 0 1 .018.05.15.15 0 0 1-.003.051.127.127 0 0 1-.063.08l-1.528.883c.149.427.265.865.347 1.31h1.768a.133.133 0 0 1 .133.133v3.085a.133.133 0 0 1-.133.134h-1.765a9.12 9.12 0 0 1-.35 1.309l1.531.883c.015.008.028.02.039.033.011.014.018.03.022.047a.136.136 0 0 1 0 .1l-1.544 2.668a.132.132 0 0 1-.181.05l-1.547-.874a9.23 9.23 0 0 1-.957.957l.885 1.53a.134.134 0 0 1-.048.185l-2.666 1.54a.132.132 0 0 1-.148-.008.134.134 0 0 1-.034-.04l-.882-1.527a8.81 8.81 0 0 1-1.307.347v1.77a.135.135 0 0 1-.041.095.134.134 0 0 1-.095.039Zm-2.955-.267h2.822V94.54a.133.133 0 0 1 .109-.133 8.584 8.584 0 0 0 1.477-.392.136.136 0 0 1 .163.059l.869 1.509 2.443-1.41-.872-1.513a.136.136 0 0 1 .029-.17c.386-.324.743-.681 1.067-1.067a.138.138 0 0 1 .08-.045.138.138 0 0 1 .091.016l1.512.872 1.408-2.443-1.51-.872a.134.134 0 0 1-.058-.16c.174-.48.307-.974.394-1.477a.133.133 0 0 1 .131-.112h1.744V84.37h-1.747a.135.135 0 0 1-.086-.032.137.137 0 0 1-.044-.08 8.668 8.668 0 0 0-.392-1.478.13.13 0 0 1 .058-.16l1.51-.872-1.411-2.442-1.512.872a.131.131 0 0 1-.171-.03 8.806 8.806 0 0 0-1.066-1.08.128.128 0 0 1-.03-.168l.872-1.512-2.442-1.41-.872 1.509a.137.137 0 0 1-.07.058.132.132 0 0 1-.09 0 8.912 8.912 0 0 0-1.48-.391.13.13 0 0 1-.11-.131v-1.747h-2.821v1.747a.131.131 0 0 1-.109.13c-.503.09-.998.221-1.478.395a.136.136 0 0 1-.092 0 .137.137 0 0 1-.07-.058l-.87-1.51-2.442 1.411.872 1.512a.127.127 0 0 1 .016.09.13.13 0 0 1-.046.078c-.39.329-.752.691-1.08 1.083a.136.136 0 0 1-.168.03l-1.512-.876-1.41 2.443 1.509.872a.138.138 0 0 1 .059.163 8.51 8.51 0 0 0-.392 1.48.13.13 0 0 1-.131.109H145.6V87.2h1.747a.13.13 0 0 1 .13.11 8.9 8.9 0 0 0 .392 1.48.133.133 0 0 1-.056.16l-1.509.871 1.408 2.443 1.515-.875a.132.132 0 0 1 .089-.015.136.136 0 0 1 .079.045c.324.39.681.752 1.066 1.082a.13.13 0 0 1 .048.078c.005.031 0 .063-.016.09l-.874 1.512 2.442 1.41.872-1.511a.133.133 0 0 1 .16-.059c.481.175.976.307 1.48.395a.13.13 0 0 1 .11.13l.002 1.742Zm1.408-4.621a5.88 5.88 0 0 1-5.437-3.633 5.881 5.881 0 0 1 1.276-6.414 5.882 5.882 0 0 1 9.055.892 5.89 5.89 0 0 1 .992 3.27 5.891 5.891 0 0 1-5.886 5.885Zm0-11.502a5.62 5.62 0 0 0-3.972 9.593 5.62 5.62 0 0 0 9.591-3.977 5.625 5.625 0 0 0-5.619-5.616Z"/><path fill="#fff" d="M151.645 43.603v-3.086h-1.866a8.851 8.851 0 0 0-.4-1.501l1.624-.939-1.542-2.666-1.629.941a8.904 8.904 0 0 0-1.099-1.099l.942-1.626-2.667-1.544-.939 1.624a8.995 8.995 0 0 0-1.501-.398v-1.866h-3.101v1.866a8.818 8.818 0 0 0-1.502.4l-.938-1.624-2.667 1.544.939 1.627a9.055 9.055 0 0 0-1.096 1.099l-1.627-.942-1.544 2.667 1.624.939c-.175.488-.308.99-.397 1.501h-1.88v3.085h1.88c.089.512.222 1.014.4 1.502l-1.624.938 1.544 2.667 1.626-.939c.335.396.702.763 1.099 1.096l-.941 1.627 2.666 1.544.939-1.624c.488.177.99.31 1.501.397v1.867h3.086v-1.867a8.832 8.832 0 0 0 1.501-.4l.939 1.624 2.666-1.541-.938-1.63a9.127 9.127 0 0 0 1.096-1.098l1.626.941 1.544-2.666-1.624-.939c.177-.488.31-.99.398-1.501h1.882Zm-10.637 4.21a5.754 5.754 0 0 1-5.316-3.55 5.748 5.748 0 0 1 1.246-6.269 5.754 5.754 0 0 1 8.851.873c.632.947.969 2.06.968 3.197a5.746 5.746 0 0 1-5.749 5.75Z"/><path fill="#263238" d="M142.552 52.835h-3.085a.134.134 0 0 1-.134-.134v-1.768a9.07 9.07 0 0 1-1.309-.346l-.883 1.528a.122.122 0 0 1-.034.039.133.133 0 0 1-.147.009l-2.667-1.542a.152.152 0 0 1-.061-.082.154.154 0 0 1 .013-.102l.886-1.53a8.995 8.995 0 0 1-.958-.955l-1.53.883a.126.126 0 0 1-.102.013.125.125 0 0 1-.047-.022.112.112 0 0 1-.035-.04l-1.542-2.666a.138.138 0 0 1-.016-.101.142.142 0 0 1 .064-.083l1.528-.88a8.707 8.707 0 0 1-.346-1.31h-1.771a.133.133 0 0 1-.133-.133v-3.08a.134.134 0 0 1 .133-.133h1.768c.083-.444.199-.882.347-1.31l-1.528-.882a.129.129 0 0 1-.048-.181l1.541-2.667a.136.136 0 0 1 .184-.048l1.531.885c.293-.342.613-.662.954-.957l-.882-1.53a.134.134 0 0 1 .048-.185l2.666-1.541a.126.126 0 0 1 .102-.013.125.125 0 0 1 .047.022c.015.01.027.024.035.039l.883 1.528a8.63 8.63 0 0 1 1.307-.347v-1.77a.133.133 0 0 1 .133-.134h3.085a.134.134 0 0 1 .134.134v1.768a9.07 9.07 0 0 1 1.309.346l.883-1.528a.122.122 0 0 1 .034-.039.13.13 0 0 1 .147-.009l2.667 1.542c.029.02.051.048.061.082a.138.138 0 0 1-.013.102l-.886 1.53c.344.293.664.612.958.955l1.533-.883a.132.132 0 0 1 .181.048l1.544 2.667a.14.14 0 0 1 .012.102.143.143 0 0 1-.062.082l-1.528.883c.148.426.265.863.349 1.306h1.768a.133.133 0 0 1 .133.134v3.088a.136.136 0 0 1-.039.093.138.138 0 0 1-.094.04h-1.773c-.083.444-.199.88-.347 1.307l1.528.882c.015.009.029.02.039.034.011.014.019.03.023.047a.114.114 0 0 1 .003.052.123.123 0 0 1-.017.049l-1.541 2.666a.142.142 0 0 1-.083.062.136.136 0 0 1-.101 0l-1.531-.883c-.294.341-.614.66-.955.955l.883 1.533a.141.141 0 0 1 .018.05.115.115 0 0 1-.005.051.131.131 0 0 1-.022.046.138.138 0 0 1-.039.034l-2.667 1.544a.148.148 0 0 1-.101 0 .143.143 0 0 1-.083-.064l-.88-1.528a9.172 9.172 0 0 1-1.309.35v1.768a.133.133 0 0 1-.128.128Zm-2.952-.267h2.819v-1.747a.132.132 0 0 1 .112-.13 8.903 8.903 0 0 0 1.477-.395.135.135 0 0 1 .091 0c.029.011.053.032.069.059l.872 1.509 2.443-1.41-.875-1.513a.139.139 0 0 1-.016-.089.14.14 0 0 1 .045-.079 8.818 8.818 0 0 0 1.083-1.082.133.133 0 0 1 .168-.03l1.512.872 1.411-2.44-1.51-.872a.133.133 0 0 1-.058-.163c.174-.48.305-.974.392-1.477a.13.13 0 0 1 .13-.109h1.747v-2.821h-1.747a.13.13 0 0 1-.13-.11c-.088-.504-.22-.999-.395-1.48a.14.14 0 0 1 0-.09.136.136 0 0 1 .059-.07l1.509-.872-1.411-2.442-1.512.874a.132.132 0 0 1-.089.016.136.136 0 0 1-.079-.045 8.88 8.88 0 0 0-1.082-1.083.13.13 0 0 1-.045-.078.132.132 0 0 1 .015-.09l.872-1.512-2.442-1.402-.87 1.509a.133.133 0 0 1-.162.059 8.923 8.923 0 0 0-1.478-.392.136.136 0 0 1-.08-.045.14.14 0 0 1-.032-.086v-1.747h-2.818v1.747a.136.136 0 0 1-.11.133 8.626 8.626 0 0 0-1.48.392.131.131 0 0 1-.09 0 .137.137 0 0 1-.07-.058l-.872-1.512-2.442 1.41.874 1.512a.133.133 0 0 1-.029.168 8.811 8.811 0 0 0-1.083 1.083.132.132 0 0 1-.168.03l-1.512-.873-1.413 2.438 1.509.869c.028.016.049.04.06.07.01.03.01.063-.001.093-.173.48-.304.974-.392 1.477a.133.133 0 0 1-.131.112h-1.746v2.81h1.746a.133.133 0 0 1 .131.113 8.9 8.9 0 0 0 .397 1.488.128.128 0 0 1 0 .09.134.134 0 0 1-.058.07l-1.515.869 1.411 2.443 1.512-.875a.133.133 0 0 1 .168.03c.329.39.691.753 1.082 1.082a.13.13 0 0 1 .045.079c.006.03 0 .062-.015.089l-.872 1.512 2.442 1.41.87-1.509a.133.133 0 0 1 .162-.059c.481.173.975.305 1.478.393.031.005.059.02.08.044a.14.14 0 0 1 .032.086l.005 1.747Zm1.408-4.621a5.889 5.889 0 0 1-5.439-3.632 5.884 5.884 0 0 1 7.69-7.69 5.89 5.89 0 0 1 3.632 5.439 5.89 5.89 0 0 1-5.883 5.883Zm0-11.502a5.619 5.619 0 1 0-.005 11.237 5.619 5.619 0 0 0 .005-11.237ZM77.8 124.611v-13.816h4.997v1.008h-3.685v5.184h3.003v.954h-3.003v5.699h3.717v.971H77.8ZM84.605 124.611v-13.816h3.128a4.159 4.159 0 0 1 2.04.418c.485.269.862.696 1.067 1.211.23.601.34 1.242.325 1.885.002.489-.055.976-.17 1.451-.1.427-.3.824-.582 1.16a1.983 1.983 0 0 1-1.16.629l2.118 7.062h-1.264l-2.03-6.79h-2.165v6.79h-1.307Zm1.296-7.734h1.758c.462.024.922-.076 1.333-.288.32-.195.562-.497.683-.853.148-.457.218-.936.205-1.416 0-.853-.148-1.49-.445-1.909-.296-.422-.88-.632-1.758-.632h-1.789l.013 5.098ZM93.333 124.611v-13.816h3.12a4.148 4.148 0 0 1 2.038.418c.486.267.863.695 1.066 1.211.23.601.34 1.242.326 1.885a6.06 6.06 0 0 1-.171 1.451 2.8 2.8 0 0 1-.581 1.16 1.983 1.983 0 0 1-1.16.629l2.114 7.062h-1.261l-2.024-6.79h-2.165v6.79h-1.302Zm1.296-7.734h1.755c.467.026.933-.073 1.35-.288.319-.197.56-.498.682-.853a4.21 4.21 0 0 0 .203-1.416c0-.853-.148-1.49-.443-1.909-.296-.422-.88-.632-1.757-.632h-1.79v5.098ZM105.333 124.781c-.91 0-1.621-.177-2.133-.533a2.851 2.851 0 0 1-1.091-1.501 7.079 7.079 0 0 1-.314-2.211v-5.733a6.525 6.525 0 0 1 .33-2.192c.2-.59.59-1.097 1.11-1.44a4.615 4.615 0 0 1 4.229 0c.519.342.907.849 1.101 1.44.229.707.338 1.448.323 2.192v5.749a6.982 6.982 0 0 1-.315 2.2 2.86 2.86 0 0 1-1.082 1.493c-.521.358-1.24.536-2.158.536Zm0-1.04a2.26 2.26 0 0 0 1.4-.368c.327-.257.558-.617.656-1.021a5.787 5.787 0 0 0 .179-1.528v-6.259a5.665 5.665 0 0 0-.179-1.517 1.793 1.793 0 0 0-.656-1 2.961 2.961 0 0 0-2.789 0 1.77 1.77 0 0 0-.667 1 5.793 5.793 0 0 0-.178 1.517v6.259a5.958 5.958 0 0 0 .178 1.528c.099.407.335.767.667 1.021.412.268.899.394 1.389.36v.008ZM111.024 124.611v-13.816h3.123a4.15 4.15 0 0 1 2.037.418c.486.267.863.695 1.067 1.211.229.601.34 1.242.325 1.885a6.01 6.01 0 0 1-.171 1.451c-.101.426-.3.823-.581 1.16a1.984 1.984 0 0 1-1.16.629l2.115 7.062h-1.262l-2.029-6.79h-2.168v6.79h-1.296Zm1.296-7.734h1.757c.468.026.934-.073 1.35-.288.319-.196.56-.498.68-.853.15-.457.219-.936.205-1.416 0-.853-.148-1.49-.443-1.909-.295-.42-.881-.631-1.757-.632h-1.792v5.098Z"/><path fill="#263238" d="M159.568 104.112V82.731h-27.835V69.04l23.875-56.563h20.363v56.904h8.829v13.35h-8.829v21.381h-16.403Zm-14.029-34.73h14.029V30.463l-14.029 38.917Z"/><path fill="#263238" d="M175.971 104.245h-16.403a.133.133 0 0 1-.133-.133V82.864h-27.702a.133.133 0 0 1-.133-.133V69.04a.109.109 0 0 1 0-.05l23.885-56.566a.136.136 0 0 1 .123-.08h20.363a.133.133 0 0 1 .133.133v56.771h8.696a.133.133 0 0 1 .133.133v13.35a.133.133 0 0 1-.133.133h-8.696v21.248a.133.133 0 0 1-.133.133Zm-16.267-.266h16.136V82.731a.133.133 0 0 1 .133-.134h8.691V69.515h-8.693a.137.137 0 0 1-.134-.133V12.61h-20.141l-23.824 56.456v13.53h27.696a.133.133 0 0 1 .133.134l.003 21.248Zm-.133-34.464h-14.032a.133.133 0 0 1-.11-.059.15.15 0 0 1-.022-.058.144.144 0 0 1 .006-.062l14.03-38.917a.128.128 0 0 1 .146-.086.133.133 0 0 1 .112.131v38.917a.136.136 0 0 1-.039.094.138.138 0 0 1-.094.04h.003Zm-13.838-.267h13.704V31.227l-13.704 38.021ZM39.877 104.112V82.731H12.048V69.04l23.87-56.563h20.365v56.904h8.824v13.35h-8.824v21.381H39.877Zm-14.026-34.73h14.026V30.463L25.851 69.381Z"/><path fill="#263238" d="M56.283 104.245H39.877a.136.136 0 0 1-.093-.039.138.138 0 0 1-.04-.094V82.864H12.048a.136.136 0 0 1-.133-.133V69.04a.172.172 0 0 1 0-.05l23.88-56.566a.135.135 0 0 1 .122-.08h20.366a.133.133 0 0 1 .133.133v56.771h8.69a.133.133 0 0 1 .134.133v13.35a.136.136 0 0 1-.133.133h-8.691v21.248a.136.136 0 0 1-.133.133Zm-16.267-.266h16.139V82.731a.133.133 0 0 1 .133-.134h8.69V69.515h-8.695a.133.133 0 0 1-.134-.134v-56.77H36L12.181 69.067v13.53h27.696a.134.134 0 0 1 .134.134l.005 21.248Zm-.133-34.464H25.85a.13.13 0 0 1-.11-.059.128.128 0 0 1-.016-.12l14.027-38.917a.136.136 0 0 1 .15-.086.13.13 0 0 1 .109.131v38.917a.133.133 0 0 1-.134.134h.006Zm-13.838-.267h13.688V31.227L26.045 69.248ZM97.912 105.693c-5.511 0-10.074-1.13-13.688-3.392a21.092 21.092 0 0 1-8.144-9.333c-1.812-3.961-2.717-8.543-2.717-13.747V38.155c0-5.355.867-10.05 2.602-14.086A20.32 20.32 0 0 1 84 14.627c3.621-2.265 8.26-3.397 13.915-3.395 5.582 0 10.164 1.132 13.746 3.395a20.433 20.433 0 0 1 7.976 9.445c1.734 4.036 2.6 8.73 2.6 14.085v41.067c0 5.205-.905 9.787-2.714 13.747a21.115 21.115 0 0 1-8.144 9.333c-3.623 2.259-8.112 3.389-13.467 3.389Zm0-15.384c2.037 0 3.508-.64 4.413-1.922a11.09 11.09 0 0 0 1.811-4.582c.286-1.625.437-3.272.451-4.922V38.496a36.097 36.097 0 0 0-.395-5.203 10.985 10.985 0 0 0-1.755-4.696c-.903-1.317-2.414-1.977-4.533-1.978-2.12-.002-3.643.657-4.57 1.978a10.554 10.554 0 0 0-1.811 4.696 36.04 36.04 0 0 0-.395 5.203v40.387c.012 1.65.164 3.297.453 4.922a10.2 10.2 0 0 0 1.923 4.582c.978 1.283 2.447 1.924 4.408 1.922Z"/><path fill="#263238" d="M97.912 105.827c-5.504 0-10.133-1.147-13.757-3.414a21.333 21.333 0 0 1-8.198-9.389c-1.808-3.96-2.728-8.603-2.728-13.803V38.155c0-5.35.88-10.107 2.614-14.134a20.552 20.552 0 0 1 8.085-9.506c3.624-2.264 8.33-3.414 13.984-3.414 5.581 0 10.229 1.15 13.816 3.416a20.63 20.63 0 0 1 8.027 9.504c1.736 4.035 2.613 8.8 2.613 14.134V79.22c0 5.2-.917 9.843-2.725 13.803a21.33 21.33 0 0 1-8.198 9.389c-3.624 2.267-8.178 3.414-13.533 3.414Zm0-94.462c-5.6 0-10.261 1.136-13.843 3.374a20.266 20.266 0 0 0-7.981 9.386c-1.72 4-2.592 8.718-2.592 14.032v41.067c0 5.163.91 9.768 2.704 13.69a21.065 21.065 0 0 0 8.096 9.275c3.581 2.24 8.163 3.374 13.616 3.374 5.307 0 9.811-1.134 13.392-3.374a21.064 21.064 0 0 0 8.096-9.274c1.792-3.923 2.701-8.534 2.701-13.691V38.157c0-5.309-.872-10.032-2.589-14.032a20.389 20.389 0 0 0-7.925-9.386c-3.544-2.238-8.144-3.374-13.675-3.374Zm0 79.078c-1.997 0-3.517-.664-4.517-1.976a10.418 10.418 0 0 1-1.95-4.64 29.664 29.664 0 0 1-.453-4.944V38.496c.006-1.749.139-3.495.397-5.224a10.71 10.71 0 0 1 1.835-4.739c.963-1.349 2.541-2.034 4.688-2.034s3.707.685 4.635 2.037a11.17 11.17 0 0 1 1.776 4.75c.257 1.729.39 3.475.397 5.223v40.374a29.91 29.91 0 0 1-.453 4.944 11.246 11.246 0 0 1-1.832 4.637c-.928 1.312-2.435 1.979-4.523 1.979Zm0-63.691c-2.056 0-3.56.645-4.472 1.923a10.444 10.444 0 0 0-1.787 4.637 36.01 36.01 0 0 0-.394 5.184v40.387a29.41 29.41 0 0 0 .45 4.898c.25 1.644.902 3.201 1.896 4.534.95 1.242 2.4 1.866 4.307 1.866 1.984 0 3.429-.629 4.304-1.866a10.934 10.934 0 0 0 1.787-4.534c.286-1.617.436-3.256.45-4.898V38.496a36.271 36.271 0 0 0-.394-5.184 10.916 10.916 0 0 0-1.731-4.64c-.875-1.275-2.36-1.92-4.416-1.92Z"/><path fill="#AAA" d="m73.373 58.344.992 14.27-6.186-2.889L66.61 76s13.28 7.421 14.6 7.176c1.32-.245-1.98-29.117-1.98-29.117l-5.858 4.285Z"/><path fill="#263238" d="M81.152 83.307c-1.68 0-13.267-6.448-14.605-7.2a.128.128 0 0 1-.064-.147l1.565-6.27a.132.132 0 0 1 .073-.088.133.133 0 0 1 .114 0l5.981 2.79-.973-14.043a.129.129 0 0 1 .053-.117l5.867-4.288a.134.134 0 0 1 .133-.016.138.138 0 0 1 .077.11c0 .071.832 7.3 1.486 14.466 1.333 14.616.669 14.741.386 14.795l-.093.008Zm-14.387-7.379c5.334 2.973 13.502 7.283 14.422 7.11.813-.59-.822-17.843-2.062-28.742L73.512 58.4l.987 14.195a.134.134 0 0 1-.059.12.138.138 0 0 1-.133 0l-6.04-2.8-1.502 6.013Z"/><path fill="#AAA" d="M82.29 92.765s7.123-2.448 9.907-4.784-11.8-30.61-11.8-30.61.224 25.936 1.894 35.394Z"/><path fill="#263238" d="M82.29 92.901a.157.157 0 0 1-.069-.018.133.133 0 0 1-.061-.094c-1.653-9.362-1.893-35.157-1.896-35.416a.134.134 0 0 1 .253-.061c.598 1.157 14.598 28.392 11.766 30.77-2.771 2.326-9.867 4.787-9.95 4.8a.12.12 0 0 1-.042.02Zm-1.757-34.968c.043 3.824.368 25.974 1.867 34.667 1.035-.365 7.2-2.6 9.715-4.712 2.165-1.832-7.387-21.77-11.582-29.955Z"/><path fill="#737373" d="m112.109 83.632-.824.123a.838.838 0 0 1 0 .122c-.064 1.067-5.786 3.878-9.829 5.403-.883.683-2.067 1.03-3.555 1.03h-.034c-3.118.3-9.112-1.067-10.467-2l-1.461 14.933c.234.117.474.226.717.336 3.166 1.402 6.915 2.105 11.248 2.106 5.003 0 9.248-.986 12.736-2.96l.075-.042c.221-.128.437-.267.653-.39.216-.122.509-.328.757-.498l.227-.158.517-.373.24-.184c.171-.131.339-.267.502-.397l.202-.166c.227-.189.451-.381.667-.581-.923-6.603-2.371-16.304-2.371-16.304Z"/><path fill="#263238" d="M97.912 105.827c-4.328 0-8.13-.712-11.304-2.118-.242-.11-.482-.222-.72-.336a.132.132 0 0 1-.061-.061.12.12 0 0 1-.014-.075l1.462-14.933a.13.13 0 0 1 .074-.11.133.133 0 0 1 .13 0c1.334.907 7.294 2.278 10.382 1.98h.043c1.456 0 2.624-.34 3.48-1.003l.035-.019c4.37-1.648 9.69-4.373 9.744-5.285a.769.769 0 0 0 0-.096.13.13 0 0 1 .025-.098.134.134 0 0 1 .087-.052l.824-.122a.135.135 0 0 1 .098.025c.029.02.048.052.054.087 0 .096 1.458 9.776 2.378 16.312a.13.13 0 0 1-.024.098l-.026.024c-.192.179-.414.368-.664.579l-.203.165c-.165.136-.333.267-.504.403l-.243.184c-.17.125-.344.251-.52.373l-.074.054-.152.106c-.28.19-.534.355-.766.502-.232.146-.434.266-.656.392l-.074.042c-3.504 1.982-7.808 2.982-12.811 2.982Zm-11.827-2.667c.208.099.419.197.632.291 3.139 1.392 6.904 2.096 11.2 2.096 4.955 0 9.216-.99 12.67-2.934l.074-.042a20.9 20.9 0 0 0 1.403-.88l.149-.104.075-.054c.173-.122.347-.245.515-.373l.24-.179c.168-.13.333-.266.498-.397l.2-.163c.227-.192.427-.365.611-.533a2370.983 2370.983 0 0 0-2.349-16.107l-.568.086v.016c-.075 1.266-6.579 4.266-9.896 5.512-.907.693-2.134 1.045-3.622 1.045h-.026c-3.104.296-8.715-.984-10.368-1.91l-1.438 14.63Z"/><path fill="#fff" d="M80.173 66.28s6.598 16.12 6.68 16.701c.083.582-.653 4.238.408 5.214 1.062.976 8.147 2.608 11.16 2.037 3.014-.57 12.8-4.97 12.875-6.355.075-1.384-9.696-28.434-10.917-31.693-1.222-3.259-6.192-4.4-9.534-4.075-3.341.326-11.405 2.446-12.872 4.483-1.466 2.037 2.2 13.688 2.2 13.688Z"/><path fill="#263238" d="M96.885 90.485c-3.437 0-8.754-1.304-9.714-2.192-.838-.773-.63-3.032-.504-4.381.04-.302.057-.607.053-.912-.072-.475-4.84-12.195-6.667-16.67-.152-.48-3.67-11.733-2.181-13.805 1.55-2.154 9.867-4.234 12.968-4.533 3.248-.317 8.397.763 9.669 4.157 1.051 2.798 11.014 30.296 10.934 31.75-.091 1.544-10.083 5.928-12.982 6.477a8.53 8.53 0 0 1-1.576.11ZM80.3 66.235c.685 1.677 6.605 16.157 6.685 16.728.01.325-.007.65-.05.973-.115 1.216-.323 3.467.418 4.163 1.067.984 8.117 2.557 11.045 2.002 3.304-.624 12.694-5.016 12.766-6.232.077-1.309-9.536-27.973-10.91-31.637-1.224-3.264-6.232-4.299-9.394-4-3.44.336-11.382 2.485-12.78 4.427-1.396 1.941 2.124 13.274 2.22 13.576Z"/><path fill="#fff" d="M80.741 51.288s-.8 7.413-.325 8.963c.475 1.549 2.712 5.805 2.712 5.805s3.733-4.667 4.459-5.155c.725-.488 7.496 3.83 7.496 3.83s.242-4.643-.734-8.472c-.976-3.83-2.69-7.987-3.258-8.72-.568-.734-.571 1.957-2.691 3.749s-7.659 0-7.659 0Z"/><path fill="#263238" d="M83.128 66.19a.14.14 0 0 1-.107-.073c-.09-.173-2.234-4.285-2.72-5.826-.485-1.542.286-8.715.32-9.02a.128.128 0 0 1 .115-.115.148.148 0 0 1 .059.004c.053.019 5.493 1.75 7.53.027 1.158-.98 1.664-2.22 1.998-3.038.218-.533.341-.832.565-.864a.37.37 0 0 1 .312.182c.613.8 2.33 5.032 3.283 8.765.97 3.805.741 8.467.738 8.515a.14.14 0 0 1-.138.13.133.133 0 0 1-.067-.018c-3.288-2.1-6.933-4.104-7.35-3.83-.573.36-3.149 3.504-4.434 5.104a.129.129 0 0 1-.104.056Zm-2.27-14.723c-.114 1.088-.749 7.368-.314 8.746.421 1.334 2.181 4.774 2.608 5.6.672-.837 3.688-4.573 4.36-5.021.73-.488 5.96 2.76 7.445 3.701.032-.981.102-4.917-.738-8.202-1.006-3.944-2.702-7.982-3.235-8.67-.05-.064-.077-.072-.077-.072a2.52 2.52 0 0 0-.347.702c-.325.8-.867 2.117-2.072 3.138-1.973 1.678-6.693.358-7.63.078Z"/><path fill="#fff" d="M80.141 52.579a28.868 28.868 0 0 0 3.078 5.453 26.84 26.84 0 0 0 5.013 5.19s2.288-5.894 2.904-9.411c.616-3.518-.44-7.038-.44-7.038s-.44 5.278-2.288 6.334c-1.848 1.056-8.267-.528-8.267-.528Z"/><path fill="#263238" d="M88.232 63.355a.144.144 0 0 1-.08-.027 27.181 27.181 0 0 1-5.043-5.219 29.313 29.313 0 0 1-3.093-5.482.133.133 0 0 1 .157-.176c.064.013 6.4 1.557 8.168.533 1.768-1.024 2.216-6.176 2.222-6.23a.13.13 0 0 1 .117-.12.133.133 0 0 1 .144.094c0 .035 1.067 3.59.443 7.096-.624 3.507-2.888 9.376-2.91 9.445a.132.132 0 0 1-.088.08l-.037.006Zm-7.867-10.587a30.323 30.323 0 0 0 2.963 5.187 26.704 26.704 0 0 0 4.845 5.05c.374-.986 2.283-6.082 2.83-9.218.442-2.518 0-5.067-.267-6.262-.197 1.51-.8 4.854-2.272 5.696-1.67.963-6.864-.154-8.099-.453Z"/><path fill="#263238" d="M84.97 53.403a37.468 37.468 0 0 1-4.829-.824 28.864 28.864 0 0 0 3.078 5.453c.205.288.416.565.632.84l3.637-4.205-2.517-1.264Z"/><path fill="#263238" d="M83.85 59.005a.143.143 0 0 1-.1-.05c-.251-.318-.454-.587-.638-.846a29.312 29.312 0 0 1-3.093-5.482.134.134 0 0 1 .157-.176c1.58.376 3.184.65 4.8.818a.128.128 0 0 1 .048.014l2.52 1.258a.137.137 0 0 1 .068.155.135.135 0 0 1-.028.053l-3.637 4.208a.141.141 0 0 1-.096.048Zm-3.485-6.237a30.132 30.132 0 0 0 2.963 5.187c.155.221.325.448.533.706l3.419-3.957-2.341-1.17a36.947 36.947 0 0 1-4.574-.766Z"/><path fill="#AAA" d="M90.696 46.773s2.667 10.707 3.653 18.774c.987 8.066 3.339 31.936 3.339 31.936s7.333-2.118 11.163-4.888c3.829-2.771 5.05-4.643 5.05-4.643s-6.272-27.467-6.272-27.864c0-.397.651-4.483.651-4.483s11.08-5.205 15.317-8.392c4.238-3.186 3.179-4.888 1.142-5.701-2.038-.813-8.392.08-11.896 1.067-3.504.986-5.296 1.629-5.296 1.629s-3.91-.325-7.496.488c-3.587.813-9.355 2.077-9.355 2.077Z"/><path fill="#263238" d="M97.688 97.616a.151.151 0 0 1-.075-.021.137.137 0 0 1-.056-.099c-.024-.237-2.376-23.963-3.341-31.933-.965-7.971-3.624-18.651-3.65-18.758a.136.136 0 0 1 .1-.162c.06 0 5.814-1.28 9.355-2.086 3.403-.77 7.139-.533 7.507-.493.24-.085 2.043-.72 5.28-1.621 3.509-.982 9.923-1.867 11.979-1.067 1.112.445 1.752 1.083 1.853 1.848.149 1.125-.848 2.501-2.963 4.085-4.032 3.024-14.362 7.944-15.277 8.376-.227 1.424-.637 4.083-.637 4.392.034.464 4.117 18.4 6.269 27.835a.134.134 0 0 1 .002.053.142.142 0 0 1-.021.048c-.05.078-1.277 1.926-5.085 4.68-3.808 2.755-11.128 4.886-11.2 4.907a.085.085 0 0 1-.04.016Zm-6.832-50.741c.312 1.258 2.717 11.157 3.624 18.666.925 7.619 3.12 29.659 3.325 31.768 1.067-.322 7.507-2.317 10.968-4.821 3.462-2.504 4.771-4.267 4.987-4.565-.704-3.072-6.264-27.427-6.264-27.835 0-.408.627-4.336.653-4.504a.128.128 0 0 1 .075-.099c.109-.053 11.117-5.245 15.293-8.378 2.032-1.523 2.992-2.814 2.859-3.838-.091-.672-.656-1.221-1.688-1.634-2.005-.8-8.333.093-11.808 1.066-3.475.974-5.269 1.619-5.288 1.627a.188.188 0 0 1-.056 0c-.037 0-3.933-.315-7.467.485-3.232.742-8.336 1.867-9.213 2.062Z"/><path fill="#fff" d="m96.323 74.165-.427 1.32.427-1.32Z"/><path fill="#263238" d="M95.896 75.619h-.04a.13.13 0 0 1-.085-.168c.154-.478.296-.915.424-1.32a.14.14 0 0 1 .221-.068.14.14 0 0 1 .045.148c-.13.408-.266.842-.426 1.333a.133.133 0 0 1-.139.075ZM96.661 73.205h-.037a.134.134 0 0 1-.088-.165c.558-1.84.954-3.724 1.184-5.632.533-3.808.923-9.752.97-10.504l-1.183-.755a.135.135 0 0 1-.064-.084.133.133 0 0 1 .208-.14l1.25.8a.14.14 0 0 1 .062.123c0 .064-.42 6.541-.98 10.6a32.972 32.972 0 0 1-1.183 5.664.133.133 0 0 1-.139.093ZM96.904 55.733a.126.126 0 0 1-.072-.021l-.763-.485a.134.134 0 0 1-.045-.176c.485-.904 1.205-2.374 1.205-2.707 0-.08-.144-.605-1.981-3.981a.134.134 0 0 1 .053-.182.135.135 0 0 1 .102-.01.132.132 0 0 1 .08.064c2.013 3.701 2.013 4 2.013 4.109 0 .461-.917 2.227-1.179 2.725l.659.419a.133.133 0 0 1 .04.184.128.128 0 0 1-.112.061Z"/><path fill="#fff" d="m94.592 46.896.333.6-.333-.6Z"/><path fill="#263238" d="M94.933 47.63a.134.134 0 0 1-.117-.067c-.203-.371-.333-.603-.333-.603a.136.136 0 0 1 .05-.181.134.134 0 0 1 .148.013.132.132 0 0 1 .034.04s.13.232.333.6a.131.131 0 0 1-.115.197ZM101.517 88.736a.133.133 0 0 1-.128-.096l-.57-1.955a.128.128 0 0 1 .009-.097.13.13 0 0 1 .073-.065s.654-.246 4.48-1.71a19.706 19.706 0 0 0 4.136-2.133.14.14 0 0 1 .102-.027.14.14 0 0 1 .051.02c.015.009.028.021.039.036.01.015.017.032.021.05a.13.13 0 0 1-.022.103.122.122 0 0 1-.039.037 20.258 20.258 0 0 1-4.192 2.168c-3.008 1.152-4.056 1.549-4.368 1.666l.504 1.72c.904-.184 6.776-1.485 9.582-4.658a.13.13 0 0 1 .094-.04.13.13 0 0 1 .095.04.135.135 0 0 1 .038.093.135.135 0 0 1-.038.093c-3.091 3.499-9.784 4.758-9.867 4.768v-.013Z"/><path fill="#fff" d="M110.968 81.677a6.107 6.107 0 0 1-.547.488l.547-.488Z"/><path fill="#263238" d="M110.421 82.299a.13.13 0 0 1-.126-.095.133.133 0 0 1-.005-.052.128.128 0 0 1 .049-.09c.186-.149.364-.307.533-.475a.133.133 0 0 1 .231.088.135.135 0 0 1-.036.096 7.314 7.314 0 0 1-.56.498.147.147 0 0 1-.086.03ZM108.28 55.733a.12.12 0 0 1-.059-.013.132.132 0 0 1-.066-.163l1.461-4.325a.136.136 0 0 1 .065-.088.128.128 0 0 1 .053-.017.128.128 0 0 1 .055.006.126.126 0 0 1 .048.03.127.127 0 0 1 .032.045.13.13 0 0 1-.002.11l-1.136 3.367 2.861-4.285a.13.13 0 0 1 .184-.037.13.13 0 0 1 .037.184l-3.421 5.133a.133.133 0 0 1-.05.04.136.136 0 0 1-.062.013ZM110.061 50.467a.114.114 0 0 1-.042 0 .133.133 0 0 1-.083-.168l.336-1a.139.139 0 0 1 .176-.091.141.141 0 0 1 .082.07c.017.032.02.07.009.106l-.339 1a.135.135 0 0 1-.139.083Z"/><path fill="#AAA" d="M80.741 51.288s.816 14.83 1.712 22.08c.896 7.25 2.363 25.176 2.363 25.176s-2.85-.245-4.725-2.528a26.092 26.092 0 0 1-2.771-4V75.893c0-.653-1.304-8.066-2.525-11.733-1.222-3.667-3.014-7.901-1.955-9.696 1.059-1.795 4.4-4.48 5.621-4.8 1.222-.32 2.2-.005 2.28 1.624Z"/><path fill="#263238" d="M84.816 98.667c-.12 0-2.933-.267-4.819-2.574a26.45 26.45 0 0 1-2.784-4.013.141.141 0 0 1-.016-.064V75.893c0-.682-1.333-8.109-2.517-11.69-.192-.574-.397-1.16-.603-1.752-1.114-3.2-2.266-6.488-1.333-8.054 1.067-1.802 4.408-4.533 5.701-4.866.752-.203 1.334-.147 1.771.16.437.306.64.834.677 1.6 0 .149.827 14.906 1.712 22.072.886 7.165 2.347 25 2.363 25.178a.13.13 0 0 1-.04.107.135.135 0 0 1-.112.019ZM77.453 92a26.731 26.731 0 0 0 2.742 3.941c1.565 1.904 3.858 2.366 4.474 2.456-.149-1.821-1.509-18.208-2.349-25.005-.885-7.173-1.701-21.941-1.712-22.088-.032-.67-.224-1.136-.568-1.387-.344-.25-.875-.298-1.544-.12-1.13.302-4.464 2.934-5.541 4.747-.862 1.459.266 4.699 1.362 7.83.206.591.414 1.18.603 1.754 1.203 3.603 2.533 11.085 2.533 11.776V92Z"/><path fill="#fff" d="M80.285 69.912c.462 1.437.907 2.717 1.272 3.536l-1.272-3.536Z"/><path fill="#263238" d="M81.557 73.581a.136.136 0 0 1-.122-.077c-.334-.752-.763-1.95-1.278-3.552a.135.135 0 0 1 .14-.174.132.132 0 0 1 .114.091c.512 1.6.938 2.782 1.269 3.526a.136.136 0 0 1-.07.176.12.12 0 0 1-.053.01ZM79.97 69.043a.133.133 0 0 1-.127-.094c-1.067-3.45-2.16-7.536-2.326-8.266-.226-.984 1-2.667 1.334-3.11-.307-.266-1.264-1.112-1.542-1.39-.074-.074-.186-.188.062-2.095a.133.133 0 0 1 .236-.063.136.136 0 0 1 .028.098c-.206 1.57-.147 1.84-.126 1.885.31.307 1.6 1.437 1.614 1.448a.133.133 0 0 1 .016.184c-.016.019-1.587 1.997-1.36 2.981.168.723 1.256 4.8 2.322 8.246a.133.133 0 0 1-.088.165.104.104 0 0 1-.042.01Z"/><path fill="#fff" d="M78.379 48.68s-.43 2.336-.734 4.387l.734-4.387Z"/><path fill="#263238" d="M77.645 53.2h-.018a.136.136 0 0 1-.112-.152c.3-2.03.73-4.368.733-4.392a.133.133 0 0 1 .24-.051c.021.028.03.064.024.099 0 .024-.435 2.357-.733 4.384a.136.136 0 0 1-.134.112ZM79.33 86.48a.143.143 0 0 1-.055-.013l-1.44-.678a.134.134 0 0 1 .017-.236.133.133 0 0 1 .095-.004l1.442.678a.133.133 0 0 1 .064.176.139.139 0 0 1-.122.077ZM81.883 87.677a.142.142 0 0 1-.056-.013L80 86.808a.133.133 0 0 1-.064-.179.133.133 0 0 1 .074-.069.13.13 0 0 1 .102.005l1.637.768V85.2l-3.909-1.6a.134.134 0 0 1-.073-.175.134.134 0 0 1 .174-.073l4 1.63a.133.133 0 0 1 .083.122v2.445a.133.133 0 0 1-.061.112.141.141 0 0 1-.08.016Z"/><path fill="#fff" d="m74.667 41.485 1.392 3.411s-1.811-1.88-2.23-.208c-.418 1.672.838 3.621 1.672 3.621.835 0 1.811.07 1.811.07s2.933 5.152 4.733 6.133c1.8.981 4.248 1.81 5.782.973 1.533-.837 2.368-3.133 2.853-4.874.485-1.742.141-6.963.141-6.963l-2.517-10.315s1.739-.626 1.739-1.81c0-1.184-4.038-1.531-4.038-1.531s1.6-1.867-.418-2.16c-2.019-.293-8.566 3.621-8.774 3.76-.208.139 1.115-2.437-.557-1.53-1.672.906-3.621 5.36-3.41 6.4.21 1.04 1.82 5.023 1.82 5.023Z"/><path fill="#263238" d="M86.307 55.957c-1.638 0-3.467-.866-4.334-1.333-1.736-.936-4.397-5.499-4.752-6.117a29.368 29.368 0 0 0-1.73-.064c-.331 0-.72-.267-1.067-.699-.568-.728-1.016-1.965-.733-3.088.106-.43.314-.688.613-.768.456-.12 1.021.224 1.403.533l-1.176-2.877c-.064-.163-1.6-4-1.816-5.037-.216-1.038 1.706-5.6 3.466-6.55.427-.232.72-.266.899-.12.293.243.128.843-.085 1.486v.016c1.266-.752 6.738-3.894 8.605-3.632.581.08.944.298 1.08.65.203.534-.197 1.203-.43 1.528.94.102 3.92.51 3.92 1.643 0 1.093-1.314 1.725-1.717 1.89l2.48 10.193c.019.237.347 5.288-.141 7.032-.747 2.666-1.701 4.29-2.917 4.954a3.268 3.268 0 0 1-1.568.36Zm-11.8-11.829a.45.45 0 0 0-.134.019c-.2.053-.341.245-.424.573-.266 1.037.158 2.184.686 2.859.29.373.61.597.856.597.832 0 1.81.07 1.821.07a.134.134 0 0 1 .104.066c.03.05 2.933 5.13 4.683 6.077 1.125.606 3.93 1.915 5.653.974 1.15-.627 2.061-2.195 2.79-4.8.477-1.699.138-6.867.135-6.918l-2.504-10.282a.133.133 0 0 1 .086-.158c.016 0 1.65-.61 1.65-1.685 0-.773-2.4-1.27-3.914-1.4a.134.134 0 0 1-.091-.219c.208-.245.712-.986.533-1.458-.096-.267-.386-.416-.866-.48-1.899-.267-8.184 3.405-8.68 3.733a.168.168 0 0 1-.174 0c-.096-.072-.066-.157.038-.475.104-.317.346-1.05.168-1.2-.03-.024-.16-.088-.6.152-1.627.88-3.531 5.334-3.344 6.262.202 1.021 1.786 4.949 1.802 4.989l1.392 3.41a.133.133 0 0 1-.218.145c-.251-.246-.947-.851-1.448-.851Z"/><path fill="#737373" d="M86.005 29.997s1.6-1.866-.418-2.16c-2.019-.293-8.566 3.622-8.774 3.76-.208.139 1.115-2.437-.557-1.53-1.672.906-3.621 5.36-3.41 6.4.21 1.04 1.81 5.013 1.81 5.013l1.392 3.41s1.6 1.465 1.045.35c-.554-1.115-1.672-3.621-1.394-3.968.277-.347 1.672-.907 1.741-1.672.07-.765-1.333-2.995-.904-3.552.43-.557 6.336.488 7.381-.139 1.046-.626-.28-2.157-.28-2.157l4.667-.419s1.739-.626 1.739-1.81c0-1.184-4.038-1.526-4.038-1.526Z"/><path fill="#263238" d="M77.15 45.797c-.145 0-.457-.13-1.193-.8a.117.117 0 0 1-.032-.048l-1.394-3.41c-.064-.163-1.6-4-1.816-5.038-.216-1.037 1.706-5.6 3.466-6.549.427-.232.72-.267.899-.12.293.243.128.843-.085 1.485v.016c1.266-.746 6.738-3.888 8.605-3.626.581.08.944.298 1.08.65.203.534-.197 1.203-.43 1.528.94.102 3.92.51 3.92 1.643 0 1.264-1.754 1.91-1.829 1.936h-.032l-4.416.403c.232.32.635.962.534 1.52a.892.892 0 0 1-.454.642c-.581.35-2.432.222-4.221.099-1.25-.085-2.965-.203-3.12 0-.192.267.165 1.141.453 1.853.267.651.51 1.267.478 1.63-.054.581-.723 1.016-1.262 1.365a2.763 2.763 0 0 0-.509.379c-.152.221.517 2.045 1.408 3.826.117.23.203.459.053.571a.167.167 0 0 1-.104.045Zm-.99-.978c.275.259.576.488.899.685a1.594 1.594 0 0 0-.086-.2c-.074-.147-1.789-3.595-1.378-4.112.171-.17.364-.315.573-.435.464-.298 1.099-.712 1.139-1.165.029-.299-.219-.912-.459-1.507-.36-.893-.701-1.736-.419-2.112.232-.309 1.366-.245 3.352-.112 1.667.115 3.558.246 4.067-.061a.628.628 0 0 0 .328-.456c.101-.635-.632-1.493-.64-1.501a.134.134 0 0 1 .09-.219l4.64-.416c.169-.064 1.638-.661 1.638-1.68 0-.773-2.4-1.27-3.915-1.4a.134.134 0 0 1-.09-.219c.208-.245.712-.986.533-1.458-.096-.267-.387-.416-.867-.48-1.898-.267-8.184 3.405-8.68 3.733a.167.167 0 0 1-.173 0c-.096-.072-.067-.157.037-.475.104-.317.347-1.05.168-1.2-.029-.024-.16-.088-.6.152-1.626.88-3.53 5.334-3.344 6.262.203 1.021 1.787 4.949 1.803 4.989l1.384 3.387Z"/><path fill="#fff" d="M86.91 47.2s-.627 1.184-1.6 1.253l1.6-1.253Z"/><path fill="#263238" d="M85.31 48.581a.133.133 0 1 1 0-.266c.887-.064 1.487-1.171 1.493-1.182a.132.132 0 0 1 .132-.085.134.134 0 0 1 .102.208c-.026.053-.672 1.25-1.709 1.333l-.019-.008ZM82.592 44c.195.419.112.87-.184 1.008-.296.139-.693-.09-.888-.51-.195-.418-.112-.869.184-1.007.296-.139.696.082.888.509ZM87.688 43.807c.323-.051.526-.462.454-.917-.073-.455-.393-.783-.716-.731-.323.051-.526.462-.454.917.073.456.393.783.716.731Z"/><path fill="#fff" d="M85.31 51.093a3.81 3.81 0 0 0 2.018-.626l-2.019.626Z"/><path fill="#263238" d="M85.31 51.227a.133.133 0 0 1 0-.267 3.701 3.701 0 0 0 1.938-.6.136.136 0 0 1 .187.027.133.133 0 0 1-.027.186 3.912 3.912 0 0 1-2.099.654ZM79.112 43.352a.267.267 0 0 1-.155-.048.267.267 0 0 1-.064-.37c.046-.065 1.12-1.545 3.92-.66a.267.267 0 0 1 .042.493.269.269 0 0 1-.204.017c-2.4-.76-3.286.408-3.323.456a.266.266 0 0 1-.216.112ZM86.133 42.03a.244.244 0 0 1-.077 0 .268.268 0 0 1-.189-.23.268.268 0 0 1 .01-.104 2.901 2.901 0 0 1 2.603-1.928.268.268 0 0 1 .04.533 2.368 2.368 0 0 0-2.133 1.555.267.267 0 0 1-.254.173Z"/><path fill="#fff" d="M90.043 40.37s.488-1.114 1.045-.418c.557.696.765 2.09.419 2.995-.347.904-.558 1.672-.558 1.672l-.138-.976-.768-3.272Z"/><path fill="#263238" d="M90.95 44.752a.138.138 0 0 1-.126-.115l-.139-.976-.762-3.261a.112.112 0 0 1 0-.083c.029-.066.301-.666.722-.722a.6.6 0 0 1 .547.266c.6.752.8 2.182.437 3.126-.341.888-.549 1.65-.552 1.658a.134.134 0 0 1-.128.107Zm-.766-4.365.755 3.226.056.39c.096-.299.226-.688.386-1.104.328-.851.142-2.19-.397-2.862-.104-.13-.208-.192-.304-.178-.213.029-.419.365-.496.528Z"/><path fill="#fff" d="M102.856 34.933s-7.656-1.386-8.147-1.386c-.49 0-6.197 1.045-7.032 1.392-.834.346-7.173 2.16-7.034 2.578.138.419.906.555.906.555s.139.627 2.368.907c2.23.28 7.448-.419 7.52.069a1.214 1.214 0 0 1-.35.904l.628 1.115s2.298-.347 3.064-.904c.765-.558 2.933-2.299 2.933-2.299l4.664.35.48-3.28Z"/><path fill="#263238" d="M91.715 41.2a.132.132 0 0 1-.118-.067l-.626-1.114a.133.133 0 0 1 .024-.16c.2-.207.311-.483.312-.771-.224-.15-1.814-.07-3.094 0-1.525.075-3.253.16-4.314.027-1.867-.232-2.326-.715-2.443-.92-.213-.048-.8-.216-.939-.632a.178.178 0 0 1 .014-.144c.168-.331 1.81-.899 5.205-1.974.883-.28 1.645-.533 1.888-.624.832-.346 6.57-1.402 7.085-1.402.515 0 7.856 1.333 8.171 1.394a.134.134 0 0 1 .107.152l-.488 3.272a.13.13 0 0 1-.049.085.13.13 0 0 1-.093.027l-4.61-.344c-.304.246-2.19 1.76-2.891 2.27-.781.57-3.027.914-3.123.93l-.018-.005Zm-.464-1.23.533.95c.432-.07 2.27-.395 2.915-.867.754-.533 2.898-2.274 2.92-2.293a.136.136 0 0 1 .093-.03l4.533.34.451-3.022c-2.667-.485-7.624-1.368-8-1.368-.507 0-6.163 1.043-6.981 1.384-.267.104-.987.336-1.912.63-1.654.533-4.704 1.49-5.03 1.818.126.267.603.397.787.43a.142.142 0 0 1 .107.103s.205.534 2.253.8c1.037.131 2.752.046 4.267-.029 2.504-.125 3.317-.136 3.368.213a1.27 1.27 0 0 1-.304.942Z"/><path fill="#fff" d="M85.867 35.915s-3.134 1.333-3.622 1.6c-.488.266.904.834 1.742.696.837-.139 4.037-1.395 4.533-1.534.496-.138 2.715.419 4.317.627a5.334 5.334 0 0 0 2.995-.416"/><path fill="#263238" d="M83.707 38.368c-.688 0-1.566-.31-1.68-.63a.267.267 0 0 1 .152-.338c.488-.28 3.506-1.555 3.634-1.6a.132.132 0 0 1 .103 0 .134.134 0 0 1 .073.072.136.136 0 0 1-.072.173c-.032.014-3.13 1.334-3.605 1.6a.126.126 0 0 0-.037.027c.04.152.989.533 1.688.421.552-.09 2.226-.704 3.333-1.109a32.18 32.18 0 0 1 1.179-.419c.314-.088 1.114.051 2.4.288.672.126 1.365.267 1.976.336.99.15 2.004.01 2.917-.405a.134.134 0 0 1 .161.206.13.13 0 0 1-.041.031 5.467 5.467 0 0 1-3.088.419c-.616-.08-1.315-.21-1.992-.336-.984-.184-2-.373-2.27-.296-.154.045-.6.208-1.16.413-1.183.432-2.805 1.027-3.38 1.123a1.792 1.792 0 0 1-.291.024Z"/><path fill="#AAA" d="M121.723 46.075c-1.771.39-3.606.39-5.376 0-2.934-.654-10.667-4.483-10.667-4.483l-5.296-1.547 1.216-6.178s13.363 1.629 17.109 3.013c3.747 1.384 9.206 4.563 9.043 5.704-.163 1.141-3.176 3.584-3.176 3.584"/><path fill="#263238" d="M119.035 46.493a12.546 12.546 0 0 1-2.718-.29c-2.914-.648-10.386-4.334-10.704-4.491l-5.272-1.539a.138.138 0 0 1-.076-.06c-.017-.028-.023-.062-.017-.094l1.221-6.192a.137.137 0 0 1 .053-.082.133.133 0 0 1 .094-.025c.133.016 13.421 1.648 17.139 3.021 3.653 1.35 9.312 4.574 9.13 5.848-.168 1.179-3.101 3.568-3.226 3.67a.138.138 0 0 1-.098.029.128.128 0 0 1-.05-.016.137.137 0 0 1-.065-.08.143.143 0 0 1 .011-.102.138.138 0 0 1 .034-.04c.826-.669 3.002-2.605 3.13-3.498.134-.939-4.89-4.056-8.957-5.56-3.501-1.293-15.6-2.824-16.957-2.992l-1.174 5.95 5.179 1.514c.099.048 7.779 3.837 10.667 4.48a12.46 12.46 0 0 0 5.314 0 .137.137 0 0 1 .167.1.14.14 0 0 1-.015.104.14.14 0 0 1-.085.063c-.895.198-1.809.293-2.725.282ZM83.035 76.95c-3.619 0-7.131-3.969-7.304-4.169a.133.133 0 0 1 .05-.226.132.132 0 0 1 .15.053c.048.053 4.885 5.52 8.882 3.693 3.998-1.826 6.083-13.773 6.104-13.893a.137.137 0 0 1 .155-.11.136.136 0 0 1 .11.155c-.086.496-2.105 12.195-6.257 14.091a4.484 4.484 0 0 1-1.89.405Z"/><path fill="#263238" d="M77.752 73.01c-4.824 0-8.424-4.423-8.461-4.471a.133.133 0 0 1 .168-.2.13.13 0 0 1 .04.034c.04.048 3.898 4.8 8.925 4.342 5.139-.46 6.768-6.552 6.72-9.262a.136.136 0 0 1 .13-.136.141.141 0 0 1 .137.13c.048 2.79-1.638 9.068-6.963 9.534-.235.022-.467.03-.696.03Z"/><path fill="#7D7D7D" d="m71.64 65.419-1.638-.55-2.58 7.679 1.638.55 2.58-7.68Z"/><path fill="#263238" d="M69.067 73.232a.118.118 0 0 1-.043 0l-1.637-.55a.127.127 0 0 1-.078-.066.14.14 0 0 1 0-.104l2.558-7.685a.136.136 0 0 1 .168-.086l1.637.552a.127.127 0 0 1 .077.067.134.134 0 0 1 0 .101l-2.581 7.68a.136.136 0 0 1-.101.091Zm-1.47-.768 1.384.464 2.486-7.427-1.384-.464-2.486 7.427Z"/><path fill="#263238" d="m72.374 64.723-2.54-.854-.38 1.13 2.54.854.38-1.13Z"/><path fill="#263238" d="M72 65.987h-.043l-2.541-.854a.131.131 0 0 1-.083-.066.133.133 0 0 1 0-.102l.379-1.13a.136.136 0 0 1 .155-.102l2.538.854a.128.128 0 0 1 .078.066.134.134 0 0 1 0 .102l-.379 1.13a.133.133 0 0 1-.104.102Zm-2.37-1.067 2.287.768.294-.875-2.288-.77-.294.877Z"/><path fill="#7D7D7D" d="m75.255 66.632-1.638-.55-2.58 7.679 1.638.55 2.58-7.68Z"/><path fill="#263238" d="M72.672 74.445a.118.118 0 0 1-.043 0l-1.637-.549a.127.127 0 0 1-.077-.067.122.122 0 0 1 0-.101l2.578-7.68a.127.127 0 0 1 .067-.077.123.123 0 0 1 .101 0l1.638.549a.13.13 0 0 1 .085.168L72.8 74.355a.13.13 0 0 1-.128.09Zm-1.472-.768 1.387.467 2.493-7.427-1.384-.466-2.496 7.426Z"/><path fill="#263238" d="m75.986 65.936-2.54-.854-.38 1.13 2.54.853.38-1.13Z"/><path fill="#263238" d="M75.608 67.2h-.043l-2.538-.853a.13.13 0 0 1-.078-.067.134.134 0 0 1 0-.101l.384-1.139a.147.147 0 0 1 .07-.075.134.134 0 0 1 .101 0l2.541.854a.128.128 0 0 1 .075.066.134.134 0 0 1 0 .102l-.387 1.122a.133.133 0 0 1-.125.091Zm-2.37-1.067 2.287.771.294-.877-2.288-.768-.294.874ZM74.695 68.691l-5.32-1.792-1.982 5.885 5.32 1.792 1.982-5.885Z"/><path fill="#263238" d="M72.672 74.445a.117.117 0 0 1-.043 0l-5.306-1.781a.147.147 0 0 1-.078-.067.14.14 0 0 1 0-.104l1.974-5.866a.136.136 0 0 1 .066-.078.134.134 0 0 1 .102 0l5.309 1.782a.136.136 0 0 1 .083.17l-1.974 5.867a.131.131 0 0 1-.133.077Zm-5.139-2 5.067 1.699 1.877-5.61-5.066-1.7-1.878 5.611Z"/><path fill="#7D7D7D" d="m67.819 76.45-4.952-1.663 2.624-4.334 2.85.958-.522 5.04Z"/><path fill="#263238" d="M67.819 76.584h-.043l-4.952-1.664a.135.135 0 0 1-.083-.08.134.134 0 0 1 0-.115l2.627-4.336a.13.13 0 0 1 .155-.056l2.85.958a.133.133 0 0 1 .091.141l-.533 5.037a.131.131 0 0 1-.062.099.117.117 0 0 1-.05.016Zm-4.752-1.867 4.637 1.55.496-4.768-2.648-.891-2.485 4.11Z"/><path fill="#636363" d="m67.819 76.452-4.952-1.664-1.766 5.255 4.952 1.664 1.766-5.255Z"/><path fill="#263238" d="M66.053 81.84a.11.11 0 0 1-.042 0l-4.944-1.672a.133.133 0 0 1-.083-.168l1.765-5.256a.132.132 0 0 1 .067-.075.134.134 0 0 1 .101 0l4.952 1.664a.133.133 0 0 1 .083.168l-1.765 5.256a.123.123 0 0 1-.067.075.116.116 0 0 1-.067.008Zm-4.784-1.883 4.699 1.579 1.683-5.003-4.699-1.578-1.683 5.002Z"/><path fill="#636363" d="m70.788 66.452-4.252-1.428-1.766 5.255 4.252 1.428 1.766-5.255Z"/><path fill="#263238" d="M69.024 71.84h-.043l-4.266-1.43a.137.137 0 0 1-.078-.066.134.134 0 0 1 0-.101L66.4 64.98a.133.133 0 0 1 .168-.082l4.25 1.426c.034.013.061.036.078.067a.142.142 0 0 1 0 .104l-1.765 5.253a.134.134 0 0 1-.107.091Zm-4.083-1.645 4 1.333 1.68-5.003-4-1.333-1.68 5.003Z"/><path fill="#7D7D7D" d="m75.045 78.88-4.952-1.664 2.627-4.333 2.85.957-.525 5.04Z"/><path fill="#263238" d="M75.045 79.013a.118.118 0 0 1-.042 0l-4.952-1.68a.137.137 0 0 1-.083-.08.133.133 0 0 1 .013-.114l2.624-4.334a.136.136 0 0 1 .158-.058l2.85.96a.128.128 0 0 1 .088.138l-.533 5.04a.135.135 0 0 1-.061.099.133.133 0 0 1-.062.03Zm-4.752-1.866 4.64 1.552.496-4.766-2.648-.89-2.488 4.104Z"/><path fill="#636363" d="m75.047 78.88-4.951-1.664-1.766 5.256 4.952 1.663 1.766-5.255Z"/><path fill="#263238" d="M73.28 84.267h-.043l-4.952-1.664a.133.133 0 0 1-.082-.168l1.765-5.256a.128.128 0 0 1 .067-.078.123.123 0 0 1 .101 0l4.952 1.662a.138.138 0 0 1 .085.17l-1.765 5.254a.14.14 0 0 1-.07.077.111.111 0 0 1-.058.003ZM68.499 82.4l4.698 1.579 1.68-5.003-4.698-1.579-1.68 5.003Z"/><path fill="#636363" d="m78.017 68.879-4.252-1.429L72 72.705l4.251 1.429 1.766-5.255Z"/><path fill="#263238" d="M76.25 74.27a.118.118 0 0 1-.042 0l-4.25-1.43a.128.128 0 0 1-.078-.067.134.134 0 0 1 0-.101l1.765-5.253a.134.134 0 0 1 .168-.086l4.267 1.43a.136.136 0 0 1 .077.066.133.133 0 0 1 0 .102l-1.765 5.256a.13.13 0 0 1-.141.082Zm-4.082-1.646 4 1.333 1.683-5-4-1.333-1.683 5Z"/><path fill="#fff" d="M64.853 64.675s-.576.949-.405 1.22c.17.273 1.832 1.188 2.07 1.257.237.07.882-.267.847-.715-.034-.448-1.333-1.39-1.73-1.626-.398-.238-.611-.278-.782-.136Z"/><path fill="#263238" d="M66.587 67.293a.476.476 0 0 1-.107 0c-.267-.072-1.952-1.002-2.147-1.314-.194-.312.267-1.123.408-1.36a.126.126 0 0 1 .03-.035c.266-.203.533-.104.93.123.219.128 1.755 1.16 1.798 1.736a.732.732 0 0 1-.312.613c-.171.14-.38.222-.6.237Zm-1.632-2.528c-.267.462-.462.955-.395 1.067.144.232 1.757 1.13 1.995 1.2a.715.715 0 0 0 .464-.187.503.503 0 0 0 .213-.389c-.024-.328-1.123-1.208-1.664-1.523-.405-.245-.53-.226-.613-.168Z"/><path fill="#fff" d="M63.941 66.552s-.28 1.067-.037 1.288c.243.221 2.096.608 2.344.603.248-.006.765-.515.605-.926-.16-.41-1.669-.952-2.133-1.066-.464-.115-.656-.078-.779.1Z"/><path fill="#263238" d="M66.245 68.576c-.266 0-2.154-.395-2.429-.637-.275-.243-.075-1.15 0-1.422a.289.289 0 0 1 .019-.042c.184-.267.49-.254.928-.15.245.059 2.013.606 2.221 1.144a.73.73 0 0 1-.12.678.915.915 0 0 1-.608.429h-.01Zm-2.181-1.965c-.133.533-.168 1.045-.072 1.128.203.178 2.008.58 2.253.57a.699.699 0 0 0 .392-.312.496.496 0 0 0 .094-.432c-.12-.31-1.427-.834-2.035-.978-.456-.11-.57-.056-.632.024Z"/><path fill="#fff" d="M63.432 68.419s-.28 1.066-.037 1.288c.242.221 2.096.608 2.344.602.248-.005.765-.514.605-.925-.16-.41-1.667-.952-2.133-1.067-.467-.114-.656-.077-.78.102Z"/><path fill="#263238" d="M65.736 70.443c-.267 0-2.155-.395-2.43-.638-.274-.242-.074-1.149 0-1.421a.16.16 0 0 1 .022-.043c.181-.266.488-.253.925-.149.246.059 2.014.605 2.222 1.144a.727.727 0 0 1-.12.677.913.913 0 0 1-.608.43h-.011Zm-2.181-1.966c-.134.534-.168 1.046-.072 1.128.202.179 1.992.571 2.25.571a.69.69 0 0 0 .4-.31.496.496 0 0 0 .094-.431c-.12-.31-1.427-.835-2.035-.979-.459-.112-.576-.059-.637.021Z"/><path fill="#fff" d="M63.67 70.216s-.267 1.067-.038 1.288c.23.221 2.096.608 2.344.605.248-.002.765-.514.608-.928-.157-.413-1.67-.95-2.133-1.066-.464-.118-.659-.078-.782.1Z"/><path fill="#263238" d="M65.973 72.243c-.266 0-2.154-.398-2.429-.638-.275-.24-.075-1.149 0-1.421a.128.128 0 0 1 .021-.043c.182-.266.488-.253.926-.149.245.059 2.013.603 2.221 1.141a.732.732 0 0 1-.12.68.916.916 0 0 1-.608.43h-.01Zm-2.181-1.968c-.133.533-.165 1.048-.072 1.13.203.176 1.995.571 2.25.571a.691.691 0 0 0 .393-.312.502.502 0 0 0 .093-.435c-.12-.306-1.427-.832-2.035-.978-.453-.118-.568-.056-.629.024Z"/></svg>