<svg width="26" height="26" viewBox="0 0 26 26" fill="none" xmlns="http://www.w3.org/2000/svg">
<path opacity="0.6" d="M11.7349 3.53027H3.38553C2.75285 3.53027 2.14608 3.78161 1.69871 4.22898C1.25133 4.67635 1 5.28312 1 5.9158V22.6145C1 23.2472 1.25133 23.854 1.69871 24.3013C2.14608 24.7487 2.75285 25.0001 3.38553 25.0001H20.0842C20.7169 25.0001 21.3237 24.7487 21.7711 24.3013C22.2184 23.854 22.4698 23.2472 22.4698 22.6145V14.2652" stroke="#DE8E28" stroke-width="2" stroke-linecap="round" stroke-linejoin="round"/>
<path d="M20.6803 1.74109C21.1548 1.26658 21.7984 1 22.4694 1C23.1405 1 23.7841 1.26658 24.2586 1.74109C24.7331 2.2156 24.9997 2.85918 24.9997 3.53024C24.9997 4.2013 24.7331 4.84487 24.2586 5.31939L12.9273 16.6507L8.15625 17.8434L9.34902 13.0724L20.6803 1.74109Z" stroke="#DE8E28" stroke-width="2" stroke-linecap="round" stroke-linejoin="round"/>
</svg>
