<svg width="189" height="118" viewBox="0 0 189 118" fill="none" xmlns="http://www.w3.org/2000/svg">
<rect width="189" height="118" fill="#089F67"/>
<path d="M87.1663 71H100.5M103.833 59L107.166 51M99.4997 47C99.8597 47.1333 100.566 47.7067 100.5 48.8133C100.42 49.92 99.2597 50.4133 99.1663 51.5067C99.0997 52.5467 99.6197 53.16 100.14 53.6667M92.833 47C93.193 47.1333 93.8997 47.7067 93.8197 48.8133C93.753 49.92 92.5797 50.4133 92.513 51.5067C92.433 52.5467 92.953 53.16 93.473 53.6667M86.1663 47C86.5263 47.1333 87.233 47.7067 87.1663 48.8133C87.0863 49.92 85.9263 50.4133 85.833 51.5067C85.7663 52.5467 86.2863 53.16 86.8197 53.6667M93.833 71C97.0156 71 100.068 69.7357 102.318 67.4853C104.569 65.2348 105.833 62.1826 105.833 59H81.833C81.833 62.1826 83.0973 65.2348 85.3477 67.4853C87.5982 69.7357 90.6504 71 93.833 71Z" stroke="black" stroke-width="2" stroke-linecap="round" stroke-linejoin="round"/>
</svg>
