<svg xmlns="http://www.w3.org/2000/svg" width="616" height="776" fill="none"><g clip-path="url(#a)"><path fill="#DE8E28" d="M0 40C0 17.909 17.909 0 40 0h536c22.091 0 40 17.909 40 40v580H0V40Z"/><path fill="#F6F5FC" d="M80 76c0-19.882 16.118-36 36-36h622v626H80V76Z"/><g clip-path="url(#b)"><path fill="#323232" d="M132 102.667h-2.667v-9.334H132v9.334Zm5.333 0h-2.667V89.333h2.667v13.334Zm5.333 0H140v-5.334h2.666v5.334Zm3.334 2.8h-20v-18.8h20v18.8ZM146 84h-20a2.675 2.675 0 0 0-2.667 2.667v18.666c0 1.467 1.2 2.667 2.667 2.667h20c1.466 0 2.666-1.2 2.666-2.667V86.667c0-1.467-1.2-2.667-2.666-2.667Z"/></g><path fill="#333" d="m170.296 104.5-3.696-6.528h-1.584v6.528h-3.36V87.748h6.288c1.296 0 2.4.232 3.312.696.912.448 1.592 1.064 2.04 1.848.464.768.696 1.632.696 2.592a5.04 5.04 0 0 1-.96 3c-.64.88-1.592 1.488-2.856 1.824l4.008 6.792h-3.888Zm-5.28-9.048h2.808c.912 0 1.592-.216 2.04-.648.448-.448.672-1.064.672-1.848 0-.768-.224-1.36-.672-1.776-.448-.432-1.128-.648-2.04-.648h-2.808v4.92Zm24.375 2.112c0 .48-.032.912-.096 1.296h-9.72c.08.96.416 1.712 1.008 2.256.592.544 1.32.816 2.184.816 1.248 0 2.136-.536 2.664-1.608h3.624c-.384 1.28-1.12 2.336-2.208 3.168-1.088.816-2.424 1.224-4.008 1.224-1.28 0-2.432-.28-3.456-.84a6.182 6.182 0 0 1-2.376-2.424c-.56-1.04-.84-2.24-.84-3.6 0-1.376.28-2.584.84-3.624a5.861 5.861 0 0 1 2.352-2.4c1.008-.56 2.168-.84 3.48-.84 1.264 0 2.392.272 3.384.816a5.63 5.63 0 0 1 2.328 2.328c.56.992.84 2.136.84 3.432Zm-3.48-.96c-.016-.864-.328-1.552-.936-2.064-.608-.528-1.352-.792-2.232-.792-.832 0-1.536.256-2.112.768-.56.496-.904 1.192-1.032 2.088h6.312Zm9.293-9.864v17.76h-3.36V86.74h3.36Zm2.455 11.064c0-1.344.264-2.536.792-3.576.544-1.04 1.272-1.84 2.184-2.4.928-.56 1.96-.84 3.096-.84.992 0 1.856.2 2.592.6.752.4 1.352.904 1.8 1.512v-1.896h3.384V104.5h-3.384v-1.944c-.432.624-1.032 1.144-1.8 1.56-.752.4-1.624.6-2.616.6a5.71 5.71 0 0 1-3.072-.864c-.912-.576-1.64-1.384-2.184-2.424-.528-1.056-.792-2.264-.792-3.624Zm10.464.048c0-.816-.16-1.512-.48-2.088-.32-.592-.752-1.04-1.296-1.344a3.397 3.397 0 0 0-1.752-.48c-.624 0-1.2.152-1.728.456-.528.304-.96.752-1.296 1.344-.32.576-.48 1.264-.48 2.064s.16 1.504.48 2.112c.336.592.768 1.048 1.296 1.368.544.32 1.12.48 1.728.48.624 0 1.208-.152 1.752-.456.544-.32.976-.768 1.296-1.344.32-.592.48-1.296.48-2.112Zm10.578-3.888v6.432c0 .448.104.776.312.984.224.192.592.288 1.104.288h1.56v2.832h-2.112c-2.832 0-4.248-1.376-4.248-4.128v-6.408h-1.584v-2.76h1.584v-3.288h3.384v3.288h2.976v2.76h-2.976Zm11.297 10.752c-1.28 0-2.432-.28-3.456-.84a6.301 6.301 0 0 1-2.424-2.424c-.576-1.04-.864-2.24-.864-3.6 0-1.36.296-2.56.888-3.6a6.253 6.253 0 0 1 2.472-2.4c1.04-.576 2.2-.864 3.48-.864 1.28 0 2.44.288 3.48.864a6.091 6.091 0 0 1 2.448 2.4c.608 1.04.912 2.24.912 3.6 0 1.36-.312 2.56-.937 3.6a6.368 6.368 0 0 1-2.495 2.424c-1.04.56-2.208.84-3.504.84Zm0-2.928c.608 0 1.176-.144 1.704-.432.544-.304.976-.752 1.296-1.344.32-.592.48-1.312.48-2.16 0-1.264-.336-2.232-1.008-2.904-.656-.688-1.464-1.032-2.424-1.032s-1.768.344-2.424 1.032c-.64.672-.96 1.64-.96 2.904s.312 2.24.936 2.928c.64.672 1.44 1.008 2.4 1.008Zm2.856-14.208-5.52 2.52v-2.4l5.52-2.856v2.736Zm9.904 5.688a4.755 4.755 0 0 1 1.68-1.656c.704-.4 1.504-.6 2.4-.6v3.528h-.888c-1.056 0-1.856.248-2.4.744-.528.496-.792 1.36-.792 2.592v6.624h-3.36V91.204h3.36v2.064Zm8.047-3.648c-.592 0-1.088-.184-1.488-.552a1.925 1.925 0 0 1-.576-1.416c0-.56.192-1.024.576-1.392.4-.384.896-.576 1.488-.576s1.08.192 1.464.576c.4.368.6.832.6 1.392 0 .56-.2 1.032-.6 1.416-.384.368-.872.552-1.464.552Zm1.656 1.584V104.5h-3.36V91.204h3.36Zm9.224 13.512c-1.28 0-2.432-.28-3.456-.84a6.301 6.301 0 0 1-2.424-2.424c-.576-1.04-.864-2.24-.864-3.6 0-1.36.296-2.56.888-3.6a6.253 6.253 0 0 1 2.472-2.4c1.04-.576 2.2-.864 3.48-.864 1.28 0 2.44.288 3.48.864a6.091 6.091 0 0 1 2.448 2.4c.608 1.04.912 2.24.912 3.6 0 1.36-.312 2.56-.936 3.6a6.377 6.377 0 0 1-2.496 2.424c-1.04.56-2.208.84-3.504.84Zm0-2.928c.608 0 1.176-.144 1.704-.432.544-.304.976-.752 1.296-1.344.32-.592.48-1.312.48-2.16 0-1.264-.336-2.232-1.008-2.904-.656-.688-1.464-1.032-2.424-1.032s-1.768.344-2.424 1.032c-.64.672-.96 1.64-.96 2.904s.312 2.24.936 2.928c.64.672 1.44 1.008 2.4 1.008Zm14.489 2.928c-1.088 0-2.064-.192-2.928-.576-.864-.4-1.552-.936-2.064-1.608a4.092 4.092 0 0 1-.816-2.232h3.384c.064.512.312.936.744 1.272.448.336 1 .504 1.656.504.64 0 1.136-.128 1.488-.384.368-.256.552-.584.552-.984 0-.432-.224-.752-.672-.96-.432-.224-1.128-.464-2.088-.72-.992-.24-1.808-.488-2.448-.744a4.351 4.351 0 0 1-1.632-1.176c-.448-.528-.672-1.24-.672-2.136 0-.736.208-1.408.624-2.016.432-.608 1.04-1.088 1.824-1.44.8-.352 1.736-.528 2.808-.528 1.584 0 2.848.4 3.792 1.2.944.784 1.464 1.848 1.56 3.192h-3.216c-.048-.528-.272-.944-.672-1.248-.384-.32-.904-.48-1.56-.48-.608 0-1.08.112-1.416.336-.32.224-.48.536-.48.936 0 .448.224.792.672 1.032.448.224 1.144.456 2.088.696.96.24 1.752.488 2.376.744.624.256 1.16.656 1.608 1.2.464.528.704 1.232.72 2.112 0 .768-.216 1.456-.648 2.064-.416.608-1.024 1.088-1.824 1.44-.784.336-1.704.504-2.76.504Z"/><rect width="275" height="118" x="45" y="148" fill="#fff" rx="10"/><path fill="#222" d="m67.296 244.125-3.696-6.528h-1.584v6.528h-3.36v-16.752h6.288c1.296 0 2.4.232 3.312.696.912.448 1.592 1.064 2.04 1.848.464.768.696 1.632.696 2.592a5.04 5.04 0 0 1-.96 3c-.64.88-1.592 1.488-2.856 1.824l4.008 6.792h-3.888Zm-5.28-9.048h2.808c.912 0 1.592-.216 2.04-.648.448-.448.672-1.064.672-1.848 0-.768-.224-1.36-.672-1.776-.448-.432-1.128-.648-2.04-.648h-2.808v4.92Zm23.967 4.224c0 .832-.216 1.616-.648 2.352-.416.72-1.04 1.32-1.872 1.8-.816.464-1.784.736-2.904.816v1.944h-1.536v-1.968c-1.6-.144-2.888-.624-3.864-1.44-.976-.832-1.48-1.952-1.512-3.36h3.6c.096 1.152.688 1.848 1.776 2.088v-4.584c-1.152-.288-2.08-.576-2.784-.864-.704-.288-1.312-.752-1.824-1.392-.512-.64-.768-1.512-.768-2.616 0-1.392.496-2.528 1.488-3.408 1.008-.88 2.304-1.384 3.888-1.512v-1.944h1.536v1.944c1.536.128 2.76.592 3.672 1.392.928.8 1.448 1.904 1.56 3.312h-3.624a2.135 2.135 0 0 0-.504-1.2c-.272-.352-.64-.6-1.104-.744v4.536c1.2.304 2.144.6 2.832.888.704.272 1.312.728 1.824 1.368.512.624.768 1.488.768 2.592Zm-8.832-7.392c0 .528.16.96.48 1.296.32.32.784.584 1.392.792v-4.152c-.576.08-1.032.296-1.368.648-.336.352-.504.824-.504 1.416Zm3.408 9.672c.608-.112 1.08-.36 1.416-.744.352-.384.528-.848.528-1.392 0-.528-.168-.952-.504-1.272-.336-.32-.816-.584-1.44-.792v4.2Zm15.566-1.248c1.536-1.28 2.76-2.344 3.672-3.192a15.19 15.19 0 0 0 2.28-2.688c.608-.928.912-1.84.912-2.736 0-.816-.192-1.456-.576-1.92-.384-.464-.976-.696-1.776-.696s-1.416.272-1.848.816c-.432.528-.656 1.256-.672 2.184h-3.264c.064-1.92.632-3.376 1.704-4.368 1.088-.992 2.464-1.488 4.128-1.488 1.824 0 3.224.488 4.2 1.464.976.96 1.464 2.232 1.464 3.816 0 1.248-.336 2.44-1.008 3.576a14.444 14.444 0 0 1-2.304 2.976c-.864.832-1.992 1.84-3.384 3.024h7.08v2.784H94.877v-2.496l1.248-1.056Zm12.317-10.608v-3.096h5.784v17.496h-3.456v-14.4h-2.328Zm9.103 5.424c0-2.768.496-4.936 1.488-6.504 1.008-1.568 2.672-2.352 4.992-2.352s3.976.784 4.968 2.352c1.008 1.568 1.512 3.736 1.512 6.504 0 2.784-.504 4.968-1.512 6.552-.992 1.584-2.648 2.376-4.968 2.376s-3.984-.792-4.992-2.376c-.992-1.584-1.488-3.768-1.488-6.552Zm9.648 0c0-1.184-.08-2.176-.24-2.976-.144-.816-.448-1.48-.912-1.992-.448-.512-1.12-.768-2.016-.768-.896 0-1.576.256-2.04.768-.448.512-.752 1.176-.912 1.992-.144.8-.216 1.792-.216 2.976 0 1.216.072 2.24.216 3.072.144.816.448 1.48.912 1.992.464.496 1.144.744 2.04.744.896 0 1.576-.248 2.04-.744.464-.512.768-1.176.912-1.992.144-.832.216-1.856.216-3.072Zm5.868 0c0-2.768.496-4.936 1.488-6.504 1.008-1.568 2.672-2.352 4.992-2.352s3.976.784 4.968 2.352c1.008 1.568 1.512 3.736 1.512 6.504 0 2.784-.504 4.968-1.512 6.552-.992 1.584-2.648 2.376-4.968 2.376s-3.984-.792-4.992-2.376c-.992-1.584-1.488-3.768-1.488-6.552Zm9.648 0c0-1.184-.08-2.176-.24-2.976-.144-.816-.448-1.48-.912-1.992-.448-.512-1.12-.768-2.016-.768-.896 0-1.576.256-2.04.768-.448.512-.752 1.176-.912 1.992-.144.8-.216 1.792-.216 2.976 0 1.216.072 2.24.216 3.072.144.816.448 1.48.912 1.992.464.496 1.144.744 2.04.744.896 0 1.576-.248 2.04-.744.464-.512.768-1.176.912-1.992.144-.832.216-1.856.216-3.072Zm9.924 5.448-2.808 6.744h-2.16l1.56-6.744h3.408Zm2.037-5.448c0-2.768.496-4.936 1.488-6.504 1.008-1.568 2.672-2.352 4.992-2.352s3.976.784 4.968 2.352c1.008 1.568 1.512 3.736 1.512 6.504 0 2.784-.504 4.968-1.512 6.552-.992 1.584-2.648 2.376-4.968 2.376s-3.984-.792-4.992-2.376c-.992-1.584-1.488-3.768-1.488-6.552Zm9.648 0c0-1.184-.08-2.176-.24-2.976-.144-.816-.448-1.48-.912-1.992-.448-.512-1.12-.768-2.016-.768-.896 0-1.576.256-2.04.768-.448.512-.752 1.176-.912 1.992-.144.8-.216 1.792-.216 2.976 0 1.216.072 2.24.216 3.072.144.816.448 1.48.912 1.992.464.496 1.144.744 2.04.744.896 0 1.576-.248 2.04-.744.464-.512.768-1.176.912-1.992.144-.832.216-1.856.216-3.072Zm5.868 0c0-2.768.496-4.936 1.488-6.504 1.008-1.568 2.672-2.352 4.992-2.352s3.976.784 4.968 2.352c1.008 1.568 1.512 3.736 1.512 6.504 0 2.784-.504 4.968-1.512 6.552-.992 1.584-2.648 2.376-4.968 2.376s-3.984-.792-4.992-2.376c-.992-1.584-1.488-3.768-1.488-6.552Zm9.648 0c0-1.184-.08-2.176-.24-2.976-.144-.816-.448-1.48-.912-1.992-.448-.512-1.12-.768-2.016-.768-.896 0-1.576.256-2.04.768-.448.512-.752 1.176-.912 1.992-.144.8-.216 1.792-.216 2.976 0 1.216.072 2.24.216 3.072.144.816.448 1.48.912 1.992.464.496 1.144.744 2.04.744.896 0 1.576-.248 2.04-.744.464-.512.768-1.176.912-1.992.144-.832.216-1.856.216-3.072ZM60.402 169.021v3.672h4.32v1.674h-4.32v3.834h4.86v1.674H58.35v-12.528h6.912v1.674h-4.86Zm12.391.774c.78 0 1.476.162 2.088.486.624.324 1.11.804 1.459 1.44.347.636.522 1.404.522 2.304v5.85h-2.034v-5.544c0-.888-.222-1.566-.666-2.034-.445-.48-1.05-.72-1.819-.72-.767 0-1.38.24-1.836.72-.444.468-.666 1.146-.666 2.034v5.544H67.79v-9.918h2.051v1.134a3.412 3.412 0 0 1 1.279-.954 4.178 4.178 0 0 1 1.673-.342Zm9.08 1.836v5.49c0 .372.084.642.252.81.18.156.48.234.9.234h1.26v1.71h-1.62c-.924 0-1.632-.216-2.124-.648-.492-.432-.738-1.134-.738-2.106v-5.49h-1.17v-1.674h1.17v-2.466h2.07v2.466h2.412v1.674h-2.412Zm6.355-.234c.3-.504.696-.894 1.188-1.17.504-.288 1.098-.432 1.782-.432v2.124h-.522c-.804 0-1.416.204-1.836.612-.408.408-.612 1.116-.612 2.124v5.22h-2.052v-9.918h2.052v1.44Zm4.172 3.474c0-.996.204-1.878.612-2.646.42-.768.984-1.362 1.692-1.782a4.532 4.532 0 0 1 2.376-.648c.78 0 1.458.156 2.034.468.588.3 1.056.678 1.404 1.134v-1.44h2.07v9.918h-2.07v-1.476c-.348.468-.822.858-1.422 1.17-.6.312-1.284.468-2.052.468a4.406 4.406 0 0 1-2.34-.648 4.81 4.81 0 0 1-1.692-1.836c-.408-.792-.612-1.686-.612-2.682Zm8.118.036c0-.684-.144-1.278-.432-1.782a2.904 2.904 0 0 0-1.098-1.152 2.896 2.896 0 0 0-1.476-.396c-.528 0-1.02.132-1.476.396-.456.252-.828.63-1.116 1.134-.276.492-.414 1.08-.414 1.764 0 .684.138 1.284.414 1.8.288.516.66.912 1.116 1.188.468.264.96.396 1.476.396.528 0 1.02-.132 1.476-.396a2.904 2.904 0 0 0 1.098-1.152c.288-.516.432-1.116.432-1.8Zm4.082-.036c0-.996.204-1.878.612-2.646a4.564 4.564 0 0 1 4.086-2.43 4.51 4.51 0 0 1 1.908.432c.636.276 1.14.648 1.512 1.116v-4.788h2.07v13.32h-2.07v-1.494c-.336.48-.804.876-1.404 1.188-.588.312-1.266.468-2.034.468a4.532 4.532 0 0 1-2.376-.648 4.81 4.81 0 0 1-1.692-1.836c-.408-.792-.612-1.686-.612-2.682Zm8.118.036c0-.684-.144-1.278-.432-1.782a2.907 2.907 0 0 0-1.098-1.152 2.896 2.896 0 0 0-1.476-.396c-.528 0-1.02.132-1.476.396-.456.252-.828.63-1.116 1.134-.276.492-.414 1.08-.414 1.764 0 .684.138 1.284.414 1.8.288.516.66.912 1.116 1.188.468.264.96.396 1.476.396.528 0 1.02-.132 1.476-.396a2.907 2.907 0 0 0 1.098-1.152c.288-.516.432-1.116.432-1.8Zm4.081-.036c0-.996.204-1.878.612-2.646.42-.768.984-1.362 1.692-1.782a4.532 4.532 0 0 1 2.376-.648c.78 0 1.458.156 2.034.468.588.3 1.056.678 1.404 1.134v-1.44h2.07v9.918h-2.07v-1.476c-.348.468-.822.858-1.422 1.17-.6.312-1.284.468-2.052.468a4.406 4.406 0 0 1-2.34-.648 4.81 4.81 0 0 1-1.692-1.836c-.408-.792-.612-1.686-.612-2.682Zm8.118.036c0-.684-.144-1.278-.432-1.782a2.907 2.907 0 0 0-1.098-1.152 2.896 2.896 0 0 0-1.476-.396c-.528 0-1.02.132-1.476.396-.456.252-.828.63-1.116 1.134-.276.492-.414 1.08-.414 1.764 0 .684.138 1.284.414 1.8.288.516.66.912 1.116 1.188.468.264.96.396 1.476.396.528 0 1.02-.132 1.476-.396a2.907 2.907 0 0 0 1.098-1.152c.288-.516.432-1.116.432-1.8Zm8.365 5.13c-.78 0-1.482-.138-2.106-.414-.612-.288-1.098-.672-1.458-1.152a2.915 2.915 0 0 1-.576-1.638h2.124c.036.42.234.774.594 1.062.372.276.834.414 1.386.414.576 0 1.02-.108 1.332-.324.324-.228.486-.516.486-.864 0-.372-.18-.648-.54-.828-.348-.18-.906-.378-1.674-.594a16.244 16.244 0 0 1-1.818-.594 3.263 3.263 0 0 1-1.224-.882c-.336-.396-.504-.918-.504-1.566 0-.528.156-1.008.468-1.44.312-.444.756-.792 1.332-1.044.588-.252 1.26-.378 2.016-.378 1.128 0 2.034.288 2.718.864.696.564 1.068 1.338 1.116 2.322h-2.052c-.036-.444-.216-.798-.54-1.062-.324-.264-.762-.396-1.314-.396-.54 0-.954.102-1.242.306-.288.204-.432.474-.432.81 0 .264.096.486.288.666.192.18.426.324.702.432.276.096.684.222 1.224.378.72.192 1.308.39 1.764.594.468.192.87.48 1.206.864.336.384.51.894.522 1.53 0 .564-.156 1.068-.468 1.512-.312.444-.756.792-1.332 1.044-.564.252-1.23.378-1.998.378Z"/><path stroke="#089F67" stroke-linecap="round" stroke-linejoin="round" stroke-width="2.5" d="M288.586 192.233h-12.359c-3.412 0-5.535-2.331-5.535-5.629v-12.43c0-3.298 2.123-5.629 5.533-5.629h20.17c3.4 0 5.533 2.331 5.533 5.629v3.358M294.513 187.339l3.707-3.59 3.706 3.59M298.22 183.749v8.484M276.267 174.427h2.434"/><path stroke="#089F67" stroke-linecap="round" stroke-linejoin="round" stroke-width="2.5" d="M282.338 180.39c0-2.123 1.778-3.843 3.969-3.843 2.194 0 3.971 1.72 3.971 3.843s-1.777 3.843-3.971 3.843c-2.191 0-3.969-1.72-3.969-3.843Z" clip-rule="evenodd"/><rect width="264" height="118" x="336" y="148" fill="#fff" rx="10"/><path fill="#222" d="m358.296 244.125-3.696-6.528h-1.584v6.528h-3.36v-16.752h6.288c1.296 0 2.4.232 3.312.696.912.448 1.592 1.064 2.04 1.848.464.768.696 1.632.696 2.592a5.04 5.04 0 0 1-.96 3c-.64.88-1.592 1.488-2.856 1.824l4.008 6.792h-3.888Zm-5.28-9.048h2.808c.912 0 1.592-.216 2.04-.648.448-.448.672-1.064.672-1.848 0-.768-.224-1.36-.672-1.776-.448-.432-1.128-.648-2.04-.648h-2.808v4.92Zm23.967 4.224c0 .832-.216 1.616-.648 2.352-.416.72-1.04 1.32-1.872 1.8-.816.464-1.784.736-2.904.816v1.944h-1.536v-1.968c-1.6-.144-2.888-.624-3.864-1.44-.976-.832-1.48-1.952-1.512-3.36h3.6c.096 1.152.688 1.848 1.776 2.088v-4.584c-1.152-.288-2.08-.576-2.784-.864-.704-.288-1.312-.752-1.824-1.392-.512-.64-.768-1.512-.768-2.616 0-1.392.496-2.528 1.488-3.408 1.008-.88 2.304-1.384 3.888-1.512v-1.944h1.536v1.944c1.536.128 2.76.592 3.672 1.392.928.8 1.448 1.904 1.56 3.312h-3.624a2.135 2.135 0 0 0-.504-1.2c-.272-.352-.64-.6-1.104-.744v4.536c1.2.304 2.144.6 2.832.888.704.272 1.312.728 1.824 1.368.512.624.768 1.488.768 2.592Zm-8.832-7.392c0 .528.16.96.48 1.296.32.32.784.584 1.392.792v-4.152c-.576.08-1.032.296-1.368.648-.336.352-.504.824-.504 1.416Zm3.408 9.672c.608-.112 1.08-.36 1.416-.744.352-.384.528-.848.528-1.392 0-.528-.168-.952-.504-1.272-.336-.32-.816-.584-1.44-.792v4.2Zm17.438-6.72c-1.6-.832-2.4-2.12-2.4-3.864 0-.864.216-1.648.648-2.352.448-.72 1.112-1.288 1.992-1.704.896-.432 1.984-.648 3.264-.648 1.28 0 2.36.216 3.24.648.896.416 1.56.984 1.992 1.704a4.29 4.29 0 0 1 .672 2.352c0 .88-.216 1.656-.648 2.328a4.458 4.458 0 0 1-1.728 1.536c.88.384 1.568.944 2.064 1.68s.744 1.608.744 2.616c0 1.088-.28 2.04-.84 2.856-.544.8-1.296 1.416-2.256 1.848-.96.432-2.04.648-3.24.648-1.2 0-2.28-.216-3.24-.648-.944-.432-1.696-1.048-2.256-1.848-.544-.816-.816-1.768-.816-2.856 0-1.008.248-1.88.744-2.616.496-.752 1.184-1.312 2.064-1.68Zm6.144-3.384c0-.784-.24-1.392-.72-1.824-.464-.432-1.104-.648-1.92-.648-.8 0-1.44.216-1.92.648-.464.432-.696 1.048-.696 1.848 0 .72.24 1.296.72 1.728.496.432 1.128.648 1.896.648s1.4-.216 1.896-.648c.496-.448.744-1.032.744-1.752Zm-2.64 4.848c-.912 0-1.656.232-2.232.696-.56.464-.84 1.128-.84 1.992 0 .8.272 1.456.816 1.968.56.496 1.312.744 2.256.744.944 0 1.688-.256 2.232-.768.544-.512.816-1.16.816-1.944 0-.848-.28-1.504-.84-1.968-.56-.48-1.296-.72-2.208-.72Zm8.99-1.176c0-2.768.496-4.936 1.488-6.504 1.008-1.568 2.672-2.352 4.992-2.352s3.976.784 4.968 2.352c1.008 1.568 1.512 3.736 1.512 6.504 0 2.784-.504 4.968-1.512 6.552-.992 1.584-2.648 2.376-4.968 2.376s-3.984-.792-4.992-2.376c-.992-1.584-1.488-3.768-1.488-6.552Zm9.648 0c0-1.184-.08-2.176-.24-2.976-.144-.816-.448-1.48-.912-1.992-.448-.512-1.12-.768-2.016-.768-.896 0-1.576.256-2.04.768-.448.512-.752 1.176-.912 1.992-.144.8-.216 1.792-.216 2.976 0 1.216.072 2.24.216 3.072.144.816.448 1.48.912 1.992.464.496 1.144.744 2.04.744.896 0 1.576-.248 2.04-.744.464-.512.768-1.176.912-1.992.144-.832.216-1.856.216-3.072Zm5.867 0c0-2.768.496-4.936 1.488-6.504 1.008-1.568 2.672-2.352 4.992-2.352s3.976.784 4.968 2.352c1.008 1.568 1.512 3.736 1.512 6.504 0 2.784-.504 4.968-1.512 6.552-.992 1.584-2.648 2.376-4.968 2.376s-3.984-.792-4.992-2.376c-.992-1.584-1.488-3.768-1.488-6.552Zm9.648 0c0-1.184-.08-2.176-.24-2.976-.144-.816-.448-1.48-.912-1.992-.448-.512-1.12-.768-2.016-.768-.896 0-1.576.256-2.04.768-.448.512-.752 1.176-.912 1.992-.144.8-.216 1.792-.216 2.976 0 1.216.072 2.24.216 3.072.144.816.448 1.48.912 1.992.464.496 1.144.744 2.04.744.896 0 1.576-.248 2.04-.744.464-.512.768-1.176.912-1.992.144-.832.216-1.856.216-3.072Zm9.924 5.448-2.808 6.744h-2.16l1.56-6.744h3.408Zm2.038-5.448c0-2.768.496-4.936 1.488-6.504 1.008-1.568 2.672-2.352 4.992-2.352s3.976.784 4.968 2.352c1.008 1.568 1.512 3.736 1.512 6.504 0 2.784-.504 4.968-1.512 6.552-.992 1.584-2.648 2.376-4.968 2.376s-3.984-.792-4.992-2.376c-.992-1.584-1.488-3.768-1.488-6.552Zm9.648 0c0-1.184-.08-2.176-.24-2.976-.144-.816-.448-1.48-.912-1.992-.448-.512-1.12-.768-2.016-.768-.896 0-1.576.256-2.04.768-.448.512-.752 1.176-.912 1.992-.144.8-.216 1.792-.216 2.976 0 1.216.072 2.24.216 3.072.144.816.448 1.48.912 1.992.464.496 1.144.744 2.04.744.896 0 1.576-.248 2.04-.744.464-.512.768-1.176.912-1.992.144-.832.216-1.856.216-3.072Zm5.867 0c0-2.768.496-4.936 1.488-6.504 1.008-1.568 2.672-2.352 4.992-2.352s3.976.784 4.968 2.352c1.008 1.568 1.512 3.736 1.512 6.504 0 2.784-.504 4.968-1.512 6.552-.992 1.584-2.648 2.376-4.968 2.376s-3.984-.792-4.992-2.376c-.992-1.584-1.488-3.768-1.488-6.552Zm9.648 0c0-1.184-.08-2.176-.24-2.976-.144-.816-.448-1.48-.912-1.992-.448-.512-1.12-.768-2.016-.768-.896 0-1.576.256-2.04.768-.448.512-.752 1.176-.912 1.992-.144.8-.216 1.792-.216 2.976 0 1.216.072 2.24.216 3.072.144.816.448 1.48.912 1.992.464.496 1.144.744 2.04.744.896 0 1.576-.248 2.04-.744.464-.512.768-1.176.912-1.992.144-.832.216-1.856.216-3.072ZM353.472 180.001c-.84 0-1.596-.144-2.268-.432-.672-.3-1.2-.72-1.584-1.26-.384-.54-.576-1.17-.576-1.89h2.196c.048.54.258.984.63 1.332.384.348.918.522 1.602.522.708 0 1.26-.168 1.656-.504.396-.348.594-.792.594-1.332 0-.42-.126-.762-.378-1.026a2.375 2.375 0 0 0-.918-.612c-.36-.144-.864-.3-1.512-.468-.816-.216-1.482-.432-1.998-.648a3.381 3.381 0 0 1-1.296-1.044c-.36-.468-.54-1.092-.54-1.872 0-.72.18-1.35.54-1.89.36-.54.864-.954 1.512-1.242.648-.288 1.398-.432 2.25-.432 1.212 0 2.202.306 2.97.918.78.6 1.212 1.428 1.296 2.484h-2.268c-.036-.456-.252-.846-.648-1.17-.396-.324-.918-.486-1.566-.486-.588 0-1.068.15-1.44.45-.372.3-.558.732-.558 1.296 0 .384.114.702.342.954.24.24.54.432.9.576.36.144.852.3 1.476.468.828.228 1.5.456 2.016.684.528.228.972.582 1.332 1.062.372.468.558 1.098.558 1.89a3.37 3.37 0 0 1-.522 1.8c-.336.564-.834 1.02-1.494 1.368-.648.336-1.416.504-2.304.504Zm6.057-5.13c0-.996.204-1.878.612-2.646.42-.768.984-1.362 1.692-1.782a4.532 4.532 0 0 1 2.376-.648c.78 0 1.458.156 2.034.468.588.3 1.056.678 1.404 1.134v-1.44h2.07v9.918h-2.07v-1.476c-.348.468-.822.858-1.422 1.17-.6.312-1.284.468-2.052.468a4.406 4.406 0 0 1-2.34-.648 4.81 4.81 0 0 1-1.692-1.836c-.408-.792-.612-1.686-.612-2.682Zm8.118.036c0-.684-.144-1.278-.432-1.782a2.907 2.907 0 0 0-1.098-1.152 2.896 2.896 0 0 0-1.476-.396c-.528 0-1.02.132-1.476.396-.456.252-.828.63-1.116 1.134-.276.492-.414 1.08-.414 1.764 0 .684.138 1.284.414 1.8.288.516.66.912 1.116 1.188.468.264.96.396 1.476.396.528 0 1.02-.132 1.476-.396a2.907 2.907 0 0 0 1.098-1.152c.288-.516.432-1.116.432-1.8Zm6.818-4.95v9.918h-2.052v-9.918h2.052Zm.828-2.664-3.978 1.962v-1.512l3.978-2.196v1.746Zm1.182 7.578c0-.996.204-1.878.612-2.646a4.564 4.564 0 0 1 4.086-2.43 4.51 4.51 0 0 1 1.908.432c.636.276 1.14.648 1.512 1.116v-4.788h2.07v13.32h-2.07v-1.494c-.336.48-.804.876-1.404 1.188-.588.312-1.266.468-2.034.468a4.532 4.532 0 0 1-2.376-.648 4.81 4.81 0 0 1-1.692-1.836c-.408-.792-.612-1.686-.612-2.682Zm8.118.036c0-.684-.144-1.278-.432-1.782a2.907 2.907 0 0 0-1.098-1.152 2.896 2.896 0 0 0-1.476-.396c-.528 0-1.02.132-1.476.396-.456.252-.828.63-1.116 1.134-.276.492-.414 1.08-.414 1.764 0 .684.138 1.284.414 1.8.288.516.66.912 1.116 1.188.468.264.96.396 1.476.396.528 0 1.02-.132 1.476-.396a2.907 2.907 0 0 0 1.098-1.152c.288-.516.432-1.116.432-1.8Zm4.081-.036c0-.996.204-1.878.612-2.646.42-.768.984-1.362 1.692-1.782a4.532 4.532 0 0 1 2.376-.648c.78 0 1.458.156 2.034.468.588.3 1.056.678 1.404 1.134v-1.44h2.07v9.918h-2.07v-1.476c-.348.468-.822.858-1.422 1.17-.6.312-1.284.468-2.052.468a4.406 4.406 0 0 1-2.34-.648 4.81 4.81 0 0 1-1.692-1.836c-.408-.792-.612-1.686-.612-2.682Zm8.118.036c0-.684-.144-1.278-.432-1.782a2.907 2.907 0 0 0-1.098-1.152 2.896 2.896 0 0 0-1.476-.396c-.528 0-1.02.132-1.476.396-.456.252-.828.63-1.116 1.134-.276.492-.414 1.08-.414 1.764 0 .684.138 1.284.414 1.8.288.516.66.912 1.116 1.188.468.264.96.396 1.476.396.528 0 1.02-.132 1.476-.396a2.907 2.907 0 0 0 1.098-1.152c.288-.516.432-1.116.432-1.8Zm8.365 5.13c-.78 0-1.482-.138-2.106-.414-.612-.288-1.098-.672-1.458-1.152a2.915 2.915 0 0 1-.576-1.638h2.124c.036.42.234.774.594 1.062.372.276.834.414 1.386.414.576 0 1.02-.108 1.332-.324.324-.228.486-.516.486-.864 0-.372-.18-.648-.54-.828-.348-.18-.906-.378-1.674-.594a16.244 16.244 0 0 1-1.818-.594 3.263 3.263 0 0 1-1.224-.882c-.336-.396-.504-.918-.504-1.566 0-.528.156-1.008.468-1.44.312-.444.756-.792 1.332-1.044.588-.252 1.26-.378 2.016-.378 1.128 0 2.034.288 2.718.864.696.564 1.068 1.338 1.116 2.322h-2.052c-.036-.444-.216-.798-.54-1.062-.324-.264-.762-.396-1.314-.396-.54 0-.954.102-1.242.306-.288.204-.432.474-.432.81 0 .264.096.486.288.666.192.18.426.324.702.432.276.096.684.222 1.224.378.72.192 1.308.39 1.764.594.468.192.87.48 1.206.864.336.384.51.894.522 1.53 0 .564-.156 1.068-.468 1.512-.312.444-.756.792-1.332 1.044-.564.252-1.23.378-1.998.378Z"/><path stroke="#D73035" stroke-linecap="round" stroke-linejoin="round" stroke-width="2.5" d="M567.861 192.233h-12.82c-3.54 0-5.741-2.331-5.741-5.629v-12.43c0-3.298 2.201-5.629 5.739-5.629h20.922c3.527 0 5.739 2.331 5.739 5.629v3.358M555.083 174.425h2.525"/><path stroke="#D73035" stroke-linecap="round" stroke-linejoin="round" stroke-width="2.5" d="M561.384 180.391c0-2.124 1.844-3.843 4.117-3.843 2.275 0 4.119 1.719 4.119 3.843 0 2.123-1.844 3.843-4.119 3.843-2.273 0-4.117-1.72-4.117-3.843Z" clip-rule="evenodd"/><path stroke="#D73035" stroke-linecap="round" stroke-linejoin="round" stroke-width="2.5" d="m574.008 188.646 3.846 3.589 3.844-3.589M577.854 183.75v8.483"/><rect width="557" height="294.155" x="43" y="282" fill="#fff" rx="10"/><path stroke="#D9D9D9" d="M142.056 521.129H572M142.056 473.139H572M142.056 382.057H572M142.056 427.108H572M142.056 331.129H572"/><path fill="#000" d="m93.245 521.897-1.92-3.336H90.28v3.336h-1.368v-8.34h2.88c.64 0 1.18.112 1.62.336.448.224.78.524.996.9.224.376.336.796.336 1.26 0 .544-.16 1.04-.48 1.488-.312.44-.796.74-1.452.9l2.064 3.456h-1.632Zm-2.964-4.428h1.512c.512 0 .896-.128 1.152-.384.264-.256.396-.6.396-1.032 0-.432-.128-.768-.384-1.008-.256-.248-.644-.372-1.164-.372H90.28v2.796Zm11.842 2.052c0 .4-.1.776-.3 1.128a2.41 2.41 0 0 1-.864.888c-.376.24-.824.384-1.344.432v.972h-.78v-.972c-.752-.072-1.36-.308-1.824-.708-.464-.4-.696-.928-.696-1.584h1.464c.024.312.124.572.3.78.176.2.428.328.756.384v-2.64a10.404 10.404 0 0 1-1.308-.408 2.19 2.19 0 0 1-.864-.672c-.232-.304-.348-.72-.348-1.248 0-.664.232-1.212.696-1.644.464-.44 1.072-.696 1.824-.768v-.972h.78v.972c.704.064 1.268.288 1.692.672.432.376.676.896.732 1.56h-1.464a1.149 1.149 0 0 0-.288-.66 1.26 1.26 0 0 0-.672-.408v2.592c.536.128.972.264 1.308.408.336.136.62.356.852.66.232.296.348.708.348 1.236Zm-4.416-3.72c0 .328.096.584.288.768.2.184.48.332.84.444v-2.424c-.344.04-.62.164-.828.372-.2.208-.3.488-.3.84Zm1.908 5.04c.352-.056.628-.196.828-.42.2-.232.3-.508.3-.828 0-.32-.1-.568-.3-.744-.192-.184-.468-.332-.828-.444v2.436Zm7.622-3.432c0-1.384.232-2.464.696-3.24.472-.784 1.28-1.176 2.424-1.176s1.948.392 2.412 1.176c.472.776.708 1.856.708 3.24 0 1.4-.236 2.496-.708 3.288-.464.784-1.268 1.176-2.412 1.176s-1.952-.392-2.424-1.176c-.464-.792-.696-1.888-.696-3.288Zm4.896 0c0-.648-.044-1.196-.132-1.644-.08-.448-.248-.812-.504-1.092-.256-.288-.636-.432-1.14-.432-.504 0-.884.144-1.14.432-.256.28-.428.644-.516 1.092-.08.448-.12.996-.12 1.644 0 .672.04 1.236.12 1.692.08.456.248.824.504 1.104.264.28.648.42 1.152.42.504 0 .884-.14 1.14-.42.264-.28.436-.648.516-1.104.08-.456.12-1.02.12-1.692ZM85.938 469.01l-1.92-3.336h-1.044v3.336h-1.368v-8.34h2.88c.64 0 1.18.112 1.62.336.448.224.78.524.996.9.224.376.336.796.336 1.26 0 .544-.16 1.04-.48 1.488-.312.44-.796.74-1.452.9l2.064 3.456h-1.632Zm-2.964-4.428h1.512c.512 0 .896-.128 1.152-.384.264-.256.396-.6.396-1.032 0-.432-.128-.768-.384-1.008-.256-.248-.644-.372-1.164-.372h-1.512v2.796Zm11.842 2.052c0 .4-.1.776-.3 1.128a2.41 2.41 0 0 1-.864.888c-.376.24-.824.384-1.344.432v.972h-.78v-.972c-.752-.072-1.36-.308-1.824-.708-.464-.4-.696-.928-.696-1.584h1.464c.024.312.124.572.3.78.176.2.428.328.756.384v-2.64a10.404 10.404 0 0 1-1.308-.408 2.19 2.19 0 0 1-.864-.672c-.232-.304-.348-.72-.348-1.248 0-.664.232-1.212.696-1.644.464-.44 1.072-.696 1.824-.768v-.972h.78v.972c.704.064 1.268.288 1.692.672.432.376.676.896.732 1.56h-1.464a1.149 1.149 0 0 0-.288-.66 1.26 1.26 0 0 0-.672-.408v2.592a8.29 8.29 0 0 1 1.308.408c.336.136.62.356.852.66.232.296.348.708.348 1.236Zm-4.416-3.72c0 .328.096.584.288.768.2.184.48.332.84.444v-2.424c-.344.04-.62.164-.828.372-.2.208-.3.488-.3.84Zm1.908 5.04c.352-.056.628-.196.828-.42.2-.232.3-.508.3-.828 0-.32-.1-.568-.3-.744-.192-.184-.468-.332-.828-.444v2.436Zm8.378-.804a47.403 47.403 0 0 0 1.812-1.632c.448-.432.82-.88 1.116-1.344.296-.464.444-.928.444-1.392 0-.48-.116-.856-.348-1.128-.224-.272-.58-.408-1.068-.408-.472 0-.84.152-1.104.456-.256.296-.392.696-.408 1.2h-1.32c.024-.912.296-1.608.816-2.088.528-.488 1.196-.732 2.004-.732.872 0 1.552.24 2.04.72.496.48.744 1.12.744 1.92 0 .576-.148 1.132-.444 1.668a6.62 6.62 0 0 1-1.044 1.428c-.4.416-.912.9-1.536 1.452l-.54.48h3.804v1.14h-5.832v-.996l.864-.744Zm6.17-2.628c0-1.384.232-2.464.696-3.24.472-.784 1.28-1.176 2.424-1.176s1.948.392 2.412 1.176c.472.776.708 1.856.708 3.24 0 1.4-.236 2.496-.708 3.288-.464.784-1.268 1.176-2.412 1.176s-1.952-.392-2.424-1.176c-.464-.792-.696-1.888-.696-3.288Zm4.896 0c0-.648-.044-1.196-.132-1.644-.08-.448-.248-.812-.504-1.092-.256-.288-.636-.432-1.14-.432-.504 0-.884.144-1.14.432-.256.28-.428.644-.516 1.092-.08.448-.12.996-.12 1.644 0 .672.04 1.236.12 1.692.08.456.248.824.504 1.104.264.28.648.42 1.152.42.504 0 .884-.14 1.14-.42.264-.28.436-.648.516-1.104.08-.456.12-1.02.12-1.692Zm2.791 0c0-1.384.232-2.464.696-3.24.472-.784 1.28-1.176 2.424-1.176s1.948.392 2.412 1.176c.472.776.708 1.856.708 3.24 0 1.4-.236 2.496-.708 3.288-.464.784-1.268 1.176-2.412 1.176s-1.952-.392-2.424-1.176c-.464-.792-.696-1.888-.696-3.288Zm4.896 0c0-.648-.044-1.196-.132-1.644-.08-.448-.248-.812-.504-1.092-.256-.288-.636-.432-1.14-.432-.504 0-.884.144-1.14.432-.256.28-.428.644-.516 1.092-.08.448-.12.996-.12 1.644 0 .672.04 1.236.12 1.692.08.456.248.824.504 1.104.264.28.648.42 1.152.42.504 0 .884-.14 1.14-.42.264-.28.436-.648.516-1.104.08-.456.12-1.02.12-1.692ZM86.118 422.979l-1.92-3.336h-1.044v3.336h-1.368v-8.34h2.88c.64 0 1.18.112 1.62.336.448.224.78.524.996.9.224.376.336.796.336 1.26 0 .544-.16 1.04-.48 1.488-.312.44-.796.74-1.452.9l2.064 3.456h-1.632Zm-2.964-4.428h1.512c.512 0 .896-.128 1.152-.384.264-.256.396-.6.396-1.032 0-.432-.128-.768-.384-1.008-.256-.248-.644-.372-1.164-.372h-1.512v2.796Zm11.842 2.052c0 .4-.1.776-.3 1.128a2.41 2.41 0 0 1-.864.888c-.376.24-.824.384-1.344.432v.972h-.78v-.972c-.752-.072-1.36-.308-1.824-.708-.464-.4-.696-.928-.696-1.584h1.464c.024.312.124.572.3.78.176.2.428.328.756.384v-2.64a10.404 10.404 0 0 1-1.308-.408 2.19 2.19 0 0 1-.864-.672c-.232-.304-.348-.72-.348-1.248 0-.664.232-1.212.696-1.644.464-.44 1.072-.696 1.824-.768v-.972h.78v.972c.704.064 1.268.288 1.692.672.432.376.676.896.732 1.56h-1.464a1.149 1.149 0 0 0-.288-.66 1.26 1.26 0 0 0-.672-.408v2.592a8.29 8.29 0 0 1 1.308.408c.336.136.62.356.852.66.232.296.348.708.348 1.236Zm-4.416-3.72c0 .328.096.584.288.768.2.184.48.332.84.444v-2.424c-.344.04-.62.164-.828.372-.2.208-.3.488-.3.84Zm1.908 5.04c.352-.056.628-.196.828-.42.2-.232.3-.508.3-.828 0-.32-.1-.568-.3-.744-.192-.184-.468-.332-.828-.444v2.436Zm7.454-.768v-1.032l4.032-5.784h1.656v5.628h1.116v1.188h-1.116v1.824h-1.344v-1.824h-4.344Zm4.404-5.424-2.832 4.236h2.832v-4.236Zm3.534 2.76c0-1.384.232-2.464.696-3.24.472-.784 1.28-1.176 2.424-1.176s1.948.392 2.412 1.176c.472.776.708 1.856.708 3.24 0 1.4-.236 2.496-.708 3.288-.464.784-1.268 1.176-2.412 1.176s-1.952-.392-2.424-1.176c-.464-.792-.696-1.888-.696-3.288Zm4.896 0c0-.648-.044-1.196-.132-1.644-.08-.448-.248-.812-.504-1.092-.256-.288-.636-.432-1.14-.432-.504 0-.884.144-1.14.432-.256.28-.428.644-.516 1.092-.08.448-.12.996-.12 1.644 0 .672.04 1.236.12 1.692.08.456.248.824.504 1.104.264.28.648.42 1.152.42.504 0 .884-.14 1.14-.42.264-.28.436-.648.516-1.104.08-.456.12-1.02.12-1.692Zm2.791 0c0-1.384.232-2.464.696-3.24.472-.784 1.28-1.176 2.424-1.176s1.948.392 2.412 1.176c.472.776.708 1.856.708 3.24 0 1.4-.236 2.496-.708 3.288-.464.784-1.268 1.176-2.412 1.176s-1.952-.392-2.424-1.176c-.464-.792-.696-1.888-.696-3.288Zm4.896 0c0-.648-.044-1.196-.132-1.644-.08-.448-.248-.812-.504-1.092-.256-.288-.636-.432-1.14-.432-.504 0-.884.144-1.14.432-.256.28-.428.644-.516 1.092-.08.448-.12.996-.12 1.644 0 .672.04 1.236.12 1.692.08.456.248.824.504 1.104.264.28.648.42 1.152.42.504 0 .884-.14 1.14-.42.264-.28.436-.648.516-1.104.08-.456.12-1.02.12-1.692ZM89.766 377.928l-1.92-3.336h-1.044v3.336h-1.368v-8.34h2.88c.64 0 1.18.112 1.62.336.448.224.78.524.996.9.224.376.336.796.336 1.26 0 .544-.16 1.04-.48 1.488-.311.44-.796.74-1.451.9l2.064 3.456h-1.633Zm-2.964-4.428h1.512c.513 0 .897-.128 1.153-.384.264-.256.395-.6.395-1.032 0-.432-.127-.768-.383-1.008-.257-.248-.644-.372-1.165-.372h-1.511v2.796Zm11.843 2.052c0 .4-.1.776-.3 1.128a2.41 2.41 0 0 1-.864.888c-.376.24-.824.384-1.344.432v.972h-.78V378c-.752-.072-1.36-.308-1.824-.708-.464-.4-.696-.928-.696-1.584H94.3c.024.312.124.572.3.78.176.2.428.328.756.384v-2.64a10.404 10.404 0 0 1-1.308-.408 2.19 2.19 0 0 1-.864-.672c-.232-.304-.348-.72-.348-1.248 0-.664.232-1.212.696-1.644.464-.44 1.072-.696 1.824-.768v-.972h.78v.972c.704.064 1.268.288 1.692.672.432.376.676.896.732 1.56h-1.464a1.149 1.149 0 0 0-.288-.66 1.26 1.26 0 0 0-.672-.408v2.592a8.29 8.29 0 0 1 1.308.408c.336.136.62.356.852.66.232.296.348.708.348 1.236Zm-4.416-3.72c0 .328.096.584.288.768.2.184.48.332.84.444v-2.424c-.344.04-.62.164-.828.372-.2.208-.3.488-.3.84Zm1.908 5.04c.352-.056.628-.196.828-.42.2-.232.3-.508.3-.828 0-.32-.1-.568-.3-.744-.192-.184-.468-.332-.828-.444v2.436Zm12.325-5.664c-.088-.368-.248-.644-.48-.828-.232-.184-.556-.276-.972-.276-.632 0-1.104.244-1.416.732-.312.48-.476 1.28-.492 2.4.208-.352.512-.624.912-.816.4-.192.832-.288 1.296-.288.528 0 .992.116 1.392.348a2.3 2.3 0 0 1 .948.984c.232.432.348.948.348 1.548 0 .56-.112 1.06-.336 1.5-.216.44-.54.788-.972 1.044-.432.248-.952.372-1.56.372-.824 0-1.472-.18-1.944-.54-.464-.368-.792-.884-.984-1.548-.184-.664-.276-1.492-.276-2.484 0-2.928 1.032-4.392 3.096-4.392.8 0 1.428.216 1.884.648.464.432.736.964.816 1.596h-1.26Zm-1.452 2.076c-.488 0-.904.148-1.248.444-.336.288-.504.708-.504 1.26s.156.992.468 1.32c.32.32.764.48 1.332.48.504 0 .9-.156 1.188-.468.296-.312.444-.728.444-1.248 0-.544-.144-.976-.432-1.296-.28-.328-.696-.492-1.248-.492Zm4.448.156c0-1.384.232-2.464.696-3.24.472-.784 1.28-1.176 2.424-1.176s1.948.392 2.412 1.176c.472.776.708 1.856.708 3.24 0 1.4-.236 2.496-.708 3.288-.464.784-1.268 1.176-2.412 1.176s-1.952-.392-2.424-1.176c-.464-.792-.696-1.888-.696-3.288Zm4.896 0c0-.648-.044-1.196-.132-1.644-.08-.448-.248-.812-.504-1.092-.256-.288-.636-.432-1.14-.432-.504 0-.884.144-1.14.432-.256.28-.428.644-.516 1.092-.08.448-.12.996-.12 1.644 0 .672.04 1.236.12 1.692.08.456.248.824.504 1.104.264.28.648.42 1.152.42.504 0 .884-.14 1.14-.42.264-.28.436-.648.516-1.104.08-.456.12-1.02.12-1.692Zm2.791 0c0-1.384.232-2.464.696-3.24.472-.784 1.28-1.176 2.424-1.176s1.948.392 2.412 1.176c.472.776.708 1.856.708 3.24 0 1.4-.236 2.496-.708 3.288-.464.784-1.268 1.176-2.412 1.176s-1.952-.392-2.424-1.176c-.464-.792-.696-1.888-.696-3.288Zm4.896 0c0-.648-.044-1.196-.132-1.644-.08-.448-.248-.812-.504-1.092-.256-.288-.636-.432-1.14-.432-.504 0-.884.144-1.14.432-.256.28-.428.644-.516 1.092-.08.448-.12.996-.12 1.644 0 .672.04 1.236.12 1.692.08.456.248.824.504 1.104.264.28.648.42 1.152.42.504 0 .884-.14 1.14-.42.264-.28.436-.648.516-1.104.08-.456.12-1.02.12-1.692ZM89.79 327l-1.92-3.336h-1.044V327h-1.368v-8.34h2.88c.64 0 1.18.112 1.62.336.448.224.78.524.996.9.224.376.336.796.336 1.26 0 .544-.16 1.04-.48 1.488-.312.44-.796.74-1.452.9L91.422 327H89.79Zm-2.964-4.428h1.512c.512 0 .896-.128 1.152-.384.264-.256.396-.6.396-1.032 0-.432-.128-.768-.384-1.008-.256-.248-.644-.372-1.164-.372h-1.512v2.796Zm11.842 2.052c0 .4-.1.776-.3 1.128a2.41 2.41 0 0 1-.864.888c-.376.24-.824.384-1.344.432v.972h-.78v-.972c-.752-.072-1.36-.308-1.824-.708-.464-.4-.696-.928-.696-1.584h1.464c.024.312.124.572.3.78.176.2.428.328.756.384v-2.64a10.404 10.404 0 0 1-1.308-.408 2.19 2.19 0 0 1-.864-.672c-.232-.304-.348-.72-.348-1.248 0-.664.232-1.212.696-1.644.464-.44 1.072-.696 1.824-.768v-.972h.78v.972c.704.064 1.268.288 1.692.672.432.376.676.896.732 1.56H97.12a1.149 1.149 0 0 0-.288-.66 1.26 1.26 0 0 0-.672-.408v2.592a8.29 8.29 0 0 1 1.308.408c.336.136.62.356.852.66.232.296.348.708.348 1.236Zm-4.416-3.72c0 .328.096.584.288.768.2.184.48.332.84.444v-2.424c-.344.04-.62.164-.828.372-.2.208-.3.488-.3.84Zm1.908 5.04c.352-.056.628-.196.828-.42.2-.232.3-.508.3-.828 0-.32-.1-.568-.3-.744-.192-.184-.468-.332-.828-.444v2.436Zm9.098-3.516c-.832-.416-1.248-1.072-1.248-1.968 0-.432.108-.828.324-1.188.216-.36.54-.644.972-.852.432-.216.96-.324 1.584-.324.616 0 1.14.108 1.572.324.44.208.768.492.984.852.216.36.324.756.324 1.188 0 .448-.116.844-.348 1.188a2.245 2.245 0 0 1-.9.78c.456.168.816.444 1.08.828.264.376.396.82.396 1.332 0 .52-.132.98-.396 1.38-.264.4-.632.708-1.104.924-.472.216-1.008.324-1.608.324-.6 0-1.136-.108-1.608-.324a2.58 2.58 0 0 1-1.092-.924c-.264-.4-.396-.86-.396-1.38 0-.52.132-.968.396-1.344.264-.376.62-.648 1.068-.816Zm3.204-1.8c0-.448-.14-.792-.42-1.032-.28-.24-.664-.36-1.152-.36-.48 0-.86.12-1.14.36-.28.24-.42.588-.42 1.044 0 .4.144.728.432.984.296.248.672.372 1.128.372.456 0 .832-.128 1.128-.384.296-.256.444-.584.444-.984Zm-1.572 2.4c-.528 0-.96.132-1.296.396-.328.256-.492.628-.492 1.116 0 .456.16.828.48 1.116.32.28.756.42 1.308.42.544 0 .972-.144 1.284-.432.32-.288.48-.656.48-1.104 0-.48-.164-.852-.492-1.116-.32-.264-.744-.396-1.272-.396Zm4.544-.516c0-1.384.232-2.464.696-3.24.472-.784 1.28-1.176 2.424-1.176s1.948.392 2.412 1.176c.472.776.708 1.856.708 3.24 0 1.4-.236 2.496-.708 3.288-.464.784-1.268 1.176-2.412 1.176s-1.952-.392-2.424-1.176c-.464-.792-.696-1.888-.696-3.288Zm4.896 0c0-.648-.044-1.196-.132-1.644-.08-.448-.248-.812-.504-1.092-.256-.288-.636-.432-1.14-.432-.504 0-.884.144-1.14.432-.256.28-.428.644-.516 1.092-.08.448-.12.996-.12 1.644 0 .672.04 1.236.12 1.692.08.456.248.824.504 1.104.264.28.648.42 1.152.42.504 0 .884-.14 1.14-.42.264-.28.436-.648.516-1.104.08-.456.12-1.02.12-1.692Zm2.792 0c0-1.384.232-2.464.696-3.24.472-.784 1.28-1.176 2.424-1.176s1.948.392 2.412 1.176c.472.776.708 1.856.708 3.24 0 1.4-.236 2.496-.708 3.288-.464.784-1.268 1.176-2.412 1.176s-1.952-.392-2.424-1.176c-.464-.792-.696-1.888-.696-3.288Zm4.896 0c0-.648-.044-1.196-.132-1.644-.08-.448-.248-.812-.504-1.092-.256-.288-.636-.432-1.14-.432-.504 0-.884.144-1.14.432-.256.28-.428.644-.516 1.092-.08.448-.12.996-.12 1.644 0 .672.04 1.236.12 1.692.08.456.248.824.504 1.104.264.28.648.42 1.152.42.504 0 .884-.14 1.14-.42.264-.28.436-.648.516-1.104.08-.456.12-1.02.12-1.692Z"/><path fill="#089F67" d="M178.942 350.362a8.94 8.94 0 0 1 8.94-8.939 8.939 8.939 0 0 1 8.939 8.939v171.267h-17.879V350.362Z"/><path fill="#D73035" d="M161.063 452.218a8.94 8.94 0 1 1 17.879 0v69.411h-17.879v-69.411Z"/><path fill="#089F67" d="M231.387 423.816a8.94 8.94 0 1 1 17.878 0v97.813h-17.878v-97.813Z"/><path fill="#D73035" d="M213.508 495.31a8.939 8.939 0 0 1 8.939-8.939 8.939 8.939 0 0 1 8.939 8.939v26.319h-17.878V495.31Z"/><path fill="#089F67" d="M283.83 410.104a8.94 8.94 0 0 1 17.879 0v111.525H283.83V410.104Z"/><path fill="#D73035" d="M265.952 477.682a8.94 8.94 0 0 1 8.939-8.94 8.94 8.94 0 0 1 8.94 8.94v43.947h-17.879v-43.947Z"/><path fill="#089F67" d="M336.274 461.032a8.94 8.94 0 0 1 8.94-8.939 8.939 8.939 0 0 1 8.939 8.939v60.597h-17.879v-60.597Z"/><path fill="#D73035" d="M318.396 510.001a8.939 8.939 0 0 1 8.939-8.939 8.939 8.939 0 0 1 8.939 8.939v11.628h-17.878v-11.628Z"/><path fill="#089F67" d="M388.719 436.548a8.94 8.94 0 1 1 17.878 0v85.081h-17.878v-85.081Z"/><path fill="#D73035" d="M370.566 487.608a8.863 8.863 0 0 1 8.743-9.068c4.936-.073 9.025 3.869 9.133 8.804l.746 34.15-17.876.263-.746-34.149Z"/><path fill="#089F67" d="M441.163 365.053a8.94 8.94 0 0 1 17.879 0v155.596h-17.879V365.053Z"/><path fill="#D73035" d="M423.284 405.207a8.94 8.94 0 0 1 8.94-8.939 8.939 8.939 0 0 1 8.939 8.939V520.65h-17.879V405.207Z"/><path fill="#089F67" d="M493.606 340.568a8.94 8.94 0 0 1 8.94-8.939 8.939 8.939 0 0 1 8.939 8.939v181.061h-17.879V340.568Z"/><path fill="#D73035" d="M475.729 448.3a8.939 8.939 0 0 1 8.939-8.939 8.939 8.939 0 0 1 8.939 8.939v73.329h-17.878V448.3Z"/><path fill="#000" d="M224.991 540.554a2.87 2.87 0 0 1-1.17-.23 2.11 2.11 0 0 1-.81-.64 1.624 1.624 0 0 1-.32-.91h1.18c.02.233.13.43.33.59.207.153.464.23.77.23.32 0 .567-.06.74-.18.18-.127.27-.287.27-.48 0-.207-.1-.36-.3-.46-.193-.1-.503-.21-.93-.33a8.91 8.91 0 0 1-1.01-.33 1.822 1.822 0 0 1-.68-.49c-.186-.22-.28-.51-.28-.87 0-.293.087-.56.26-.8.174-.247.42-.44.74-.58.327-.14.7-.21 1.12-.21.627 0 1.13.16 1.51.48.387.313.594.743.62 1.29h-1.14a.812.812 0 0 0-.3-.59c-.18-.147-.423-.22-.73-.22-.3 0-.53.057-.69.17a.526.526 0 0 0-.24.45c0 .147.054.27.16.37.107.1.237.18.39.24.154.053.38.123.68.21.4.107.727.217.98.33.26.107.484.267.67.48.187.213.284.497.29.85 0 .313-.086.593-.26.84-.173.247-.42.44-.74.58-.313.14-.683.21-1.11.21Zm8.392-2.98c0 .207-.013.393-.04.56h-4.21c.034.44.197.793.49 1.06.294.267.654.4 1.08.4.614 0 1.047-.257 1.3-.77h1.23c-.166.507-.47.923-.91 1.25-.433.32-.973.48-1.62.48-.526 0-1-.117-1.42-.35a2.616 2.616 0 0 1-.98-1c-.233-.433-.35-.933-.35-1.5s.114-1.063.34-1.49c.234-.433.557-.767.97-1 .42-.233.9-.35 1.44-.35a2.8 2.8 0 0 1 1.39.34c.407.227.724.547.95.96.227.407.34.877.34 1.41Zm-1.19-.36c-.006-.42-.156-.757-.45-1.01-.293-.253-.656-.38-1.09-.38-.393 0-.73.127-1.01.38-.28.247-.446.583-.5 1.01h3.05Zm4.532-2.35c.427 0 .803.087 1.13.26.333.167.593.377.78.63v-.8h1.15v5.6c0 .507-.107.957-.32 1.35-.213.4-.523.713-.93.94-.4.227-.88.34-1.44.34-.747 0-1.367-.177-1.86-.53a1.924 1.924 0 0 1-.84-1.42h1.13c.087.287.27.517.55.69.287.18.627.27 1.02.27.46 0 .83-.14 1.11-.42.287-.28.43-.687.43-1.22v-.92a2.358 2.358 0 0 1-1.91.92c-.48 0-.92-.12-1.32-.36a2.677 2.677 0 0 1-.94-1.02 3.203 3.203 0 0 1-.34-1.49c0-.553.113-1.043.34-1.47a2.535 2.535 0 0 1 2.26-1.35Zm1.91 2.84c0-.38-.08-.71-.24-.99a1.606 1.606 0 0 0-1.43-.86c-.293 0-.567.073-.82.22-.253.14-.46.35-.62.63-.153.273-.23.6-.23.98s.077.713.23 1c.16.287.367.507.62.66a1.64 1.64 0 0 0 1.64 0c.253-.147.457-.36.61-.64.16-.287.24-.62.24-1ZM167.54 537.684c0-.553.113-1.043.34-1.47a2.535 2.535 0 0 1 2.27-1.35c.36 0 .713.08 1.06.24.353.153.633.36.84.62v-2.66h1.15v7.4h-1.15v-.83a2.124 2.124 0 0 1-.78.66c-.327.173-.703.26-1.13.26-.48 0-.92-.12-1.32-.36a2.677 2.677 0 0 1-.94-1.02 3.203 3.203 0 0 1-.34-1.49Zm4.51.02c0-.38-.08-.71-.24-.99a1.606 1.606 0 0 0-1.43-.86c-.293 0-.567.073-.82.22-.253.14-.46.35-.62.63-.153.273-.23.6-.23.98s.077.713.23 1c.16.287.367.507.62.66a1.64 1.64 0 0 0 1.64 0c.253-.147.457-.36.61-.64.16-.287.24-.62.24-1Zm5.037 2.85c-.52 0-.99-.117-1.41-.35-.42-.24-.75-.573-.99-1-.24-.433-.36-.933-.36-1.5 0-.56.124-1.057.37-1.49a2.562 2.562 0 0 1 1.01-1c.427-.233.904-.35 1.43-.35.527 0 1.004.117 1.43.35a2.55 2.55 0 0 1 1.01 1c.247.433.37.93.37 1.49 0 .56-.126 1.057-.38 1.49-.253.433-.6.77-1.04 1.01a2.99 2.99 0 0 1-1.44.35Zm0-.99c.294 0 .567-.07.82-.21.26-.14.47-.35.63-.63.16-.28.24-.62.24-1.02s-.076-.737-.23-1.01a1.54 1.54 0 0 0-.61-.63 1.665 1.665 0 0 0-.82-.21c-.293 0-.566.07-.82.21-.246.14-.443.35-.59.63-.146.273-.22.61-.22 1.01 0 .593.15 1.053.45 1.38.307.32.69.48 1.15.48Zm10.657-4.7c.434 0 .82.09 1.16.27.347.18.617.447.81.8.2.353.3.78.3 1.28v3.25h-1.13v-3.08c0-.493-.123-.87-.37-1.13-.246-.267-.583-.4-1.01-.4-.426 0-.766.133-1.02.4-.246.26-.37.637-.37 1.13v3.08h-1.13v-3.08c0-.493-.123-.87-.37-1.13-.246-.267-.583-.4-1.01-.4-.426 0-.766.133-1.02.4-.246.26-.37.637-.37 1.13v3.08h-1.14v-5.51h1.14v.63c.187-.227.424-.403.71-.53.287-.127.594-.19.92-.19.44 0 .834.093 1.18.28.347.187.614.457.8.81.167-.333.427-.597.78-.79.354-.2.734-.3 1.14-.3ZM381.784 537.684c0-.553.114-1.043.34-1.47a2.542 2.542 0 0 1 2.27-1.35c.427 0 .804.087 1.13.26.334.173.59.383.77.63v-.8h1.15v8.13h-1.15v-3.42c-.18.247-.44.457-.78.63a2.52 2.52 0 0 1-1.16.26 2.45 2.45 0 0 1-1.3-.36 2.716 2.716 0 0 1-.93-1.02 3.215 3.215 0 0 1-.34-1.49Zm4.51.02c0-.38-.08-.71-.24-.99a1.61 1.61 0 0 0-1.43-.86c-.293 0-.566.073-.82.22-.253.14-.46.35-.62.63-.153.273-.23.6-.23.98s.077.713.23 1c.16.287.367.507.62.66a1.643 1.643 0 0 0 1.64 0 1.61 1.61 0 0 0 .61-.64c.16-.287.24-.62.24-1Zm5.428-2.84c.433 0 .82.09 1.16.27.346.18.616.447.81.8.193.353.29.78.29 1.28v3.25h-1.13v-3.08c0-.493-.124-.87-.37-1.13-.247-.267-.584-.4-1.01-.4-.427 0-.767.133-1.02.4-.247.26-.37.637-.37 1.13v3.08h-1.14v-5.51h1.14v.63c.186-.227.423-.403.71-.53.293-.127.603-.19.93-.19Zm5.044 1.02v3.05c0 .207.046.357.14.45.1.087.266.13.5.13h.7v.95h-.9c-.514 0-.907-.12-1.18-.36-.274-.24-.41-.63-.41-1.17v-3.05h-.65v-.93h.65v-1.37h1.15v1.37h1.34v.93h-1.34ZM436.853 540.554c-.434 0-.824-.077-1.17-.23a2.11 2.11 0 0 1-.81-.64 1.617 1.617 0 0 1-.32-.91h1.18c.02.233.13.43.33.59.206.153.463.23.77.23.32 0 .566-.06.74-.18.18-.127.27-.287.27-.48 0-.207-.1-.36-.3-.46-.194-.1-.504-.21-.93-.33a8.844 8.844 0 0 1-1.01-.33 1.814 1.814 0 0 1-.68-.49c-.187-.22-.28-.51-.28-.87 0-.293.086-.56.26-.8.173-.247.42-.44.74-.58.326-.14.7-.21 1.12-.21.626 0 1.13.16 1.51.48.386.313.593.743.62 1.29h-1.14a.812.812 0 0 0-.3-.59c-.18-.147-.424-.22-.73-.22-.3 0-.53.057-.69.17a.526.526 0 0 0-.24.45c0 .147.053.27.16.37.106.1.236.18.39.24.153.053.38.123.68.21.4.107.726.217.98.33.26.107.483.267.67.48.186.213.283.497.29.85 0 .313-.087.593-.26.84-.174.247-.42.44-.74.58-.314.14-.684.21-1.11.21Zm8.392-2.98c0 .207-.014.393-.04.56h-4.21c.033.44.196.793.49 1.06.293.267.653.4 1.08.4.613 0 1.046-.257 1.3-.77h1.23a2.5 2.5 0 0 1-.91 1.25c-.434.32-.974.48-1.62.48-.527 0-1-.117-1.42-.35a2.609 2.609 0 0 1-.98-1c-.234-.433-.35-.933-.35-1.5s.113-1.063.34-1.49c.233-.433.556-.767.97-1 .42-.233.9-.35 1.44-.35.52 0 .983.113 1.39.34.406.227.723.547.95.96.226.407.34.877.34 1.41Zm-1.19-.36c-.007-.42-.157-.757-.45-1.01-.294-.253-.657-.38-1.09-.38-.394 0-.73.127-1.01.38-.28.247-.447.583-.5 1.01h3.05Zm4.671.46 1.78 2.79h-1.29l-1.19-1.87-1.12 1.87h-1.19l1.78-2.71-1.78-2.8h1.29l1.19 1.87 1.12-1.87h1.19l-1.78 2.72ZM486.908 540.554a2.87 2.87 0 0 1-1.17-.23 2.11 2.11 0 0 1-.81-.64 1.624 1.624 0 0 1-.32-.91h1.18c.02.233.13.43.33.59.207.153.464.23.77.23.32 0 .567-.06.74-.18.18-.127.27-.287.27-.48 0-.207-.1-.36-.3-.46-.193-.1-.503-.21-.93-.33a8.91 8.91 0 0 1-1.01-.33 1.822 1.822 0 0 1-.68-.49c-.186-.22-.28-.51-.28-.87 0-.293.087-.56.26-.8.174-.247.42-.44.74-.58.327-.14.7-.21 1.12-.21.627 0 1.13.16 1.51.48.387.313.594.743.62 1.29h-1.14a.812.812 0 0 0-.3-.59c-.18-.147-.423-.22-.73-.22-.3 0-.53.057-.69.17a.526.526 0 0 0-.24.45c0 .147.054.27.16.37.107.1.237.18.39.24.154.053.38.123.68.21.4.107.727.217.98.33.26.107.484.267.67.48.187.213.284.497.29.85 0 .313-.086.593-.26.84-.173.247-.42.44-.74.58-.313.14-.683.21-1.11.21Zm2.962-2.87c0-.553.114-1.043.34-1.47a2.542 2.542 0 0 1 2.26-1.35c.434 0 .81.087 1.13.26.327.167.587.377.78.63v-.8h1.15v5.51h-1.15v-.82c-.193.26-.456.477-.79.65-.333.173-.713.26-1.14.26a2.45 2.45 0 0 1-1.3-.36 2.684 2.684 0 0 1-.94-1.02 3.215 3.215 0 0 1-.34-1.49Zm4.51.02c0-.38-.08-.71-.24-.99a1.61 1.61 0 0 0-1.43-.86c-.293 0-.566.073-.82.22-.253.14-.46.35-.62.63-.153.273-.23.6-.23.98s.077.713.23 1c.16.287.367.507.62.66a1.643 1.643 0 0 0 1.64 0 1.61 1.61 0 0 0 .61-.64c.16-.287.24-.62.24-1Zm3.788-1.93a2.12 2.12 0 0 1 .79-.65c.34-.173.716-.26 1.13-.26.486 0 .926.117 1.32.35.393.233.703.567.93 1 .226.427.34.917.34 1.47 0 .553-.114 1.05-.34 1.49a2.58 2.58 0 0 1-.94 1.02c-.394.24-.83.36-1.31.36-.427 0-.807-.083-1.14-.25a2.19 2.19 0 0 1-.78-.64v.8h-1.14v-7.4h1.14v2.71Zm3.35 1.91c0-.38-.08-.707-.24-.98a1.53 1.53 0 0 0-.62-.63 1.64 1.64 0 0 0-1.64 0c-.254.147-.46.36-.62.64-.154.28-.23.61-.23.99s.076.713.23 1c.16.28.366.493.62.64a1.64 1.64 0 0 0 1.64 0c.26-.153.466-.373.62-.66.16-.287.24-.62.24-1ZM279.045 535.884v3.05c0 .207.047.357.14.45.1.087.267.13.5.13h.7v.95h-.9c-.513 0-.907-.12-1.18-.36-.273-.24-.41-.63-.41-1.17v-3.05h-.65v-.93h.65v-1.37h1.15v1.37h1.34v.93h-1.34Zm7.441 1.69c0 .207-.014.393-.04.56h-4.21c.033.44.196.793.49 1.06.293.267.653.4 1.08.4.613 0 1.046-.257 1.3-.77h1.23a2.5 2.5 0 0 1-.91 1.25c-.434.32-.974.48-1.62.48-.527 0-1-.117-1.42-.35a2.609 2.609 0 0 1-.98-1c-.234-.433-.35-.933-.35-1.5s.113-1.063.34-1.49c.233-.433.556-.767.97-1 .42-.233.9-.35 1.44-.35.52 0 .983.113 1.39.34.406.227.723.547.95.96.226.407.34.877.34 1.41Zm-1.19-.36c-.007-.42-.157-.757-.45-1.01-.294-.253-.657-.38-1.09-.38-.394 0-.73.127-1.01.38-.28.247-.447.583-.5 1.01h3.05Zm3.452-1.46c.166-.28.386-.497.66-.65.28-.16.61-.24.99-.24v1.18h-.29c-.447 0-.787.113-1.02.34-.227.227-.34.62-.34 1.18v2.9h-1.14v-5.51h1.14v.8ZM329.477 537.684c0-.553.113-1.043.34-1.47a2.535 2.535 0 0 1 2.27-1.35c.426 0 .803.087 1.13.26.333.173.59.383.77.63v-.8h1.15v8.13h-1.15v-3.42c-.18.247-.44.457-.78.63s-.727.26-1.16.26c-.474 0-.907-.12-1.3-.36a2.7 2.7 0 0 1-.93-1.02 3.203 3.203 0 0 1-.34-1.49Zm4.51.02c0-.38-.08-.71-.24-.99a1.624 1.624 0 0 0-.61-.64 1.608 1.608 0 0 0-.82-.22c-.294 0-.567.073-.82.22-.254.14-.46.35-.62.63-.154.273-.23.6-.23.98s.076.713.23 1c.16.287.366.507.62.66a1.64 1.64 0 0 0 1.64 0c.253-.147.456-.36.61-.64.16-.287.24-.62.24-1Zm3.787-1.95c.167-.28.387-.497.66-.65.28-.16.61-.24.99-.24v1.18h-.29c-.447 0-.787.113-1.02.34-.227.227-.34.62-.34 1.18v2.9h-1.14v-5.51h1.14v.8Zm4.028.13v3.05c0 .207.047.357.14.45.1.087.267.13.5.13h.7v.95h-.9c-.513 0-.907-.12-1.18-.36-.273-.24-.41-.63-.41-1.17v-3.05h-.65v-.93h.65v-1.37h1.15v1.37h1.34v.93h-1.34Z"/></g><path fill="#fff" d="M0 620h616v116c0 22.091-17.909 40-40 40H40c-22.091 0-40-17.909-40-40V620Z"/><path fill="#222" d="M53.872 662.12c-.432-.832-1.032-1.456-1.8-1.872-.768-.432-1.656-.648-2.664-.648-1.104 0-2.088.248-2.952.744a5.294 5.294 0 0 0-2.04 2.112c-.48.912-.72 1.968-.72 3.168 0 1.2.24 2.264.72 3.192a5.294 5.294 0 0 0 2.04 2.112c.864.496 1.848.744 2.952.744 1.488 0 2.696-.416 3.624-1.248.928-.832 1.496-1.96 1.704-3.384h-6.264v-2.184h9.192v2.136a8.132 8.132 0 0 1-1.392 3.576c-.736 1.088-1.704 1.96-2.904 2.616-1.184.64-2.504.96-3.96.96-1.568 0-3-.36-4.296-1.08a8.32 8.32 0 0 1-3.096-3.048c-.752-1.296-1.128-2.76-1.128-4.392 0-1.632.376-3.096 1.128-4.392a8.14 8.14 0 0 1 3.096-3.024c1.312-.736 2.744-1.104 4.296-1.104 1.776 0 3.352.44 4.728 1.32 1.392.864 2.4 2.096 3.024 3.696h-3.288Zm18.61 4.944c0 .496-.031.944-.096 1.344H62.283c.08 1.056.471 1.904 1.175 2.544.704.64 1.569.96 2.593.96 1.471 0 2.511-.616 3.12-1.848h2.951c-.4 1.216-1.127 2.216-2.183 3-1.04.768-2.336 1.152-3.888 1.152-1.264 0-2.4-.28-3.409-.84a6.278 6.278 0 0 1-2.352-2.4c-.56-1.04-.84-2.24-.84-3.6 0-1.36.272-2.552.816-3.576.56-1.04 1.337-1.84 2.328-2.4 1.008-.56 2.16-.84 3.456-.84 1.249 0 2.36.272 3.337.816a5.746 5.746 0 0 1 2.28 2.304c.543.976.816 2.104.816 3.384Zm-2.856-.864c-.016-1.008-.376-1.816-1.08-2.424-.704-.608-1.576-.912-2.616-.912-.944 0-1.752.304-2.424.912-.672.592-1.072 1.4-1.2 2.424h7.32Zm8.285-3.504c.4-.672.928-1.192 1.584-1.56.672-.384 1.464-.576 2.376-.576v2.832h-.696c-1.072 0-1.888.272-2.448.816-.544.544-.816 1.488-.816 2.832V674h-2.736v-13.224h2.736v1.92Zm18.595 4.368c0 .496-.032.944-.096 1.344H86.306c.08 1.056.472 1.904 1.176 2.544.704.64 1.568.96 2.592.96 1.472 0 2.512-.616 3.12-1.848h2.952c-.4 1.216-1.128 2.216-2.184 3-1.04.768-2.336 1.152-3.888 1.152-1.264 0-2.4-.28-3.408-.84a6.278 6.278 0 0 1-2.352-2.4c-.56-1.04-.84-2.24-.84-3.6 0-1.36.272-2.552.816-3.576.56-1.04 1.336-1.84 2.328-2.4 1.008-.56 2.16-.84 3.456-.84 1.248 0 2.36.272 3.336.816a5.746 5.746 0 0 1 2.28 2.304c.544.976.816 2.104.816 3.384Zm-2.856-.864c-.016-1.008-.376-1.816-1.08-2.424-.704-.608-1.576-.912-2.616-.912-.944 0-1.752.304-2.424.912-.672.592-1.072 1.4-1.2 2.424h7.32Zm12.22-5.64c1.04 0 1.968.216 2.784.648a4.59 4.59 0 0 1 1.944 1.92c.464.848.696 1.872.696 3.072v7.8h-2.712v-7.392c0-1.184-.296-2.088-.888-2.712-.592-.64-1.4-.96-2.424-.96s-1.84.32-2.448.96c-.592.624-.888 1.528-.888 2.712V674h-2.736v-13.224h2.736v1.512a4.549 4.549 0 0 1 1.704-1.272 5.57 5.57 0 0 1 2.232-.456Zm8.002 6.816c0-1.36.272-2.552.816-3.576.56-1.04 1.328-1.84 2.304-2.4.976-.56 2.096-.84 3.36-.84 1.6 0 2.92.384 3.96 1.152 1.056.752 1.768 1.832 2.136 3.24h-2.952c-.24-.656-.624-1.168-1.152-1.536-.528-.368-1.192-.552-1.992-.552-1.12 0-2.016.4-2.688 1.2-.656.784-.984 1.888-.984 3.312s.328 2.536.984 3.336c.672.8 1.568 1.2 2.688 1.2 1.584 0 2.632-.696 3.144-2.088h2.952c-.384 1.344-1.104 2.416-2.16 3.216-1.056.784-2.368 1.176-3.936 1.176-1.264 0-2.384-.28-3.36-.84a6.159 6.159 0 0 1-2.304-2.4c-.544-1.04-.816-2.24-.816-3.6Zm16.695-8.352c-.496 0-.912-.168-1.248-.504a1.695 1.695 0 0 1-.504-1.248c0-.496.168-.912.504-1.248a1.695 1.695 0 0 1 1.248-.504c.48 0 .888.168 1.224.504.336.336.504.752.504 1.248s-.168.912-.504 1.248a1.666 1.666 0 0 1-1.224.504Zm1.344 1.752V674h-2.736v-13.224h2.736Zm15.712 6.288c0 .496-.032.944-.096 1.344h-10.104c.08 1.056.472 1.904 1.176 2.544.704.64 1.568.96 2.592.96 1.472 0 2.512-.616 3.12-1.848h2.952c-.4 1.216-1.128 2.216-2.184 3-1.04.768-2.336 1.152-3.888 1.152-1.264 0-2.4-.28-3.408-.84a6.278 6.278 0 0 1-2.352-2.4c-.56-1.04-.84-2.24-.84-3.6 0-1.36.272-2.552.816-3.576.56-1.04 1.336-1.84 2.328-2.4 1.008-.56 2.16-.84 3.456-.84 1.248 0 2.36.272 3.336.816a5.746 5.746 0 0 1 2.28 2.304c.544.976.816 2.104.816 3.384Zm-2.856-.864c-.016-1.008-.376-1.816-1.08-2.424-.704-.608-1.576-.912-2.616-.912-.944 0-1.752.304-2.424.912-.672.592-1.072 1.4-1.2 2.424h7.32Zm16.583 8.016c-1.04 0-1.976-.184-2.808-.552-.816-.384-1.464-.896-1.944-1.536a3.886 3.886 0 0 1-.768-2.184h2.832c.048.56.312 1.032.792 1.416.496.368 1.112.552 1.848.552.768 0 1.36-.144 1.776-.432.432-.304.648-.688.648-1.152 0-.496-.24-.864-.72-1.104-.464-.24-1.208-.504-2.232-.792-.992-.272-1.8-.536-2.424-.792a4.351 4.351 0 0 1-1.632-1.176c-.448-.528-.672-1.224-.672-2.088 0-.704.208-1.344.624-1.92.416-.592 1.008-1.056 1.776-1.392.784-.336 1.68-.504 2.688-.504 1.504 0 2.712.384 3.624 1.152.928.752 1.424 1.784 1.488 3.096h-2.736c-.048-.592-.288-1.064-.72-1.416-.432-.352-1.016-.528-1.752-.528-.72 0-1.272.136-1.656.408-.384.272-.576.632-.576 1.08 0 .352.128.648.384.888s.568.432.936.576c.368.128.912.296 1.632.504.96.256 1.744.52 2.352.792.624.256 1.16.64 1.608 1.152.448.512.68 1.192.696 2.04 0 .752-.208 1.424-.624 2.016-.416.592-1.008 1.056-1.776 1.392-.752.336-1.64.504-2.664.504Zm19.996-13.44V674h-2.736v-1.56c-.432.544-1 .976-1.704 1.296a5.402 5.402 0 0 1-2.208.456c-1.04 0-1.976-.216-2.808-.648-.816-.432-1.464-1.072-1.944-1.92-.464-.848-.696-1.872-.696-3.072v-7.776h2.712v7.368c0 1.184.296 2.096.888 2.736.592.624 1.4.936 2.424.936s1.832-.312 2.424-.936c.608-.64.912-1.552.912-2.736v-7.368h2.736Zm2.698 6.552c0-1.328.272-2.504.816-3.528.56-1.024 1.312-1.816 2.256-2.376a6.042 6.042 0 0 1 3.168-.864c1.04 0 1.944.208 2.712.624.784.4 1.408.904 1.872 1.512v-1.92h2.76V674h-2.76v-1.968c-.464.624-1.096 1.144-1.896 1.56-.8.416-1.712.624-2.736.624a5.875 5.875 0 0 1-3.12-.864c-.944-.592-1.696-1.408-2.256-2.448-.544-1.056-.816-2.248-.816-3.576Zm10.824.048c0-.912-.192-1.704-.576-2.376-.368-.672-.856-1.184-1.464-1.536a3.862 3.862 0 0 0-1.968-.528c-.704 0-1.36.176-1.968.528-.608.336-1.104.84-1.488 1.512-.368.656-.552 1.44-.552 2.352 0 .912.184 1.712.552 2.4.384.688.88 1.216 1.488 1.584.624.352 1.28.528 1.968.528.704 0 1.36-.176 1.968-.528.608-.352 1.096-.864 1.464-1.536.384-.688.576-1.488.576-2.4Zm11.154 6.84c-1.04 0-1.976-.184-2.808-.552-.816-.384-1.464-.896-1.944-1.536a3.886 3.886 0 0 1-.768-2.184h2.832c.048.56.312 1.032.792 1.416.496.368 1.112.552 1.848.552.768 0 1.36-.144 1.776-.432.432-.304.648-.688.648-1.152 0-.496-.24-.864-.72-1.104-.464-.24-1.208-.504-2.232-.792-.992-.272-1.8-.536-2.424-.792a4.351 4.351 0 0 1-1.632-1.176c-.448-.528-.672-1.224-.672-2.088 0-.704.208-1.344.624-1.92.416-.592 1.008-1.056 1.776-1.392.784-.336 1.68-.504 2.688-.504 1.504 0 2.712.384 3.624 1.152.928.752 1.424 1.784 1.488 3.096h-2.736c-.048-.592-.288-1.064-.72-1.416-.432-.352-1.016-.528-1.752-.528-.72 0-1.272.136-1.656.408-.384.272-.576.632-.576 1.08 0 .352.128.648.384.888s.568.432.936.576c.368.128.912.296 1.632.504.96.256 1.744.52 2.352.792.624.256 1.16.64 1.608 1.152.448.512.68 1.192.696 2.04 0 .752-.208 1.424-.624 2.016-.416.592-1.008 1.056-1.776 1.392-.752.336-1.64.504-2.664.504Zm13.343-6.888c0-1.328.272-2.504.816-3.528.56-1.024 1.312-1.816 2.256-2.376.96-.576 2.024-.864 3.192-.864.864 0 1.712.192 2.544.576.848.368 1.52.864 2.016 1.488v-6.384h2.76V674h-2.76v-1.992c-.448.64-1.072 1.168-1.872 1.584-.784.416-1.688.624-2.712.624a6.042 6.042 0 0 1-3.168-.864c-.944-.592-1.696-1.408-2.256-2.448-.544-1.056-.816-2.248-.816-3.576Zm10.824.048c0-.912-.192-1.704-.576-2.376-.368-.672-.856-1.184-1.464-1.536a3.862 3.862 0 0 0-1.968-.528c-.704 0-1.36.176-1.968.528-.608.336-1.104.84-1.488 1.512-.368.656-.552 1.44-.552 2.352 0 .912.184 1.712.552 2.4.384.688.88 1.216 1.488 1.584.624.352 1.28.528 1.968.528.704 0 1.36-.176 1.968-.528.608-.352 1.096-.864 1.464-1.536.384-.688.576-1.488.576-2.4Zm18.473-.312c0 .496-.032.944-.096 1.344h-10.104c.08 1.056.472 1.904 1.176 2.544.704.64 1.568.96 2.592.96 1.472 0 2.512-.616 3.12-1.848h2.952c-.4 1.216-1.128 2.216-2.184 3-1.04.768-2.336 1.152-3.888 1.152-1.264 0-2.4-.28-3.408-.84a6.278 6.278 0 0 1-2.352-2.4c-.56-1.04-.84-2.24-.84-3.6 0-1.36.272-2.552.816-3.576.56-1.04 1.336-1.84 2.328-2.4 1.008-.56 2.16-.84 3.456-.84 1.248 0 2.36.272 3.336.816a5.746 5.746 0 0 1 2.28 2.304c.544.976.816 2.104.816 3.384Zm-2.856-.864c-.016-1.008-.376-1.816-1.08-2.424-.704-.608-1.576-.912-2.616-.912-.944 0-1.752.304-2.424.912-.672.592-1.072 1.4-1.2 2.424h7.32Zm10.349 8.016c-1.04 0-1.976-.184-2.808-.552-.816-.384-1.464-.896-1.944-1.536a3.886 3.886 0 0 1-.768-2.184h2.832c.048.56.312 1.032.792 1.416.496.368 1.112.552 1.848.552.768 0 1.36-.144 1.776-.432.432-.304.648-.688.648-1.152 0-.496-.24-.864-.72-1.104-.464-.24-1.208-.504-2.232-.792-.992-.272-1.8-.536-2.424-.792a4.351 4.351 0 0 1-1.632-1.176c-.448-.528-.672-1.224-.672-2.088 0-.704.208-1.344.624-1.92.416-.592 1.008-1.056 1.776-1.392.784-.336 1.68-.504 2.688-.504 1.504 0 2.712.384 3.624 1.152.928.752 1.424 1.784 1.488 3.096h-2.736c-.048-.592-.288-1.064-.72-1.416-.432-.352-1.016-.528-1.752-.528-.72 0-1.272.136-1.656.408-.384.272-.576.632-.576 1.08 0 .352.128.648.384.888s.568.432.936.576c.368.128.912.296 1.632.504.96.256 1.744.52 2.352.792.624.256 1.16.64 1.608 1.152.448.512.68 1.192.696 2.04 0 .752-.208 1.424-.624 2.016-.416.592-1.008 1.056-1.776 1.392-.752.336-1.64.504-2.664.504Zm10.756-11.496c.464-.608 1.096-1.12 1.896-1.536.8-.416 1.704-.624 2.712-.624 1.152 0 2.2.288 3.144.864.96.56 1.712 1.352 2.256 2.376.544 1.024.816 2.2.816 3.528 0 1.328-.272 2.52-.816 3.576-.544 1.04-1.296 1.856-2.256 2.448-.944.576-1.992.864-3.144.864-1.008 0-1.904-.2-2.688-.6-.784-.416-1.424-.928-1.92-1.536v8.208h-2.736v-19.512h2.736v1.944Zm8.04 4.608c0-.912-.192-1.696-.576-2.352-.368-.672-.864-1.176-1.488-1.512a3.862 3.862 0 0 0-1.968-.528c-.688 0-1.344.176-1.968.528-.608.352-1.104.864-1.488 1.536-.368.672-.552 1.464-.552 2.376 0 .912.184 1.712.552 2.4.384.672.88 1.184 1.488 1.536.624.352 1.28.528 1.968.528.704 0 1.36-.176 1.968-.528.624-.368 1.12-.896 1.488-1.584.384-.688.576-1.488.576-2.4Zm17.61-.264c0 .496-.032.944-.096 1.344h-10.104c.08 1.056.472 1.904 1.176 2.544.704.64 1.568.96 2.592.96 1.472 0 2.512-.616 3.12-1.848h2.952c-.4 1.216-1.128 2.216-2.184 3-1.04.768-2.336 1.152-3.888 1.152-1.264 0-2.4-.28-3.408-.84a6.278 6.278 0 0 1-2.352-2.4c-.56-1.04-.84-2.24-.84-3.6 0-1.36.272-2.552.816-3.576.56-1.04 1.336-1.84 2.328-2.4 1.008-.56 2.16-.84 3.456-.84 1.248 0 2.36.272 3.336.816a5.746 5.746 0 0 1 2.28 2.304c.544.976.816 2.104.816 3.384Zm-2.856-.864c-.016-1.008-.376-1.816-1.08-2.424-.704-.608-1.576-.912-2.616-.912-.944 0-1.752.304-2.424.912-.672.592-1.072 1.4-1.2 2.424h7.32Zm10.348 8.016c-1.04 0-1.976-.184-2.808-.552-.816-.384-1.464-.896-1.944-1.536a3.886 3.886 0 0 1-.768-2.184h2.832c.048.56.312 1.032.792 1.416.496.368 1.112.552 1.848.552.768 0 1.36-.144 1.776-.432.432-.304.648-.688.648-1.152 0-.496-.24-.864-.72-1.104-.464-.24-1.208-.504-2.232-.792-.992-.272-1.8-.536-2.424-.792a4.351 4.351 0 0 1-1.632-1.176c-.448-.528-.672-1.224-.672-2.088 0-.704.208-1.344.624-1.92.416-.592 1.008-1.056 1.776-1.392.784-.336 1.68-.504 2.688-.504 1.504 0 2.712.384 3.624 1.152.928.752 1.424 1.784 1.488 3.096h-2.736c-.048-.592-.288-1.064-.72-1.416-.432-.352-1.016-.528-1.752-.528-.72 0-1.272.136-1.656.408-.384.272-.576.632-.576 1.08 0 .352.128.648.384.888s.568.432.936.576c.368.128.912.296 1.632.504.96.256 1.744.52 2.352.792.624.256 1.16.64 1.608 1.152.448.512.68 1.192.696 2.04 0 .752-.208 1.424-.624 2.016-.416.592-1.008 1.056-1.776 1.392-.752.336-1.64.504-2.664.504Zm7.108-6.888c0-1.328.272-2.504.816-3.528.56-1.024 1.312-1.816 2.256-2.376a6.042 6.042 0 0 1 3.168-.864c1.04 0 1.944.208 2.712.624.784.4 1.408.904 1.872 1.512v-1.92h2.76V674h-2.76v-1.968c-.464.624-1.096 1.144-1.896 1.56-.8.416-1.712.624-2.736.624a5.875 5.875 0 0 1-3.12-.864c-.944-.592-1.696-1.408-2.256-2.448-.544-1.056-.816-2.248-.816-3.576Zm10.824.048c0-.912-.192-1.704-.576-2.376-.368-.672-.856-1.184-1.464-1.536a3.862 3.862 0 0 0-1.968-.528c-.704 0-1.36.176-1.968.528-.608.336-1.104.84-1.488 1.512-.368.656-.552 1.44-.552 2.352 0 .912.184 1.712.552 2.4.384.688.88 1.216 1.488 1.584.624.352 1.28.528 1.968.528.704 0 1.36-.176 1.968-.528.608-.352 1.096-.864 1.464-1.536.384-.688.576-1.488.576-2.4Zm11.154 6.84c-1.04 0-1.976-.184-2.808-.552-.816-.384-1.464-.896-1.944-1.536a3.886 3.886 0 0 1-.768-2.184h2.832c.048.56.312 1.032.792 1.416.496.368 1.112.552 1.848.552.768 0 1.36-.144 1.776-.432.432-.304.648-.688.648-1.152 0-.496-.24-.864-.72-1.104-.464-.24-1.208-.504-2.232-.792-.992-.272-1.8-.536-2.424-.792a4.351 4.351 0 0 1-1.632-1.176c-.448-.528-.672-1.224-.672-2.088 0-.704.208-1.344.624-1.92.416-.592 1.008-1.056 1.776-1.392.784-.336 1.68-.504 2.688-.504 1.504 0 2.712.384 3.624 1.152.928.752 1.424 1.784 1.488 3.096h-2.736c-.048-.592-.288-1.064-.72-1.416-.432-.352-1.016-.528-1.752-.528-.72 0-1.272.136-1.656.408-.384.272-.576.632-.576 1.08 0 .352.128.648.384.888s.568.432.936.576c.368.128.912.296 1.632.504.96.256 1.744.52 2.352.792.624.256 1.16.64 1.608 1.152.448.512.68 1.192.696 2.04 0 .752-.208 1.424-.624 2.016-.416.592-1.008 1.056-1.776 1.392-.752.336-1.64.504-2.664.504Zm11.452-16.896-.312 11.64h-2.28l-.312-11.64h2.904Zm-1.368 16.848c-.496 0-.912-.168-1.248-.504a1.695 1.695 0 0 1-.504-1.248c0-.496.168-.912.504-1.248a1.695 1.695 0 0 1 1.248-.504c.48 0 .888.168 1.224.504.336.336.504.752.504 1.248s-.168.912-.504 1.248a1.666 1.666 0 0 1-1.224.504Z"/><path fill="#495057" d="M48.712 703.49v1.674h-5.31v3.69h4.14v1.674h-4.14V716H41.35v-12.51h7.362Zm1.218 7.506c0-.996.204-1.878.612-2.646.42-.768.984-1.362 1.692-1.782a4.532 4.532 0 0 1 2.376-.648c.78 0 1.458.156 2.034.468.588.3 1.056.678 1.404 1.134v-1.44h2.07V716h-2.07v-1.476c-.348.468-.822.858-1.422 1.17-.6.312-1.284.468-2.052.468a4.406 4.406 0 0 1-2.34-.648 4.81 4.81 0 0 1-1.692-1.836c-.408-.792-.612-1.686-.612-2.682Zm8.118.036c0-.684-.144-1.278-.432-1.782a2.907 2.907 0 0 0-1.098-1.152 2.896 2.896 0 0 0-1.476-.396c-.528 0-1.02.132-1.476.396-.456.252-.828.63-1.116 1.134-.276.492-.414 1.08-.414 1.764 0 .684.138 1.284.414 1.8.288.516.66.912 1.116 1.188.468.264.96.396 1.476.396.528 0 1.02-.132 1.476-.396a2.907 2.907 0 0 0 1.098-1.152c.288-.516.432-1.116.432-1.8Zm8.94 3.402c1.189 0 1.975-.522 2.359-1.566h2.214c-.264.912-.738 1.662-1.422 2.25-.672.576-1.518.912-2.538 1.008v.738c.696 0 1.26.162 1.692.486.432.336.648.804.648 1.404 0 .6-.216 1.074-.648 1.422-.432.36-.978.54-1.638.54h-2.376v-1.296h1.962c.336 0 .588-.048.756-.144.168-.096.252-.27.252-.522s-.084-.426-.252-.522c-.168-.096-.42-.144-.756-.144h-.99v-1.98a4.583 4.583 0 0 1-2.16-.81 4.654 4.654 0 0 1-1.458-1.764c-.336-.732-.504-1.566-.504-2.502 0-1.02.204-1.914.612-2.682.42-.78.996-1.38 1.728-1.8.732-.42 1.572-.63 2.52-.63 1.2 0 2.19.288 2.97.864.792.564 1.326 1.374 1.602 2.43h-2.214a2.341 2.341 0 0 0-.864-1.152c-.396-.276-.894-.414-1.494-.414-.84 0-1.512.3-2.016.9-.492.588-.738 1.416-.738 2.484s.246 1.902.738 2.502c.504.6 1.176.9 2.016.9Zm5.934-3.438c0-.996.204-1.878.612-2.646.42-.768.984-1.362 1.692-1.782a4.532 4.532 0 0 1 2.376-.648c.78 0 1.458.156 2.034.468.588.3 1.056.678 1.404 1.134v-1.44h2.07V716h-2.07v-1.476c-.348.468-.822.858-1.422 1.17-.6.312-1.284.468-2.052.468a4.406 4.406 0 0 1-2.34-.648 4.81 4.81 0 0 1-1.692-1.836c-.408-.792-.612-1.686-.612-2.682Zm8.118.036c0-.684-.144-1.278-.432-1.782a2.907 2.907 0 0 0-1.098-1.152 2.896 2.896 0 0 0-1.476-.396c-.528 0-1.02.132-1.476.396-.456.252-.828.63-1.116 1.134-.276.492-.414 1.08-.414 1.764 0 .684.138 1.284.414 1.8.288.516.66.912 1.116 1.188.468.264.96.396 1.476.396.528 0 1.02-.132 1.476-.396a2.907 2.907 0 0 0 1.098-1.152c.288-.516.432-1.116.432-1.8Zm13.743 5.13c-.936 0-1.782-.21-2.538-.63a4.67 4.67 0 0 1-1.782-1.8c-.432-.78-.648-1.68-.648-2.7 0-1.008.222-1.902.666-2.682a4.6 4.6 0 0 1 1.818-1.8c.768-.42 1.626-.63 2.574-.63s1.806.21 2.574.63a4.6 4.6 0 0 1 1.818 1.8c.444.78.666 1.674.666 2.682s-.228 1.902-.684 2.682a4.783 4.783 0 0 1-1.872 1.818c-.78.42-1.644.63-2.592.63Zm0-1.782c.528 0 1.02-.126 1.476-.378.468-.252.846-.63 1.134-1.134.288-.504.432-1.116.432-1.836s-.138-1.326-.414-1.818c-.276-.504-.642-.882-1.098-1.134a3.003 3.003 0 0 0-1.476-.378c-.528 0-1.02.126-1.476.378-.444.252-.798.63-1.062 1.134-.264.492-.396 1.098-.396 1.818 0 1.068.27 1.896.81 2.484.552.576 1.242.864 2.07.864Zm11.168-3.348c0-1.02.204-1.914.612-2.682.42-.78.996-1.38 1.728-1.8.732-.42 1.572-.63 2.52-.63 1.2 0 2.19.288 2.97.864.792.564 1.326 1.374 1.602 2.43h-2.214a2.341 2.341 0 0 0-.864-1.152c-.396-.276-.894-.414-1.494-.414-.84 0-1.512.3-2.016.9-.492.588-.738 1.416-.738 2.484s.246 1.902.738 2.502c.504.6 1.176.9 2.016.9 1.188 0 1.974-.522 2.358-1.566h2.214c-.288 1.008-.828 1.812-1.62 2.412-.792.588-1.776.882-2.952.882-.948 0-1.788-.21-2.52-.63a4.62 4.62 0 0 1-1.728-1.8c-.408-.78-.612-1.68-.612-2.7Zm15.779 5.13c-.936 0-1.782-.21-2.538-.63a4.67 4.67 0 0 1-1.782-1.8c-.432-.78-.648-1.68-.648-2.7 0-1.008.222-1.902.666-2.682a4.6 4.6 0 0 1 1.818-1.8c.768-.42 1.626-.63 2.574-.63s1.806.21 2.574.63a4.6 4.6 0 0 1 1.818 1.8c.444.78.666 1.674.666 2.682s-.228 1.902-.684 2.682a4.783 4.783 0 0 1-1.872 1.818c-.78.42-1.644.63-2.592.63Zm0-1.782c.528 0 1.02-.126 1.476-.378.468-.252.846-.63 1.134-1.134.288-.504.432-1.116.432-1.836s-.138-1.326-.414-1.818c-.276-.504-.642-.882-1.098-1.134a3.003 3.003 0 0 0-1.476-.378c-.528 0-1.02.126-1.476.378-.444.252-.798.63-1.062 1.134-.264.492-.396 1.098-.396 1.818 0 1.068.27 1.896.81 2.484.552.576 1.242.864 2.07.864Zm12.181-8.46c.78 0 1.476.162 2.088.486.624.324 1.11.804 1.458 1.44.348.636.522 1.404.522 2.304V716h-2.034v-5.544c0-.888-.222-1.566-.666-2.034-.444-.48-1.05-.72-1.818-.72s-1.38.24-1.836.72c-.444.468-.666 1.146-.666 2.034V716h-2.052v-9.918h2.052v1.134a3.412 3.412 0 0 1 1.278-.954 4.178 4.178 0 0 1 1.674-.342Zm9.079 1.836v5.49c0 .372.084.642.252.81.18.156.48.234.9.234h1.26V716h-1.62c-.924 0-1.632-.216-2.124-.648-.492-.432-.738-1.134-.738-2.106v-5.49h-1.17v-1.674h1.17v-2.466h2.07v2.466h2.412v1.674h-2.412Zm6.355-.234c.3-.504.696-.894 1.188-1.17.504-.288 1.098-.432 1.782-.432v2.124h-.522c-.804 0-1.416.204-1.836.612-.408.408-.612 1.116-.612 2.124V716h-2.052v-9.918h2.052v1.44Zm9.159 8.64c-.936 0-1.782-.21-2.538-.63a4.67 4.67 0 0 1-1.782-1.8c-.432-.78-.648-1.68-.648-2.7 0-1.008.222-1.902.666-2.682a4.6 4.6 0 0 1 1.818-1.8c.768-.42 1.626-.63 2.574-.63s1.806.21 2.574.63a4.6 4.6 0 0 1 1.818 1.8c.444.78.666 1.674.666 2.682s-.228 1.902-.684 2.682a4.783 4.783 0 0 1-1.872 1.818c-.78.42-1.644.63-2.592.63Zm0-1.782c.528 0 1.02-.126 1.476-.378.468-.252.846-.63 1.134-1.134.288-.504.432-1.116.432-1.836s-.138-1.326-.414-1.818c-.276-.504-.642-.882-1.098-1.134a3.003 3.003 0 0 0-1.476-.378c-.528 0-1.02.126-1.476.378-.444.252-.798.63-1.062 1.134-.264.492-.396 1.098-.396 1.818 0 1.068.27 1.896.81 2.484.552.576 1.242.864 2.07.864Zm9.228-11.7V716h-2.052v-13.32h2.052Zm11.784 8.118c0 .372-.024.708-.072 1.008h-7.578c.06.792.354 1.428.882 1.908s1.176.72 1.944.72c1.104 0 1.884-.462 2.34-1.386h2.214a4.498 4.498 0 0 1-1.638 2.25c-.78.576-1.752.864-2.916.864-.948 0-1.8-.21-2.556-.63a4.708 4.708 0 0 1-1.764-1.8c-.42-.78-.63-1.68-.63-2.7 0-1.02.204-1.914.612-2.682a4.428 4.428 0 0 1 1.746-1.8c.756-.42 1.62-.63 2.592-.63.936 0 1.77.204 2.502.612a4.31 4.31 0 0 1 1.71 1.728c.408.732.612 1.578.612 2.538Zm-2.142-.648c-.012-.756-.282-1.362-.81-1.818-.528-.456-1.182-.684-1.962-.684-.708 0-1.314.228-1.818.684-.504.444-.804 1.05-.9 1.818h5.49Zm8.153.846c0-.996.204-1.878.612-2.646a4.564 4.564 0 0 1 4.086-2.43 4.51 4.51 0 0 1 1.908.432c.636.276 1.14.648 1.512 1.116v-4.788h2.07V716h-2.07v-1.494c-.336.48-.804.876-1.404 1.188-.588.312-1.266.468-2.034.468a4.532 4.532 0 0 1-2.376-.648 4.81 4.81 0 0 1-1.692-1.836c-.408-.792-.612-1.686-.612-2.682Zm8.118.036c0-.684-.144-1.278-.432-1.782a2.907 2.907 0 0 0-1.098-1.152 2.896 2.896 0 0 0-1.476-.396c-.528 0-1.02.132-1.476.396-.456.252-.828.63-1.116 1.134-.276.492-.414 1.08-.414 1.764 0 .684.138 1.284.414 1.8.288.516.66.912 1.116 1.188.468.264.96.396 1.476.396.528 0 1.02-.132 1.476-.396a2.907 2.907 0 0 0 1.098-1.152c.288-.516.432-1.116.432-1.8Zm4.082-.036c0-.996.204-1.878.612-2.646.42-.768.984-1.362 1.692-1.782a4.532 4.532 0 0 1 2.376-.648c.78 0 1.458.156 2.034.468.588.3 1.056.678 1.404 1.134v-1.44h2.07V716h-2.07v-1.476c-.348.468-.822.858-1.422 1.17-.6.312-1.284.468-2.052.468a4.406 4.406 0 0 1-2.34-.648 4.81 4.81 0 0 1-1.692-1.836c-.408-.792-.612-1.686-.612-2.682Zm8.118.036c0-.684-.144-1.278-.432-1.782a2.907 2.907 0 0 0-1.098-1.152 2.896 2.896 0 0 0-1.476-.396c-.528 0-1.02.132-1.476.396-.456.252-.828.63-1.116 1.134-.276.492-.414 1.08-.414 1.764 0 .684.138 1.284.414 1.8.288.516.66.912 1.116 1.188.468.264.96.396 1.476.396.528 0 1.02-.132 1.476-.396a2.907 2.907 0 0 0 1.098-1.152c.288-.516.432-1.116.432-1.8Zm8.365 5.13c-.78 0-1.482-.138-2.106-.414-.612-.288-1.098-.672-1.458-1.152a2.915 2.915 0 0 1-.576-1.638h2.124c.036.42.234.774.594 1.062.372.276.834.414 1.386.414.576 0 1.02-.108 1.332-.324.324-.228.486-.516.486-.864 0-.372-.18-.648-.54-.828-.348-.18-.906-.378-1.674-.594a16.244 16.244 0 0 1-1.818-.594 3.263 3.263 0 0 1-1.224-.882c-.336-.396-.504-.918-.504-1.566 0-.528.156-1.008.468-1.44.312-.444.756-.792 1.332-1.044.588-.252 1.26-.378 2.016-.378 1.128 0 2.034.288 2.718.864.696.564 1.068 1.338 1.116 2.322h-2.052c-.036-.444-.216-.798-.54-1.062-.324-.264-.762-.396-1.314-.396-.54 0-.954.102-1.242.306-.288.204-.432.474-.432.81 0 .264.096.486.288.666.192.18.426.324.702.432.276.096.684.222 1.224.378.72.192 1.308.39 1.764.594.468.192.87.48 1.206.864.336.384.51.894.522 1.53 0 .564-.156 1.068-.468 1.512-.312.444-.756.792-1.332 1.044-.564.252-1.23.378-1.998.378Zm14.849-8.406h-1.836V716h-2.07v-8.244h-1.17v-1.674h1.17v-.702c0-1.14.3-1.968.9-2.484.612-.528 1.566-.792 2.862-.792v1.71c-.624 0-1.062.12-1.314.36-.252.228-.378.63-.378 1.206v.702h1.836v1.674Zm2.862-2.988c-.372 0-.684-.126-.936-.378a1.271 1.271 0 0 1-.378-.936c0-.372.126-.684.378-.936s.564-.378.936-.378c.36 0 .666.126.918.378s.378.564.378.936c0 .372-.126.684-.378.936a1.25 1.25 0 0 1-.918.378Zm1.008 1.314V716h-2.052v-9.918h2.052Zm7.698-.162c.78 0 1.476.162 2.088.486.624.324 1.11.804 1.458 1.44.348.636.522 1.404.522 2.304V716h-2.034v-5.544c0-.888-.222-1.566-.666-2.034-.444-.48-1.05-.72-1.818-.72s-1.38.24-1.836.72c-.444.468-.666 1.146-.666 2.034V716h-2.052v-9.918h2.052v1.134a3.412 3.412 0 0 1 1.278-.954 4.178 4.178 0 0 1 1.674-.342Zm6.002 5.076c0-.996.204-1.878.612-2.646.42-.768.984-1.362 1.692-1.782a4.532 4.532 0 0 1 2.376-.648c.78 0 1.458.156 2.034.468.588.3 1.056.678 1.404 1.134v-1.44h2.07V716h-2.07v-1.476c-.348.468-.822.858-1.422 1.17-.6.312-1.284.468-2.052.468a4.406 4.406 0 0 1-2.34-.648 4.81 4.81 0 0 1-1.692-1.836c-.408-.792-.612-1.686-.612-2.682Zm8.118.036c0-.684-.144-1.278-.432-1.782a2.907 2.907 0 0 0-1.098-1.152 2.896 2.896 0 0 0-1.476-.396c-.528 0-1.02.132-1.476.396-.456.252-.828.63-1.116 1.134-.276.492-.414 1.08-.414 1.764 0 .684.138 1.284.414 1.8.288.516.66.912 1.116 1.188.468.264.96.396 1.476.396.528 0 1.02-.132 1.476-.396a2.907 2.907 0 0 0 1.098-1.152c.288-.516.432-1.116.432-1.8Zm9.769-5.112c.78 0 1.476.162 2.088.486.624.324 1.11.804 1.458 1.44.348.636.522 1.404.522 2.304V716h-2.034v-5.544c0-.888-.222-1.566-.666-2.034-.444-.48-1.05-.72-1.818-.72s-1.38.24-1.836.72c-.444.468-.666 1.146-.666 2.034V716h-2.052v-9.918h2.052v1.134a3.412 3.412 0 0 1 1.278-.954 4.178 4.178 0 0 1 1.674-.342Zm10.862 8.514c1.188 0 1.974-.522 2.358-1.566h2.214c-.264.912-.738 1.662-1.422 2.25-.672.576-1.518.912-2.538 1.008v.738c.696 0 1.26.162 1.692.486.432.336.648.804.648 1.404 0 .6-.216 1.074-.648 1.422-.432.36-.978.54-1.638.54h-2.376v-1.296h1.962c.336 0 .588-.048.756-.144.168-.096.252-.27.252-.522s-.084-.426-.252-.522c-.168-.096-.42-.144-.756-.144h-.99v-1.98a4.583 4.583 0 0 1-2.16-.81 4.654 4.654 0 0 1-1.458-1.764c-.336-.732-.504-1.566-.504-2.502 0-1.02.204-1.914.612-2.682.42-.78.996-1.38 1.728-1.8.732-.42 1.572-.63 2.52-.63 1.2 0 2.19.288 2.97.864.792.564 1.326 1.374 1.602 2.43h-2.214a2.341 2.341 0 0 0-.864-1.152c-.396-.276-.894-.414-1.494-.414-.84 0-1.512.3-2.016.9-.492.588-.738 1.416-.738 2.484s.246 1.902.738 2.502c.504.6 1.176.9 2.016.9Zm5.933-3.438c0-.996.204-1.878.612-2.646.42-.768.984-1.362 1.692-1.782a4.532 4.532 0 0 1 2.376-.648c.78 0 1.458.156 2.034.468.588.3 1.056.678 1.404 1.134v-1.44h2.07V716h-2.07v-1.476c-.348.468-.822.858-1.422 1.17-.6.312-1.284.468-2.052.468a4.406 4.406 0 0 1-2.34-.648 4.81 4.81 0 0 1-1.692-1.836c-.408-.792-.612-1.686-.612-2.682Zm8.118.036c0-.684-.144-1.278-.432-1.782a2.907 2.907 0 0 0-1.098-1.152 2.896 2.896 0 0 0-1.476-.396c-.528 0-1.02.132-1.476.396-.456.252-.828.63-1.116 1.134-.276.492-.414 1.08-.414 1.764 0 .684.138 1.284.414 1.8.288.516.66.912 1.116 1.188.468.264.96.396 1.476.396.528 0 1.02-.132 1.476-.396a2.907 2.907 0 0 0 1.098-1.152c.288-.516.432-1.116.432-1.8Zm8.365 5.13c-.78 0-1.482-.138-2.106-.414-.612-.288-1.098-.672-1.458-1.152a2.915 2.915 0 0 1-.576-1.638h2.124c.036.42.234.774.594 1.062.372.276.834.414 1.386.414.576 0 1.02-.108 1.332-.324.324-.228.486-.516.486-.864 0-.372-.18-.648-.54-.828-.348-.18-.906-.378-1.674-.594a16.244 16.244 0 0 1-1.818-.594 3.263 3.263 0 0 1-1.224-.882c-.336-.396-.504-.918-.504-1.566 0-.528.156-1.008.468-1.44.312-.444.756-.792 1.332-1.044.588-.252 1.26-.378 2.016-.378 1.128 0 2.034.288 2.718.864.696.564 1.068 1.338 1.116 2.322h-2.052c-.036-.444-.216-.798-.54-1.062-.324-.264-.762-.396-1.314-.396-.54 0-.954.102-1.242.306-.288.204-.432.474-.432.81 0 .264.096.486.288.666.192.18.426.324.702.432.276.096.684.222 1.224.378.72.192 1.308.39 1.764.594.468.192.87.48 1.206.864.336.384.51.894.522 1.53 0 .564-.156 1.068-.468 1.512-.312.444-.756.792-1.332 1.044-.564.252-1.23.378-1.998.378Zm10.007-5.166c0-.996.204-1.878.612-2.646a4.564 4.564 0 0 1 4.086-2.43 4.51 4.51 0 0 1 1.908.432c.636.276 1.14.648 1.512 1.116v-4.788h2.07V716h-2.07v-1.494c-.336.48-.804.876-1.404 1.188-.588.312-1.266.468-2.034.468a4.532 4.532 0 0 1-2.376-.648 4.81 4.81 0 0 1-1.692-1.836c-.408-.792-.612-1.686-.612-2.682Zm8.118.036c0-.684-.144-1.278-.432-1.782a2.907 2.907 0 0 0-1.098-1.152 2.896 2.896 0 0 0-1.476-.396c-.528 0-1.02.132-1.476.396-.456.252-.828.63-1.116 1.134-.276.492-.414 1.08-.414 1.764 0 .684.138 1.284.414 1.8.288.516.66.912 1.116 1.188.468.264.96.396 1.476.396.528 0 1.02-.132 1.476-.396a2.907 2.907 0 0 0 1.098-1.152c.288-.516.432-1.116.432-1.8Zm13.855-.234c0 .372-.024.708-.072 1.008h-7.578c.06.792.354 1.428.882 1.908s1.176.72 1.944.72c1.104 0 1.884-.462 2.34-1.386h2.214a4.498 4.498 0 0 1-1.638 2.25c-.78.576-1.752.864-2.916.864-.948 0-1.8-.21-2.556-.63a4.708 4.708 0 0 1-1.764-1.8c-.42-.78-.63-1.68-.63-2.7 0-1.02.204-1.914.612-2.682a4.428 4.428 0 0 1 1.746-1.8c.756-.42 1.62-.63 2.592-.63.936 0 1.77.204 2.502.612a4.31 4.31 0 0 1 1.71 1.728c.408.732.612 1.578.612 2.538Zm-2.142-.648c-.012-.756-.282-1.362-.81-1.818-.528-.456-1.182-.684-1.962-.684-.708 0-1.314.228-1.818.684-.504.444-.804 1.05-.9 1.818h5.49Zm12.437 6.012c-.78 0-1.482-.138-2.106-.414-.612-.288-1.098-.672-1.458-1.152a2.915 2.915 0 0 1-.576-1.638h2.124c.036.42.234.774.594 1.062.372.276.834.414 1.386.414.576 0 1.02-.108 1.332-.324.324-.228.486-.516.486-.864 0-.372-.18-.648-.54-.828-.348-.18-.906-.378-1.674-.594a16.244 16.244 0 0 1-1.818-.594 3.263 3.263 0 0 1-1.224-.882c-.336-.396-.504-.918-.504-1.566 0-.528.156-1.008.468-1.44.312-.444.756-.792 1.332-1.044.588-.252 1.26-.378 2.016-.378 1.128 0 2.034.288 2.718.864.696.564 1.068 1.338 1.116 2.322h-2.052c-.036-.444-.216-.798-.54-1.062-.324-.264-.762-.396-1.314-.396-.54 0-.954.102-1.242.306-.288.204-.432.474-.432.81 0 .264.096.486.288.666.192.18.426.324.702.432.276.096.684.222 1.224.378.72.192 1.308.39 1.764.594.468.192.87.48 1.206.864.336.384.51.894.522 1.53 0 .564-.156 1.068-.468 1.512-.312.444-.756.792-1.332 1.044-.564.252-1.23.378-1.998.378Zm14.997-10.08V716h-2.052v-1.17c-.324.408-.75.732-1.278.972a4.051 4.051 0 0 1-1.656.342c-.78 0-1.482-.162-2.106-.486a3.582 3.582 0 0 1-1.458-1.44c-.348-.636-.522-1.404-.522-2.304v-5.832h2.034v5.526c0 .888.222 1.572.666 2.052.444.468 1.05.702 1.818.702s1.374-.234 1.818-.702c.456-.48.684-1.164.684-2.052v-5.526h2.052Zm2.024 4.914c0-.996.204-1.878.612-2.646.42-.768.984-1.362 1.692-1.782a4.532 4.532 0 0 1 2.376-.648c.78 0 1.458.156 2.034.468.588.3 1.056.678 1.404 1.134v-1.44h2.07V716h-2.07v-1.476c-.348.468-.822.858-1.422 1.17-.6.312-1.284.468-2.052.468a4.406 4.406 0 0 1-2.34-.648 4.81 4.81 0 0 1-1.692-1.836c-.408-.792-.612-1.686-.612-2.682Zm8.118.036c0-.684-.144-1.278-.432-1.782a2.907 2.907 0 0 0-1.098-1.152 2.896 2.896 0 0 0-1.476-.396c-.528 0-1.02.132-1.476.396-.456.252-.828.63-1.116 1.134-.276.492-.414 1.08-.414 1.764 0 .684.138 1.284.414 1.8.288.516.66.912 1.116 1.188.468.264.96.396 1.476.396.528 0 1.02-.132 1.476-.396a2.907 2.907 0 0 0 1.098-1.152c.288-.516.432-1.116.432-1.8Zm18.531-.234c0 .372-.024.708-.072 1.008h-7.578c.06.792.354 1.428.882 1.908s1.176.72 1.944.72c1.104 0 1.884-.462 2.34-1.386h2.214a4.498 4.498 0 0 1-1.638 2.25c-.78.576-1.752.864-2.916.864-.948 0-1.8-.21-2.556-.63a4.708 4.708 0 0 1-1.764-1.8c-.42-.78-.63-1.68-.63-2.7 0-1.02.204-1.914.612-2.682a4.428 4.428 0 0 1 1.746-1.8c.756-.42 1.62-.63 2.592-.63.936 0 1.77.204 2.502.612a4.31 4.31 0 0 1 1.71 1.728c.408.732.612 1.578.612 2.538Zm-2.142-.648c-.012-.756-.282-1.362-.81-1.818-.528-.456-1.182-.684-1.962-.684-.708 0-1.314.228-1.818.684-.504.444-.804 1.05-.9 1.818h5.49Zm16.167-4.23c.78 0 1.476.162 2.088.486.624.324 1.11.804 1.458 1.44.36.636.54 1.404.54 2.304V716h-2.034v-5.544c0-.888-.222-1.566-.666-2.034-.444-.48-1.05-.72-1.818-.72s-1.38.24-1.836.72c-.444.468-.666 1.146-.666 2.034V716h-2.034v-5.544c0-.888-.222-1.566-.666-2.034-.444-.48-1.05-.72-1.818-.72s-1.38.24-1.836.72c-.444.468-.666 1.146-.666 2.034V716h-2.052v-9.918h2.052v1.134a3.412 3.412 0 0 1 1.278-.954 4.051 4.051 0 0 1 1.656-.342c.792 0 1.5.168 2.124.504a3.445 3.445 0 0 1 1.44 1.458c.3-.6.768-1.074 1.404-1.422.636-.36 1.32-.54 2.052-.54Zm8.749 1.62c.348-.456.822-.84 1.422-1.152.6-.312 1.278-.468 2.034-.468.864 0 1.65.216 2.358.648a4.407 4.407 0 0 1 1.692 1.782c.408.768.612 1.65.612 2.646s-.204 1.89-.612 2.682a4.63 4.63 0 0 1-1.692 1.836 4.439 4.439 0 0 1-2.358.648c-.756 0-1.428-.15-2.016-.45a4.624 4.624 0 0 1-1.44-1.152v6.156h-2.052v-14.634h2.052v1.458Zm6.03 3.456c0-.684-.144-1.272-.432-1.764a2.748 2.748 0 0 0-1.116-1.134 2.896 2.896 0 0 0-1.476-.396 2.96 2.96 0 0 0-1.476.396 3.033 3.033 0 0 0-1.116 1.152c-.276.504-.414 1.098-.414 1.782 0 .684.138 1.284.414 1.8.288.504.66.888 1.116 1.152.468.264.96.396 1.476.396.528 0 1.02-.132 1.476-.396.468-.276.84-.672 1.116-1.188.288-.516.432-1.116.432-1.8Zm6.17-3.474c.3-.504.696-.894 1.188-1.17.504-.288 1.098-.432 1.782-.432v2.124h-.522c-.804 0-1.416.204-1.836.612-.408.408-.612 1.116-.612 2.124V716h-2.052v-9.918h2.052v1.44Zm13.946 3.276c0 .372-.024.708-.072 1.008h-7.578c.06.792.354 1.428.882 1.908s1.176.72 1.944.72c1.104 0 1.884-.462 2.34-1.386h2.214a4.498 4.498 0 0 1-1.638 2.25c-.78.576-1.752.864-2.916.864-.948 0-1.8-.21-2.556-.63a4.708 4.708 0 0 1-1.764-1.8c-.42-.78-.63-1.68-.63-2.7 0-1.02.204-1.914.612-2.682a4.428 4.428 0 0 1 1.746-1.8c.756-.42 1.62-.63 2.592-.63.936 0 1.77.204 2.502.612a4.31 4.31 0 0 1 1.71 1.728c.408.732.612 1.578.612 2.538Zm-2.142-.648c-.012-.756-.282-1.362-.81-1.818-.528-.456-1.182-.684-1.962-.684-.708 0-1.314.228-1.818.684-.504.444-.804 1.05-.9 1.818h5.49Zm7.761 6.012c-.78 0-1.482-.138-2.106-.414-.612-.288-1.098-.672-1.458-1.152a2.915 2.915 0 0 1-.576-1.638h2.124c.036.42.234.774.594 1.062.372.276.834.414 1.386.414.576 0 1.02-.108 1.332-.324.324-.228.486-.516.486-.864 0-.372-.18-.648-.54-.828-.348-.18-.906-.378-1.674-.594a16.244 16.244 0 0 1-1.818-.594 3.263 3.263 0 0 1-1.224-.882c-.336-.396-.504-.918-.504-1.566 0-.528.156-1.008.468-1.44.312-.444.756-.792 1.332-1.044.588-.252 1.26-.378 2.016-.378 1.128 0 2.034.288 2.718.864.696.564 1.068 1.338 1.116 2.322h-2.052c-.036-.444-.216-.798-.54-1.062-.324-.264-.762-.396-1.314-.396-.54 0-.954.102-1.242.306-.288.204-.432.474-.432.81 0 .264.096.486.288.666.192.18.426.324.702.432.276.096.684.222 1.224.378.72.192 1.308.39 1.764.594.468.192.87.48 1.206.864.336.384.51.894.522 1.53 0 .564-.156 1.068-.468 1.512-.312.444-.756.792-1.332 1.044-.564.252-1.23.378-1.998.378Zm5.331-5.166c0-.996.204-1.878.612-2.646.42-.768.984-1.362 1.692-1.782a4.532 4.532 0 0 1 2.376-.648c.78 0 1.458.156 2.034.468.588.3 1.056.678 1.404 1.134v-1.44h2.07V716h-2.07v-1.476c-.348.468-.822.858-1.422 1.17-.6.312-1.284.468-2.052.468a4.406 4.406 0 0 1-2.34-.648 4.81 4.81 0 0 1-1.692-1.836c-.408-.792-.612-1.686-.612-2.682Zm8.118.036c0-.684-.144-1.278-.432-1.782a2.907 2.907 0 0 0-1.098-1.152 2.896 2.896 0 0 0-1.476-.396c-.528 0-1.02.132-1.476.396-.456.252-.828.63-1.116 1.134-.276.492-.414 1.08-.414 1.764 0 .684.138 1.284.414 1.8.288.516.66.912 1.116 1.188.468.264.96.396 1.476.396.528 0 1.02-.132 1.476-.396a2.907 2.907 0 0 0 1.098-1.152c.288-.516.432-1.116.432-1.8Zm8.757 0c0-1.02.204-1.914.612-2.682.42-.78.996-1.38 1.728-1.8.732-.42 1.572-.63 2.52-.63 1.2 0 2.19.288 2.97.864.792.564 1.326 1.374 1.602 2.43h-2.214a2.341 2.341 0 0 0-.864-1.152c-.396-.276-.894-.414-1.494-.414-.84 0-1.512.3-2.016.9-.492.588-.738 1.416-.738 2.484s.246 1.902.738 2.502c.504.6 1.176.9 2.016.9 1.188 0 1.974-.522 2.358-1.566h2.214c-.288 1.008-.828 1.812-1.62 2.412-.792.588-1.776.882-2.952.882-.948 0-1.788-.21-2.52-.63a4.62 4.62 0 0 1-1.728-1.8c-.408-.78-.612-1.68-.612-2.7Zm15.779 5.13c-.936 0-1.782-.21-2.538-.63a4.67 4.67 0 0 1-1.782-1.8c-.432-.78-.648-1.68-.648-2.7 0-1.008.222-1.902.666-2.682a4.6 4.6 0 0 1 1.818-1.8c.768-.42 1.626-.63 2.574-.63s1.806.21 2.574.63a4.6 4.6 0 0 1 1.818 1.8c.444.78.666 1.674.666 2.682s-.228 1.902-.684 2.682a4.783 4.783 0 0 1-1.872 1.818c-.78.42-1.644.63-2.592.63Zm0-1.782c.528 0 1.02-.126 1.476-.378.468-.252.846-.63 1.134-1.134.288-.504.432-1.116.432-1.836s-.138-1.326-.414-1.818c-.276-.504-.642-.882-1.098-1.134a3.003 3.003 0 0 0-1.476-.378c-.528 0-1.02.126-1.476.378-.444.252-.798.63-1.062 1.134-.264.492-.396 1.098-.396 1.818 0 1.068.27 1.896.81 2.484.552.576 1.242.864 2.07.864Zm19.183-8.46c.78 0 1.476.162 2.088.486.624.324 1.11.804 1.458 1.44.36.636.54 1.404.54 2.304V716h-2.034v-5.544c0-.888-.222-1.566-.666-2.034-.444-.48-1.05-.72-1.818-.72s-1.38.24-1.836.72c-.444.468-.666 1.146-.666 2.034V716h-2.034v-5.544c0-.888-.222-1.566-.666-2.034-.444-.48-1.05-.72-1.818-.72s-1.38.24-1.836.72c-.444.468-.666 1.146-.666 2.034V716h-2.052v-9.918h2.052v1.134a3.412 3.412 0 0 1 1.278-.954 4.051 4.051 0 0 1 1.656-.342c.792 0 1.5.168 2.124.504a3.445 3.445 0 0 1 1.44 1.458c.3-.6.768-1.074 1.404-1.422.636-.36 1.32-.54 2.052-.54ZM44.95 741.162c-.78 0-1.482-.138-2.106-.414-.612-.288-1.098-.672-1.458-1.152a2.915 2.915 0 0 1-.576-1.638h2.124c.036.42.234.774.594 1.062.372.276.834.414 1.386.414.576 0 1.02-.108 1.332-.324.324-.228.486-.516.486-.864 0-.372-.18-.648-.54-.828-.348-.18-.906-.378-1.674-.594a16.244 16.244 0 0 1-1.818-.594 3.263 3.263 0 0 1-1.224-.882c-.336-.396-.504-.918-.504-1.566 0-.528.156-1.008.468-1.44.312-.444.756-.792 1.332-1.044.588-.252 1.26-.378 2.016-.378 1.128 0 2.034.288 2.718.864.696.564 1.068 1.338 1.116 2.322H46.57c-.036-.444-.216-.798-.54-1.062-.324-.264-.762-.396-1.314-.396-.54 0-.954.102-1.242.306-.288.204-.432.474-.432.81 0 .264.096.486.288.666.192.18.426.324.702.432.276.096.684.222 1.224.378.72.192 1.308.39 1.764.594.468.192.87.48 1.206.864.336.384.51.894.522 1.53 0 .564-.156 1.068-.468 1.512-.312.444-.756.792-1.332 1.044-.564.252-1.23.378-1.998.378Zm7.06-11.394c-.373 0-.685-.126-.937-.378a1.271 1.271 0 0 1-.378-.936c0-.372.126-.684.378-.936s.564-.378.936-.378c.36 0 .666.126.918.378s.378.564.378.936c0 .372-.126.684-.378.936a1.25 1.25 0 0 1-.918.378Zm1.007 1.314V741h-2.052v-9.918h2.052Zm14.7-.162c.78 0 1.476.162 2.088.486.624.324 1.11.804 1.458 1.44.36.636.54 1.404.54 2.304V741H69.77v-5.544c0-.888-.222-1.566-.666-2.034-.444-.48-1.05-.72-1.818-.72s-1.38.24-1.836.72c-.444.468-.666 1.146-.666 2.034V741H62.75v-5.544c0-.888-.222-1.566-.666-2.034-.444-.48-1.05-.72-1.818-.72s-1.38.24-1.836.72c-.444.468-.666 1.146-.666 2.034V741h-2.052v-9.918h2.052v1.134a3.412 3.412 0 0 1 1.278-.954 4.051 4.051 0 0 1 1.656-.342c.792 0 1.5.168 2.124.504a3.445 3.445 0 0 1 1.44 1.458c.3-.6.768-1.074 1.404-1.422.636-.36 1.32-.54 2.052-.54Zm8.75 1.62c.347-.456.822-.84 1.421-1.152.6-.312 1.278-.468 2.034-.468.865 0 1.65.216 2.359.648a4.407 4.407 0 0 1 1.691 1.782c.409.768.613 1.65.613 2.646s-.204 1.89-.612 2.682a4.63 4.63 0 0 1-1.692 1.836 4.439 4.439 0 0 1-2.359.648c-.755 0-1.427-.15-2.016-.45a4.624 4.624 0 0 1-1.44-1.152v6.156h-2.051v-14.634h2.051v1.458Zm6.03 3.456c0-.684-.144-1.272-.433-1.764a2.748 2.748 0 0 0-1.115-1.134 2.896 2.896 0 0 0-1.477-.396 2.96 2.96 0 0 0-1.475.396 3.033 3.033 0 0 0-1.117 1.152c-.275.504-.413 1.098-.413 1.782 0 .684.138 1.284.413 1.8.288.504.66.888 1.117 1.152.468.264.96.396 1.475.396.529 0 1.02-.132 1.477-.396.468-.276.84-.672 1.115-1.188.289-.516.433-1.116.433-1.8Zm6.169-8.316V741h-2.052v-13.32h2.052Zm3.738 2.088c-.372 0-.684-.126-.936-.378a1.271 1.271 0 0 1-.378-.936c0-.372.126-.684.378-.936s.564-.378.936-.378c.36 0 .666.126.918.378s.378.564.378.936c0 .372-.126.684-.378.936a1.25 1.25 0 0 1-.918.378Zm1.008 1.314V741H91.36v-9.918h2.052Zm2.01 4.95c0-1.02.204-1.914.612-2.682.42-.78.996-1.38 1.728-1.8.732-.42 1.572-.63 2.52-.63 1.2 0 2.19.288 2.97.864.792.564 1.326 1.374 1.602 2.43h-2.214a2.341 2.341 0 0 0-.864-1.152c-.396-.276-.894-.414-1.494-.414-.84 0-1.512.3-2.016.9-.492.588-.738 1.416-.738 2.484s.246 1.902.738 2.502c.504.6 1.176.9 2.016.9 1.188 0 1.974-.522 2.358-1.566h2.214c-.288 1.008-.828 1.812-1.62 2.412-.792.588-1.776.882-2.952.882-.948 0-1.788-.21-2.52-.63a4.62 4.62 0 0 1-1.728-1.8c-.408-.78-.612-1.68-.612-2.7Zm12.521-6.264c-.372 0-.684-.126-.936-.378a1.271 1.271 0 0 1-.378-.936c0-.372.126-.684.378-.936s.564-.378.936-.378c.36 0 .666.126.918.378s.378.564.378.936c0 .372-.126.684-.378.936a1.25 1.25 0 0 1-.918.378Zm1.008 1.314V741h-2.052v-9.918h2.052Zm2.01 4.914c0-.996.204-1.878.612-2.646a4.564 4.564 0 0 1 4.086-2.43 4.51 4.51 0 0 1 1.908.432c.636.276 1.14.648 1.512 1.116v-4.788h2.07V741h-2.07v-1.494c-.336.48-.804.876-1.404 1.188-.588.312-1.266.468-2.034.468a4.532 4.532 0 0 1-2.376-.648 4.81 4.81 0 0 1-1.692-1.836c-.408-.792-.612-1.686-.612-2.682Zm8.118.036c0-.684-.144-1.278-.432-1.782a2.907 2.907 0 0 0-1.098-1.152 2.896 2.896 0 0 0-1.476-.396c-.528 0-1.02.132-1.476.396-.456.252-.828.63-1.116 1.134-.276.492-.414 1.08-.414 1.764 0 .684.138 1.284.414 1.8.288.516.66.912 1.116 1.188.468.264.96.396 1.476.396.528 0 1.02-.132 1.476-.396a2.907 2.907 0 0 0 1.098-1.152c.288-.516.432-1.116.432-1.8Zm4.081-.036c0-.996.204-1.878.612-2.646.42-.768.984-1.362 1.692-1.782a4.532 4.532 0 0 1 2.376-.648c.78 0 1.458.156 2.034.468.588.3 1.056.678 1.404 1.134v-1.44h2.07V741h-2.07v-1.476c-.348.468-.822.858-1.422 1.17-.6.312-1.284.468-2.052.468a4.406 4.406 0 0 1-2.34-.648 4.81 4.81 0 0 1-1.692-1.836c-.408-.792-.612-1.686-.612-2.682Zm8.118.036c0-.684-.144-1.278-.432-1.782a2.907 2.907 0 0 0-1.098-1.152 2.896 2.896 0 0 0-1.476-.396c-.528 0-1.02.132-1.476.396-.456.252-.828.63-1.116 1.134-.276.492-.414 1.08-.414 1.764 0 .684.138 1.284.414 1.8.288.516.66.912 1.116 1.188.468.264.96.396 1.476.396.528 0 1.02-.132 1.476-.396a2.907 2.907 0 0 0 1.098-1.152c.288-.516.432-1.116.432-1.8Zm4.081-.036c0-.996.204-1.878.612-2.646a4.564 4.564 0 0 1 4.086-2.43 4.51 4.51 0 0 1 1.908.432c.636.276 1.14.648 1.512 1.116v-4.788h2.07V741h-2.07v-1.494c-.336.48-.804.876-1.404 1.188-.588.312-1.266.468-2.034.468a4.532 4.532 0 0 1-2.376-.648 4.81 4.81 0 0 1-1.692-1.836c-.408-.792-.612-1.686-.612-2.682Zm8.118.036c0-.684-.144-1.278-.432-1.782a2.907 2.907 0 0 0-1.098-1.152 2.896 2.896 0 0 0-1.476-.396c-.528 0-1.02.132-1.476.396-.456.252-.828.63-1.116 1.134-.276.492-.414 1.08-.414 1.764 0 .684.138 1.284.414 1.8.288.516.66.912 1.116 1.188.468.264.96.396 1.476.396.528 0 1.02-.132 1.476-.396a2.907 2.907 0 0 0 1.098-1.152c.288-.516.432-1.116.432-1.8Zm13.856-.234c0 .372-.024.708-.072 1.008h-7.578c.06.792.354 1.428.882 1.908s1.176.72 1.944.72c1.104 0 1.884-.462 2.34-1.386h2.214a4.498 4.498 0 0 1-1.638 2.25c-.78.576-1.752.864-2.916.864-.948 0-1.8-.21-2.556-.63a4.708 4.708 0 0 1-1.764-1.8c-.42-.78-.63-1.68-.63-2.7 0-1.02.204-1.914.612-2.682a4.428 4.428 0 0 1 1.746-1.8c.756-.42 1.62-.63 2.592-.63.936 0 1.77.204 2.502.612a4.31 4.31 0 0 1 1.71 1.728c.408.732.612 1.578.612 2.538Zm-2.142-.648c-.012-.756-.282-1.362-.81-1.818-.528-.456-1.182-.684-1.962-.684-.708 0-1.314.228-1.818.684-.504.444-.804 1.05-.9 1.818h5.49Zm6.735-6.66-.234 8.73h-1.71l-.234-8.73h2.178Zm-1.026 12.636c-.372 0-.684-.126-.936-.378a1.271 1.271 0 0 1-.378-.936c0-.372.126-.684.378-.936s.564-.378.936-.378c.36 0 .666.126.918.378s.378.564.378.936c0 .372-.126.684-.378.936a1.25 1.25 0 0 1-.918.378Z"/><defs><clipPath id="a"><path fill="#fff" d="M0 40C0 17.909 17.909 0 40 0h536c22.091 0 40 17.909 40 40v580H0V40Z"/></clipPath><clipPath id="b"><path fill="#fff" d="M120 80h32v32h-32z"/></clipPath></defs></svg>