<?xml version="1.0" encoding="utf-8"?>
<!-- Generator: Adobe Illustrator 27.3.1, SVG Export Plug-In . SVG Version: 6.00 Build 0)  -->
<svg version="1.1" id="Camada_1" xmlns="http://www.w3.org/2000/svg" xmlns:xlink="http://www.w3.org/1999/xlink" x="0px" y="0px"
	 viewBox="0 0 345.39 309.03" style="enable-background:new 0 0 345.39 309.03;" xml:space="preserve">
<style type="text/css">
	.st0{clip-path:url(#SVGID_00000121970228530482059790000014915939292503047346_);}
	.st1{clip-path:url(#SVGID_00000135680801731984341100000000693728852206015882_);}
	.st2{fill:#FFFFFF;}
	.st3{clip-path:url(#SVGID_00000178206822335633654780000013410221844296688512_);}
	.st4{clip-path:url(#SVGID_00000039104316267698498290000015344224592161157009_);}
	.st5{clip-path:url(#SVGID_00000132059155271162648470000005126718239225927303_);}
	.st6{fill:#0B4B33;}
	.st7{fill:#D9D9D9;}
	.st8{clip-path:url(#SVGID_00000011730384615007371350000018132085232309445052_);}
	.st9{clip-path:url(#SVGID_00000019644550920177450090000006277246767597580167_);}
	.st10{clip-path:url(#SVGID_00000139975042338236875200000000484256822387071648_);}
	.st11{clip-path:url(#SVGID_00000011718553985515700320000006725729573646104244_);}
	.st12{clip-path:url(#SVGID_00000026865319754554781250000017675388763467709576_);}
	.st13{clip-path:url(#SVGID_00000163034186544571431210000006765499402546700207_);}
	.st14{clip-path:url(#SVGID_00000019644956182748671980000014620381101789387144_);}
	.st15{clip-path:url(#SVGID_00000067938602548699606050000012128314474125280901_);}
	.st16{clip-path:url(#SVGID_00000009584529596098945910000002342904213921990807_);}
	.st17{clip-path:url(#SVGID_00000119109808220600145550000016033092141561752735_);}
	.st18{clip-path:url(#SVGID_00000029031906341486620920000006771543281553012640_);}
	.st19{clip-path:url(#SVGID_00000028292703980486427220000004274924278968857992_);}
	.st20{clip-path:url(#SVGID_00000110452690645378465700000002450702601930665651_);}
	.st21{clip-path:url(#SVGID_00000130631151994454215770000003160473185052614551_);}
	.st22{clip-path:url(#SVGID_00000054245961550636243050000010506154809080419972_);}
	.st23{clip-path:url(#SVGID_00000149381264985758592670000008021730630281050028_);}
	.st24{clip-path:url(#SVGID_00000093856610505885914880000003712109276963180700_);}
	.st25{clip-path:url(#SVGID_00000053537569940070731910000007168305894057525428_);}
	.st26{clip-path:url(#SVGID_00000063601988588450644850000017805783765104781197_);}
	.st27{fill:#DF6F28;}
	.st28{fill:#BA6129;}
	.st29{clip-path:url(#SVGID_00000133495208155778392920000005289579212427183240_);}
	.st30{clip-path:url(#SVGID_00000090260818900291704840000001201022255420413328_);}
	.st31{clip-path:url(#SVGID_00000115479038502226621570000016481604245974397339_);}
	.st32{clip-path:url(#SVGID_00000130610587301469431290000005695811654763361173_);}
	.st33{clip-path:url(#SVGID_00000165222933829303930800000003861964107748589211_);}
	.st34{clip-path:url(#SVGID_00000078005473553413081050000006577190861811453866_);}
	.st35{clip-path:url(#SVGID_00000129893636638691875330000006661484724284936378_);}
	.st36{clip-path:url(#SVGID_00000088091227864426298330000009651628949879416503_);}
	.st37{clip-path:url(#SVGID_00000149350428424557165140000000090053924700431254_);}
	.st38{clip-path:url(#SVGID_00000066479651486812464920000013252861376868465836_);}
	.st39{fill:#D4D6D5;}
	.st40{clip-path:url(#SVGID_00000019655087235805026550000016248790776581536153_);}
	.st41{fill:none;}
</style>
<g>
	<g>
		<defs>
			<rect id="SVGID_1_" x="122.88" y="37.6" width="109.24" height="62.85"/>
		</defs>
		<clipPath id="SVGID_00000155834839251857953220000016892258405655818152_">
			<use xlink:href="#SVGID_1_"  style="overflow:visible;"/>
		</clipPath>
		<g style="clip-path:url(#SVGID_00000155834839251857953220000016892258405655818152_);">
			<defs>
				<path id="SVGID_00000049202179652812571660000016875891085079577262_" d="M141.96,37.6h71.04c10.54,0,19.09,8.54,19.09,19.09
					v24.67c0,10.54-8.54,19.09-19.09,19.09h-71.04c-10.54,0-19.09-8.54-19.09-19.09V56.69C122.88,46.15,131.42,37.6,141.96,37.6z"/>
			</defs>
			<clipPath id="SVGID_00000150797351765997595680000001748299117192436114_">
				<use xlink:href="#SVGID_00000049202179652812571660000016875891085079577262_"  style="overflow:visible;"/>
			</clipPath>
			<g style="clip-path:url(#SVGID_00000150797351765997595680000001748299117192436114_);">
				<rect x="122.88" y="37.6" class="st2" width="109.24" height="62.85"/>
			</g>
		</g>
	</g>
	<g>
		<defs>
			<rect id="SVGID_00000138564550539015079490000011419889548007937970_" x="122.88" y="37.6" width="109.21" height="62.71"/>
		</defs>
		<clipPath id="SVGID_00000089535395557235706790000009241377588047576767_">
			<use xlink:href="#SVGID_00000138564550539015079490000011419889548007937970_"  style="overflow:visible;"/>
		</clipPath>
		<g style="clip-path:url(#SVGID_00000089535395557235706790000009241377588047576767_);">
			<defs>
				<rect id="SVGID_00000033364473689423769930000003622244618362523288_" x="122.88" y="37.61" width="110.06" height="64.04"/>
			</defs>
			<clipPath id="SVGID_00000090269364200929212790000008903303205064898493_">
				<use xlink:href="#SVGID_00000033364473689423769930000003622244618362523288_"  style="overflow:visible;"/>
			</clipPath>
			<g style="clip-path:url(#SVGID_00000090269364200929212790000008903303205064898493_);">
				<defs>
					<path id="SVGID_00000182495908932286836160000009438110893775459218_" d="M141.96,37.61H213c10.54,0,19.08,8.54,19.08,19.09
						v24.67c0,10.54-8.54,19.09-19.08,19.09h-71.04c-10.54,0-19.08-8.54-19.08-19.09V56.69C122.88,46.15,131.42,37.61,141.96,37.61z
						"/>
				</defs>
				<clipPath id="SVGID_00000170270700366004652580000009090741430245155477_">
					<use xlink:href="#SVGID_00000182495908932286836160000009438110893775459218_"  style="overflow:visible;"/>
				</clipPath>
				<g style="clip-path:url(#SVGID_00000170270700366004652580000009090741430245155477_);">
					<path class="st6" d="M213,107.49h-71.04c-14.41,0-26.13-11.72-26.13-26.13V56.69c0-14.41,11.72-26.13,26.13-26.13H213
						c14.41,0,26.13,11.72,26.13,26.13v24.67C239.14,95.77,227.41,107.49,213,107.49z M141.96,44.65c-6.64,0-12.04,5.4-12.04,12.04
						v24.67c0,6.64,5.4,12.04,12.04,12.04H213c6.64,0,12.04-5.4,12.04-12.04V56.69c0-6.64-5.4-12.04-12.04-12.04H141.96z"/>
				</g>
			</g>
		</g>
	</g>
	<g>
		<path class="st7" d="M216,73.39c-1.85,0-3.35-1.5-3.35-3.35V61.3c0-2.98-2.42-5.4-5.4-5.4h-59.54c-2.98,0-5.4,2.42-5.4,5.4v8.74
			c0,1.85-1.5,3.35-3.35,3.35s-3.35-1.5-3.35-3.35V61.3c0-6.67,5.42-12.09,12.09-12.09h59.54c6.67,0,12.09,5.42,12.09,12.09v8.74
			C219.35,71.89,217.85,73.39,216,73.39z"/>
	</g>
	<g>
		<defs>
			<rect id="SVGID_00000121261842022609326520000013971482783737916351_" x="138.97" y="52.55" width="77.16" height="41.67"/>
		</defs>
		<clipPath id="SVGID_00000013904808277364425550000013670312409828603793_">
			<use xlink:href="#SVGID_00000121261842022609326520000013971482783737916351_"  style="overflow:visible;"/>
		</clipPath>
		<g style="clip-path:url(#SVGID_00000013904808277364425550000013670312409828603793_);">
			<defs>
				<path id="SVGID_00000034072182525620790260000018081934905741318283_" d="M147.78,52.55h59.41c2.34,0,4.58,0.93,6.23,2.58
					c1.65,1.65,2.58,3.89,2.58,6.23v24.06c0,2.34-0.93,4.58-2.58,6.23c-1.65,1.65-3.89,2.58-6.23,2.58h-59.41
					c-2.34,0-4.58-0.93-6.23-2.58c-1.65-1.65-2.58-3.89-2.58-6.23V61.36c0-2.34,0.93-4.58,2.58-6.23
					C143.2,53.48,145.44,52.55,147.78,52.55z"/>
			</defs>
			<clipPath id="SVGID_00000087393119521086748770000017312739141315982263_">
				<use xlink:href="#SVGID_00000034072182525620790260000018081934905741318283_"  style="overflow:visible;"/>
			</clipPath>
			<g style="clip-path:url(#SVGID_00000087393119521086748770000017312739141315982263_);">
				<rect x="138.97" y="52.55" class="st2" width="77" height="41.67"/>
			</g>
		</g>
	</g>
	<g>
		<defs>
			<rect id="SVGID_00000077302029192071645140000000444684743165407878_" x="138.97" y="52.55" width="77.15" height="41.57"/>
		</defs>
		<clipPath id="SVGID_00000066491269695416421830000004349565113719965088_">
			<use xlink:href="#SVGID_00000077302029192071645140000000444684743165407878_"  style="overflow:visible;"/>
		</clipPath>
		<g style="clip-path:url(#SVGID_00000066491269695416421830000004349565113719965088_);">
			<defs>
				<rect id="SVGID_00000098940255899757787890000013582427684338508221_" x="138.97" y="52.55" width="78.04" height="42.02"/>
			</defs>
			<clipPath id="SVGID_00000100381234869985417850000005498114389864624050_">
				<use xlink:href="#SVGID_00000098940255899757787890000013582427684338508221_"  style="overflow:visible;"/>
			</clipPath>
			<g style="clip-path:url(#SVGID_00000100381234869985417850000005498114389864624050_);">
				<defs>
					<path id="SVGID_00000030450263290566662320000016893871043654288804_" d="M147.78,52.55h59.41c2.34,0,4.58,0.93,6.23,2.58
						c1.65,1.65,2.58,3.89,2.58,6.23v24.06c0,2.34-0.93,4.58-2.58,6.23c-1.65,1.65-3.89,2.58-6.23,2.58h-59.41
						c-2.34,0-4.58-0.93-6.23-2.58c-1.65-1.65-2.58-3.89-2.58-6.23V61.36c0-2.34,0.93-4.58,2.58-6.23
						C143.2,53.48,145.44,52.55,147.78,52.55z"/>
				</defs>
				<clipPath id="SVGID_00000013902519602853657890000010204905178597073829_">
					<use xlink:href="#SVGID_00000030450263290566662320000016893871043654288804_"  style="overflow:visible;"/>
				</clipPath>
				<g style="clip-path:url(#SVGID_00000013902519602853657890000010204905178597073829_);">
					<path class="st6" d="M207.19,101.27h-59.41c-4.23,0-8.21-1.65-11.21-4.64c-2.99-2.99-4.64-6.97-4.64-11.21V61.36
						c0-4.24,1.65-8.22,4.64-11.21c2.99-2.99,6.97-4.64,11.21-4.64h59.41c4.23,0,8.21,1.65,11.21,4.64
						c2.99,2.99,4.64,6.97,4.64,11.21v24.06c0,4.23-1.65,8.21-4.64,11.21C215.4,99.62,211.42,101.27,207.19,101.27z M147.78,59.6
						c-0.47,0-0.91,0.18-1.24,0.52c-0.33,0.33-0.52,0.78-0.52,1.25v24.06c0,0.47,0.18,0.91,0.52,1.25c0.33,0.33,0.78,0.52,1.24,0.52
						h59.41c0.47,0,0.91-0.18,1.25-0.52c0.33-0.33,0.51-0.77,0.51-1.24V61.36c0-0.46-0.19-0.92-0.52-1.24
						c-0.33-0.33-0.78-0.52-1.25-0.52H147.78z"/>
				</g>
			</g>
		</g>
	</g>
	<g>
		<defs>
			<rect id="SVGID_00000132059324478653615330000008596960922024688043_" x="159.09" y="69.03" width="36.8" height="8.72"/>
		</defs>
		<clipPath id="SVGID_00000001623555254035622040000015009542882102228153_">
			<use xlink:href="#SVGID_00000132059324478653615330000008596960922024688043_"  style="overflow:visible;"/>
		</clipPath>
		<g style="clip-path:url(#SVGID_00000001623555254035622040000015009542882102228153_);">
			<defs>
				<path id="SVGID_00000004547352556426599360000001378836404535473815_" d="M163.45,69.03h28.07c1.16,0,2.27,0.46,3.08,1.28
					c0.82,0.82,1.28,1.93,1.28,3.08c0,1.16-0.46,2.27-1.28,3.08c-0.82,0.82-1.93,1.28-3.08,1.28h-28.07c-1.16,0-2.27-0.46-3.08-1.28
					c-0.82-0.82-1.28-1.93-1.28-3.08c0-1.16,0.46-2.27,1.28-3.08C161.18,69.49,162.29,69.03,163.45,69.03z"/>
			</defs>
			<clipPath id="SVGID_00000067218520590321060450000010657564952925042319_">
				<use xlink:href="#SVGID_00000004547352556426599360000001378836404535473815_"  style="overflow:visible;"/>
			</clipPath>
			<g style="clip-path:url(#SVGID_00000067218520590321060450000010657564952925042319_);">
				<rect x="159.09" y="69.03" class="st7" width="36.8" height="8.72"/>
			</g>
		</g>
	</g>
	<g>
		<defs>
			<rect id="SVGID_00000121998874700829880150000001116469207038875534_" x="159.09" y="69.03" width="36.64" height="8.81"/>
		</defs>
		<clipPath id="SVGID_00000172416626755458138440000012908430112876865182_">
			<use xlink:href="#SVGID_00000121998874700829880150000001116469207038875534_"  style="overflow:visible;"/>
		</clipPath>
		<g style="clip-path:url(#SVGID_00000172416626755458138440000012908430112876865182_);">
			<defs>
				<rect id="SVGID_00000170984178133594755390000013913888547069183672_" x="159.09" y="69.03" width="38.01" height="10"/>
			</defs>
			<clipPath id="SVGID_00000133490425062366420580000004065266974681820094_">
				<use xlink:href="#SVGID_00000170984178133594755390000013913888547069183672_"  style="overflow:visible;"/>
			</clipPath>
			<g style="clip-path:url(#SVGID_00000133490425062366420580000004065266974681820094_);">
				<defs>
					<path id="SVGID_00000107575500937937826750000010516401105870035332_" d="M163.45,69.03h28.06c1.16,0,2.26,0.46,3.08,1.28
						c0.82,0.82,1.28,1.93,1.28,3.08c0,1.16-0.46,2.27-1.28,3.08c-0.82,0.82-1.93,1.28-3.08,1.28h-28.06
						c-1.16,0-2.27-0.46-3.08-1.28c-0.82-0.82-1.28-1.93-1.28-3.08c0-1.16,0.46-2.27,1.28-3.08
						C161.19,69.49,162.3,69.03,163.45,69.03z"/>
				</defs>
				<clipPath id="SVGID_00000038395982955646188460000013355794369104335001_">
					<use xlink:href="#SVGID_00000107575500937937826750000010516401105870035332_"  style="overflow:visible;"/>
				</clipPath>
				<g style="clip-path:url(#SVGID_00000038395982955646188460000013355794369104335001_);">
					<path class="st6" d="M191.51,84.79h-28.06c-3.05,0-5.91-1.19-8.06-3.34c-2.15-2.15-3.34-5.02-3.34-8.06s1.19-5.91,3.34-8.06
						c2.15-2.15,5.02-3.34,8.06-3.34h28.06c3.05,0,5.91,1.19,8.06,3.34c2.15,2.15,3.34,5.02,3.34,8.06s-1.19,5.91-3.34,8.06
						C197.42,83.61,194.56,84.79,191.51,84.79z"/>
				</g>
			</g>
		</g>
	</g>
	<g>
		<defs>
			<rect id="SVGID_00000035521425344349434770000002298647979588224417_" x="61.9" y="73.39" width="231.71" height="187.71"/>
		</defs>
		<clipPath id="SVGID_00000062876720444272360110000015995983331559474599_">
			<use xlink:href="#SVGID_00000035521425344349434770000002298647979588224417_"  style="overflow:visible;"/>
		</clipPath>
		<g style="clip-path:url(#SVGID_00000062876720444272360110000015995983331559474599_);">
			<defs>
				<path id="SVGID_00000029738815663203326780000007242126483518990515_" d="M97.13,73.39h160.71c19.46,0,35.23,15.77,35.23,35.23
					v117.25c0,19.46-15.77,35.23-35.23,35.23H97.13c-19.46,0-35.23-15.77-35.23-35.23V108.62C61.9,89.16,77.68,73.39,97.13,73.39z"
					/>
			</defs>
			<clipPath id="SVGID_00000160871718334745102330000017274135933361285006_">
				<use xlink:href="#SVGID_00000029738815663203326780000007242126483518990515_"  style="overflow:visible;"/>
			</clipPath>
			<g style="clip-path:url(#SVGID_00000160871718334745102330000017274135933361285006_);">
				<rect x="61.9" y="73.39" class="st2" width="230.97" height="187.71"/>
			</g>
		</g>
	</g>
	<g>
		<defs>
			<rect id="SVGID_00000013874771727033601170000007312166766501496227_" x="61.9" y="73.39" width="231.1" height="187.77"/>
		</defs>
		<clipPath id="SVGID_00000035522952489122641950000003060010927865941685_">
			<use xlink:href="#SVGID_00000013874771727033601170000007312166766501496227_"  style="overflow:visible;"/>
		</clipPath>
		<g style="clip-path:url(#SVGID_00000035522952489122641950000003060010927865941685_);">
			<defs>
				<rect id="SVGID_00000054246269559983412090000004396945153853083523_" x="61.9" y="73.39" width="231.6" height="188.38"/>
			</defs>
			<clipPath id="SVGID_00000025417994789221317500000010108684714386015915_">
				<use xlink:href="#SVGID_00000054246269559983412090000004396945153853083523_"  style="overflow:visible;"/>
			</clipPath>
			<g style="clip-path:url(#SVGID_00000025417994789221317500000010108684714386015915_);">
				<defs>
					<path id="SVGID_00000131346842024930456360000003098703808215842729_" d="M97.13,73.39h160.7c19.46,0,35.23,15.77,35.23,35.23
						v117.25c0,19.46-15.77,35.23-35.23,35.23H97.13c-19.46,0-35.23-15.77-35.23-35.23V108.62C61.9,89.16,77.67,73.39,97.13,73.39z"
						/>
				</defs>
				<clipPath id="SVGID_00000181077082118281774510000006363696070969179524_">
					<use xlink:href="#SVGID_00000131346842024930456360000003098703808215842729_"  style="overflow:visible;"/>
				</clipPath>
				<g style="clip-path:url(#SVGID_00000181077082118281774510000006363696070969179524_);">
					<path class="st6" d="M257.84,268.14H97.13c-23.31,0-42.27-18.96-42.27-42.27V108.62c0-23.31,18.96-42.27,42.27-42.27h160.7
						c23.31,0,42.27,18.96,42.27,42.27v117.25C300.11,249.18,281.15,268.14,257.84,268.14z M97.13,80.43
						c-15.54,0-28.18,12.64-28.18,28.18v117.25c0,15.54,12.64,28.18,28.18,28.18h160.7c15.54,0,28.18-12.64,28.18-28.18V108.62
						c0-15.54-12.64-28.18-28.18-28.18H97.13z"/>
				</g>
			</g>
		</g>
	</g>
	<g>
		<defs>
			<rect id="SVGID_00000021121006066635133630000007253630169099085980_" x="70.89" y="105.66" width="213.32" height="145.24"/>
		</defs>
		<clipPath id="SVGID_00000067207805225989984320000007802633037452099735_">
			<use xlink:href="#SVGID_00000021121006066635133630000007253630169099085980_"  style="overflow:visible;"/>
		</clipPath>
		<g style="clip-path:url(#SVGID_00000067207805225989984320000007802633037452099735_);">
			<defs>
				<path id="SVGID_00000032625314112696134340000010812500882091790525_" d="M91.68,105.66h171.61c11.48,0,20.79,9.31,20.79,20.78
					v103.67c0,11.48-9.31,20.79-20.79,20.79H91.68c-11.48,0-20.79-9.31-20.79-20.79V126.44C70.89,114.96,80.2,105.66,91.68,105.66z"
					/>
			</defs>
			<clipPath id="SVGID_00000029756636316396889660000004411901813909384365_">
				<use xlink:href="#SVGID_00000032625314112696134340000010812500882091790525_"  style="overflow:visible;"/>
			</clipPath>
			<g style="clip-path:url(#SVGID_00000029756636316396889660000004411901813909384365_);">
				<rect x="70.89" y="105.66" class="st7" width="213.32" height="145.24"/>
			</g>
		</g>
	</g>
	<g>
		<defs>
			<rect id="SVGID_00000085933692957202512070000002171483512607605906_" x="83.2" y="92.03" width="188.63" height="150.44"/>
		</defs>
		<clipPath id="SVGID_00000147218268731355057580000010976026626448619138_">
			<use xlink:href="#SVGID_00000085933692957202512070000002171483512607605906_"  style="overflow:visible;"/>
		</clipPath>
		<g style="clip-path:url(#SVGID_00000147218268731355057580000010976026626448619138_);">
			<defs>
				<path id="SVGID_00000067213373495996837000000008592148065642717612_" d="M109.62,92.03h135.73c7.01,0,13.73,2.78,18.68,7.74
					c4.96,4.96,7.74,11.68,7.74,18.68v97.59c0,7.01-2.78,13.73-7.74,18.68c-4.95,4.95-11.68,7.74-18.68,7.74H109.62
					c-7.01,0-13.73-2.78-18.68-7.74c-4.95-4.96-7.74-11.68-7.74-18.68v-97.59c0-7.01,2.78-13.73,7.74-18.68
					C95.89,94.81,102.61,92.03,109.62,92.03z"/>
			</defs>
			<clipPath id="SVGID_00000121965734444375128430000002138134820205635482_">
				<use xlink:href="#SVGID_00000067213373495996837000000008592148065642717612_"  style="overflow:visible;"/>
			</clipPath>
			<g style="clip-path:url(#SVGID_00000121965734444375128430000002138134820205635482_);">
				<rect x="83.2" y="92.03" class="st27" width="188.63" height="150.44"/>
			</g>
		</g>
	</g>
	<g>
		<path class="st28" d="M265.55,224.07H89.69c-1.7,0-3.3-0.66-4.51-1.87c-1.2-1.21-1.87-2.81-1.87-4.51v-3.03
			c0-1.85,1.5-3.35,3.35-3.35s3.35,1.5,3.35,3.35v2.71h174.58c0.32-2.64,2.57-4.7,5.3-4.7h1.99c1.85,0,3.35,1.5,3.35,3.35
			c0,1.85-1.5,3.35-3.35,3.35h-0.73c-0.2,1.14-0.74,2.19-1.58,3.03C268.5,223.48,267.07,224.07,265.55,224.07z"/>
	</g>
	<g>
		<defs>
			<rect id="SVGID_00000131346694058417816020000008759749010842606492_" x="58.16" y="131.3" width="234.9" height="84.34"/>
		</defs>
		<clipPath id="SVGID_00000112604672547576676130000008367206487434952096_">
			<use xlink:href="#SVGID_00000131346694058417816020000008759749010842606492_"  style="overflow:visible;"/>
		</clipPath>
		<g style="clip-path:url(#SVGID_00000112604672547576676130000008367206487434952096_);">
			<rect x="58.16" y="131.3" class="st2" width="234.8" height="84.34"/>
		</g>
	</g>
	<g>
		<path class="st6" d="M288.16,135H58.97c-2.04,0-3.7-1.66-3.7-3.7s1.66-3.7,3.7-3.7h229.19c2.04,0,3.7,1.66,3.7,3.7
			S290.2,135,288.16,135z"/>
	</g>
	<g>
		<path class="st6" d="M22.14,149.03c-2,0-3.64-1.59-3.7-3.6c-0.05-2.04,1.56-3.74,3.6-3.79c17.15-0.45,28.41-4.29,33.45-11.42
			c1.18-1.67,3.49-2.06,5.16-0.88c1.67,1.18,2.06,3.49,0.88,5.16c-6.56,9.26-19.41,14.02-39.3,14.54
			C22.2,149.02,22.17,149.03,22.14,149.03z"/>
	</g>
	<g>
		<path class="st6" d="M286.82,219.34H58.97c-2.04,0-3.7-1.66-3.7-3.7c0-2.04,1.66-3.7,3.7-3.7h227.85c2.04,0,3.7,1.66,3.7,3.7
			C290.52,217.68,288.86,219.34,286.82,219.34z"/>
	</g>
	<g>
		<path class="st7" d="M134.91,206.61c-13.4,0-26.8-2.95-40.11-8.87c-1.33-0.59-1.93-2.15-1.34-3.49c0.59-1.33,2.15-1.93,3.49-1.34
			c25.2,11.19,50.75,11.19,75.96-0.02c1.33-0.59,2.89,0.01,3.49,1.34c0.59,1.33-0.01,2.89-1.34,3.49
			C161.74,203.65,148.32,206.61,134.91,206.61z"/>
	</g>
	<g>
		<defs>
			<rect id="SVGID_00000119826274501977520070000009837808300524731817_" x="238.7" y="143.03" width="8.99" height="9.41"/>
		</defs>
		<clipPath id="SVGID_00000114060595024187987900000011511844068241660856_">
			<use xlink:href="#SVGID_00000119826274501977520070000009837808300524731817_"  style="overflow:visible;"/>
		</clipPath>
		<g style="clip-path:url(#SVGID_00000114060595024187987900000011511844068241660856_);">
			<defs>
				<path id="SVGID_00000129921506298003613090000010550816418534166697_" d="M243.2,143.03c-2.48,0-4.5,2.11-4.5,4.7
					c0,2.6,2.01,4.7,4.5,4.7c2.48,0,4.5-2.11,4.5-4.7C247.69,145.14,245.68,143.03,243.2,143.03z"/>
			</defs>
			<clipPath id="SVGID_00000022537365510301355420000017137644712626197939_">
				<use xlink:href="#SVGID_00000129921506298003613090000010550816418534166697_"  style="overflow:visible;"/>
			</clipPath>
			<g style="clip-path:url(#SVGID_00000022537365510301355420000017137644712626197939_);">
				<rect x="238.7" y="143.03" class="st7" width="8.99" height="9.41"/>
			</g>
		</g>
	</g>
	<g>
		<defs>
			<rect id="SVGID_00000057119329411156693160000007169360909805729945_" x="284.62" y="143.03" width="8.99" height="9.41"/>
		</defs>
		<clipPath id="SVGID_00000084514154405130498900000007917434027682450087_">
			<use xlink:href="#SVGID_00000057119329411156693160000007169360909805729945_"  style="overflow:visible;"/>
		</clipPath>
		<g style="clip-path:url(#SVGID_00000084514154405130498900000007917434027682450087_);">
			<defs>
				<path id="SVGID_00000066473942863737518160000016530744382528620721_" d="M289.11,143.03c-2.48,0-4.5,2.11-4.5,4.7
					c0,2.6,2.01,4.7,4.5,4.7c2.48,0,4.5-2.11,4.5-4.7C293.61,145.14,291.59,143.03,289.11,143.03z"/>
			</defs>
			<clipPath id="SVGID_00000046327369458656452850000012761314306722996875_">
				<use xlink:href="#SVGID_00000066473942863737518160000016530744382528620721_"  style="overflow:visible;"/>
			</clipPath>
			<g style="clip-path:url(#SVGID_00000046327369458656452850000012761314306722996875_);">
				<rect x="284.62" y="143.03" class="st7" width="8.99" height="9.41"/>
			</g>
		</g>
	</g>
	<g>
		<path class="st6" d="M58.08,218.84c-1.06,0-2.11-0.45-2.85-1.33c-9.34-11.23-19.6-13.5-32.32-7.15c-1.83,0.91-4.05,0.17-4.96-1.66
			c-0.91-1.83-0.17-4.05,1.66-4.96c15.62-7.8,29.91-4.68,41.31,9.04c1.31,1.57,1.09,3.9-0.48,5.21
			C59.75,218.56,58.91,218.84,58.08,218.84z"/>
	</g>
	<g>
		<path class="st6" d="M288.87,218.67c-0.86,0-1.72-0.3-2.42-0.9c-1.55-1.33-1.72-3.67-0.38-5.22
			c11.79-13.65,26.37-16.71,42.15-8.84c1.83,0.91,2.57,3.13,1.66,4.96c-0.91,1.83-3.13,2.57-4.96,1.66
			c-12.78-6.37-23.65-4.06-33.25,7.05C290.94,218.24,289.91,218.67,288.87,218.67z"/>
	</g>
	<g>
		<path class="st6" d="M318.31,150.51c-12.77,0-23.63-5.37-32.35-16.05c-1.29-1.58-1.06-3.91,0.52-5.2c1.58-1.29,3.91-1.06,5.2,0.52
			c8.92,10.92,20.02,15.07,33.92,12.68c2-0.35,3.93,1.01,4.27,3.02c0.34,2.01-1.01,3.93-3.02,4.27
			C323.92,150.26,321.07,150.51,318.31,150.51z"/>
	</g>
	<g>
		<path class="st6" d="M133.56,204.94c-13.4,0-26.8-2.96-40.11-8.87c-1.33-0.59-1.93-2.15-1.34-3.49c0.59-1.33,2.15-1.94,3.49-1.34
			c25.2,11.19,50.75,11.19,75.96-0.02c1.33-0.59,2.89,0.01,3.49,1.34c0.59,1.33-0.01,2.89-1.34,3.49
			C160.39,201.98,146.97,204.94,133.56,204.94z"/>
	</g>
	<g>
		<defs>
			<rect id="SVGID_00000163064176795547137610000002230778773115906719_" x="284.21" y="142.11" width="8.99" height="9.41"/>
		</defs>
		<clipPath id="SVGID_00000067930679427942091470000012616841634574293378_">
			<use xlink:href="#SVGID_00000163064176795547137610000002230778773115906719_"  style="overflow:visible;"/>
		</clipPath>
		<g style="clip-path:url(#SVGID_00000067930679427942091470000012616841634574293378_);">
			<defs>
				<ellipse id="SVGID_00000031910528405510873720000002477455019778451846_" cx="288.71" cy="146.81" rx="4.5" ry="4.7"/>
			</defs>
			<clipPath id="SVGID_00000065773360514405066440000005637333377684703672_">
				<use xlink:href="#SVGID_00000031910528405510873720000002477455019778451846_"  style="overflow:visible;"/>
			</clipPath>
			<g style="clip-path:url(#SVGID_00000065773360514405066440000005637333377684703672_);">
				<rect x="284.21" y="142.11" class="st6" width="8.99" height="9.41"/>
			</g>
		</g>
	</g>
	<g>
		<defs>
			<rect id="SVGID_00000129172107462525564800000013794842906251719563_" x="237.51" y="142.43" width="8.99" height="9.41"/>
		</defs>
		<clipPath id="SVGID_00000090262104566841804190000012820993672711159976_">
			<use xlink:href="#SVGID_00000129172107462525564800000013794842906251719563_"  style="overflow:visible;"/>
		</clipPath>
		<g style="clip-path:url(#SVGID_00000090262104566841804190000012820993672711159976_);">
			<defs>
				<ellipse id="SVGID_00000000196025126265361220000000176580802043234998_" cx="242.01" cy="147.14" rx="4.5" ry="4.7"/>
			</defs>
			<clipPath id="SVGID_00000095335733376269409650000005301028189245617034_">
				<use xlink:href="#SVGID_00000000196025126265361220000000176580802043234998_"  style="overflow:visible;"/>
			</clipPath>
			<g style="clip-path:url(#SVGID_00000095335733376269409650000005301028189245617034_);">
				<rect x="237.51" y="142.43" class="st6" width="8.99" height="9.41"/>
			</g>
		</g>
	</g>
	<g>
		<g>
			<g>
				<path class="st7" d="M47.18,195.65v0.05c0,0.23-0.03,0.46-0.09,0.69c-0.06,0.23-0.17,0.46-0.32,0.7
					c-0.15,0.24-0.41,0.44-0.76,0.59c-0.35,0.15-0.77,0.23-1.26,0.23c-0.61,0-1.53-0.06-2.74-0.19c-1.22-0.13-2.13-0.19-2.74-0.19
					c-1.28,0-2.59,0.06-3.94,0.19c-1.35,0.13-2.12,0.19-2.32,0.19c-0.65,0-1.17-0.22-1.58-0.66c-0.41-0.44-0.61-0.99-0.61-1.66
					c0-0.38,0.05-0.68,0.13-0.89c0.09-0.22,0.37-0.69,0.84-1.43c0.2-0.34,0.34-0.63,0.42-0.85c0.08-0.22,0.15-0.67,0.22-1.32
					c0.06-0.66,0.1-1.59,0.1-2.79v-24.59c0-1.76-0.04-2.89-0.12-3.37c-0.08-0.49-0.28-1.01-0.61-1.57
					c-0.58-0.95-0.89-1.57-0.95-1.84c-0.02-0.13-0.03-0.31-0.03-0.54c0-0.34,0.05-0.67,0.15-0.97c0.1-0.31,0.35-0.61,0.76-0.9
					c0.41-0.3,0.95-0.45,1.63-0.45c1.01,0,2.49,0.07,4.45,0.2c1.96,0.14,3.44,0.2,4.43,0.2c0.83,0,1.97-0.07,3.43-0.2
					c1.46-0.13,2.29-0.2,2.51-0.2c0.65,0,1.24,0.22,1.78,0.66c0.54,0.44,1.09,1.27,1.65,2.5c2.09,4.43,3.62,7.73,4.59,9.91
					c0.31,0.61,0.58,1.04,0.82,1.28c0.24,0.24,0.5,0.36,0.77,0.36c0.13,0,0.23-0.02,0.32-0.05c0.09-0.04,0.23-0.18,0.43-0.45
					c0.2-0.26,0.4-0.64,0.62-1.15c2.43-5.38,4.01-8.92,4.75-10.63c0.76-1.62,1.75-2.43,3-2.43c0.52,0,1.58,0.07,3.17,0.2
					c1.59,0.14,2.77,0.2,3.52,0.2c0.83,0,2.08-0.07,3.75-0.2c1.67-0.13,2.92-0.2,3.75-0.2c0.74,0,1.3,0.23,1.69,0.7
					c0.39,0.47,0.58,0.99,0.58,1.57c0,0.41-0.06,0.74-0.16,0.99c-0.11,0.24-0.39,0.71-0.84,1.39c-0.31,0.47-0.49,0.96-0.55,1.48
					c-0.06,0.52-0.09,1.69-0.09,3.51v24.59c0,1.87,0.03,3.04,0.09,3.49c0.06,0.46,0.27,0.95,0.61,1.47c0.43,0.68,0.7,1.14,0.8,1.38
					c0.1,0.23,0.15,0.55,0.15,0.94c0,0.67-0.2,1.22-0.59,1.66c-0.4,0.44-0.95,0.66-1.67,0.66c-0.16,0-1.1-0.06-2.82-0.19
					c-1.72-0.13-3.43-0.19-5.14-0.19c-1.64,0-3.22,0.06-4.74,0.19c-1.52,0.13-2.3,0.19-2.33,0.19c-0.77,0-1.34-0.26-1.69-0.77
					c-0.35-0.51-0.53-1.08-0.53-1.71c0-0.4,0.05-0.7,0.13-0.9c0.09-0.21,0.36-0.68,0.81-1.42c0.2-0.34,0.34-0.63,0.42-0.85
					c0.08-0.22,0.15-0.67,0.22-1.32c0.06-0.66,0.09-1.59,0.09-2.79v-5.96c0-0.94,0.02-1.78,0.05-2.55s0.05-1.17,0.05-1.23
					c0-0.4-0.19-0.59-0.57-0.59c-0.23,0-0.45,0.11-0.66,0.34c-0.21,0.23-0.36,0.44-0.47,0.64c-0.11,0.2-0.26,0.52-0.46,0.97
					l-5.02,11.04c-0.76,1.69-1.77,2.54-3.05,2.54c-0.67,0-1.22-0.2-1.66-0.61c-0.44-0.4-0.87-1.05-1.28-1.93l-5.13-11.66
					c-0.32-0.74-0.73-1.11-1.21-1.11c-0.23,0-0.43,0.06-0.59,0.19c-0.16,0.13-0.24,0.31-0.24,0.54c0,0.05,0.01,0.19,0.04,0.42
					c0.03,0.23,0.05,0.6,0.08,1.13c0.03,0.53,0.04,1.17,0.04,1.93v6.07c0,1.22,0.03,2.16,0.09,2.82c0.06,0.66,0.14,1.09,0.22,1.3
					c0.08,0.21,0.22,0.49,0.42,0.85c0.06,0.09,0.13,0.21,0.23,0.36c0.1,0.15,0.17,0.26,0.2,0.31c0.04,0.06,0.09,0.14,0.15,0.26
					c0.06,0.12,0.11,0.19,0.13,0.23c0.03,0.04,0.06,0.1,0.11,0.19s0.07,0.15,0.07,0.19c0,0.04,0.01,0.1,0.04,0.18
					c0.03,0.08,0.04,0.15,0.04,0.2c0,0.05,0.01,0.12,0.01,0.2C47.18,195.48,47.18,195.56,47.18,195.65z"/>
			</g>
			<g>
				<path class="st7" d="M100.26,180.82H95.7c-1.4,0-2.16,0.4-2.29,1.19c-0.05,0.31-0.08,0.53-0.08,0.65c0,0.26,0.24,0.8,0.72,1.61
					c0.18,0.29,0.27,0.66,0.27,1.12s-0.13,0.85-0.4,1.18c-0.27,0.33-0.6,0.5-1.01,0.5c-0.16,0-0.72-0.05-1.7-0.14
					c-0.98-0.09-1.87-0.14-2.66-0.14c-1.16,0-2.35,0.05-3.55,0.14c-1.21,0.09-1.88,0.14-2.01,0.14c-0.37,0-0.67-0.07-0.92-0.21
					c-0.25-0.14-0.42-0.32-0.52-0.54c-0.1-0.22-0.16-0.4-0.2-0.54c-0.03-0.14-0.05-0.27-0.05-0.39c0-0.33,0.06-0.6,0.18-0.81
					c0.12-0.21,0.43-0.64,0.94-1.26c0.22-0.26,0.4-0.6,0.54-1.02c0.14-0.42,0.36-1.29,0.68-2.62c0.07-0.27,0.12-0.49,0.16-0.65
					c0.57-2.43,1.38-5.32,2.42-8.66c1.04-3.35,2.2-6.57,3.48-9.66c1.28-3.09,2.3-4.83,3.07-5.21c0.29-0.14,0.59-0.22,0.92-0.22
					c0.14,0,0.45,0.03,0.92,0.08c0.47,0.05,1.18,0.1,2.12,0.15c0.95,0.05,2.07,0.07,3.38,0.07c1.12,0,2.3-0.05,3.54-0.15
					c1.24-0.1,1.93-0.15,2.07-0.15c0.22,0,0.41,0.02,0.57,0.07c0.16,0.05,0.35,0.16,0.59,0.34c0.23,0.18,0.48,0.49,0.74,0.93
					c0.26,0.44,0.55,1.01,0.86,1.71c1.4,3.16,2.66,6.59,3.79,10.3c1.13,3.71,2.26,7.83,3.4,12.36c0.25,0.99,0.48,1.69,0.71,2.1
					c0.13,0.26,0.31,0.54,0.53,0.84c0.4,0.57,0.61,1.08,0.61,1.51c0,0.46-0.12,0.84-0.36,1.16c-0.24,0.32-0.64,0.48-1.2,0.48
					c-0.2,0-1.01-0.05-2.43-0.14c-1.42-0.09-2.85-0.14-4.27-0.14c-1.41,0-2.66,0.05-3.76,0.14c-1.1,0.09-1.69,0.14-1.78,0.14
					c-0.39,0-0.72-0.08-0.98-0.23c-0.26-0.16-0.44-0.36-0.54-0.61c-0.1-0.25-0.16-0.44-0.2-0.59c-0.03-0.14-0.05-0.27-0.05-0.37
					c0-0.37,0.15-0.76,0.45-1.19c0.17-0.25,0.28-0.42,0.34-0.51c0.06-0.09,0.12-0.22,0.18-0.4c0.06-0.18,0.09-0.37,0.09-0.58
					c0-0.34-0.06-0.63-0.19-0.86c-0.12-0.24-0.27-0.41-0.43-0.53c-0.16-0.12-0.39-0.2-0.68-0.26c-0.29-0.06-0.52-0.09-0.7-0.1
					C100.82,180.82,100.57,180.82,100.26,180.82z M97.26,172.63h2.12c1.07,0,1.61-0.38,1.61-1.15c0-1.1-0.52-3.06-1.57-5.89
					c-0.38-0.94-0.74-1.41-1.08-1.41c-0.13,0-0.25,0.04-0.36,0.12c-0.11,0.08-0.23,0.23-0.36,0.46s-0.23,0.41-0.29,0.55
					c-0.07,0.14-0.18,0.41-0.35,0.83c-0.42,1.02-0.78,2.06-1.1,3.12c-0.31,1.06-0.47,1.82-0.47,2.26c0,0.26,0.05,0.47,0.16,0.64
					c0.1,0.16,0.26,0.28,0.48,0.34c0.22,0.07,0.4,0.1,0.56,0.12C96.75,172.63,96.98,172.63,97.26,172.63z"/>
			</g>
			<g>
				<path class="st7" d="M130.38,177.88v3.02c0.04,0.97,0.08,1.59,0.13,1.86c0.05,0.27,0.18,0.59,0.4,0.94
					c0.31,0.5,0.51,0.83,0.58,1.01c0.07,0.18,0.11,0.41,0.11,0.71c0,0.39-0.12,0.76-0.35,1.12s-0.65,0.53-1.25,0.53
					c-0.04,0-0.72-0.05-2.04-0.14c-1.32-0.09-2.51-0.14-3.58-0.14c-0.7,0-1.66,0.05-2.88,0.14c-1.21,0.09-2.08,0.14-2.6,0.14
					c-0.35,0-0.65-0.07-0.89-0.2c-0.24-0.13-0.41-0.29-0.52-0.49c-0.1-0.2-0.18-0.37-0.22-0.54c-0.04-0.16-0.06-0.32-0.06-0.46
					c0-0.27,0.04-0.5,0.12-0.67c0.08-0.17,0.27-0.51,0.59-1.02c0.22-0.37,0.37-0.75,0.43-1.16c0.07-0.41,0.1-1.22,0.1-2.44v-17.84
					c0-1.29-0.03-2.12-0.09-2.48c-0.06-0.36-0.21-0.73-0.44-1.11c-0.31-0.51-0.51-0.85-0.59-1.03c-0.08-0.18-0.12-0.41-0.12-0.69
					c0-1.12,0.6-1.68,1.8-1.68c0.3,0,1.05,0.05,2.25,0.15c1.2,0.1,2.25,0.15,3.15,0.15c0.81,0,2.03-0.05,3.66-0.15
					c1.63-0.1,2.86-0.15,3.68-0.15c4.01,0,7.07,0.35,9.18,1.06c2.12,0.71,3.82,1.94,5.11,3.71c1.29,1.77,1.94,3.85,1.94,6.26
					c0,3.08-1.06,5.5-3.19,7.26c-0.68,0.56-1.02,0.89-1.02,1c0,0.09,0.05,0.2,0.14,0.32c0.09,0.12,0.35,0.42,0.78,0.89
					c1.29,1.4,2.45,3.44,3.47,6.13c0.31,0.8,0.7,1.53,1.16,2.21c0.18,0.27,0.3,0.49,0.36,0.66c0.06,0.16,0.09,0.38,0.09,0.66
					c0,0.63-0.2,1.06-0.61,1.29c-0.41,0.23-0.97,0.35-1.68,0.35c-0.22,0-1.06-0.05-2.52-0.14c-1.46-0.09-2.54-0.14-3.26-0.14
					c-1.16,0-2.21,0.05-3.14,0.14c-0.93,0.09-1.43,0.14-1.48,0.14c-0.37,0-0.7-0.12-1.01-0.35c-0.31-0.24-0.46-0.64-0.46-1.22
					c0-0.12,0.03-0.41,0.08-0.88c0.05-0.47,0.08-0.76,0.08-0.88c0-0.56-0.34-1.46-1.01-2.69c-0.67-1.23-1.38-2.25-2.13-3.04
					c-0.63-0.67-1.13-1-1.53-1C130.62,177,130.38,177.29,130.38,177.88z M130.38,165.41v3.5c0,0.29,0.04,0.53,0.11,0.73
					c0.07,0.2,0.15,0.35,0.24,0.45c0.09,0.1,0.23,0.17,0.41,0.22c0.18,0.05,0.33,0.08,0.43,0.09c0.1,0.01,0.27,0.01,0.49,0.01
					c0.77,0,1.45-0.09,2.03-0.26c0.58-0.18,1.07-0.51,1.47-1c0.4-0.49,0.6-1.12,0.6-1.89c0-0.61-0.11-1.14-0.34-1.59
					c-0.23-0.44-0.48-0.77-0.76-0.97c-0.28-0.2-0.63-0.36-1.05-0.48c-0.42-0.12-0.73-0.18-0.93-0.2c-0.2-0.01-0.43-0.02-0.68-0.02
					c-0.81,0-1.35,0.09-1.62,0.25S130.38,164.82,130.38,165.41z"/>
			</g>
			<g>
				<path class="st7" d="M161.43,185.42v0.04c0,0.17-0.02,0.34-0.07,0.5c-0.05,0.16-0.12,0.33-0.24,0.51
					c-0.11,0.18-0.29,0.32-0.55,0.43c-0.25,0.11-0.56,0.17-0.91,0.17c-0.44,0-1.11-0.05-1.99-0.14c-0.88-0.09-1.54-0.14-1.99-0.14
					c-0.93,0-1.88,0.05-2.86,0.14c-0.98,0.09-1.54,0.14-1.68,0.14c-0.47,0-0.85-0.16-1.14-0.48c-0.29-0.32-0.44-0.72-0.44-1.2
					c0-0.27,0.03-0.49,0.1-0.65c0.07-0.16,0.27-0.5,0.61-1.04c0.14-0.25,0.24-0.45,0.3-0.62c0.06-0.16,0.11-0.48,0.16-0.96
					c0.05-0.48,0.07-1.15,0.07-2.03v-17.84c0-1.28-0.03-2.1-0.09-2.45c-0.06-0.35-0.21-0.73-0.44-1.14
					c-0.42-0.69-0.65-1.13-0.69-1.33c-0.01-0.09-0.02-0.22-0.02-0.39c0-0.25,0.04-0.48,0.11-0.71c0.07-0.22,0.25-0.44,0.55-0.66
					c0.29-0.21,0.69-0.32,1.18-0.32c0.73,0,1.81,0.05,3.23,0.15c1.42,0.1,2.49,0.15,3.21,0.15c0.6,0,1.43-0.05,2.49-0.15
					c1.06-0.1,1.66-0.15,1.82-0.15c0.47,0,0.9,0.16,1.29,0.48c0.39,0.32,0.79,0.92,1.19,1.81c1.51,3.21,2.62,5.61,3.33,7.19
					c0.22,0.44,0.42,0.75,0.6,0.93c0.18,0.18,0.36,0.26,0.56,0.26c0.09,0,0.17-0.01,0.23-0.04c0.07-0.03,0.17-0.13,0.31-0.32
					c0.14-0.19,0.29-0.47,0.45-0.83c1.76-3.9,2.91-6.47,3.45-7.71c0.55-1.17,1.27-1.76,2.17-1.76c0.38,0,1.14,0.05,2.3,0.15
					c1.15,0.1,2.01,0.15,2.56,0.15c0.6,0,1.51-0.05,2.72-0.15c1.21-0.1,2.12-0.15,2.72-0.15c0.54,0,0.94,0.17,1.22,0.51
					c0.28,0.34,0.42,0.72,0.42,1.13c0,0.3-0.04,0.54-0.12,0.72c-0.08,0.18-0.28,0.51-0.61,1.01c-0.22,0.34-0.36,0.7-0.4,1.08
					c-0.05,0.38-0.07,1.23-0.07,2.55v17.84c0,1.36,0.02,2.2,0.07,2.54c0.05,0.33,0.19,0.69,0.44,1.07c0.31,0.5,0.51,0.83,0.58,1
					c0.07,0.17,0.11,0.4,0.11,0.69c0,0.48-0.14,0.88-0.43,1.2c-0.29,0.32-0.69,0.48-1.22,0.48c-0.12,0-0.8-0.05-2.05-0.14
					c-1.25-0.09-2.49-0.14-3.73-0.14c-1.19,0-2.33,0.05-3.44,0.14c-1.1,0.09-1.67,0.14-1.69,0.14c-0.56,0-0.97-0.19-1.22-0.56
					c-0.25-0.37-0.38-0.79-0.38-1.24c0-0.29,0.03-0.51,0.1-0.66c0.07-0.15,0.26-0.49,0.59-1.03c0.14-0.25,0.24-0.45,0.3-0.62
					c0.06-0.16,0.11-0.48,0.16-0.96c0.05-0.48,0.07-1.15,0.07-2.03v-4.33c0-0.68,0.01-1.3,0.04-1.85c0.03-0.55,0.04-0.85,0.04-0.89
					c0-0.29-0.14-0.43-0.41-0.43c-0.17,0-0.33,0.08-0.48,0.24c-0.15,0.16-0.26,0.32-0.34,0.46c-0.08,0.14-0.19,0.38-0.33,0.71
					l-3.64,8.01c-0.55,1.23-1.29,1.84-2.21,1.84c-0.48,0-0.88-0.15-1.2-0.44s-0.63-0.76-0.93-1.4l-3.72-8.46
					c-0.23-0.54-0.53-0.8-0.88-0.8c-0.17,0-0.31,0.05-0.43,0.14c-0.12,0.09-0.18,0.22-0.18,0.39c0,0.04,0.01,0.14,0.03,0.3
					c0.02,0.16,0.04,0.44,0.06,0.82c0.02,0.39,0.03,0.85,0.03,1.4v4.41c0,0.89,0.02,1.57,0.07,2.05c0.05,0.48,0.1,0.79,0.16,0.94
					c0.06,0.15,0.16,0.36,0.3,0.62c0.04,0.07,0.09,0.15,0.17,0.26c0.07,0.11,0.12,0.19,0.15,0.22c0.03,0.04,0.06,0.1,0.11,0.19
					c0.05,0.09,0.08,0.14,0.1,0.17c0.02,0.03,0.05,0.07,0.08,0.14c0.03,0.07,0.05,0.11,0.05,0.14c0,0.03,0.01,0.07,0.03,0.13
					c0.02,0.06,0.03,0.11,0.03,0.15s0,0.09,0.01,0.15C161.43,185.29,161.43,185.36,161.43,185.42z"/>
			</g>
			<g>
				<path class="st7" d="M207.48,182.56v1.94c0,0.56,0.12,0.96,0.36,1.2c0.24,0.24,0.6,0.39,1.07,0.44
					c0.81,0.13,2.86,0.19,6.15,0.19c0.72,0,1.43-0.02,2.13-0.07c0.7-0.04,1.33-0.11,1.89-0.2c0.56-0.09,1.08-0.18,1.58-0.27
					s0.94-0.19,1.34-0.3c0.4-0.11,0.72-0.2,0.99-0.28c0.26-0.08,0.49-0.16,0.7-0.23c0.21-0.07,0.32-0.11,0.34-0.11
					c1.03-0.43,1.75-0.65,2.19-0.65c0.52,0,0.97,0.17,1.34,0.5c0.37,0.33,0.55,0.75,0.55,1.26c0,0.5-0.18,1.21-0.54,2.1
					c-0.34,0.86-0.72,2.21-1.12,4.05c-0.4,1.84-0.66,3.17-0.77,4.02c-0.05,0.56-0.2,1.03-0.43,1.43c-0.41,0.7-1.13,1.05-2.16,1.05
					c-0.5,0-1.54-0.03-3.1-0.09c-1.57-0.06-4.06-0.13-7.49-0.19c-3.43-0.06-7.65-0.09-12.67-0.09c-1.76,0-3.54,0.06-5.32,0.19
					c-1.78,0.13-2.7,0.19-2.75,0.19c-0.59,0-1.08-0.16-1.44-0.47c-0.37-0.32-0.6-0.63-0.69-0.93c-0.09-0.31-0.13-0.61-0.13-0.92
					c0-0.38,0.05-0.68,0.16-0.92s0.38-0.7,0.81-1.4c0.31-0.5,0.5-1.04,0.59-1.61c0.09-0.57,0.14-1.69,0.14-3.36v-24.59
					c0-1.85-0.04-3-0.11-3.45c-0.07-0.45-0.28-0.94-0.62-1.48c-0.43-0.7-0.7-1.17-0.81-1.42c-0.11-0.24-0.16-0.56-0.16-0.96
					c0-0.61,0.18-1.15,0.53-1.62c0.35-0.47,0.99-0.7,1.9-0.7c0.23,0,0.8,0.04,1.7,0.11c0.9,0.07,2.27,0.14,4.1,0.2
					c1.84,0.06,4,0.1,6.5,0.1c4.28,0,7.8-0.03,10.57-0.1c2.76-0.06,4.68-0.13,5.75-0.2c1.07-0.07,1.7-0.11,1.88-0.11
					c1.01,0,1.66,0.25,1.97,0.76c0.31,0.5,0.63,1.66,0.97,3.45c0.27,1.44,0.56,2.69,0.86,3.75c0.52,1.71,0.78,2.67,0.78,2.89
					c0,0.49-0.19,0.86-0.58,1.13c-0.39,0.27-0.84,0.41-1.36,0.41c-0.34,0-0.95-0.12-1.82-0.37c-0.87-0.24-2.17-0.49-3.9-0.74
					c-1.73-0.25-3.8-0.38-6.21-0.38h-4.37c-0.85,0.11-1.27,0.73-1.27,1.86v1.84c0,0.74,0.22,1.19,0.65,1.35
					c0.43,0.16,1.29,0.24,2.56,0.24h4.21c1.91,0,3.3-0.16,4.18-0.49c1.26-0.49,2.13-0.73,2.62-0.73c1.28,0,1.92,0.72,1.92,2.16
					c0,0.25-0.04,1.02-0.11,2.29c-0.07,1.28-0.11,2.02-0.11,2.24c0,0.16,0.04,0.71,0.11,1.63c0.07,0.93,0.11,1.47,0.11,1.63
					c0,0.47-0.16,0.93-0.48,1.38c-0.32,0.45-0.83,0.67-1.51,0.67c-0.07,0-0.14,0-0.2,0s-0.13,0-0.2-0.01
					c-0.07-0.01-0.13-0.02-0.18-0.03c-0.05-0.01-0.12-0.03-0.22-0.07s-0.18-0.06-0.24-0.08c-0.06-0.02-0.17-0.05-0.31-0.09
					c-0.14-0.04-0.26-0.09-0.35-0.12c-0.09-0.04-0.24-0.09-0.45-0.17c-0.21-0.08-0.39-0.15-0.55-0.2c-0.74-0.29-2.08-0.43-4.02-0.43
					h-4.7c-1.08,0-1.8,0.11-2.17,0.34C207.66,181.15,207.48,181.69,207.48,182.56z"/>
			</g>
			<g>
				<path class="st7" d="M244.25,180.82h-4.56c-1.4,0-2.16,0.4-2.29,1.19c-0.05,0.31-0.08,0.53-0.08,0.65c0,0.26,0.24,0.8,0.72,1.61
					c0.18,0.29,0.27,0.66,0.27,1.12s-0.13,0.85-0.4,1.18c-0.27,0.33-0.6,0.5-1.01,0.5c-0.16,0-0.72-0.05-1.7-0.14
					c-0.98-0.09-1.87-0.14-2.66-0.14c-1.16,0-2.35,0.05-3.55,0.14c-1.21,0.09-1.88,0.14-2.01,0.14c-0.37,0-0.67-0.07-0.92-0.21
					c-0.25-0.14-0.42-0.32-0.52-0.54c-0.1-0.22-0.16-0.4-0.2-0.54c-0.03-0.14-0.05-0.27-0.05-0.39c0-0.33,0.06-0.6,0.18-0.81
					c0.12-0.21,0.43-0.64,0.94-1.26c0.22-0.26,0.4-0.6,0.54-1.02c0.14-0.42,0.36-1.29,0.68-2.62c0.07-0.27,0.12-0.49,0.16-0.65
					c0.57-2.43,1.38-5.32,2.42-8.66c1.04-3.35,2.2-6.57,3.48-9.66c1.28-3.09,2.3-4.83,3.07-5.21c0.29-0.14,0.59-0.22,0.92-0.22
					c0.14,0,0.45,0.03,0.92,0.08c0.47,0.05,1.18,0.1,2.12,0.15c0.95,0.05,2.07,0.07,3.38,0.07c1.12,0,2.3-0.05,3.54-0.15
					c1.24-0.1,1.93-0.15,2.07-0.15c0.22,0,0.41,0.02,0.57,0.07c0.16,0.05,0.35,0.16,0.59,0.34c0.23,0.18,0.48,0.49,0.74,0.93
					c0.26,0.44,0.55,1.01,0.86,1.71c1.4,3.16,2.66,6.59,3.79,10.3c1.13,3.71,2.26,7.83,3.4,12.36c0.25,0.99,0.48,1.69,0.71,2.1
					c0.13,0.26,0.31,0.54,0.53,0.84c0.4,0.57,0.61,1.08,0.61,1.51c0,0.46-0.12,0.84-0.36,1.16c-0.24,0.32-0.64,0.48-1.2,0.48
					c-0.2,0-1.01-0.05-2.43-0.14c-1.42-0.09-2.85-0.14-4.27-0.14c-1.41,0-2.66,0.05-3.76,0.14c-1.1,0.09-1.69,0.14-1.78,0.14
					c-0.39,0-0.72-0.08-0.98-0.23c-0.26-0.16-0.44-0.36-0.54-0.61c-0.1-0.25-0.16-0.44-0.2-0.59c-0.03-0.14-0.05-0.27-0.05-0.37
					c0-0.37,0.15-0.76,0.45-1.19c0.17-0.25,0.28-0.42,0.34-0.51c0.06-0.09,0.12-0.22,0.18-0.4c0.06-0.18,0.09-0.37,0.09-0.58
					c0-0.34-0.06-0.63-0.19-0.86c-0.12-0.24-0.27-0.41-0.43-0.53c-0.16-0.12-0.39-0.2-0.68-0.26c-0.29-0.06-0.52-0.09-0.7-0.1
					C244.82,180.82,244.57,180.82,244.25,180.82z M241.26,172.63h2.12c1.07,0,1.61-0.38,1.61-1.15c0-1.1-0.52-3.06-1.57-5.89
					c-0.38-0.94-0.74-1.41-1.08-1.41c-0.13,0-0.25,0.04-0.36,0.12c-0.11,0.08-0.23,0.23-0.36,0.46c-0.13,0.23-0.23,0.41-0.29,0.55
					c-0.07,0.14-0.18,0.41-0.35,0.83c-0.42,1.02-0.78,2.06-1.1,3.12c-0.31,1.06-0.47,1.82-0.47,2.26c0,0.26,0.05,0.47,0.16,0.64
					c0.1,0.16,0.26,0.28,0.48,0.34c0.22,0.07,0.4,0.1,0.56,0.12C240.75,172.63,240.97,172.63,241.26,172.63z"/>
			</g>
			<g>
				<path class="st7" d="M260.96,165.68v-0.04c0-1.46,0.23-2.79,0.7-3.99c0.46-1.2,1.1-2.2,1.9-3.02c0.8-0.82,1.75-1.5,2.86-2.06
					s2.28-0.96,3.53-1.22c1.25-0.25,2.58-0.38,3.98-0.38c0.97,0,2.08,0.1,3.35,0.29c1.27,0.2,2.35,0.39,3.26,0.58
					c0.91,0.19,1.41,0.28,1.5,0.28c0.16,0,0.41-0.08,0.76-0.24c0.35-0.16,0.67-0.24,0.96-0.24c0.54,0,1.01,0.16,1.42,0.47
					c0.41,0.31,0.62,0.69,0.62,1.14c0,0.03-0.02,0.28-0.06,0.77s-0.06,0.89-0.06,1.2c0,0.85,0.18,1.99,0.54,3.44
					c0.36,1.44,0.54,2.18,0.54,2.2c0,0.25-0.1,0.53-0.29,0.83c-0.2,0.31-0.51,0.46-0.94,0.46c-0.29,0-0.86-0.16-1.73-0.49
					c-0.87-0.33-1.87-0.65-3-0.98c-1.13-0.33-2.14-0.49-3.05-0.49c-0.64,0-1.15,0.15-1.55,0.44c-0.39,0.29-0.59,0.75-0.59,1.36
					c0,0.57,0.21,1.05,0.64,1.44c0.42,0.38,1.24,0.72,2.46,1.01c1.07,0.25,1.91,0.46,2.51,0.64s1.38,0.49,2.35,0.95
					c0.97,0.46,1.71,0.96,2.23,1.52c0.52,0.55,0.99,1.32,1.4,2.31c0.41,0.99,0.62,2.12,0.62,3.4c0,1.45-0.25,2.77-0.74,3.98
					c-0.5,1.2-1.17,2.21-2.01,3.03c-0.84,0.82-1.84,1.51-2.99,2.07c-1.15,0.56-2.36,0.97-3.62,1.22c-1.27,0.25-2.59,0.38-3.96,0.38
					c-0.64,0-1.39-0.05-2.26-0.15c-0.87-0.1-1.7-0.22-2.49-0.35c-0.79-0.14-1.53-0.27-2.23-0.41c-0.7-0.14-1.27-0.25-1.7-0.35
					c-0.44-0.1-0.66-0.15-0.68-0.15c-0.2,0-0.51,0.12-0.94,0.36c-0.43,0.24-0.85,0.36-1.25,0.36c-0.38,0-0.69-0.05-0.95-0.16
					s-0.45-0.23-0.58-0.39c-0.13-0.16-0.23-0.38-0.3-0.69c-0.07-0.3-0.11-0.57-0.13-0.81c-0.01-0.24-0.02-0.58-0.02-1.03
					c0-1.77-0.29-3.61-0.88-5.5c-0.16-0.7-0.23-1.15-0.23-1.33c0-0.38,0.14-0.71,0.41-1c0.27-0.29,0.59-0.43,0.96-0.43
					c0.33,0,0.59,0.05,0.8,0.16c0.25,0.12,0.66,0.32,1.23,0.62c0.57,0.29,0.96,0.49,1.15,0.58c0.19,0.09,0.51,0.24,0.95,0.45
					c0.44,0.21,0.75,0.35,0.92,0.41c0.17,0.07,0.42,0.17,0.76,0.31c0.34,0.14,0.6,0.23,0.79,0.27c0.19,0.04,0.42,0.09,0.69,0.16
					c0.27,0.07,0.53,0.11,0.76,0.13c0.23,0.02,0.48,0.03,0.74,0.03c0.63,0,1.13-0.16,1.52-0.47c0.38-0.31,0.58-0.77,0.58-1.37
					c0-0.64-0.26-1.15-0.78-1.53s-1.4-0.74-2.62-1.08c-1.15-0.31-2.16-0.69-3.04-1.13c-0.87-0.44-1.68-1-2.43-1.68
					s-1.31-1.54-1.7-2.56C261.15,168.19,260.96,167.01,260.96,165.68z"/>
			</g>
			<g>
				<path class="st7" d="M309.15,185.42v0.04c0,0.2-0.03,0.4-0.09,0.61c-0.06,0.21-0.22,0.43-0.49,0.66
					c-0.27,0.23-0.62,0.34-1.07,0.34c-0.05,0-0.71-0.05-1.97-0.14c-1.26-0.09-2.48-0.14-3.65-0.14c-1.34,0-2.62,0.05-3.84,0.14
					c-1.21,0.09-1.91,0.14-2.1,0.14c-0.6,0-1.02-0.17-1.27-0.52c-0.25-0.35-0.37-0.72-0.37-1.13c0-0.31,0.04-0.56,0.11-0.74
					c0.07-0.18,0.26-0.51,0.58-0.98c0.21-0.35,0.35-0.72,0.41-1.1c0.07-0.38,0.1-1.22,0.1-2.51v-1.61c0-0.52-0.06-0.93-0.17-1.22
					c-0.11-0.29-0.34-0.64-0.68-1.04c-0.34-0.4-1.02-1.13-2.04-2.18c-1.29-1.33-2.46-3.22-3.49-5.68c-1.04-2.45-1.85-5.2-2.44-8.24
					c-0.09-0.54-0.21-0.93-0.37-1.19c-0.38-0.57-0.61-0.97-0.71-1.18c-0.09-0.21-0.14-0.48-0.14-0.79c0-0.47,0.15-0.87,0.45-1.19
					c0.3-0.33,0.72-0.49,1.27-0.49c0.18,0,0.94,0.05,2.26,0.15c1.32,0.1,2.78,0.15,4.36,0.15c1.37,0,2.65-0.05,3.83-0.15
					c1.18-0.1,1.91-0.15,2.18-0.15c0.5,0,0.91,0.14,1.23,0.42c0.33,0.28,0.49,0.69,0.49,1.22c0,0.3-0.03,0.54-0.1,0.73
					c-0.07,0.18-0.2,0.46-0.41,0.84c-0.33,0.64-0.49,1.22-0.49,1.72c0,0.77,0.14,1.74,0.41,2.9c0.27,1.16,0.63,2.2,1.06,3.11
					c0.43,0.91,0.84,1.37,1.21,1.37c0.56,0,1.17-0.92,1.81-2.77c0.65-1.85,0.97-3.41,0.97-4.69c0-0.27-0.03-0.53-0.08-0.77
					c-0.05-0.24-0.11-0.42-0.17-0.55c-0.06-0.12-0.14-0.28-0.25-0.48c-0.11-0.2-0.19-0.33-0.23-0.41c-0.1-0.21-0.16-0.48-0.16-0.8
					c0-0.55,0.17-0.99,0.51-1.33c0.34-0.34,0.72-0.51,1.14-0.51c0.09,0,0.77,0.05,2.04,0.15c1.27,0.1,2.71,0.15,4.33,0.15
					c0.82,0,1.68-0.05,2.57-0.15c0.89-0.1,1.37-0.15,1.44-0.15c0.33,0,0.63,0.12,0.91,0.37c0.28,0.25,0.42,0.65,0.42,1.19
					c0,0.31-0.05,0.57-0.14,0.76c-0.09,0.2-0.27,0.49-0.55,0.88c-0.25,0.34-0.5,1.06-0.76,2.17c-0.12,0.51-0.32,1.22-0.61,2.13
					c-0.29,0.91-0.7,2.09-1.23,3.53c-0.54,1.44-1.22,2.9-2.05,4.36c-0.83,1.46-1.7,2.66-2.61,3.6c-0.57,0.59-1.31,1.38-2.19,2.37
					c-0.18,0.23-0.3,0.45-0.36,0.65c-0.06,0.2-0.09,0.48-0.09,0.84v1.96c0.04,1.41,0.08,2.27,0.13,2.59
					c0.05,0.32,0.18,0.66,0.4,1.01c0.33,0.48,0.53,0.82,0.61,1C309.11,184.88,309.15,185.12,309.15,185.42z"/>
			</g>
		</g>
		<g>
			<path class="st7" d="M278.4,200.22c-3.18,0-6.53-0.66-10.05-2c-1.36-0.52-2.05-2.04-1.53-3.41c0.52-1.37,2.05-2.05,3.41-1.53
				c10.11,3.84,17.67,1.21,23.78-8.26c0.79-1.23,2.43-1.58,3.65-0.79c1.23,0.79,1.58,2.43,0.79,3.65
				C293.18,196.07,286.36,200.22,278.4,200.22z"/>
		</g>
	</g>
	<g>
		<defs>
			<path id="SVGID_00000029749434049293876720000011946113520209378473_" d="M264.64,190.01c-2.46-0.34-4.74,1.47-5.1,4.04
				c-0.36,2.57,1.35,4.94,3.81,5.28c2.46,0.34,4.74-1.47,5.1-4.04C268.8,192.71,267.1,190.35,264.64,190.01z"/>
		</defs>
		<use xlink:href="#SVGID_00000029749434049293876720000011946113520209378473_"  style="overflow:visible;fill:#D4D6D5;"/>
		<clipPath id="SVGID_00000129911460746811375170000002388598602507402943_">
			<use xlink:href="#SVGID_00000029749434049293876720000011946113520209378473_"  style="overflow:visible;"/>
		</clipPath>
		<g style="clip-path:url(#SVGID_00000129911460746811375170000002388598602507402943_);">
			
				<rect x="259.28" y="190.17" transform="matrix(0.1378 -0.9905 0.9905 0.1378 34.808 429.3179)" class="st39" width="9.41" height="8.99"/>
		</g>
	</g>
	<g>
		<g>
			<g>
				<path class="st6" d="M45.16,194.29v0.05c0,0.23-0.03,0.46-0.09,0.69c-0.06,0.23-0.17,0.46-0.32,0.7
					c-0.15,0.24-0.41,0.44-0.76,0.59c-0.35,0.15-0.77,0.23-1.26,0.23c-0.61,0-1.53-0.06-2.74-0.19c-1.22-0.13-2.13-0.19-2.74-0.19
					c-1.28,0-2.59,0.06-3.94,0.19c-1.35,0.13-2.12,0.19-2.32,0.19c-0.65,0-1.17-0.22-1.58-0.66c-0.41-0.44-0.61-0.99-0.61-1.66
					c0-0.38,0.05-0.68,0.13-0.89c0.09-0.22,0.37-0.69,0.84-1.43c0.2-0.34,0.34-0.63,0.42-0.85c0.08-0.22,0.15-0.67,0.22-1.32
					c0.06-0.66,0.1-1.59,0.1-2.79v-24.59c0-1.76-0.04-2.89-0.12-3.37c-0.08-0.49-0.28-1.01-0.61-1.57
					c-0.58-0.95-0.89-1.57-0.95-1.84c-0.02-0.13-0.03-0.31-0.03-0.54c0-0.34,0.05-0.67,0.15-0.97c0.1-0.31,0.35-0.61,0.76-0.9
					c0.41-0.3,0.95-0.45,1.63-0.45c1.01,0,2.49,0.07,4.45,0.2c1.96,0.14,3.44,0.2,4.43,0.2c0.83,0,1.97-0.07,3.43-0.2
					c1.46-0.13,2.29-0.2,2.51-0.2c0.65,0,1.24,0.22,1.78,0.66c0.54,0.44,1.09,1.27,1.65,2.5c2.09,4.43,3.62,7.73,4.59,9.91
					c0.31,0.61,0.58,1.04,0.82,1.28c0.24,0.24,0.5,0.36,0.77,0.36c0.13,0,0.23-0.02,0.32-0.05c0.09-0.04,0.23-0.18,0.43-0.45
					c0.2-0.26,0.4-0.64,0.62-1.15c2.43-5.38,4.01-8.92,4.75-10.63c0.76-1.62,1.75-2.43,3-2.43c0.52,0,1.58,0.07,3.17,0.2
					c1.59,0.14,2.77,0.2,3.52,0.2c0.83,0,2.08-0.07,3.75-0.2c1.67-0.13,2.92-0.2,3.75-0.2c0.74,0,1.3,0.23,1.69,0.7
					c0.39,0.47,0.58,0.99,0.58,1.57c0,0.41-0.06,0.74-0.16,0.99c-0.11,0.24-0.39,0.71-0.84,1.39c-0.31,0.47-0.49,0.96-0.55,1.48
					c-0.06,0.52-0.09,1.69-0.09,3.51v24.59c0,1.87,0.03,3.04,0.09,3.49c0.06,0.46,0.27,0.95,0.61,1.47c0.43,0.68,0.7,1.14,0.8,1.38
					c0.1,0.23,0.15,0.55,0.15,0.94c0,0.67-0.2,1.22-0.59,1.66c-0.4,0.44-0.95,0.66-1.67,0.66c-0.16,0-1.1-0.06-2.82-0.19
					c-1.72-0.13-3.43-0.19-5.14-0.19c-1.64,0-3.22,0.06-4.74,0.19c-1.52,0.13-2.3,0.19-2.33,0.19c-0.77,0-1.34-0.26-1.69-0.77
					c-0.35-0.51-0.53-1.08-0.53-1.71c0-0.4,0.05-0.7,0.13-0.9c0.09-0.21,0.36-0.68,0.81-1.42c0.2-0.34,0.34-0.63,0.42-0.85
					c0.08-0.22,0.15-0.67,0.22-1.32c0.06-0.66,0.09-1.59,0.09-2.79v-5.96c0-0.94,0.02-1.78,0.05-2.55c0.04-0.76,0.05-1.17,0.05-1.23
					c0-0.4-0.19-0.59-0.57-0.59c-0.23,0-0.45,0.11-0.66,0.34c-0.21,0.23-0.36,0.44-0.47,0.64c-0.11,0.2-0.26,0.52-0.46,0.97
					l-5.02,11.04c-0.76,1.69-1.77,2.54-3.05,2.54c-0.67,0-1.22-0.2-1.66-0.61c-0.44-0.4-0.87-1.05-1.28-1.93l-5.13-11.66
					c-0.32-0.74-0.73-1.11-1.21-1.11c-0.23,0-0.43,0.06-0.59,0.19c-0.16,0.13-0.24,0.31-0.24,0.54c0,0.05,0.01,0.19,0.04,0.42
					c0.03,0.23,0.05,0.6,0.08,1.13c0.03,0.53,0.04,1.17,0.04,1.93v6.07c0,1.22,0.03,2.16,0.09,2.82s0.14,1.09,0.22,1.3
					c0.08,0.21,0.22,0.49,0.42,0.85c0.06,0.09,0.13,0.21,0.23,0.36c0.1,0.15,0.17,0.26,0.2,0.31c0.04,0.06,0.09,0.14,0.15,0.26
					c0.06,0.12,0.11,0.19,0.13,0.23c0.03,0.04,0.06,0.1,0.11,0.19c0.05,0.09,0.07,0.15,0.07,0.19c0,0.04,0.01,0.1,0.04,0.18
					c0.03,0.08,0.04,0.15,0.04,0.2c0,0.05,0.01,0.12,0.01,0.2C45.16,194.12,45.16,194.2,45.16,194.29z"/>
			</g>
			<g>
				<path class="st6" d="M98.24,179.46h-4.56c-1.4,0-2.16,0.4-2.29,1.2c-0.05,0.31-0.08,0.53-0.08,0.65c0,0.26,0.24,0.8,0.72,1.61
					c0.18,0.29,0.27,0.66,0.27,1.12s-0.13,0.85-0.4,1.18c-0.27,0.33-0.6,0.5-1.01,0.5c-0.16,0-0.72-0.05-1.7-0.14
					c-0.98-0.09-1.87-0.14-2.66-0.14c-1.16,0-2.35,0.05-3.55,0.14c-1.21,0.09-1.88,0.14-2.01,0.14c-0.37,0-0.67-0.07-0.92-0.21
					c-0.25-0.14-0.42-0.32-0.52-0.54c-0.1-0.22-0.16-0.4-0.2-0.54c-0.03-0.14-0.05-0.27-0.05-0.39c0-0.33,0.06-0.6,0.18-0.81
					c0.12-0.21,0.43-0.64,0.94-1.26c0.22-0.26,0.4-0.6,0.54-1.02c0.14-0.42,0.36-1.29,0.68-2.62c0.07-0.27,0.12-0.49,0.16-0.65
					c0.57-2.43,1.38-5.32,2.42-8.66c1.04-3.35,2.2-6.57,3.48-9.66c1.28-3.09,2.3-4.83,3.07-5.21c0.29-0.14,0.59-0.22,0.92-0.22
					c0.14,0,0.45,0.03,0.92,0.08c0.47,0.05,1.18,0.1,2.12,0.15c0.95,0.05,2.07,0.07,3.38,0.07c1.12,0,2.3-0.05,3.54-0.15
					c1.24-0.1,1.93-0.15,2.07-0.15c0.22,0,0.41,0.02,0.57,0.07c0.16,0.05,0.35,0.16,0.59,0.34c0.23,0.18,0.48,0.49,0.74,0.93
					c0.26,0.44,0.55,1.01,0.86,1.71c1.4,3.16,2.66,6.59,3.79,10.3c1.13,3.71,2.26,7.83,3.4,12.36c0.25,0.99,0.48,1.69,0.71,2.1
					c0.13,0.26,0.31,0.54,0.53,0.84c0.4,0.57,0.61,1.08,0.61,1.51c0,0.46-0.12,0.84-0.36,1.16c-0.24,0.32-0.64,0.48-1.2,0.48
					c-0.2,0-1.01-0.05-2.43-0.14c-1.42-0.09-2.85-0.14-4.27-0.14c-1.41,0-2.66,0.05-3.76,0.14c-1.1,0.09-1.69,0.14-1.78,0.14
					c-0.39,0-0.72-0.08-0.98-0.23c-0.26-0.16-0.44-0.36-0.54-0.61c-0.1-0.25-0.16-0.44-0.2-0.59c-0.03-0.14-0.05-0.27-0.05-0.37
					c0-0.37,0.15-0.76,0.45-1.19c0.17-0.25,0.28-0.42,0.34-0.51c0.06-0.09,0.12-0.22,0.18-0.4c0.06-0.18,0.09-0.37,0.09-0.58
					c0-0.34-0.06-0.63-0.19-0.86c-0.12-0.24-0.27-0.41-0.43-0.53c-0.16-0.12-0.39-0.2-0.68-0.26c-0.29-0.06-0.52-0.09-0.7-0.1
					C98.8,179.46,98.55,179.46,98.24,179.46z M95.24,171.27h2.12c1.07,0,1.61-0.38,1.61-1.15c0-1.1-0.52-3.06-1.57-5.89
					c-0.38-0.94-0.74-1.41-1.08-1.41c-0.13,0-0.25,0.04-0.36,0.12c-0.11,0.08-0.23,0.23-0.36,0.46s-0.23,0.41-0.29,0.55
					c-0.07,0.14-0.18,0.41-0.35,0.83c-0.42,1.02-0.78,2.06-1.1,3.12c-0.31,1.06-0.47,1.82-0.47,2.26c0,0.26,0.05,0.47,0.16,0.64
					c0.1,0.16,0.26,0.28,0.48,0.34c0.22,0.07,0.4,0.1,0.56,0.12C94.73,171.26,94.96,171.27,95.24,171.27z"/>
			</g>
			<g>
				<path class="st6" d="M128.36,176.52v3.02c0.04,0.97,0.08,1.59,0.13,1.86c0.05,0.27,0.18,0.59,0.4,0.94
					c0.31,0.5,0.51,0.83,0.58,1.01c0.07,0.18,0.11,0.41,0.11,0.71c0,0.39-0.12,0.76-0.35,1.12c-0.23,0.35-0.65,0.53-1.25,0.53
					c-0.04,0-0.72-0.05-2.04-0.14c-1.32-0.09-2.51-0.14-3.58-0.14c-0.7,0-1.66,0.05-2.88,0.14c-1.21,0.09-2.08,0.14-2.6,0.14
					c-0.35,0-0.65-0.07-0.89-0.2c-0.24-0.13-0.41-0.29-0.52-0.49c-0.1-0.2-0.18-0.37-0.22-0.54c-0.04-0.16-0.06-0.32-0.06-0.46
					c0-0.27,0.04-0.5,0.12-0.67c0.08-0.17,0.27-0.51,0.59-1.02c0.22-0.37,0.37-0.75,0.43-1.16c0.07-0.41,0.1-1.22,0.1-2.44v-17.84
					c0-1.29-0.03-2.12-0.09-2.48c-0.06-0.36-0.21-0.73-0.44-1.11c-0.31-0.51-0.51-0.85-0.59-1.03c-0.08-0.18-0.12-0.41-0.12-0.69
					c0-1.12,0.6-1.68,1.8-1.68c0.3,0,1.05,0.05,2.25,0.15c1.2,0.1,2.25,0.15,3.15,0.15c0.81,0,2.03-0.05,3.66-0.15
					c1.63-0.1,2.86-0.15,3.68-0.15c4.01,0,7.07,0.35,9.18,1.06c2.12,0.71,3.82,1.94,5.11,3.71c1.29,1.77,1.94,3.85,1.94,6.26
					c0,3.08-1.06,5.5-3.19,7.26c-0.68,0.56-1.02,0.9-1.02,1c0,0.09,0.05,0.2,0.14,0.32c0.09,0.12,0.35,0.42,0.78,0.89
					c1.29,1.4,2.45,3.44,3.47,6.13c0.31,0.8,0.7,1.53,1.16,2.21c0.18,0.27,0.3,0.49,0.36,0.66c0.06,0.16,0.09,0.38,0.09,0.66
					c0,0.63-0.2,1.06-0.61,1.29c-0.41,0.23-0.97,0.35-1.68,0.35c-0.22,0-1.06-0.05-2.52-0.14c-1.46-0.09-2.54-0.14-3.26-0.14
					c-1.16,0-2.21,0.05-3.14,0.14c-0.93,0.09-1.43,0.14-1.48,0.14c-0.37,0-0.7-0.12-1.01-0.35c-0.31-0.24-0.46-0.64-0.46-1.22
					c0-0.12,0.03-0.41,0.08-0.88c0.05-0.47,0.08-0.76,0.08-0.88c0-0.56-0.34-1.46-1.01-2.69c-0.67-1.23-1.38-2.25-2.13-3.04
					c-0.63-0.67-1.13-1-1.53-1C128.6,175.64,128.36,175.93,128.36,176.52z M128.36,164.05v3.5c0,0.29,0.04,0.53,0.11,0.73
					c0.07,0.2,0.15,0.35,0.24,0.45c0.09,0.1,0.23,0.17,0.41,0.22c0.18,0.05,0.33,0.08,0.43,0.09c0.1,0.01,0.27,0.01,0.49,0.01
					c0.77,0,1.45-0.09,2.03-0.26c0.58-0.18,1.07-0.51,1.47-1c0.4-0.49,0.6-1.12,0.6-1.89c0-0.61-0.11-1.14-0.34-1.59
					c-0.23-0.44-0.48-0.77-0.76-0.97c-0.28-0.2-0.63-0.36-1.05-0.48c-0.42-0.12-0.73-0.18-0.93-0.2c-0.2-0.01-0.43-0.02-0.68-0.02
					c-0.81,0-1.35,0.09-1.62,0.25C128.49,163.08,128.36,163.46,128.36,164.05z"/>
			</g>
			<g>
				<path class="st6" d="M159.41,184.06v0.04c0,0.17-0.02,0.34-0.07,0.5c-0.05,0.16-0.12,0.33-0.24,0.51
					c-0.11,0.18-0.29,0.32-0.55,0.43c-0.25,0.11-0.56,0.17-0.91,0.17c-0.44,0-1.11-0.05-1.99-0.14c-0.88-0.09-1.54-0.14-1.99-0.14
					c-0.93,0-1.88,0.05-2.86,0.14c-0.98,0.09-1.54,0.14-1.68,0.14c-0.47,0-0.85-0.16-1.14-0.48c-0.29-0.32-0.44-0.72-0.44-1.2
					c0-0.27,0.03-0.49,0.1-0.65c0.07-0.16,0.27-0.5,0.61-1.04c0.14-0.25,0.24-0.45,0.3-0.62c0.06-0.16,0.11-0.48,0.16-0.96
					c0.05-0.48,0.07-1.15,0.07-2.03v-17.84c0-1.28-0.03-2.1-0.09-2.45c-0.06-0.35-0.21-0.73-0.44-1.14
					c-0.42-0.69-0.65-1.13-0.69-1.33c-0.01-0.09-0.02-0.22-0.02-0.39c0-0.25,0.04-0.48,0.11-0.71s0.25-0.44,0.55-0.66
					c0.29-0.21,0.69-0.32,1.18-0.32c0.73,0,1.81,0.05,3.23,0.15c1.42,0.1,2.49,0.15,3.21,0.15c0.6,0,1.43-0.05,2.49-0.15
					c1.06-0.1,1.66-0.15,1.82-0.15c0.47,0,0.9,0.16,1.29,0.48c0.39,0.32,0.79,0.92,1.19,1.81c1.51,3.21,2.62,5.61,3.33,7.19
					c0.22,0.44,0.42,0.75,0.6,0.93c0.18,0.18,0.36,0.26,0.56,0.26c0.09,0,0.17-0.01,0.23-0.04c0.07-0.03,0.17-0.13,0.31-0.32
					c0.14-0.19,0.29-0.47,0.45-0.83c1.76-3.9,2.91-6.47,3.45-7.71c0.55-1.17,1.27-1.76,2.17-1.76c0.38,0,1.14,0.05,2.3,0.15
					c1.15,0.1,2.01,0.15,2.56,0.15c0.6,0,1.51-0.05,2.72-0.15c1.21-0.1,2.12-0.15,2.72-0.15c0.54,0,0.94,0.17,1.22,0.51
					c0.28,0.34,0.42,0.72,0.42,1.13c0,0.3-0.04,0.54-0.12,0.72c-0.08,0.18-0.28,0.51-0.61,1.01c-0.22,0.34-0.36,0.7-0.4,1.08
					c-0.05,0.38-0.07,1.23-0.07,2.55v17.84c0,1.36,0.02,2.2,0.07,2.54c0.05,0.33,0.19,0.69,0.44,1.07c0.31,0.5,0.51,0.83,0.58,1
					s0.11,0.4,0.11,0.69c0,0.48-0.14,0.88-0.43,1.2c-0.29,0.32-0.69,0.48-1.22,0.48c-0.12,0-0.8-0.05-2.05-0.14
					c-1.25-0.09-2.49-0.14-3.73-0.14c-1.19,0-2.33,0.05-3.44,0.14c-1.1,0.09-1.67,0.14-1.69,0.14c-0.56,0-0.97-0.19-1.22-0.56
					c-0.25-0.37-0.38-0.79-0.38-1.24c0-0.29,0.03-0.51,0.1-0.66c0.07-0.15,0.26-0.49,0.59-1.03c0.14-0.25,0.24-0.45,0.3-0.62
					c0.06-0.16,0.11-0.48,0.16-0.96c0.05-0.48,0.07-1.15,0.07-2.03v-4.33c0-0.68,0.01-1.3,0.04-1.85c0.03-0.55,0.04-0.85,0.04-0.89
					c0-0.29-0.14-0.43-0.41-0.43c-0.17,0-0.33,0.08-0.48,0.24c-0.15,0.16-0.26,0.32-0.34,0.46c-0.08,0.14-0.19,0.38-0.33,0.71
					l-3.64,8.01c-0.55,1.23-1.29,1.84-2.21,1.84c-0.48,0-0.88-0.15-1.2-0.44s-0.63-0.76-0.93-1.4l-3.72-8.46
					c-0.23-0.54-0.53-0.8-0.88-0.8c-0.17,0-0.31,0.05-0.43,0.14c-0.12,0.09-0.18,0.22-0.18,0.39c0,0.04,0.01,0.14,0.03,0.3
					c0.02,0.16,0.04,0.44,0.06,0.82c0.02,0.39,0.03,0.85,0.03,1.4v4.41c0,0.89,0.02,1.57,0.07,2.05c0.05,0.48,0.1,0.79,0.16,0.94
					c0.06,0.15,0.16,0.36,0.3,0.62c0.04,0.07,0.09,0.15,0.17,0.26c0.07,0.11,0.12,0.19,0.15,0.22c0.03,0.04,0.06,0.1,0.11,0.19
					c0.05,0.09,0.08,0.14,0.1,0.17c0.02,0.03,0.05,0.07,0.08,0.14c0.03,0.07,0.05,0.11,0.05,0.14c0,0.03,0.01,0.07,0.03,0.13
					c0.02,0.06,0.03,0.11,0.03,0.15c0,0.04,0,0.09,0.01,0.15C159.41,183.93,159.41,183.99,159.41,184.06z"/>
			</g>
			<g>
				<path class="st6" d="M205.46,181.19v1.94c0,0.56,0.12,0.96,0.36,1.2c0.24,0.24,0.6,0.39,1.07,0.44
					c0.81,0.13,2.86,0.19,6.15,0.19c0.72,0,1.43-0.02,2.13-0.07c0.7-0.04,1.33-0.11,1.89-0.2c0.56-0.09,1.08-0.18,1.58-0.27
					s0.94-0.19,1.34-0.3c0.4-0.11,0.72-0.2,0.99-0.28c0.26-0.08,0.49-0.16,0.7-0.23c0.21-0.07,0.32-0.11,0.34-0.11
					c1.03-0.43,1.75-0.65,2.19-0.65c0.52,0,0.97,0.17,1.34,0.5c0.37,0.33,0.55,0.75,0.55,1.26c0,0.5-0.18,1.21-0.54,2.1
					c-0.34,0.86-0.72,2.21-1.12,4.05c-0.4,1.84-0.66,3.17-0.77,4.02c-0.05,0.56-0.2,1.03-0.43,1.43c-0.41,0.7-1.13,1.05-2.16,1.05
					c-0.5,0-1.54-0.03-3.1-0.09c-1.57-0.06-4.06-0.13-7.49-0.19c-3.43-0.06-7.65-0.09-12.67-0.09c-1.76,0-3.54,0.06-5.32,0.19
					c-1.78,0.13-2.7,0.19-2.75,0.19c-0.59,0-1.08-0.16-1.44-0.47c-0.37-0.32-0.6-0.63-0.69-0.93c-0.09-0.31-0.13-0.61-0.13-0.92
					c0-0.38,0.05-0.68,0.16-0.92s0.38-0.7,0.81-1.4c0.31-0.5,0.5-1.04,0.59-1.61c0.09-0.57,0.14-1.69,0.14-3.36v-24.59
					c0-1.85-0.04-3-0.11-3.45c-0.07-0.45-0.28-0.94-0.62-1.48c-0.43-0.7-0.7-1.17-0.81-1.42c-0.11-0.24-0.16-0.56-0.16-0.96
					c0-0.61,0.18-1.15,0.53-1.62c0.35-0.47,0.99-0.7,1.9-0.7c0.23,0,0.8,0.04,1.7,0.11c0.9,0.07,2.27,0.14,4.1,0.2
					c1.84,0.06,4,0.1,6.5,0.1c4.28,0,7.8-0.03,10.57-0.1c2.76-0.06,4.68-0.13,5.75-0.2c1.07-0.07,1.7-0.11,1.88-0.11
					c1.01,0,1.66,0.25,1.97,0.76c0.31,0.5,0.63,1.66,0.97,3.45c0.27,1.44,0.56,2.69,0.86,3.75c0.52,1.71,0.78,2.67,0.78,2.89
					c0,0.49-0.19,0.86-0.58,1.13c-0.39,0.27-0.84,0.41-1.36,0.41c-0.34,0-0.95-0.12-1.82-0.37c-0.87-0.24-2.17-0.49-3.9-0.74
					c-1.73-0.25-3.8-0.38-6.21-0.38h-4.37c-0.85,0.11-1.27,0.73-1.27,1.86v1.84c0,0.74,0.22,1.19,0.65,1.35
					c0.43,0.16,1.29,0.24,2.56,0.24h4.21c1.91,0,3.3-0.16,4.18-0.49c1.26-0.49,2.13-0.73,2.62-0.73c1.28,0,1.92,0.72,1.92,2.16
					c0,0.25-0.04,1.02-0.11,2.29c-0.07,1.28-0.11,2.02-0.11,2.24c0,0.16,0.04,0.71,0.11,1.63c0.07,0.93,0.11,1.47,0.11,1.63
					c0,0.47-0.16,0.93-0.48,1.38c-0.32,0.45-0.83,0.67-1.51,0.67c-0.07,0-0.14,0-0.2,0s-0.13,0-0.2-0.01
					c-0.07-0.01-0.13-0.02-0.18-0.03c-0.05-0.01-0.12-0.03-0.22-0.07s-0.18-0.06-0.24-0.08c-0.06-0.02-0.17-0.05-0.31-0.09
					c-0.14-0.04-0.26-0.09-0.35-0.12c-0.09-0.04-0.24-0.09-0.45-0.17c-0.21-0.08-0.39-0.15-0.55-0.2c-0.74-0.29-2.08-0.43-4.02-0.43
					h-4.7c-1.08,0-1.8,0.11-2.17,0.34C205.64,179.79,205.46,180.33,205.46,181.19z"/>
			</g>
			<g>
				<path class="st6" d="M242.23,179.46h-4.56c-1.4,0-2.16,0.4-2.29,1.2c-0.05,0.31-0.08,0.53-0.08,0.65c0,0.26,0.24,0.8,0.72,1.61
					c0.18,0.29,0.27,0.66,0.27,1.12s-0.13,0.85-0.4,1.18c-0.27,0.33-0.6,0.5-1.01,0.5c-0.16,0-0.72-0.05-1.7-0.14
					c-0.98-0.09-1.87-0.14-2.66-0.14c-1.16,0-2.35,0.05-3.55,0.14c-1.21,0.09-1.88,0.14-2.01,0.14c-0.37,0-0.67-0.07-0.92-0.21
					c-0.25-0.14-0.42-0.32-0.52-0.54c-0.1-0.22-0.16-0.4-0.2-0.54c-0.03-0.14-0.05-0.27-0.05-0.39c0-0.33,0.06-0.6,0.18-0.81
					c0.12-0.21,0.43-0.64,0.94-1.26c0.22-0.26,0.4-0.6,0.54-1.02c0.14-0.42,0.36-1.29,0.68-2.62c0.07-0.27,0.12-0.49,0.16-0.65
					c0.57-2.43,1.38-5.32,2.42-8.66c1.04-3.35,2.2-6.57,3.48-9.66c1.28-3.09,2.3-4.83,3.07-5.21c0.29-0.14,0.59-0.22,0.92-0.22
					c0.14,0,0.45,0.03,0.92,0.08c0.47,0.05,1.18,0.1,2.12,0.15c0.95,0.05,2.07,0.07,3.38,0.07c1.12,0,2.3-0.05,3.54-0.15
					c1.24-0.1,1.93-0.15,2.07-0.15c0.22,0,0.41,0.02,0.57,0.07c0.16,0.05,0.35,0.16,0.59,0.34c0.23,0.18,0.48,0.49,0.74,0.93
					c0.26,0.44,0.55,1.01,0.86,1.71c1.4,3.16,2.66,6.59,3.79,10.3c1.13,3.71,2.26,7.83,3.4,12.36c0.25,0.99,0.48,1.69,0.71,2.1
					c0.13,0.26,0.31,0.54,0.53,0.84c0.4,0.57,0.61,1.08,0.61,1.51c0,0.46-0.12,0.84-0.36,1.16c-0.24,0.32-0.64,0.48-1.2,0.48
					c-0.2,0-1.01-0.05-2.43-0.14c-1.42-0.09-2.85-0.14-4.27-0.14c-1.41,0-2.66,0.05-3.76,0.14c-1.1,0.09-1.69,0.14-1.78,0.14
					c-0.39,0-0.72-0.08-0.98-0.23c-0.26-0.16-0.44-0.36-0.54-0.61c-0.1-0.25-0.16-0.44-0.2-0.59c-0.03-0.14-0.05-0.27-0.05-0.37
					c0-0.37,0.15-0.76,0.45-1.19c0.17-0.25,0.28-0.42,0.34-0.51c0.06-0.09,0.12-0.22,0.18-0.4c0.06-0.18,0.09-0.37,0.09-0.58
					c0-0.34-0.06-0.63-0.19-0.86c-0.12-0.24-0.27-0.41-0.43-0.53c-0.16-0.12-0.39-0.2-0.68-0.26c-0.29-0.06-0.52-0.09-0.7-0.1
					C242.8,179.46,242.55,179.46,242.23,179.46z M239.24,171.27h2.12c1.07,0,1.61-0.38,1.61-1.15c0-1.1-0.52-3.06-1.57-5.89
					c-0.38-0.94-0.74-1.41-1.08-1.41c-0.13,0-0.25,0.04-0.36,0.12c-0.11,0.08-0.23,0.23-0.36,0.46c-0.13,0.23-0.23,0.41-0.29,0.55
					c-0.07,0.14-0.18,0.41-0.35,0.83c-0.42,1.02-0.78,2.06-1.1,3.12c-0.31,1.06-0.47,1.82-0.47,2.26c0,0.26,0.05,0.47,0.16,0.64
					s0.26,0.28,0.48,0.34c0.22,0.07,0.4,0.1,0.56,0.12C238.73,171.26,238.95,171.27,239.24,171.27z"/>
			</g>
			<g>
				<path class="st6" d="M258.94,164.32v-0.04c0-1.46,0.23-2.79,0.7-3.99c0.46-1.19,1.1-2.2,1.9-3.02c0.8-0.82,1.75-1.5,2.86-2.06
					s2.28-0.96,3.53-1.22c1.25-0.25,2.58-0.38,3.98-0.38c0.97,0,2.08,0.1,3.35,0.29c1.27,0.2,2.35,0.39,3.26,0.58
					c0.91,0.19,1.41,0.28,1.5,0.28c0.16,0,0.41-0.08,0.76-0.24c0.35-0.16,0.67-0.24,0.96-0.24c0.54,0,1.01,0.16,1.42,0.47
					c0.41,0.31,0.62,0.69,0.62,1.14c0,0.03-0.02,0.28-0.06,0.77s-0.06,0.89-0.06,1.2c0,0.85,0.18,1.99,0.54,3.44
					c0.36,1.44,0.54,2.18,0.54,2.2c0,0.25-0.1,0.53-0.29,0.83c-0.2,0.31-0.51,0.46-0.94,0.46c-0.29,0-0.86-0.16-1.73-0.49
					c-0.87-0.33-1.87-0.65-3-0.98c-1.13-0.33-2.14-0.49-3.05-0.49c-0.64,0-1.15,0.15-1.55,0.44c-0.39,0.29-0.59,0.75-0.59,1.36
					c0,0.57,0.21,1.05,0.64,1.44c0.42,0.38,1.24,0.72,2.46,1.01c1.07,0.25,1.91,0.46,2.51,0.64s1.38,0.49,2.35,0.95
					s1.71,0.96,2.23,1.52c0.52,0.55,0.99,1.32,1.4,2.31c0.41,0.99,0.62,2.12,0.62,3.4c0,1.45-0.25,2.77-0.74,3.98
					c-0.5,1.2-1.17,2.21-2.01,3.03c-0.84,0.82-1.84,1.51-2.99,2.07c-1.15,0.56-2.36,0.97-3.62,1.22c-1.27,0.25-2.59,0.38-3.96,0.38
					c-0.64,0-1.39-0.05-2.26-0.15c-0.87-0.1-1.7-0.22-2.49-0.35c-0.79-0.14-1.53-0.27-2.23-0.41c-0.7-0.14-1.27-0.25-1.7-0.35
					c-0.44-0.1-0.66-0.15-0.68-0.15c-0.2,0-0.51,0.12-0.94,0.36c-0.43,0.24-0.85,0.36-1.25,0.36c-0.38,0-0.69-0.05-0.95-0.16
					c-0.25-0.1-0.45-0.23-0.58-0.39c-0.13-0.16-0.23-0.38-0.3-0.69c-0.07-0.3-0.11-0.57-0.13-0.81c-0.01-0.24-0.02-0.58-0.02-1.03
					c0-1.77-0.29-3.61-0.88-5.5c-0.16-0.7-0.23-1.15-0.23-1.33c0-0.38,0.14-0.71,0.41-1c0.27-0.29,0.59-0.43,0.96-0.43
					c0.33,0,0.59,0.05,0.8,0.16c0.25,0.12,0.66,0.32,1.23,0.62c0.57,0.29,0.96,0.49,1.15,0.58c0.19,0.09,0.51,0.24,0.95,0.45
					c0.44,0.21,0.75,0.35,0.92,0.41c0.17,0.07,0.42,0.17,0.76,0.31c0.34,0.14,0.6,0.23,0.79,0.27c0.19,0.04,0.42,0.09,0.69,0.16
					c0.27,0.07,0.53,0.11,0.76,0.13c0.23,0.02,0.48,0.03,0.74,0.03c0.63,0,1.13-0.16,1.52-0.47c0.38-0.31,0.58-0.77,0.58-1.37
					c0-0.64-0.26-1.15-0.78-1.53c-0.52-0.38-1.4-0.74-2.62-1.08c-1.15-0.31-2.16-0.69-3.04-1.13c-0.87-0.44-1.68-1-2.43-1.68
					c-0.74-0.69-1.31-1.54-1.7-2.56C259.13,166.83,258.94,165.65,258.94,164.32z"/>
			</g>
			<g>
				<path class="st6" d="M307.13,184.06v0.04c0,0.2-0.03,0.4-0.09,0.61c-0.06,0.21-0.22,0.43-0.49,0.66
					c-0.27,0.23-0.62,0.34-1.07,0.34c-0.05,0-0.71-0.05-1.97-0.14c-1.26-0.09-2.48-0.14-3.65-0.14c-1.34,0-2.62,0.05-3.84,0.14
					c-1.21,0.09-1.91,0.14-2.1,0.14c-0.6,0-1.02-0.17-1.27-0.52c-0.25-0.35-0.37-0.72-0.37-1.13c0-0.31,0.04-0.56,0.11-0.74
					c0.07-0.18,0.26-0.51,0.58-0.98c0.21-0.35,0.35-0.72,0.41-1.1c0.07-0.38,0.1-1.22,0.1-2.51v-1.61c0-0.52-0.06-0.93-0.17-1.22
					c-0.11-0.29-0.34-0.64-0.68-1.04c-0.34-0.4-1.02-1.13-2.04-2.18c-1.29-1.33-2.46-3.22-3.49-5.68c-1.04-2.45-1.85-5.2-2.44-8.24
					c-0.09-0.54-0.21-0.93-0.37-1.2c-0.38-0.57-0.61-0.97-0.71-1.18c-0.09-0.21-0.14-0.48-0.14-0.79c0-0.47,0.15-0.87,0.45-1.19
					c0.3-0.33,0.72-0.49,1.27-0.49c0.18,0,0.94,0.05,2.26,0.15c1.32,0.1,2.78,0.15,4.36,0.15c1.37,0,2.65-0.05,3.83-0.15
					c1.18-0.1,1.91-0.15,2.18-0.15c0.5,0,0.91,0.14,1.23,0.42c0.33,0.28,0.49,0.69,0.49,1.22c0,0.3-0.03,0.54-0.1,0.73
					c-0.07,0.18-0.2,0.46-0.41,0.84c-0.33,0.64-0.49,1.22-0.49,1.72c0,0.77,0.14,1.74,0.41,2.9c0.27,1.16,0.63,2.2,1.06,3.11
					c0.43,0.91,0.84,1.37,1.21,1.37c0.56,0,1.17-0.92,1.81-2.77c0.65-1.85,0.97-3.41,0.97-4.69c0-0.27-0.03-0.53-0.08-0.77
					c-0.05-0.24-0.11-0.42-0.17-0.55c-0.06-0.12-0.14-0.28-0.25-0.48c-0.11-0.2-0.19-0.33-0.23-0.41c-0.1-0.21-0.16-0.48-0.16-0.8
					c0-0.55,0.17-0.99,0.51-1.33c0.34-0.34,0.72-0.51,1.14-0.51c0.09,0,0.77,0.05,2.04,0.15c1.27,0.1,2.71,0.15,4.33,0.15
					c0.82,0,1.68-0.05,2.57-0.15c0.89-0.1,1.37-0.15,1.44-0.15c0.33,0,0.63,0.12,0.91,0.37c0.28,0.25,0.42,0.65,0.42,1.19
					c0,0.31-0.05,0.57-0.14,0.76c-0.09,0.2-0.27,0.49-0.55,0.88c-0.25,0.34-0.5,1.06-0.76,2.17c-0.12,0.51-0.32,1.22-0.61,2.13
					c-0.29,0.91-0.7,2.09-1.23,3.53c-0.54,1.44-1.22,2.9-2.05,4.36c-0.83,1.46-1.7,2.66-2.61,3.6c-0.57,0.59-1.31,1.38-2.19,2.37
					c-0.18,0.23-0.3,0.45-0.36,0.65c-0.06,0.2-0.09,0.48-0.09,0.84v1.96c0.04,1.41,0.08,2.27,0.13,2.59
					c0.05,0.32,0.18,0.66,0.4,1.01c0.33,0.48,0.53,0.82,0.61,1S307.13,183.76,307.13,184.06z"/>
			</g>
		</g>
		<g>
			<path class="st6" d="M277.03,197.9c-3.18,0-6.53-0.66-10.05-2c-1.36-0.52-2.05-2.04-1.53-3.41c0.52-1.37,2.04-2.05,3.41-1.53
				c10.11,3.84,17.67,1.22,23.78-8.26c0.79-1.23,2.43-1.58,3.65-0.79c1.23,0.79,1.58,2.43,0.79,3.65
				C291.81,193.74,284.99,197.9,277.03,197.9z"/>
		</g>
	</g>
	<g>
		<defs>
			<path id="SVGID_00000138553091020935355240000004710679367108081307_" d="M264.43,189.28c-2.46-0.34-4.74,1.47-5.1,4.04
				c-0.36,2.57,1.35,4.94,3.81,5.28c2.46,0.34,4.74-1.47,5.1-4.04C268.6,191.99,266.89,189.62,264.43,189.28z"/>
		</defs>
		<clipPath id="SVGID_00000109741134378070709280000001387512798689047700_">
			<use xlink:href="#SVGID_00000138553091020935355240000004710679367108081307_"  style="overflow:visible;"/>
		</clipPath>
		<g style="clip-path:url(#SVGID_00000109741134378070709280000001387512798689047700_);">
			
				<rect x="259.08" y="189.44" transform="matrix(0.1378 -0.9905 0.9905 0.1378 35.355 428.4924)" class="st6" width="9.41" height="8.99"/>
		</g>
	</g>
	<g>
		
			<rect x="253.98" y="188.73" transform="matrix(0.1378 -0.9905 0.9905 0.1378 31.6617 422.8233)" class="st41" width="9.41" height="8.99"/>
	</g>
</g>
</svg>
