<?xml version="1.0" encoding="utf-8"?>
<!-- Generator: Adobe Illustrator 27.3.1, SVG Export Plug-In . SVG Version: 6.00 Build 0)  -->
<svg version="1.1" id="Camada_1" xmlns="http://www.w3.org/2000/svg" xmlns:xlink="http://www.w3.org/1999/xlink" x="0px" y="0px"
	 viewBox="0 0 347.52 116.55" style="enable-background:new 0 0 347.52 116.55;" xml:space="preserve">
<style type="text/css">
	.st0{clip-path:url(#SVGID_00000152964673034390311990000004837871640131013019_);}
	.st1{clip-path:url(#SVGID_00000101082329528126602620000002132374377051596932_);}
	.st2{fill:#D9D9D9;}
	.st3{clip-path:url(#SVGID_00000111880788704793683500000011905689386176302776_);}
	.st4{clip-path:url(#SVGID_00000029731476275683680320000007024254548891036841_);}
	.st5{clip-path:url(#SVGID_00000062188002569510782480000003880999542961374634_);}
	.st6{clip-path:url(#SVGID_00000150794871900707460590000011093662893235453856_);}
	.st7{fill:#0B4B33;}
	.st8{clip-path:url(#SVGID_00000126302902875986880310000015253529411751406001_);}
	.st9{clip-path:url(#SVGID_00000181067382997003999730000011478645009495330949_);}
	.st10{clip-path:url(#SVGID_00000066484522302094322260000011423461718743254193_);}
	.st11{clip-path:url(#SVGID_00000055693101045419796920000011843139006233458359_);}
	.st12{clip-path:url(#SVGID_00000075128785700963279670000001508969909661793680_);}
	.st13{fill:none;}
</style>
<g>
	<g>
		<defs>
			<rect id="SVGID_1_" x="262.85" y="77.51" width="8.99" height="9.41"/>
		</defs>
		<clipPath id="SVGID_00000126324300054379313380000010591086093739512470_">
			<use xlink:href="#SVGID_1_"  style="overflow:visible;"/>
		</clipPath>
		<g style="clip-path:url(#SVGID_00000126324300054379313380000010591086093739512470_);">
			<defs>
				<path id="SVGID_00000095329662827371193010000008248629849989650305_" d="M267.34,77.51c-2.48,0-4.5,2.11-4.5,4.7
					c0,2.6,2.01,4.7,4.5,4.7c2.48,0,4.5-2.11,4.5-4.7C271.84,79.61,269.83,77.51,267.34,77.51z"/>
			</defs>
			<clipPath id="SVGID_00000131357715954768141320000014414912374226738338_">
				<use xlink:href="#SVGID_00000095329662827371193010000008248629849989650305_"  style="overflow:visible;"/>
			</clipPath>
			<g style="clip-path:url(#SVGID_00000131357715954768141320000014414912374226738338_);">
				<rect x="262.85" y="77.51" class="st2" width="8.99" height="9.41"/>
			</g>
		</g>
	</g>
	<g>
		<defs>
			<rect id="SVGID_00000135666543830541654390000009495652236428377513_" x="241.04" y="30.6" width="8.99" height="9.41"/>
		</defs>
		<clipPath id="SVGID_00000039114337653312886390000015740339135306131639_">
			<use xlink:href="#SVGID_00000135666543830541654390000009495652236428377513_"  style="overflow:visible;"/>
		</clipPath>
		<g style="clip-path:url(#SVGID_00000039114337653312886390000015740339135306131639_);">
			<defs>
				<path id="SVGID_00000162317012373875827080000003553132895119543993_" d="M245.54,30.6c-2.48,0-4.5,2.11-4.5,4.7
					c0,2.6,2.01,4.7,4.5,4.7c2.48,0,4.5-2.11,4.5-4.7C250.03,32.71,248.02,30.6,245.54,30.6z"/>
			</defs>
			<clipPath id="SVGID_00000183219276435391792070000004202478579327698560_">
				<use xlink:href="#SVGID_00000162317012373875827080000003553132895119543993_"  style="overflow:visible;"/>
			</clipPath>
			<g style="clip-path:url(#SVGID_00000183219276435391792070000004202478579327698560_);">
				<rect x="241.04" y="30.6" class="st2" width="8.99" height="9.41"/>
			</g>
		</g>
	</g>
	<g>
		<defs>
			<rect id="SVGID_00000032621004282265045990000005554256940752108694_" x="287.64" y="30.55" width="8.99" height="9.41"/>
		</defs>
		<clipPath id="SVGID_00000098911697051681622970000015716601713791985342_">
			<use xlink:href="#SVGID_00000032621004282265045990000005554256940752108694_"  style="overflow:visible;"/>
		</clipPath>
		<g style="clip-path:url(#SVGID_00000098911697051681622970000015716601713791985342_);">
			<defs>
				<path id="SVGID_00000034770746769232934400000013519883751957596802_" d="M292.13,30.55c-2.48,0-4.5,2.11-4.5,4.7
					c0,2.6,2.01,4.7,4.5,4.7c2.48,0,4.5-2.11,4.5-4.7C296.63,32.65,294.62,30.55,292.13,30.55z"/>
			</defs>
			<clipPath id="SVGID_00000154417353906725230960000012022409768140205718_">
				<use xlink:href="#SVGID_00000034770746769232934400000013519883751957596802_"  style="overflow:visible;"/>
			</clipPath>
			<g style="clip-path:url(#SVGID_00000154417353906725230960000012022409768140205718_);">
				<rect x="287.64" y="30.55" class="st2" width="8.99" height="9.41"/>
			</g>
		</g>
	</g>
	<g>
		<g>
			<g>
				<path class="st2" d="M49.11,83.13v0.05c0,0.23-0.03,0.46-0.09,0.69c-0.06,0.23-0.17,0.46-0.32,0.7
					c-0.15,0.24-0.41,0.44-0.76,0.59c-0.35,0.15-0.77,0.23-1.26,0.23c-0.61,0-1.53-0.06-2.74-0.19c-1.22-0.13-2.13-0.19-2.74-0.19
					c-1.28,0-2.59,0.06-3.94,0.19c-1.35,0.13-2.12,0.19-2.32,0.19c-0.65,0-1.17-0.22-1.58-0.66c-0.41-0.44-0.61-0.99-0.61-1.66
					c0-0.38,0.05-0.68,0.13-0.89c0.09-0.22,0.37-0.69,0.84-1.43c0.2-0.34,0.34-0.63,0.42-0.85c0.08-0.22,0.15-0.67,0.22-1.32
					c0.06-0.66,0.1-1.59,0.1-2.79V51.2c0-1.76-0.04-2.89-0.12-3.37c-0.08-0.49-0.28-1.01-0.61-1.57c-0.58-0.95-0.89-1.57-0.95-1.84
					c-0.02-0.13-0.03-0.31-0.03-0.54c0-0.34,0.05-0.67,0.15-0.97c0.1-0.31,0.35-0.61,0.76-0.9c0.41-0.3,0.95-0.45,1.63-0.45
					c1.01,0,2.49,0.07,4.45,0.2c1.96,0.14,3.44,0.2,4.43,0.2c0.83,0,1.97-0.07,3.43-0.2c1.46-0.13,2.29-0.2,2.51-0.2
					c0.65,0,1.24,0.22,1.78,0.66s1.09,1.27,1.65,2.5c2.09,4.43,3.62,7.73,4.59,9.91c0.31,0.61,0.58,1.04,0.82,1.28
					c0.24,0.24,0.5,0.36,0.77,0.36c0.13,0,0.23-0.02,0.32-0.05c0.09-0.04,0.23-0.18,0.43-0.45c0.2-0.26,0.4-0.64,0.62-1.15
					c2.43-5.38,4.01-8.92,4.75-10.63c0.76-1.62,1.75-2.43,3-2.43c0.52,0,1.58,0.07,3.17,0.2c1.59,0.14,2.77,0.2,3.52,0.2
					c0.83,0,2.08-0.07,3.75-0.2c1.67-0.13,2.92-0.2,3.75-0.2c0.74,0,1.3,0.23,1.69,0.7c0.39,0.47,0.58,0.99,0.58,1.57
					c0,0.41-0.06,0.74-0.16,0.99c-0.11,0.24-0.39,0.71-0.84,1.39c-0.31,0.47-0.49,0.96-0.55,1.48c-0.06,0.52-0.09,1.69-0.09,3.51
					v24.59c0,1.87,0.03,3.04,0.09,3.49c0.06,0.46,0.27,0.95,0.61,1.47c0.43,0.68,0.7,1.14,0.8,1.38c0.1,0.23,0.15,0.55,0.15,0.94
					c0,0.67-0.2,1.22-0.59,1.66c-0.4,0.44-0.95,0.66-1.67,0.66c-0.16,0-1.1-0.06-2.82-0.19c-1.72-0.13-3.43-0.19-5.14-0.19
					c-1.64,0-3.22,0.06-4.74,0.19c-1.52,0.13-2.3,0.19-2.33,0.19c-0.77,0-1.34-0.26-1.69-0.77c-0.35-0.51-0.53-1.08-0.53-1.71
					c0-0.4,0.05-0.7,0.13-0.9c0.09-0.21,0.36-0.68,0.81-1.42c0.2-0.34,0.34-0.63,0.42-0.85c0.08-0.22,0.15-0.67,0.22-1.32
					c0.06-0.66,0.09-1.59,0.09-2.79v-5.96c0-0.94,0.02-1.78,0.05-2.55s0.05-1.17,0.05-1.23c0-0.4-0.19-0.59-0.57-0.59
					c-0.23,0-0.45,0.11-0.66,0.34c-0.21,0.23-0.36,0.44-0.47,0.64c-0.11,0.2-0.26,0.52-0.46,0.97l-5.02,11.04
					c-0.76,1.69-1.77,2.54-3.05,2.54c-0.67,0-1.22-0.2-1.66-0.61c-0.44-0.4-0.87-1.05-1.28-1.93l-5.13-11.66
					c-0.32-0.74-0.73-1.11-1.21-1.11c-0.23,0-0.43,0.06-0.59,0.19c-0.16,0.13-0.24,0.31-0.24,0.54c0,0.05,0.01,0.19,0.04,0.42
					c0.03,0.23,0.05,0.6,0.08,1.13c0.03,0.53,0.04,1.17,0.04,1.93v6.07c0,1.22,0.03,2.16,0.09,2.82c0.06,0.66,0.14,1.09,0.22,1.3
					c0.08,0.21,0.22,0.49,0.42,0.85c0.06,0.09,0.13,0.21,0.23,0.36c0.1,0.15,0.17,0.26,0.2,0.31c0.04,0.06,0.09,0.14,0.15,0.26
					c0.06,0.12,0.11,0.19,0.13,0.23c0.03,0.04,0.06,0.1,0.11,0.19S49,82.25,49,82.29c0,0.04,0.01,0.1,0.04,0.18
					c0.03,0.08,0.04,0.15,0.04,0.2c0,0.05,0.01,0.12,0.01,0.2C49.1,82.95,49.11,83.04,49.11,83.13z"/>
			</g>
			<g>
				<path class="st2" d="M102.18,68.29h-4.56c-1.4,0-2.16,0.4-2.29,1.19c-0.05,0.31-0.08,0.53-0.08,0.65c0,0.26,0.24,0.8,0.72,1.61
					c0.18,0.29,0.27,0.66,0.27,1.12s-0.13,0.85-0.4,1.18c-0.27,0.33-0.6,0.5-1.01,0.5c-0.16,0-0.72-0.05-1.7-0.14
					s-1.87-0.14-2.66-0.14c-1.16,0-2.35,0.05-3.55,0.14s-1.88,0.14-2.01,0.14c-0.37,0-0.67-0.07-0.92-0.21
					c-0.25-0.14-0.42-0.32-0.52-0.54c-0.1-0.22-0.16-0.4-0.2-0.54c-0.03-0.14-0.05-0.27-0.05-0.39c0-0.33,0.06-0.6,0.18-0.81
					c0.12-0.21,0.43-0.64,0.94-1.26c0.22-0.26,0.4-0.6,0.54-1.02c0.14-0.42,0.36-1.29,0.68-2.62c0.07-0.27,0.12-0.49,0.16-0.65
					c0.57-2.43,1.38-5.32,2.42-8.67c1.04-3.35,2.2-6.57,3.48-9.66c1.28-3.09,2.3-4.83,3.07-5.21c0.29-0.14,0.59-0.22,0.92-0.22
					c0.14,0,0.45,0.03,0.92,0.08c0.47,0.05,1.18,0.1,2.12,0.15c0.95,0.05,2.07,0.07,3.38,0.07c1.12,0,2.3-0.05,3.54-0.15
					c1.24-0.1,1.93-0.15,2.07-0.15c0.22,0,0.41,0.02,0.57,0.07c0.16,0.05,0.35,0.16,0.59,0.34c0.23,0.18,0.48,0.49,0.74,0.93
					c0.26,0.44,0.55,1.01,0.86,1.71c1.4,3.16,2.66,6.59,3.79,10.3c1.13,3.71,2.26,7.83,3.4,12.36c0.25,0.99,0.48,1.69,0.71,2.1
					c0.13,0.26,0.31,0.54,0.53,0.84c0.4,0.57,0.61,1.08,0.61,1.51c0,0.46-0.12,0.84-0.36,1.16c-0.24,0.32-0.64,0.48-1.2,0.48
					c-0.2,0-1.01-0.05-2.43-0.14c-1.42-0.09-2.85-0.14-4.27-0.14c-1.41,0-2.66,0.05-3.76,0.14c-1.1,0.09-1.69,0.14-1.78,0.14
					c-0.39,0-0.72-0.08-0.98-0.23c-0.26-0.16-0.44-0.36-0.54-0.61c-0.1-0.25-0.16-0.44-0.2-0.59c-0.03-0.14-0.05-0.27-0.05-0.37
					c0-0.37,0.15-0.76,0.45-1.19c0.17-0.25,0.28-0.42,0.34-0.51c0.06-0.09,0.12-0.22,0.18-0.4c0.06-0.18,0.09-0.37,0.09-0.58
					c0-0.34-0.06-0.63-0.19-0.86c-0.12-0.24-0.27-0.41-0.43-0.53c-0.16-0.12-0.39-0.2-0.68-0.26c-0.29-0.06-0.52-0.09-0.7-0.1
					C102.74,68.29,102.5,68.29,102.18,68.29z M99.19,60.1h2.12c1.07,0,1.61-0.38,1.61-1.15c0-1.1-0.52-3.06-1.57-5.89
					c-0.38-0.94-0.74-1.41-1.08-1.41c-0.13,0-0.25,0.04-0.36,0.12c-0.11,0.08-0.23,0.23-0.36,0.46s-0.23,0.41-0.29,0.55
					c-0.07,0.14-0.18,0.41-0.35,0.83c-0.42,1.02-0.78,2.06-1.1,3.12c-0.31,1.06-0.47,1.82-0.47,2.26c0,0.26,0.05,0.47,0.16,0.64
					c0.1,0.16,0.26,0.28,0.48,0.34c0.22,0.07,0.4,0.1,0.56,0.12C98.68,60.1,98.9,60.1,99.19,60.1z"/>
			</g>
			<g>
				<path class="st2" d="M132.3,65.35v3.02c0.04,0.97,0.08,1.59,0.13,1.86c0.05,0.27,0.18,0.59,0.4,0.94
					c0.31,0.5,0.51,0.83,0.58,1.01c0.07,0.18,0.11,0.41,0.11,0.71c0,0.39-0.12,0.76-0.35,1.12c-0.23,0.35-0.65,0.53-1.25,0.53
					c-0.04,0-0.72-0.05-2.04-0.14c-1.32-0.09-2.51-0.14-3.58-0.14c-0.7,0-1.66,0.05-2.88,0.14s-2.08,0.14-2.6,0.14
					c-0.35,0-0.65-0.07-0.89-0.2c-0.24-0.13-0.41-0.29-0.52-0.49c-0.1-0.2-0.18-0.37-0.22-0.54c-0.04-0.16-0.06-0.32-0.06-0.46
					c0-0.27,0.04-0.5,0.12-0.67c0.08-0.17,0.27-0.51,0.59-1.02c0.22-0.37,0.37-0.75,0.43-1.16c0.07-0.41,0.1-1.22,0.1-2.44V49.73
					c0-1.29-0.03-2.12-0.09-2.48s-0.21-0.73-0.44-1.11c-0.31-0.51-0.51-0.85-0.59-1.03c-0.08-0.18-0.12-0.41-0.12-0.69
					c0-1.12,0.6-1.68,1.8-1.68c0.3,0,1.05,0.05,2.25,0.15c1.2,0.1,2.25,0.15,3.15,0.15c0.81,0,2.03-0.05,3.66-0.15
					c1.63-0.1,2.86-0.15,3.68-0.15c4.01,0,7.07,0.35,9.18,1.06c2.12,0.71,3.82,1.94,5.11,3.71c1.29,1.77,1.94,3.85,1.94,6.26
					c0,3.08-1.06,5.5-3.19,7.26c-0.68,0.56-1.02,0.89-1.02,1c0,0.09,0.05,0.2,0.14,0.32c0.09,0.12,0.35,0.42,0.78,0.89
					c1.29,1.4,2.45,3.44,3.47,6.13c0.31,0.8,0.7,1.53,1.16,2.21c0.18,0.27,0.3,0.49,0.36,0.66c0.06,0.16,0.09,0.38,0.09,0.66
					c0,0.63-0.2,1.06-0.61,1.29c-0.41,0.23-0.97,0.35-1.68,0.35c-0.22,0-1.06-0.05-2.52-0.14c-1.46-0.09-2.54-0.14-3.26-0.14
					c-1.16,0-2.21,0.05-3.14,0.14c-0.93,0.09-1.43,0.14-1.48,0.14c-0.37,0-0.7-0.12-1.01-0.35c-0.31-0.24-0.46-0.64-0.46-1.22
					c0-0.12,0.03-0.41,0.08-0.88c0.05-0.47,0.08-0.76,0.08-0.88c0-0.56-0.34-1.46-1.01-2.69c-0.67-1.23-1.38-2.25-2.13-3.04
					c-0.63-0.67-1.13-1-1.53-1C132.54,64.47,132.3,64.76,132.3,65.35z M132.3,52.88v3.5c0,0.29,0.04,0.53,0.11,0.73
					c0.07,0.2,0.15,0.35,0.24,0.45c0.09,0.1,0.23,0.17,0.41,0.22c0.18,0.05,0.33,0.08,0.43,0.09c0.1,0.01,0.27,0.01,0.49,0.01
					c0.77,0,1.45-0.09,2.03-0.26c0.58-0.18,1.07-0.51,1.47-1c0.4-0.49,0.6-1.12,0.6-1.89c0-0.61-0.11-1.14-0.34-1.59
					c-0.23-0.44-0.48-0.77-0.76-0.97s-0.63-0.36-1.05-0.48c-0.42-0.12-0.73-0.18-0.93-0.2c-0.2-0.01-0.43-0.02-0.68-0.02
					c-0.81,0-1.35,0.09-1.62,0.25C132.44,51.91,132.3,52.29,132.3,52.88z"/>
			</g>
			<g>
				<path class="st2" d="M163.36,72.89v0.04c0,0.17-0.02,0.34-0.07,0.5c-0.05,0.16-0.12,0.33-0.24,0.51
					c-0.11,0.18-0.29,0.32-0.55,0.43c-0.25,0.11-0.56,0.17-0.91,0.17c-0.44,0-1.11-0.05-1.99-0.14s-1.54-0.14-1.99-0.14
					c-0.93,0-1.88,0.05-2.86,0.14s-1.54,0.14-1.68,0.14c-0.47,0-0.85-0.16-1.14-0.48c-0.29-0.32-0.44-0.72-0.44-1.2
					c0-0.27,0.03-0.49,0.1-0.65c0.07-0.16,0.27-0.5,0.61-1.04c0.14-0.25,0.24-0.45,0.3-0.62c0.06-0.16,0.11-0.48,0.16-0.96
					c0.05-0.48,0.07-1.15,0.07-2.03V49.73c0-1.28-0.03-2.1-0.09-2.45c-0.06-0.35-0.21-0.73-0.44-1.14
					c-0.42-0.69-0.65-1.13-0.69-1.33c-0.01-0.09-0.02-0.22-0.02-0.39c0-0.25,0.04-0.48,0.11-0.71s0.25-0.44,0.55-0.66
					c0.29-0.21,0.69-0.32,1.18-0.32c0.73,0,1.81,0.05,3.23,0.15c1.42,0.1,2.49,0.15,3.21,0.15c0.6,0,1.43-0.05,2.49-0.15
					c1.06-0.1,1.66-0.15,1.82-0.15c0.47,0,0.9,0.16,1.29,0.48c0.39,0.32,0.79,0.92,1.2,1.81c1.51,3.21,2.62,5.61,3.33,7.19
					c0.22,0.44,0.42,0.75,0.6,0.93c0.18,0.18,0.36,0.26,0.56,0.26c0.09,0,0.17-0.01,0.23-0.04s0.17-0.13,0.31-0.32
					c0.14-0.19,0.29-0.47,0.45-0.83c1.76-3.9,2.91-6.47,3.45-7.71c0.55-1.17,1.27-1.76,2.17-1.76c0.38,0,1.14,0.05,2.3,0.15
					c1.15,0.1,2.01,0.15,2.56,0.15c0.6,0,1.51-0.05,2.72-0.15c1.21-0.1,2.12-0.15,2.72-0.15c0.54,0,0.94,0.17,1.22,0.51
					c0.28,0.34,0.42,0.72,0.42,1.13c0,0.3-0.04,0.54-0.12,0.72c-0.08,0.18-0.28,0.51-0.61,1.01c-0.22,0.34-0.36,0.7-0.4,1.08
					c-0.05,0.38-0.07,1.23-0.07,2.55v17.84c0,1.36,0.02,2.2,0.07,2.54c0.05,0.33,0.19,0.69,0.44,1.07c0.31,0.5,0.51,0.83,0.58,1
					c0.07,0.17,0.11,0.4,0.11,0.69c0,0.48-0.14,0.88-0.43,1.2c-0.29,0.32-0.69,0.48-1.22,0.48c-0.12,0-0.8-0.05-2.05-0.14
					s-2.49-0.14-3.73-0.14c-1.19,0-2.33,0.05-3.44,0.14c-1.1,0.09-1.67,0.14-1.69,0.14c-0.56,0-0.97-0.19-1.22-0.56
					c-0.25-0.37-0.38-0.79-0.38-1.24c0-0.29,0.03-0.51,0.1-0.66c0.07-0.15,0.26-0.49,0.59-1.03c0.14-0.25,0.24-0.45,0.3-0.62
					c0.06-0.16,0.11-0.48,0.16-0.96c0.05-0.48,0.07-1.15,0.07-2.03v-4.33c0-0.68,0.01-1.3,0.04-1.85c0.03-0.55,0.04-0.85,0.04-0.89
					c0-0.29-0.14-0.43-0.41-0.43c-0.17,0-0.33,0.08-0.48,0.24c-0.15,0.16-0.26,0.32-0.34,0.46c-0.08,0.14-0.19,0.38-0.33,0.71
					l-3.64,8.01c-0.55,1.23-1.29,1.84-2.21,1.84c-0.48,0-0.88-0.15-1.2-0.44c-0.32-0.29-0.63-0.76-0.93-1.4l-3.72-8.46
					c-0.23-0.54-0.53-0.8-0.88-0.8c-0.17,0-0.31,0.05-0.43,0.14c-0.12,0.09-0.18,0.22-0.18,0.39c0,0.04,0.01,0.14,0.03,0.3
					c0.02,0.16,0.04,0.44,0.06,0.82c0.02,0.39,0.03,0.85,0.03,1.4v4.41c0,0.89,0.02,1.57,0.07,2.05c0.05,0.48,0.1,0.79,0.16,0.94
					c0.06,0.15,0.16,0.36,0.3,0.62c0.04,0.07,0.09,0.15,0.17,0.26c0.07,0.11,0.12,0.19,0.15,0.22c0.03,0.04,0.06,0.1,0.11,0.19
					c0.05,0.09,0.08,0.14,0.1,0.17c0.02,0.03,0.05,0.07,0.08,0.14c0.03,0.07,0.05,0.11,0.05,0.14c0,0.03,0.01,0.07,0.03,0.13
					c0.02,0.06,0.03,0.11,0.03,0.15c0,0.04,0,0.09,0.01,0.15C163.36,72.76,163.36,72.83,163.36,72.89z"/>
			</g>
			<g>
				<path class="st2" d="M209.4,70.03v1.94c0,0.56,0.12,0.96,0.36,1.2c0.24,0.24,0.6,0.39,1.07,0.44c0.81,0.13,2.86,0.19,6.15,0.19
					c0.72,0,1.43-0.02,2.13-0.07c0.7-0.04,1.33-0.11,1.89-0.2c0.56-0.09,1.08-0.18,1.58-0.27s0.94-0.19,1.34-0.3
					c0.4-0.11,0.72-0.2,0.99-0.28c0.26-0.08,0.49-0.16,0.7-0.23c0.21-0.07,0.32-0.11,0.34-0.11c1.03-0.43,1.75-0.65,2.19-0.65
					c0.52,0,0.97,0.17,1.34,0.5c0.37,0.33,0.55,0.75,0.55,1.26c0,0.5-0.18,1.21-0.54,2.1c-0.34,0.86-0.72,2.21-1.12,4.05
					c-0.4,1.84-0.66,3.17-0.77,4.02c-0.05,0.56-0.2,1.03-0.43,1.43c-0.41,0.7-1.13,1.05-2.16,1.05c-0.5,0-1.54-0.03-3.1-0.09
					c-1.57-0.06-4.06-0.13-7.49-0.19c-3.43-0.06-7.65-0.09-12.67-0.09c-1.76,0-3.54,0.06-5.32,0.19c-1.78,0.13-2.7,0.19-2.75,0.19
					c-0.59,0-1.08-0.16-1.44-0.47c-0.37-0.32-0.6-0.63-0.69-0.93c-0.09-0.31-0.13-0.61-0.13-0.92c0-0.38,0.05-0.68,0.16-0.92
					c0.11-0.23,0.38-0.7,0.81-1.4c0.31-0.5,0.5-1.04,0.59-1.61c0.09-0.57,0.14-1.69,0.14-3.36V51.92c0-1.85-0.04-3-0.11-3.45
					c-0.07-0.45-0.28-0.94-0.62-1.48c-0.43-0.7-0.7-1.17-0.81-1.42c-0.11-0.24-0.16-0.56-0.16-0.96c0-0.61,0.18-1.15,0.53-1.62
					c0.35-0.47,0.99-0.7,1.9-0.7c0.23,0,0.8,0.04,1.7,0.11c0.9,0.07,2.27,0.14,4.1,0.2c1.84,0.06,4,0.1,6.5,0.1
					c4.28,0,7.8-0.03,10.57-0.1c2.76-0.06,4.68-0.13,5.75-0.2c1.07-0.07,1.7-0.11,1.88-0.11c1.01,0,1.66,0.25,1.97,0.76
					c0.31,0.5,0.63,1.66,0.97,3.45c0.27,1.44,0.56,2.69,0.86,3.75c0.52,1.71,0.78,2.67,0.78,2.89c0,0.49-0.19,0.86-0.58,1.13
					c-0.39,0.27-0.84,0.41-1.36,0.41c-0.34,0-0.95-0.12-1.82-0.37c-0.87-0.24-2.17-0.49-3.9-0.74c-1.73-0.25-3.8-0.38-6.21-0.38
					h-4.37c-0.85,0.11-1.27,0.73-1.27,1.86v1.84c0,0.74,0.22,1.19,0.65,1.35c0.43,0.16,1.29,0.24,2.56,0.24h4.21
					c1.91,0,3.3-0.16,4.18-0.49c1.26-0.49,2.13-0.73,2.62-0.73c1.28,0,1.92,0.72,1.92,2.16c0,0.25-0.04,1.02-0.11,2.29
					c-0.07,1.28-0.11,2.02-0.11,2.24c0,0.16,0.04,0.71,0.11,1.63c0.07,0.93,0.11,1.47,0.11,1.63c0,0.47-0.16,0.93-0.48,1.38
					c-0.32,0.45-0.83,0.67-1.51,0.67c-0.07,0-0.14,0-0.2,0s-0.13,0-0.2-0.01c-0.07-0.01-0.13-0.02-0.18-0.03
					c-0.05-0.01-0.12-0.03-0.22-0.07s-0.18-0.06-0.24-0.08c-0.06-0.02-0.17-0.05-0.31-0.09c-0.14-0.04-0.26-0.09-0.35-0.12
					c-0.09-0.04-0.24-0.09-0.45-0.17c-0.21-0.08-0.39-0.15-0.55-0.2c-0.74-0.29-2.08-0.43-4.02-0.43h-4.7
					c-1.08,0-1.8,0.11-2.17,0.34C209.58,68.62,209.4,69.16,209.4,70.03z"/>
			</g>
			<g>
				<path class="st2" d="M246.18,68.29h-4.56c-1.4,0-2.16,0.4-2.29,1.19c-0.05,0.31-0.08,0.53-0.08,0.65c0,0.26,0.24,0.8,0.72,1.61
					c0.18,0.29,0.27,0.66,0.27,1.12s-0.13,0.85-0.4,1.18c-0.27,0.33-0.6,0.5-1.01,0.5c-0.16,0-0.72-0.05-1.7-0.14
					s-1.87-0.14-2.66-0.14c-1.16,0-2.35,0.05-3.55,0.14s-1.88,0.14-2.01,0.14c-0.37,0-0.67-0.07-0.92-0.21
					c-0.25-0.14-0.42-0.32-0.52-0.54c-0.1-0.22-0.16-0.4-0.2-0.54c-0.03-0.14-0.05-0.27-0.05-0.39c0-0.33,0.06-0.6,0.18-0.81
					c0.12-0.21,0.43-0.64,0.94-1.26c0.22-0.26,0.4-0.6,0.54-1.02c0.14-0.42,0.36-1.29,0.68-2.62c0.07-0.27,0.12-0.49,0.16-0.65
					c0.57-2.43,1.38-5.32,2.42-8.67c1.04-3.35,2.2-6.57,3.48-9.66s2.3-4.83,3.07-5.21c0.29-0.14,0.59-0.22,0.92-0.22
					c0.14,0,0.45,0.03,0.92,0.08c0.47,0.05,1.18,0.1,2.12,0.15c0.95,0.05,2.07,0.07,3.38,0.07c1.12,0,2.3-0.05,3.54-0.15
					c1.24-0.1,1.93-0.15,2.07-0.15c0.22,0,0.41,0.02,0.57,0.07c0.16,0.05,0.35,0.16,0.59,0.34c0.23,0.18,0.48,0.49,0.74,0.93
					c0.26,0.44,0.55,1.01,0.86,1.71c1.4,3.16,2.66,6.59,3.79,10.3c1.13,3.71,2.26,7.83,3.4,12.36c0.25,0.99,0.48,1.69,0.71,2.1
					c0.13,0.26,0.31,0.54,0.53,0.84c0.4,0.57,0.61,1.08,0.61,1.51c0,0.46-0.12,0.84-0.36,1.16c-0.24,0.32-0.64,0.48-1.2,0.48
					c-0.2,0-1.01-0.05-2.43-0.14c-1.42-0.09-2.85-0.14-4.27-0.14c-1.41,0-2.66,0.05-3.76,0.14c-1.1,0.09-1.69,0.14-1.78,0.14
					c-0.39,0-0.72-0.08-0.98-0.23c-0.26-0.16-0.44-0.36-0.54-0.61c-0.1-0.25-0.16-0.44-0.2-0.59c-0.03-0.14-0.05-0.27-0.05-0.37
					c0-0.37,0.15-0.76,0.45-1.19c0.17-0.25,0.28-0.42,0.34-0.51c0.06-0.09,0.12-0.22,0.18-0.4c0.06-0.18,0.09-0.37,0.09-0.58
					c0-0.34-0.06-0.63-0.19-0.86c-0.12-0.24-0.27-0.41-0.43-0.53c-0.16-0.12-0.39-0.2-0.68-0.26c-0.29-0.06-0.52-0.09-0.7-0.1
					C246.74,68.29,246.49,68.29,246.18,68.29z M243.18,60.1h2.12c1.07,0,1.61-0.38,1.61-1.15c0-1.1-0.52-3.06-1.57-5.89
					c-0.38-0.94-0.74-1.41-1.08-1.41c-0.13,0-0.25,0.04-0.36,0.12c-0.11,0.08-0.23,0.23-0.36,0.46c-0.13,0.23-0.23,0.41-0.29,0.55
					s-0.18,0.41-0.35,0.83c-0.42,1.02-0.78,2.06-1.1,3.12c-0.31,1.06-0.47,1.82-0.47,2.26c0,0.26,0.05,0.47,0.16,0.64
					c0.1,0.16,0.26,0.28,0.48,0.34c0.22,0.07,0.4,0.1,0.56,0.12C242.67,60.1,242.89,60.1,243.18,60.1z"/>
			</g>
			<g>
				<path class="st2" d="M262.88,53.15v-0.04c0-1.46,0.23-2.79,0.7-3.99c0.46-1.19,1.1-2.2,1.9-3.02c0.8-0.82,1.75-1.5,2.86-2.06
					s2.28-0.96,3.53-1.22c1.25-0.25,2.58-0.38,3.98-0.38c0.97,0,2.08,0.1,3.35,0.29c1.27,0.2,2.35,0.39,3.26,0.58
					c0.91,0.19,1.41,0.28,1.5,0.28c0.16,0,0.41-0.08,0.76-0.24c0.35-0.16,0.67-0.24,0.96-0.24c0.54,0,1.01,0.16,1.42,0.47
					c0.41,0.31,0.62,0.69,0.62,1.14c0,0.03-0.02,0.28-0.06,0.77c-0.04,0.49-0.06,0.89-0.06,1.2c0,0.85,0.18,1.99,0.54,3.44
					s0.54,2.18,0.54,2.2c0,0.25-0.1,0.53-0.29,0.83c-0.2,0.31-0.51,0.46-0.94,0.46c-0.29,0-0.86-0.16-1.73-0.49
					c-0.87-0.33-1.87-0.65-3-0.98c-1.13-0.33-2.14-0.49-3.05-0.49c-0.64,0-1.15,0.15-1.55,0.44c-0.39,0.29-0.59,0.75-0.59,1.36
					c0,0.57,0.21,1.05,0.64,1.44c0.42,0.38,1.24,0.72,2.46,1.01c1.07,0.25,1.91,0.46,2.51,0.64c0.6,0.18,1.38,0.49,2.35,0.95
					c0.97,0.46,1.71,0.96,2.23,1.52c0.52,0.55,0.99,1.32,1.4,2.31c0.41,0.99,0.62,2.12,0.62,3.4c0,1.45-0.25,2.77-0.74,3.98
					c-0.5,1.2-1.17,2.21-2.01,3.03c-0.84,0.82-1.84,1.51-2.99,2.07c-1.15,0.56-2.36,0.97-3.62,1.22c-1.27,0.25-2.59,0.38-3.96,0.38
					c-0.64,0-1.39-0.05-2.26-0.15c-0.87-0.1-1.7-0.22-2.49-0.35c-0.79-0.14-1.53-0.27-2.23-0.41c-0.7-0.14-1.27-0.25-1.7-0.35
					c-0.44-0.1-0.66-0.15-0.68-0.15c-0.2,0-0.51,0.12-0.94,0.36c-0.43,0.24-0.85,0.36-1.25,0.36c-0.38,0-0.69-0.05-0.95-0.16
					c-0.25-0.1-0.45-0.23-0.58-0.39c-0.13-0.16-0.23-0.38-0.3-0.69c-0.07-0.3-0.11-0.57-0.13-0.81c-0.01-0.24-0.02-0.58-0.02-1.03
					c0-1.77-0.29-3.61-0.88-5.5c-0.16-0.7-0.23-1.15-0.23-1.33c0-0.38,0.14-0.71,0.41-1c0.27-0.29,0.59-0.43,0.96-0.43
					c0.33,0,0.59,0.05,0.8,0.16c0.25,0.12,0.66,0.32,1.23,0.62c0.57,0.29,0.96,0.49,1.15,0.58c0.19,0.09,0.51,0.24,0.95,0.45
					c0.44,0.21,0.75,0.35,0.92,0.41c0.17,0.07,0.42,0.17,0.76,0.31c0.34,0.14,0.6,0.23,0.79,0.27c0.19,0.04,0.42,0.09,0.69,0.16
					c0.27,0.07,0.53,0.11,0.76,0.13c0.23,0.02,0.48,0.03,0.74,0.03c0.63,0,1.13-0.16,1.52-0.47c0.38-0.31,0.58-0.77,0.58-1.37
					c0-0.64-0.26-1.15-0.78-1.53s-1.4-0.74-2.62-1.08c-1.15-0.31-2.16-0.69-3.04-1.13c-0.87-0.44-1.68-1-2.43-1.68
					c-0.74-0.69-1.31-1.54-1.7-2.56C263.07,55.66,262.88,54.48,262.88,53.15z"/>
			</g>
			<g>
				<path class="st2" d="M311.07,72.89v0.04c0,0.2-0.03,0.4-0.09,0.61c-0.06,0.21-0.22,0.43-0.49,0.66
					c-0.27,0.23-0.62,0.34-1.07,0.34c-0.05,0-0.71-0.05-1.97-0.14c-1.26-0.09-2.48-0.14-3.65-0.14c-1.34,0-2.62,0.05-3.84,0.14
					c-1.21,0.09-1.91,0.14-2.1,0.14c-0.6,0-1.02-0.17-1.27-0.52c-0.25-0.35-0.37-0.72-0.37-1.13c0-0.31,0.04-0.56,0.11-0.74
					c0.07-0.18,0.26-0.51,0.58-0.98c0.21-0.35,0.35-0.72,0.41-1.1c0.07-0.38,0.1-1.22,0.1-2.51v-1.61c0-0.52-0.06-0.93-0.17-1.22
					c-0.11-0.29-0.34-0.64-0.68-1.04c-0.34-0.4-1.02-1.13-2.04-2.18c-1.29-1.33-2.46-3.22-3.49-5.68c-1.04-2.45-1.85-5.2-2.44-8.24
					c-0.09-0.54-0.21-0.93-0.37-1.19c-0.38-0.57-0.61-0.97-0.71-1.18c-0.09-0.21-0.14-0.48-0.14-0.79c0-0.47,0.15-0.87,0.45-1.19
					c0.3-0.33,0.72-0.49,1.27-0.49c0.18,0,0.94,0.05,2.26,0.15c1.32,0.1,2.78,0.15,4.36,0.15c1.37,0,2.65-0.05,3.83-0.15
					c1.18-0.1,1.91-0.15,2.18-0.15c0.5,0,0.91,0.14,1.23,0.42c0.33,0.28,0.49,0.69,0.49,1.22c0,0.3-0.03,0.54-0.1,0.73
					c-0.07,0.18-0.2,0.46-0.41,0.84c-0.33,0.64-0.49,1.22-0.49,1.72c0,0.77,0.14,1.74,0.41,2.9c0.27,1.16,0.63,2.2,1.06,3.11
					c0.43,0.91,0.84,1.37,1.21,1.37c0.56,0,1.17-0.92,1.81-2.77c0.65-1.85,0.97-3.41,0.97-4.69c0-0.27-0.03-0.53-0.08-0.77
					c-0.05-0.24-0.11-0.42-0.17-0.55c-0.06-0.12-0.14-0.28-0.25-0.48c-0.11-0.2-0.19-0.33-0.23-0.41c-0.1-0.21-0.16-0.48-0.16-0.8
					c0-0.55,0.17-0.99,0.51-1.33c0.34-0.34,0.72-0.51,1.14-0.51c0.09,0,0.77,0.05,2.04,0.15c1.27,0.1,2.71,0.15,4.33,0.15
					c0.82,0,1.68-0.05,2.57-0.15c0.89-0.1,1.37-0.15,1.44-0.15c0.33,0,0.63,0.12,0.91,0.37c0.28,0.25,0.42,0.65,0.42,1.19
					c0,0.31-0.05,0.57-0.14,0.76c-0.09,0.2-0.27,0.49-0.55,0.88c-0.25,0.34-0.5,1.06-0.76,2.17c-0.12,0.51-0.32,1.22-0.61,2.13
					c-0.29,0.91-0.7,2.09-1.23,3.53c-0.54,1.44-1.22,2.9-2.05,4.36c-0.83,1.46-1.7,2.66-2.61,3.6c-0.57,0.59-1.31,1.38-2.19,2.37
					c-0.18,0.23-0.3,0.45-0.36,0.65c-0.06,0.2-0.09,0.48-0.09,0.84v1.96c0.04,1.41,0.08,2.27,0.13,2.59
					c0.05,0.32,0.18,0.66,0.4,1.01c0.33,0.48,0.53,0.82,0.61,1C311.03,72.35,311.07,72.59,311.07,72.89z"/>
			</g>
		</g>
		<g>
			<path class="st2" d="M280.33,87.7c-3.18,0-6.53-0.66-10.05-2c-1.36-0.52-2.05-2.04-1.53-3.41c0.52-1.37,2.05-2.05,3.41-1.53
				c10.11,3.84,17.67,1.21,23.78-8.26c0.79-1.23,2.43-1.58,3.65-0.79c1.23,0.79,1.58,2.43,0.79,3.65
				C295.1,83.54,288.28,87.7,280.33,87.7z"/>
		</g>
	</g>
	<g>
		<path class="st2" d="M137.85,94.27c-13.4,0-26.8-2.95-40.11-8.87c-1.33-0.59-1.93-2.15-1.34-3.49c0.59-1.33,2.15-1.93,3.49-1.34
			c25.2,11.19,50.75,11.19,75.96-0.02c1.33-0.59,2.89,0.01,3.49,1.34c0.59,1.33-0.01,2.89-1.34,3.49
			C164.67,91.31,151.26,94.27,137.85,94.27z"/>
	</g>
	<g>
		<path class="st7" d="M136.5,92.6c-13.4,0-26.8-2.96-40.11-8.87c-1.33-0.59-1.93-2.15-1.34-3.49c0.59-1.33,2.15-1.94,3.49-1.34
			c25.2,11.19,50.75,11.19,75.96-0.02c1.33-0.59,2.89,0.01,3.49,1.34c0.59,1.33-0.01,2.89-1.34,3.49
			C163.32,89.64,149.91,92.6,136.5,92.6z"/>
	</g>
	<g>
		<defs>
			<rect id="SVGID_00000079469421222301097880000014771798918324888729_" x="287.15" y="29.77" width="8.99" height="9.41"/>
		</defs>
		<clipPath id="SVGID_00000016766466098278363750000016260954202156760461_">
			<use xlink:href="#SVGID_00000079469421222301097880000014771798918324888729_"  style="overflow:visible;"/>
		</clipPath>
		<g style="clip-path:url(#SVGID_00000016766466098278363750000016260954202156760461_);">
			<defs>
				<ellipse id="SVGID_00000049903801762826490140000001347277844913527732_" cx="291.64" cy="34.47" rx="4.5" ry="4.7"/>
			</defs>
			<clipPath id="SVGID_00000025432693747299295390000008424979785760711083_">
				<use xlink:href="#SVGID_00000049903801762826490140000001347277844913527732_"  style="overflow:visible;"/>
			</clipPath>
			<g style="clip-path:url(#SVGID_00000025432693747299295390000008424979785760711083_);">
				<rect x="287.15" y="29.77" class="st7" width="8.99" height="9.41"/>
			</g>
		</g>
	</g>
	<g>
		<defs>
			<rect id="SVGID_00000098923035031978919360000016472715888056930723_" x="240.45" y="30.1" width="8.99" height="9.41"/>
		</defs>
		<clipPath id="SVGID_00000102502729644072745310000011152966751609734019_">
			<use xlink:href="#SVGID_00000098923035031978919360000016472715888056930723_"  style="overflow:visible;"/>
		</clipPath>
		<g style="clip-path:url(#SVGID_00000102502729644072745310000011152966751609734019_);">
			<defs>
				<ellipse id="SVGID_00000121994492350714977450000002259250156197240193_" cx="244.94" cy="34.8" rx="4.5" ry="4.7"/>
			</defs>
			<clipPath id="SVGID_00000052073272609413867700000008432563141043915405_">
				<use xlink:href="#SVGID_00000121994492350714977450000002259250156197240193_"  style="overflow:visible;"/>
			</clipPath>
			<g style="clip-path:url(#SVGID_00000052073272609413867700000008432563141043915405_);">
				<rect x="240.45" y="30.1" class="st7" width="8.99" height="9.41"/>
			</g>
		</g>
	</g>
	<g>
		<g>
			<g>
				<path class="st7" d="M48.1,81.95v0.05c0,0.23-0.03,0.46-0.09,0.69c-0.06,0.23-0.17,0.46-0.32,0.7
					c-0.15,0.24-0.41,0.44-0.76,0.59c-0.35,0.15-0.77,0.23-1.26,0.23c-0.61,0-1.53-0.06-2.74-0.19c-1.22-0.13-2.13-0.19-2.74-0.19
					c-1.28,0-2.59,0.06-3.94,0.19c-1.35,0.13-2.12,0.19-2.32,0.19c-0.65,0-1.17-0.22-1.58-0.66c-0.41-0.44-0.61-0.99-0.61-1.66
					c0-0.38,0.05-0.68,0.13-0.89c0.09-0.22,0.37-0.69,0.84-1.43c0.2-0.34,0.34-0.63,0.42-0.85c0.08-0.22,0.15-0.67,0.22-1.32
					c0.06-0.66,0.1-1.59,0.1-2.79V50.03c0-1.76-0.04-2.89-0.12-3.37c-0.08-0.49-0.28-1.01-0.61-1.57c-0.58-0.95-0.89-1.57-0.95-1.84
					c-0.02-0.13-0.03-0.31-0.03-0.54c0-0.34,0.05-0.67,0.15-0.97s0.35-0.61,0.76-0.9c0.41-0.3,0.95-0.45,1.63-0.45
					c1.01,0,2.49,0.07,4.45,0.2c1.96,0.14,3.44,0.2,4.43,0.2c0.83,0,1.97-0.07,3.43-0.2c1.46-0.13,2.29-0.2,2.51-0.2
					c0.65,0,1.24,0.22,1.78,0.66s1.09,1.27,1.65,2.5c2.09,4.43,3.62,7.73,4.59,9.91c0.31,0.61,0.58,1.04,0.82,1.28
					c0.24,0.24,0.5,0.36,0.77,0.36c0.13,0,0.23-0.02,0.32-0.05c0.09-0.04,0.23-0.18,0.43-0.45c0.2-0.26,0.4-0.64,0.62-1.15
					c2.43-5.38,4.01-8.92,4.75-10.63c0.76-1.62,1.75-2.43,3-2.43c0.52,0,1.58,0.07,3.17,0.2c1.59,0.14,2.77,0.2,3.52,0.2
					c0.83,0,2.08-0.07,3.75-0.2c1.67-0.13,2.92-0.2,3.75-0.2c0.74,0,1.3,0.23,1.69,0.7c0.39,0.47,0.58,0.99,0.58,1.57
					c0,0.41-0.06,0.74-0.16,0.99c-0.11,0.24-0.39,0.71-0.84,1.39c-0.31,0.47-0.49,0.96-0.55,1.48c-0.06,0.52-0.09,1.69-0.09,3.51
					v24.59c0,1.87,0.03,3.04,0.09,3.49c0.06,0.46,0.27,0.95,0.61,1.47c0.43,0.68,0.7,1.14,0.8,1.38c0.1,0.23,0.15,0.55,0.15,0.94
					c0,0.67-0.2,1.22-0.59,1.66c-0.4,0.44-0.95,0.66-1.67,0.66c-0.16,0-1.1-0.06-2.82-0.19c-1.72-0.13-3.43-0.19-5.14-0.19
					c-1.64,0-3.22,0.06-4.74,0.19c-1.52,0.13-2.3,0.19-2.33,0.19c-0.77,0-1.34-0.26-1.69-0.77c-0.35-0.51-0.53-1.08-0.53-1.71
					c0-0.4,0.05-0.7,0.13-0.9c0.09-0.21,0.36-0.68,0.81-1.42c0.2-0.34,0.34-0.63,0.42-0.85c0.08-0.22,0.15-0.67,0.22-1.32
					c0.06-0.66,0.09-1.59,0.09-2.79v-5.96c0-0.94,0.02-1.78,0.05-2.55s0.05-1.17,0.05-1.23c0-0.4-0.19-0.59-0.57-0.59
					c-0.23,0-0.45,0.11-0.66,0.34c-0.21,0.23-0.36,0.44-0.47,0.64c-0.11,0.2-0.26,0.52-0.46,0.97L59.38,77.1
					c-0.76,1.69-1.77,2.54-3.05,2.54c-0.67,0-1.22-0.2-1.66-0.61c-0.44-0.4-0.87-1.05-1.28-1.93l-5.13-11.66
					c-0.32-0.74-0.73-1.11-1.21-1.11c-0.23,0-0.43,0.06-0.59,0.19c-0.16,0.13-0.24,0.31-0.24,0.54c0,0.05,0.01,0.19,0.04,0.42
					c0.03,0.23,0.05,0.6,0.08,1.13c0.03,0.53,0.04,1.17,0.04,1.93v6.07c0,1.22,0.03,2.16,0.09,2.82c0.06,0.66,0.14,1.09,0.22,1.3
					c0.08,0.21,0.22,0.49,0.42,0.85c0.06,0.09,0.13,0.21,0.23,0.36c0.1,0.15,0.17,0.26,0.2,0.31c0.04,0.06,0.09,0.14,0.15,0.26
					c0.06,0.12,0.11,0.19,0.13,0.23c0.03,0.04,0.06,0.1,0.11,0.19s0.07,0.15,0.07,0.19c0,0.04,0.01,0.1,0.04,0.18
					c0.03,0.08,0.04,0.15,0.04,0.2c0,0.05,0.01,0.12,0.01,0.2C48.09,81.78,48.1,81.86,48.1,81.95z"/>
			</g>
			<g>
				<path class="st7" d="M101.17,67.12h-4.56c-1.4,0-2.16,0.4-2.29,1.19c-0.05,0.31-0.08,0.53-0.08,0.65c0,0.26,0.24,0.8,0.72,1.61
					c0.18,0.29,0.27,0.66,0.27,1.12c0,0.46-0.13,0.85-0.4,1.18c-0.27,0.33-0.6,0.5-1.01,0.5c-0.16,0-0.72-0.05-1.7-0.14
					c-0.98-0.09-1.87-0.14-2.66-0.14c-1.16,0-2.35,0.05-3.55,0.14c-1.21,0.09-1.88,0.14-2.01,0.14c-0.37,0-0.67-0.07-0.92-0.21
					c-0.25-0.14-0.42-0.32-0.52-0.54c-0.1-0.22-0.16-0.4-0.2-0.54c-0.03-0.14-0.05-0.27-0.05-0.39c0-0.33,0.06-0.6,0.18-0.81
					c0.12-0.21,0.43-0.64,0.94-1.26c0.22-0.26,0.4-0.6,0.54-1.02c0.14-0.42,0.36-1.29,0.68-2.62c0.07-0.27,0.12-0.49,0.16-0.65
					c0.57-2.43,1.38-5.32,2.42-8.66c1.04-3.35,2.2-6.57,3.48-9.66c1.28-3.09,2.3-4.83,3.07-5.21c0.29-0.14,0.59-0.22,0.92-0.22
					c0.14,0,0.45,0.03,0.92,0.08c0.47,0.05,1.18,0.1,2.12,0.15c0.95,0.05,2.07,0.07,3.38,0.07c1.12,0,2.3-0.05,3.54-0.15
					c1.24-0.1,1.93-0.15,2.07-0.15c0.22,0,0.41,0.02,0.57,0.07c0.16,0.05,0.35,0.16,0.59,0.34c0.23,0.18,0.48,0.49,0.74,0.93
					c0.26,0.44,0.55,1.01,0.86,1.71c1.4,3.16,2.66,6.59,3.79,10.3c1.13,3.71,2.26,7.83,3.4,12.36c0.25,0.99,0.48,1.69,0.71,2.1
					c0.13,0.26,0.31,0.54,0.53,0.84c0.4,0.57,0.61,1.08,0.61,1.51c0,0.46-0.12,0.84-0.36,1.16c-0.24,0.32-0.64,0.48-1.2,0.48
					c-0.2,0-1.01-0.05-2.43-0.14c-1.42-0.09-2.85-0.14-4.27-0.14c-1.41,0-2.66,0.05-3.76,0.14c-1.1,0.09-1.69,0.14-1.78,0.14
					c-0.39,0-0.72-0.08-0.98-0.23c-0.26-0.16-0.44-0.36-0.54-0.61c-0.1-0.25-0.16-0.44-0.2-0.59c-0.03-0.14-0.05-0.27-0.05-0.37
					c0-0.37,0.15-0.76,0.45-1.19c0.17-0.25,0.28-0.42,0.34-0.51c0.06-0.09,0.12-0.22,0.18-0.4c0.06-0.18,0.09-0.37,0.09-0.58
					c0-0.34-0.06-0.63-0.19-0.86c-0.12-0.24-0.27-0.41-0.43-0.53c-0.16-0.12-0.39-0.2-0.68-0.26c-0.29-0.06-0.52-0.09-0.7-0.1
					C101.73,67.12,101.49,67.12,101.17,67.12z M98.18,58.93h2.12c1.07,0,1.61-0.38,1.61-1.15c0-1.1-0.52-3.06-1.57-5.89
					c-0.38-0.94-0.74-1.41-1.08-1.41c-0.13,0-0.25,0.04-0.36,0.12c-0.11,0.08-0.23,0.23-0.36,0.46c-0.13,0.23-0.23,0.41-0.29,0.55
					c-0.07,0.14-0.18,0.41-0.35,0.83c-0.42,1.02-0.78,2.06-1.1,3.12c-0.31,1.06-0.47,1.82-0.47,2.26c0,0.26,0.05,0.47,0.16,0.64
					c0.1,0.16,0.26,0.28,0.48,0.34c0.22,0.07,0.4,0.1,0.56,0.12C97.67,58.93,97.89,58.93,98.18,58.93z"/>
			</g>
			<g>
				<path class="st7" d="M131.29,64.18v3.02c0.04,0.97,0.08,1.59,0.13,1.86c0.05,0.27,0.18,0.59,0.4,0.94
					c0.31,0.5,0.51,0.83,0.58,1.01c0.07,0.18,0.11,0.41,0.11,0.71c0,0.39-0.12,0.76-0.35,1.12c-0.23,0.35-0.65,0.53-1.25,0.53
					c-0.04,0-0.72-0.05-2.04-0.14c-1.32-0.09-2.51-0.14-3.58-0.14c-0.7,0-1.66,0.05-2.88,0.14c-1.21,0.09-2.08,0.14-2.6,0.14
					c-0.35,0-0.65-0.07-0.89-0.2c-0.24-0.13-0.41-0.29-0.52-0.49c-0.1-0.2-0.18-0.37-0.22-0.54c-0.04-0.16-0.06-0.32-0.06-0.46
					c0-0.27,0.04-0.5,0.12-0.67c0.08-0.17,0.27-0.51,0.59-1.02c0.22-0.37,0.37-0.75,0.43-1.16c0.07-0.41,0.1-1.22,0.1-2.44V48.55
					c0-1.29-0.03-2.12-0.09-2.48c-0.06-0.36-0.21-0.73-0.44-1.11c-0.31-0.51-0.51-0.85-0.59-1.03c-0.08-0.18-0.12-0.41-0.12-0.69
					c0-1.12,0.6-1.68,1.8-1.68c0.3,0,1.05,0.05,2.25,0.15c1.2,0.1,2.25,0.15,3.15,0.15c0.81,0,2.03-0.05,3.66-0.15
					c1.63-0.1,2.86-0.15,3.68-0.15c4.01,0,7.07,0.35,9.18,1.06c2.12,0.71,3.82,1.94,5.11,3.71c1.29,1.77,1.94,3.85,1.94,6.26
					c0,3.08-1.06,5.5-3.19,7.26c-0.68,0.56-1.02,0.89-1.02,1c0,0.09,0.05,0.2,0.14,0.32c0.09,0.12,0.35,0.42,0.78,0.89
					c1.29,1.4,2.45,3.44,3.47,6.13c0.31,0.8,0.7,1.53,1.16,2.21c0.18,0.27,0.3,0.49,0.36,0.66c0.06,0.16,0.09,0.38,0.09,0.66
					c0,0.63-0.2,1.06-0.61,1.29c-0.41,0.23-0.97,0.35-1.68,0.35c-0.22,0-1.06-0.05-2.52-0.14c-1.46-0.09-2.54-0.14-3.26-0.14
					c-1.16,0-2.21,0.05-3.14,0.14c-0.93,0.09-1.43,0.14-1.48,0.14c-0.37,0-0.7-0.12-1.01-0.35c-0.31-0.24-0.46-0.64-0.46-1.22
					c0-0.12,0.03-0.41,0.08-0.88c0.05-0.47,0.08-0.76,0.08-0.88c0-0.56-0.34-1.46-1.01-2.69c-0.67-1.23-1.38-2.25-2.13-3.04
					c-0.63-0.67-1.13-1-1.53-1C131.53,63.3,131.29,63.59,131.29,64.18z M131.29,51.71v3.5c0,0.29,0.04,0.53,0.11,0.73
					c0.07,0.2,0.15,0.35,0.24,0.45c0.09,0.1,0.23,0.17,0.41,0.22c0.18,0.05,0.33,0.08,0.43,0.09c0.1,0.01,0.27,0.01,0.49,0.01
					c0.77,0,1.45-0.09,2.03-0.26c0.58-0.18,1.07-0.51,1.47-1c0.4-0.49,0.6-1.12,0.6-1.89c0-0.61-0.11-1.14-0.34-1.59
					c-0.23-0.44-0.48-0.77-0.76-0.97c-0.28-0.2-0.63-0.36-1.05-0.48c-0.42-0.12-0.73-0.18-0.93-0.2c-0.2-0.01-0.43-0.02-0.68-0.02
					c-0.81,0-1.35,0.09-1.62,0.25C131.43,50.74,131.29,51.12,131.29,51.71z"/>
			</g>
			<g>
				<path class="st7" d="M162.35,71.72v0.04c0,0.17-0.02,0.34-0.07,0.5c-0.05,0.16-0.12,0.33-0.24,0.51
					c-0.11,0.18-0.29,0.32-0.55,0.43c-0.25,0.11-0.56,0.17-0.91,0.17c-0.44,0-1.11-0.05-1.99-0.14c-0.88-0.09-1.54-0.14-1.99-0.14
					c-0.93,0-1.88,0.05-2.86,0.14c-0.98,0.09-1.54,0.14-1.68,0.14c-0.47,0-0.85-0.16-1.14-0.48c-0.29-0.32-0.44-0.72-0.44-1.2
					c0-0.27,0.03-0.49,0.1-0.65c0.07-0.16,0.27-0.5,0.61-1.04c0.14-0.25,0.24-0.45,0.3-0.62c0.06-0.16,0.11-0.48,0.16-0.96
					c0.05-0.48,0.07-1.15,0.07-2.03V48.55c0-1.28-0.03-2.1-0.09-2.45c-0.06-0.35-0.21-0.73-0.44-1.14
					c-0.42-0.69-0.65-1.13-0.69-1.33c-0.01-0.09-0.02-0.22-0.02-0.39c0-0.25,0.04-0.48,0.11-0.71s0.25-0.44,0.55-0.66
					c0.29-0.21,0.69-0.32,1.18-0.32c0.73,0,1.81,0.05,3.23,0.15c1.42,0.1,2.49,0.15,3.21,0.15c0.6,0,1.43-0.05,2.49-0.15
					c1.06-0.1,1.66-0.15,1.82-0.15c0.47,0,0.9,0.16,1.29,0.48c0.39,0.32,0.79,0.92,1.2,1.81c1.51,3.21,2.62,5.61,3.33,7.19
					c0.22,0.44,0.42,0.75,0.6,0.93c0.18,0.18,0.36,0.26,0.56,0.26c0.09,0,0.17-0.01,0.23-0.04c0.07-0.03,0.17-0.13,0.31-0.32
					c0.14-0.19,0.29-0.47,0.45-0.83c1.76-3.9,2.91-6.47,3.45-7.71c0.55-1.17,1.27-1.76,2.17-1.76c0.38,0,1.14,0.05,2.3,0.15
					c1.15,0.1,2.01,0.15,2.56,0.15c0.6,0,1.51-0.05,2.72-0.15c1.21-0.1,2.12-0.15,2.72-0.15c0.54,0,0.94,0.17,1.22,0.51
					c0.28,0.34,0.42,0.72,0.42,1.13c0,0.3-0.04,0.54-0.12,0.72c-0.08,0.18-0.28,0.51-0.61,1.01c-0.22,0.34-0.36,0.7-0.4,1.08
					c-0.05,0.38-0.07,1.23-0.07,2.55v17.84c0,1.36,0.02,2.2,0.07,2.54c0.05,0.33,0.19,0.69,0.44,1.07c0.31,0.5,0.51,0.83,0.58,1
					c0.07,0.17,0.11,0.4,0.11,0.69c0,0.48-0.14,0.88-0.43,1.2c-0.29,0.32-0.69,0.48-1.22,0.48c-0.12,0-0.8-0.05-2.05-0.14
					c-1.25-0.09-2.49-0.14-3.73-0.14c-1.19,0-2.33,0.05-3.44,0.14c-1.1,0.09-1.67,0.14-1.69,0.14c-0.56,0-0.97-0.19-1.22-0.56
					c-0.25-0.37-0.38-0.79-0.38-1.24c0-0.29,0.03-0.51,0.1-0.66c0.07-0.15,0.26-0.49,0.59-1.03c0.14-0.25,0.24-0.45,0.3-0.62
					c0.06-0.16,0.11-0.48,0.16-0.96c0.05-0.48,0.07-1.15,0.07-2.03v-4.33c0-0.68,0.01-1.3,0.04-1.85c0.03-0.55,0.04-0.85,0.04-0.89
					c0-0.29-0.14-0.43-0.41-0.43c-0.17,0-0.33,0.08-0.48,0.24c-0.15,0.16-0.26,0.32-0.34,0.46c-0.08,0.14-0.19,0.38-0.33,0.71
					l-3.64,8.01c-0.55,1.23-1.29,1.84-2.21,1.84c-0.48,0-0.88-0.15-1.2-0.44c-0.32-0.29-0.63-0.76-0.93-1.4l-3.72-8.46
					c-0.23-0.54-0.53-0.8-0.88-0.8c-0.17,0-0.31,0.05-0.43,0.14c-0.12,0.09-0.18,0.22-0.18,0.39c0,0.04,0.01,0.14,0.03,0.3
					c0.02,0.16,0.04,0.44,0.06,0.82c0.02,0.39,0.03,0.85,0.03,1.4v4.41c0,0.89,0.02,1.57,0.07,2.05c0.05,0.48,0.1,0.79,0.16,0.94
					c0.06,0.15,0.16,0.36,0.3,0.62c0.04,0.07,0.09,0.15,0.17,0.26c0.07,0.11,0.12,0.19,0.15,0.22c0.03,0.04,0.06,0.1,0.11,0.19
					c0.05,0.09,0.08,0.14,0.1,0.17c0.02,0.03,0.05,0.07,0.08,0.14c0.03,0.07,0.05,0.11,0.05,0.14c0,0.03,0.01,0.07,0.03,0.13
					c0.02,0.06,0.03,0.11,0.03,0.15c0,0.04,0,0.09,0.01,0.15C162.35,71.59,162.35,71.65,162.35,71.72z"/>
			</g>
			<g>
				<path class="st7" d="M208.39,68.86v1.94c0,0.56,0.12,0.96,0.36,1.2c0.24,0.24,0.6,0.39,1.07,0.44c0.81,0.13,2.86,0.19,6.15,0.19
					c0.72,0,1.43-0.02,2.13-0.07c0.7-0.04,1.33-0.11,1.89-0.2c0.56-0.09,1.08-0.18,1.58-0.27s0.94-0.19,1.34-0.3
					c0.4-0.11,0.72-0.2,0.99-0.28c0.26-0.08,0.49-0.16,0.7-0.23c0.21-0.07,0.32-0.11,0.34-0.11c1.03-0.43,1.75-0.65,2.19-0.65
					c0.52,0,0.97,0.17,1.34,0.5c0.37,0.33,0.55,0.75,0.55,1.26c0,0.5-0.18,1.21-0.54,2.1c-0.34,0.86-0.72,2.21-1.12,4.05
					c-0.4,1.84-0.66,3.17-0.77,4.02c-0.05,0.56-0.2,1.03-0.43,1.43c-0.41,0.7-1.13,1.05-2.16,1.05c-0.5,0-1.54-0.03-3.1-0.09
					c-1.57-0.06-4.06-0.13-7.49-0.19c-3.43-0.06-7.65-0.09-12.67-0.09c-1.76,0-3.54,0.06-5.32,0.19c-1.78,0.13-2.7,0.19-2.75,0.19
					c-0.59,0-1.08-0.16-1.44-0.47c-0.37-0.32-0.6-0.63-0.69-0.93c-0.09-0.31-0.13-0.61-0.13-0.92c0-0.38,0.05-0.68,0.16-0.92
					c0.11-0.23,0.38-0.7,0.81-1.4c0.31-0.5,0.5-1.04,0.59-1.61c0.09-0.57,0.14-1.69,0.14-3.36V50.75c0-1.85-0.04-3-0.11-3.45
					c-0.07-0.45-0.28-0.94-0.62-1.48c-0.43-0.7-0.7-1.17-0.81-1.42c-0.11-0.24-0.16-0.56-0.16-0.96c0-0.61,0.18-1.15,0.53-1.62
					c0.35-0.47,0.99-0.7,1.9-0.7c0.23,0,0.8,0.04,1.7,0.11c0.9,0.07,2.27,0.14,4.1,0.2c1.84,0.06,4,0.1,6.5,0.1
					c4.28,0,7.8-0.03,10.57-0.1c2.76-0.06,4.68-0.13,5.75-0.2c1.07-0.07,1.7-0.11,1.88-0.11c1.01,0,1.66,0.25,1.97,0.76
					c0.31,0.5,0.63,1.66,0.97,3.45c0.27,1.44,0.56,2.69,0.86,3.75c0.52,1.71,0.78,2.67,0.78,2.89c0,0.49-0.19,0.86-0.58,1.13
					c-0.39,0.27-0.84,0.41-1.36,0.41c-0.34,0-0.95-0.12-1.82-0.37c-0.87-0.24-2.17-0.49-3.9-0.74c-1.73-0.25-3.8-0.38-6.21-0.38
					h-4.37c-0.85,0.11-1.27,0.73-1.27,1.86v1.84c0,0.74,0.22,1.19,0.65,1.35c0.43,0.16,1.29,0.24,2.56,0.24h4.21
					c1.91,0,3.3-0.16,4.18-0.49c1.26-0.49,2.13-0.73,2.62-0.73c1.28,0,1.92,0.72,1.92,2.16c0,0.25-0.04,1.02-0.11,2.29
					c-0.07,1.28-0.11,2.02-0.11,2.24c0,0.16,0.04,0.71,0.11,1.63c0.07,0.93,0.11,1.47,0.11,1.63c0,0.47-0.16,0.93-0.48,1.38
					c-0.32,0.45-0.83,0.67-1.51,0.67c-0.07,0-0.14,0-0.2,0s-0.13,0-0.2-0.01c-0.07-0.01-0.13-0.02-0.18-0.03
					c-0.05-0.01-0.12-0.03-0.22-0.07s-0.18-0.06-0.24-0.08c-0.06-0.02-0.17-0.05-0.31-0.09c-0.14-0.04-0.26-0.09-0.35-0.12
					c-0.09-0.04-0.24-0.09-0.45-0.17c-0.21-0.08-0.39-0.15-0.55-0.2c-0.74-0.29-2.08-0.43-4.02-0.43h-4.7
					c-1.08,0-1.8,0.11-2.17,0.34C208.57,67.45,208.39,67.99,208.39,68.86z"/>
			</g>
			<g>
				<path class="st7" d="M245.17,67.12h-4.56c-1.4,0-2.16,0.4-2.29,1.19c-0.05,0.31-0.08,0.53-0.08,0.65c0,0.26,0.24,0.8,0.72,1.61
					c0.18,0.29,0.27,0.66,0.27,1.12c0,0.46-0.13,0.85-0.4,1.18c-0.27,0.33-0.6,0.5-1.01,0.5c-0.16,0-0.72-0.05-1.7-0.14
					c-0.98-0.09-1.87-0.14-2.66-0.14c-1.16,0-2.35,0.05-3.55,0.14c-1.21,0.09-1.88,0.14-2.01,0.14c-0.37,0-0.67-0.07-0.92-0.21
					c-0.25-0.14-0.42-0.32-0.52-0.54c-0.1-0.22-0.16-0.4-0.2-0.54c-0.03-0.14-0.05-0.27-0.05-0.39c0-0.33,0.06-0.6,0.18-0.81
					c0.12-0.21,0.43-0.64,0.94-1.26c0.22-0.26,0.4-0.6,0.54-1.02c0.14-0.42,0.36-1.29,0.68-2.62c0.07-0.27,0.12-0.49,0.16-0.65
					c0.57-2.43,1.38-5.32,2.42-8.66c1.04-3.35,2.2-6.57,3.48-9.66c1.28-3.09,2.3-4.83,3.07-5.21c0.29-0.14,0.59-0.22,0.92-0.22
					c0.14,0,0.45,0.03,0.92,0.08c0.47,0.05,1.18,0.1,2.12,0.15c0.95,0.05,2.07,0.07,3.38,0.07c1.12,0,2.3-0.05,3.54-0.15
					c1.24-0.1,1.93-0.15,2.07-0.15c0.22,0,0.41,0.02,0.57,0.07c0.16,0.05,0.35,0.16,0.59,0.34c0.23,0.18,0.48,0.49,0.74,0.93
					c0.26,0.44,0.55,1.01,0.86,1.71c1.4,3.16,2.66,6.59,3.79,10.3c1.13,3.71,2.26,7.83,3.4,12.36c0.25,0.99,0.48,1.69,0.71,2.1
					c0.13,0.26,0.31,0.54,0.53,0.84c0.4,0.57,0.61,1.08,0.61,1.51c0,0.46-0.12,0.84-0.36,1.16c-0.24,0.32-0.64,0.48-1.2,0.48
					c-0.2,0-1.01-0.05-2.43-0.14c-1.42-0.09-2.85-0.14-4.27-0.14c-1.41,0-2.66,0.05-3.76,0.14c-1.1,0.09-1.69,0.14-1.78,0.14
					c-0.39,0-0.72-0.08-0.98-0.23c-0.26-0.16-0.44-0.36-0.54-0.61c-0.1-0.25-0.16-0.44-0.2-0.59c-0.03-0.14-0.05-0.27-0.05-0.37
					c0-0.37,0.15-0.76,0.45-1.19c0.17-0.25,0.28-0.42,0.34-0.51c0.06-0.09,0.12-0.22,0.18-0.4c0.06-0.18,0.09-0.37,0.09-0.58
					c0-0.34-0.06-0.63-0.19-0.86c-0.12-0.24-0.27-0.41-0.43-0.53c-0.16-0.12-0.39-0.2-0.68-0.26c-0.29-0.06-0.52-0.09-0.7-0.1
					C245.73,67.12,245.48,67.12,245.17,67.12z M242.17,58.93h2.12c1.07,0,1.61-0.38,1.61-1.15c0-1.1-0.52-3.06-1.57-5.89
					c-0.38-0.94-0.74-1.41-1.08-1.41c-0.13,0-0.25,0.04-0.36,0.12c-0.11,0.08-0.23,0.23-0.36,0.46c-0.13,0.23-0.23,0.41-0.29,0.55
					s-0.18,0.41-0.35,0.83c-0.42,1.02-0.78,2.06-1.1,3.12c-0.31,1.06-0.47,1.82-0.47,2.26c0,0.26,0.05,0.47,0.16,0.64
					c0.1,0.16,0.26,0.28,0.48,0.34c0.22,0.07,0.4,0.1,0.56,0.12C241.66,58.93,241.88,58.93,242.17,58.93z"/>
			</g>
			<g>
				<path class="st7" d="M261.87,51.98v-0.04c0-1.46,0.23-2.79,0.7-3.99c0.46-1.19,1.1-2.2,1.9-3.02c0.8-0.82,1.75-1.5,2.86-2.06
					s2.28-0.96,3.53-1.22c1.25-0.25,2.58-0.38,3.98-0.38c0.97,0,2.08,0.1,3.35,0.29c1.27,0.2,2.35,0.39,3.26,0.58
					c0.91,0.19,1.41,0.28,1.5,0.28c0.16,0,0.41-0.08,0.76-0.24c0.35-0.16,0.67-0.24,0.96-0.24c0.54,0,1.01,0.16,1.42,0.47
					c0.41,0.31,0.62,0.69,0.62,1.14c0,0.03-0.02,0.28-0.06,0.77s-0.06,0.89-0.06,1.2c0,0.85,0.18,1.99,0.54,3.44s0.54,2.18,0.54,2.2
					c0,0.25-0.1,0.53-0.29,0.83c-0.2,0.31-0.51,0.46-0.94,0.46c-0.29,0-0.86-0.16-1.73-0.49c-0.87-0.33-1.87-0.65-3-0.98
					c-1.13-0.33-2.14-0.49-3.05-0.49c-0.64,0-1.15,0.15-1.55,0.44c-0.39,0.29-0.59,0.75-0.59,1.36c0,0.57,0.21,1.05,0.64,1.44
					c0.42,0.38,1.24,0.72,2.46,1.01c1.07,0.25,1.91,0.46,2.51,0.64c0.6,0.18,1.38,0.49,2.35,0.95c0.97,0.46,1.71,0.96,2.23,1.52
					c0.52,0.55,0.99,1.32,1.4,2.31c0.41,0.99,0.62,2.12,0.62,3.4c0,1.45-0.25,2.77-0.74,3.98c-0.5,1.2-1.17,2.21-2.01,3.03
					c-0.84,0.82-1.84,1.51-2.99,2.07c-1.15,0.56-2.36,0.97-3.62,1.22c-1.27,0.25-2.59,0.38-3.96,0.38c-0.64,0-1.39-0.05-2.26-0.15
					c-0.87-0.1-1.7-0.22-2.49-0.35c-0.79-0.14-1.53-0.27-2.23-0.41c-0.7-0.14-1.27-0.25-1.7-0.35c-0.44-0.1-0.66-0.15-0.68-0.15
					c-0.2,0-0.51,0.12-0.94,0.36c-0.43,0.24-0.85,0.36-1.25,0.36c-0.38,0-0.69-0.05-0.95-0.16c-0.25-0.1-0.45-0.23-0.58-0.39
					c-0.13-0.16-0.23-0.38-0.3-0.69c-0.07-0.3-0.11-0.57-0.13-0.81c-0.01-0.24-0.02-0.58-0.02-1.03c0-1.77-0.29-3.61-0.88-5.5
					c-0.16-0.7-0.23-1.15-0.23-1.33c0-0.38,0.14-0.71,0.41-1c0.27-0.29,0.59-0.43,0.96-0.43c0.33,0,0.59,0.05,0.8,0.16
					c0.25,0.12,0.66,0.32,1.23,0.62c0.57,0.29,0.96,0.49,1.15,0.58c0.19,0.09,0.51,0.24,0.95,0.45c0.44,0.21,0.75,0.35,0.92,0.41
					c0.17,0.07,0.42,0.17,0.76,0.31c0.34,0.14,0.6,0.23,0.79,0.27c0.19,0.04,0.42,0.09,0.69,0.16c0.27,0.07,0.53,0.11,0.76,0.13
					c0.23,0.02,0.48,0.03,0.74,0.03c0.63,0,1.13-0.16,1.52-0.47c0.38-0.31,0.58-0.77,0.58-1.37c0-0.64-0.26-1.15-0.78-1.53
					c-0.52-0.38-1.4-0.74-2.62-1.08c-1.15-0.31-2.16-0.69-3.04-1.13c-0.87-0.44-1.68-1-2.43-1.68c-0.74-0.69-1.31-1.54-1.7-2.56
					C262.07,54.49,261.87,53.31,261.87,51.98z"/>
			</g>
			<g>
				<path class="st7" d="M310.06,71.72v0.04c0,0.2-0.03,0.4-0.09,0.61c-0.06,0.21-0.22,0.43-0.49,0.66
					c-0.27,0.23-0.62,0.34-1.07,0.34c-0.05,0-0.71-0.05-1.97-0.14c-1.26-0.09-2.48-0.14-3.65-0.14c-1.34,0-2.62,0.05-3.84,0.14
					c-1.21,0.09-1.91,0.14-2.1,0.14c-0.6,0-1.02-0.17-1.27-0.52c-0.25-0.35-0.37-0.72-0.37-1.13c0-0.31,0.04-0.56,0.11-0.74
					c0.07-0.18,0.26-0.51,0.58-0.98c0.21-0.35,0.35-0.72,0.41-1.1c0.07-0.38,0.1-1.22,0.1-2.51v-1.61c0-0.52-0.06-0.93-0.17-1.22
					c-0.11-0.29-0.34-0.64-0.68-1.04c-0.34-0.4-1.02-1.13-2.04-2.18c-1.29-1.33-2.46-3.22-3.49-5.68c-1.04-2.45-1.85-5.2-2.44-8.24
					c-0.09-0.54-0.21-0.93-0.37-1.19c-0.38-0.57-0.61-0.97-0.71-1.18c-0.09-0.21-0.14-0.48-0.14-0.79c0-0.47,0.15-0.87,0.45-1.19
					c0.3-0.33,0.72-0.49,1.27-0.49c0.18,0,0.94,0.05,2.26,0.15c1.32,0.1,2.78,0.15,4.36,0.15c1.37,0,2.65-0.05,3.83-0.15
					c1.18-0.1,1.91-0.15,2.18-0.15c0.5,0,0.91,0.14,1.23,0.42c0.33,0.28,0.49,0.69,0.49,1.22c0,0.3-0.03,0.54-0.1,0.73
					c-0.07,0.18-0.2,0.46-0.41,0.84c-0.33,0.64-0.49,1.22-0.49,1.72c0,0.77,0.14,1.74,0.41,2.9c0.27,1.16,0.63,2.2,1.06,3.11
					c0.43,0.91,0.84,1.37,1.21,1.37c0.56,0,1.17-0.92,1.81-2.77c0.65-1.85,0.97-3.41,0.97-4.69c0-0.27-0.03-0.53-0.08-0.77
					c-0.05-0.24-0.11-0.42-0.17-0.55c-0.06-0.12-0.14-0.28-0.25-0.48c-0.11-0.2-0.19-0.33-0.23-0.41c-0.1-0.21-0.16-0.48-0.16-0.8
					c0-0.55,0.17-0.99,0.51-1.33c0.34-0.34,0.72-0.51,1.14-0.51c0.09,0,0.77,0.05,2.04,0.15c1.27,0.1,2.71,0.15,4.33,0.15
					c0.82,0,1.68-0.05,2.57-0.15c0.89-0.1,1.37-0.15,1.44-0.15c0.33,0,0.63,0.12,0.91,0.37c0.28,0.25,0.42,0.65,0.42,1.19
					c0,0.31-0.05,0.57-0.14,0.76c-0.09,0.2-0.27,0.49-0.55,0.88c-0.25,0.34-0.5,1.06-0.76,2.17c-0.12,0.51-0.32,1.22-0.61,2.13
					c-0.29,0.91-0.7,2.09-1.23,3.53c-0.54,1.44-1.22,2.9-2.05,4.36c-0.83,1.46-1.7,2.66-2.61,3.6c-0.57,0.59-1.31,1.38-2.19,2.37
					c-0.18,0.23-0.3,0.45-0.36,0.65c-0.06,0.2-0.09,0.48-0.09,0.84v1.96c0.04,1.41,0.08,2.27,0.13,2.59
					c0.05,0.32,0.18,0.66,0.4,1.01c0.33,0.48,0.53,0.82,0.61,1C310.02,71.18,310.06,71.42,310.06,71.72z"/>
			</g>
		</g>
		<g>
			<path class="st7" d="M279.96,85.56c-3.18,0-6.53-0.66-10.05-2c-1.36-0.52-2.05-2.04-1.53-3.41c0.52-1.37,2.04-2.05,3.41-1.53
				c10.11,3.84,17.67,1.22,23.78-8.26c0.79-1.23,2.43-1.58,3.65-0.79c1.23,0.79,1.58,2.43,0.79,3.65
				C294.74,81.4,287.92,85.56,279.96,85.56z"/>
		</g>
	</g>
	<g>
		<defs>
			<path id="SVGID_00000053513856338740961510000002697496592259473060_" d="M267.37,76.94c-2.46-0.34-4.74,1.47-5.1,4.04
				c-0.36,2.57,1.35,4.94,3.81,5.28c2.46,0.34,4.74-1.47,5.1-4.04C271.53,79.65,269.83,77.29,267.37,76.94z"/>
		</defs>
		<clipPath id="SVGID_00000060714529144191935700000009453238432005022098_">
			<use xlink:href="#SVGID_00000053513856338740961510000002697496592259473060_"  style="overflow:visible;"/>
		</clipPath>
		<g style="clip-path:url(#SVGID_00000060714529144191935700000009453238432005022098_);">
			
				<rect x="262.01" y="77.11" transform="matrix(0.1378 -0.9905 0.9905 0.1378 149.1514 334.5374)" class="st7" width="9.41" height="8.99"/>
		</g>
	</g>
	<g>
		
			<rect x="256.91" y="76.39" transform="matrix(0.1378 -0.9905 0.9905 0.1378 145.4581 328.8686)" class="st13" width="9.41" height="8.99"/>
	</g>
</g>
</svg>
