<svg width="116" height="138" viewBox="0 0 116 138" fill="none" xmlns="http://www.w3.org/2000/svg">
<g id="Group 15">
<path id="Vector" d="M13.7495 108.903C13.6553 108.903 13.5651 108.866 13.4985 108.799C13.4319 108.733 13.3945 108.642 13.3945 108.548V102.585C13.3945 102.491 13.4319 102.401 13.4985 102.334C13.5651 102.268 13.6553 102.23 13.7495 102.23C13.8436 102.23 13.9339 102.268 14.0005 102.334C14.067 102.401 14.1044 102.491 14.1044 102.585V108.548C14.1044 108.642 14.067 108.733 14.0005 108.799C13.9339 108.866 13.8436 108.903 13.7495 108.903Z" fill="#212529"/>
<path id="Vector_2" d="M29.3318 57.969C21.0971 60.8972 19.3579 45.2621 26.9714 47.7999C34.5849 50.3377 31.3549 36.6725 31.3549 36.6725C22.6943 7.08813 49.2972 1.44456 49.2972 1.44456C49.2972 1.44456 52.119 -0.294652 56.0233 5.10046C56.0233 5.10046 64.3112 1.5333 70.079 12.1815C75.8468 22.8298 69.2094 39.37 72.2264 44.215C75.4919 49.4149 78.6154 43.7713 80.5498 48.5098C82.1825 52.5029 74.2141 57.0284 72.2264 57.0816L29.3318 57.969Z" fill="#212529"/>
<path id="Vector_3" d="M27.326 58.6966C25.2496 58.6966 23.9541 57.4543 23.2797 56.567C21.505 54.2066 21.221 50.533 22.6586 48.5453C23.6169 47.2143 25.1786 46.8238 27.0776 47.4627C28.4974 47.9242 29.5977 47.8354 30.343 47.1433C32.8276 44.8717 31.0707 37.063 30.9997 36.7613C28.2489 27.3021 28.7636 19.2804 32.5614 12.9269C37.9743 3.87594 48.3386 1.30262 49.1727 1.1074C49.6164 0.87669 52.4381 -0.312363 56.1473 4.67456C57.6927 4.17396 59.3347 4.04624 60.939 4.30187C63.5833 4.71006 67.3457 6.37828 70.3982 12.0041C73.8056 18.3043 72.936 26.6454 72.2439 33.3361C71.747 38.039 71.3388 42.1031 72.5278 44.0198C74.0896 46.5221 75.5626 46.3447 76.9646 46.1672C78.3666 45.9897 79.8396 45.83 80.8867 48.3856C81.3481 49.5214 81.1529 50.7637 80.301 52.077C78.4376 54.9343 73.8234 57.4011 72.2439 57.4366L29.4024 58.3239C28.7363 58.5643 28.0342 58.6903 27.326 58.6966ZM25.4094 47.8709C24.9864 47.8535 24.5658 47.9436 24.1872 48.133C23.8085 48.3223 23.4841 48.6046 23.2442 48.9535C22.0019 50.6927 22.2859 54.0469 23.8476 56.1411C24.6107 57.1349 26.3145 58.6789 29.225 57.6318H29.3315L72.2261 56.7445C73.4684 56.709 77.8874 54.5083 79.6976 51.722C80.4253 50.604 80.6027 49.5924 80.2301 48.6695C79.3959 46.6286 78.4021 46.7351 77.0533 46.8948C75.7046 47.0546 73.7169 47.2853 71.9244 44.4102C70.5934 42.2983 71.0371 38.1278 71.534 33.2828C72.2261 26.6809 73.078 18.464 69.777 12.359C67.4699 8.11749 64.3819 5.57966 60.8325 5.01176C58.1705 4.60357 56.1828 5.43769 56.165 5.45543L55.8988 5.56192L55.7391 5.3312C52.0655 0.255543 49.5099 1.7463 49.4921 1.76404L49.4389 1.79954H49.3856C49.2792 1.83503 38.6132 4.19539 33.1648 13.3174C29.4734 19.4934 28.9765 27.3376 31.6918 36.6015C31.7806 36.9387 33.6617 45.0846 30.8222 47.6757C29.8816 48.5453 28.5328 48.6873 26.8469 48.1371C26.3858 47.9692 25.9 47.8792 25.4094 47.8709Z" fill="#212529"/>
<path id="Vector_4" d="M66.3164 21.6763H66.2099C56.5023 18.9077 49.5099 10.5666 49.4389 10.4779C49.3777 10.4049 49.348 10.3106 49.3564 10.2158C49.3647 10.1209 49.4103 10.0333 49.4833 9.97207C49.5562 9.91088 49.6505 9.88118 49.7454 9.8895C49.8402 9.89782 49.9279 9.94348 49.9891 10.0164C50.0601 10.1052 56.9104 18.2866 66.4051 20.9841C66.4509 20.9964 66.4938 21.0177 66.5312 21.0468C66.5686 21.0759 66.5998 21.1122 66.623 21.1535C66.6461 21.1949 66.6607 21.2405 66.666 21.2876C66.6713 21.3347 66.667 21.3824 66.6536 21.4278C66.6336 21.5012 66.5894 21.5656 66.5282 21.6107C66.467 21.6558 66.3924 21.6789 66.3164 21.6763Z" fill="#212529"/>
<path id="Vector_5" d="M62.3061 32.644H62.2174C62.1707 32.6396 62.1253 32.626 62.0839 32.6039C62.0425 32.5818 62.0059 32.5518 61.9762 32.5154C61.9465 32.4791 61.9243 32.4373 61.9109 32.3924C61.8974 32.3474 61.893 32.3003 61.8979 32.2536C61.9001 32.2077 61.9116 32.1627 61.9318 32.1214C61.952 32.0801 61.9804 32.0433 62.0153 32.0134C62.0502 31.9835 62.0909 31.961 62.1348 31.9474C62.1787 31.9338 62.2249 31.9293 62.2706 31.9342C62.3949 31.9342 65.3586 32.1116 65.891 27.2667C66.1927 24.6046 65.4474 23.806 64.7375 23.0429C64.0276 22.2797 63.3532 21.5699 63.5484 19.5644C63.5578 19.4703 63.6042 19.3838 63.6775 19.3239C63.7507 19.264 63.8447 19.2356 63.9389 19.245C64.033 19.2544 64.1195 19.3008 64.1794 19.3741C64.2393 19.4473 64.2677 19.5413 64.2583 19.6354C64.0986 21.3214 64.631 21.8893 65.2521 22.5637C65.8733 23.2381 66.9204 24.3562 66.6009 27.3554C66.033 32.3956 62.8918 32.644 62.3061 32.644Z" fill="#212529"/>
<path id="Vector_6" d="M58.0463 22.1199H57.9931L53.9645 21.765C53.8452 21.7516 53.7358 21.6921 53.6596 21.5994C53.5833 21.5066 53.5463 21.3877 53.5563 21.2681C53.5606 21.2104 53.5767 21.1542 53.6034 21.103C53.6302 21.0517 53.6671 21.0064 53.712 20.9699C53.7568 20.9333 53.8086 20.9063 53.8642 20.8905C53.9198 20.8746 53.9781 20.8702 54.0355 20.8776L58.0818 21.2326C58.1401 21.2371 58.197 21.253 58.2491 21.2796C58.3013 21.3061 58.3476 21.3427 58.3856 21.3872C58.4235 21.4318 58.4523 21.4834 58.4702 21.5391C58.4881 21.5948 58.4948 21.6534 58.49 21.7118C58.4739 21.8203 58.4211 21.9201 58.3404 21.9944C58.2596 22.0687 58.1558 22.113 58.0463 22.1199Z" fill="#212529"/>
<path id="Vector_7" d="M73.9476 108.548C72.9005 106.72 72.3148 105.975 72.5456 103.881C72.8828 100.668 73.3974 95.5395 73.6459 90.7123C76.0772 95.5395 81.8983 103.756 91.7124 98.6098C93.7178 97.5627 91.4817 65.4937 64.4706 54.881L61.5069 59.087C61.0312 59.8347 60.4715 60.5254 59.8386 61.1457C48.587 71.7939 39.607 54.881 39.607 54.881C12.0458 63.1334 14.4949 86.0803 11.9748 98.6098C10.6615 105.158 18.8962 102.443 26.8291 101.875C30.2543 101.645 30.8754 96.2671 30.9287 92.0433C30.9263 91.9821 30.9484 91.9225 30.99 91.8776C31.0316 91.8327 31.0893 91.8061 31.1505 91.8038C31.2117 91.8014 31.2713 91.8235 31.3163 91.8651C31.3612 91.9067 31.3877 91.9644 31.3901 92.0256L32.3307 101.503C32.6005 104.271 32.0967 107.06 30.8754 109.56" fill="#ADB5BD"/>
<path id="Vector_8" d="M39.6069 54.881C39.6069 54.881 44.7891 57.4011 47.2737 42.4935L55.0646 41.9789C55.0646 41.9789 55.5438 56.3718 64.4706 54.881C64.4706 54.881 53.2189 77.5263 39.6069 54.881Z" fill="#F8F9FA"/>
<path id="Vector_9" d="M70.6111 20.8244C70.5228 20.8248 70.4375 20.7924 70.3719 20.7333C70.3062 20.6742 70.265 20.5928 70.2562 20.5049C69.1558 9.87445 60.2823 7.15915 60.1936 7.1414C60.1043 7.11286 60.03 7.05021 59.9868 6.9671C59.9436 6.88399 59.935 6.78716 59.9629 6.69773C59.9731 6.65262 59.9925 6.6101 60.0198 6.5728C60.0471 6.53551 60.0819 6.50423 60.1218 6.48093C60.1618 6.45763 60.2061 6.44279 60.252 6.43734C60.2979 6.4319 60.3445 6.43596 60.3888 6.44927C60.4953 6.48476 62.7846 7.1769 65.2515 9.23556C67.7183 11.2942 70.3626 14.6307 70.966 20.434C70.9709 20.4806 70.9665 20.5278 70.9531 20.5727C70.9397 20.6177 70.9174 20.6595 70.8877 20.6958C70.858 20.7321 70.8214 20.7622 70.78 20.7842C70.7386 20.8063 70.6933 20.82 70.6466 20.8244H70.6111Z" fill="#F8F9FA"/>
<path id="Vector_10" d="M70.7529 28.5621C70.6588 28.5621 70.5685 28.5247 70.5019 28.4582C70.4353 28.3916 70.3979 28.3013 70.3979 28.2072V23.3267C70.3979 23.2326 70.4353 23.1423 70.5019 23.0758C70.5685 23.0092 70.6588 22.9718 70.7529 22.9718C70.847 22.9718 70.9373 23.0092 71.0039 23.0758C71.0704 23.1423 71.1078 23.2326 71.1078 23.3267V28.2072C71.1078 28.3013 71.0704 28.3916 71.0039 28.4582C70.9373 28.5247 70.847 28.5621 70.7529 28.5621Z" fill="#F8F9FA"/>
<path id="Vector_11" d="M33.2 18.8722H33.1112C33.0213 18.8435 32.9457 18.7817 32.8996 18.6994C32.8535 18.617 32.8403 18.5202 32.8628 18.4286C34.602 12.4478 39.021 9.2001 39.1985 9.05812C39.2368 9.03106 39.2802 9.01188 39.326 9.00169C39.3718 8.9915 39.4192 8.9905 39.4654 8.99875C39.5117 9.00701 39.5558 9.02435 39.5953 9.04977C39.6347 9.07519 39.6688 9.10819 39.6954 9.14685C39.7233 9.18414 39.7437 9.22658 39.7553 9.27173C39.7668 9.31688 39.7694 9.36387 39.7628 9.41002C39.7562 9.45616 39.7406 9.50055 39.7169 9.54066C39.6931 9.58077 39.6617 9.61581 39.6244 9.64377C39.5712 9.66152 35.2054 12.8915 33.5372 18.6238C33.5203 18.6989 33.4769 18.7653 33.415 18.811C33.353 18.8566 33.2767 18.8784 33.2 18.8722Z" fill="#F8F9FA"/>
<path id="Vector_12" d="M32.384 24.7465C32.3018 24.7449 32.2224 24.7162 32.1582 24.6649C32.094 24.6135 32.0486 24.5424 32.029 24.4625C31.7983 23.4761 31.7983 22.4497 32.029 21.4633C32.0395 21.4178 32.0588 21.3749 32.0859 21.3369C32.1129 21.2989 32.1472 21.2666 32.1868 21.2419C32.2264 21.2172 32.2704 21.2005 32.3164 21.1928C32.3624 21.1851 32.4095 21.1865 32.4549 21.1971C32.5016 21.2052 32.5461 21.223 32.5854 21.2495C32.6247 21.2759 32.6581 21.3104 32.6832 21.3506C32.7083 21.3908 32.7247 21.4358 32.7312 21.4827C32.7377 21.5297 32.7343 21.5775 32.7211 21.623C32.5262 22.5056 32.5262 23.4202 32.7211 24.3028C32.7343 24.3483 32.7377 24.3961 32.7312 24.4431C32.7247 24.49 32.7083 24.535 32.6832 24.5752C32.6581 24.6154 32.6247 24.6499 32.5854 24.6763C32.5461 24.7028 32.5016 24.7206 32.4549 24.7287L32.384 24.7465Z" fill="#F8F9FA"/>
<path id="Vector_13" d="M101.811 75.2546C106.815 109.773 93.1502 112.08 84.6138 105.46C80.4433 102.23 77.5682 97.2965 76.8229 95.504C76.7889 95.4288 76.7712 95.3473 76.771 95.2648C76.7708 95.1823 76.788 95.1006 76.8215 95.0252C76.855 94.9498 76.904 94.8824 76.9655 94.8273C77.0269 94.7721 77.0992 94.7306 77.1778 94.7054C78.917 94.1198 83.9749 92.2386 85.8739 89.5943" fill="#F8F9FA"/>
<path id="Vector_14" d="M92.2446 108.779C89.7067 108.779 86.9737 107.75 84.3826 105.744C79.9636 102.301 77.1241 97.1723 76.4852 95.646C76.3931 95.3988 76.3994 95.1256 76.5029 94.8829C76.556 94.7649 76.6319 94.6587 76.7263 94.5703C76.8208 94.482 76.9318 94.4133 77.0531 94.3682C78.5971 93.8536 83.726 91.9724 85.5717 89.3813C85.6281 89.306 85.7122 89.2562 85.8054 89.2429C85.8986 89.2296 85.9933 89.2538 86.0686 89.3103C86.1072 89.3369 86.1402 89.371 86.1657 89.4104C86.1911 89.4499 86.2084 89.494 86.2167 89.5402C86.2249 89.5865 86.2239 89.6338 86.2138 89.6797C86.2036 89.7255 86.1844 89.7689 86.1573 89.8072C84.2406 92.487 79.3069 94.3682 77.2838 95.0426C77.2238 95.0753 77.1745 95.1246 77.1418 95.1846C77.124 95.2424 77.124 95.3042 77.1418 95.3621C77.9227 97.2255 80.8332 102.088 84.8263 105.176C88.8194 108.264 92.9722 108.885 96.1844 107.022C99.3966 105.158 104.792 98.2726 101.455 75.2901C101.448 75.2444 101.45 75.1977 101.461 75.1528C101.472 75.108 101.493 75.0659 101.521 75.0293C101.55 74.9926 101.585 74.9622 101.626 74.9399C101.666 74.9177 101.711 74.9039 101.757 74.8997C101.804 74.8921 101.851 74.894 101.897 74.9052C101.943 74.9163 101.987 74.9365 102.025 74.9646C102.063 74.9927 102.095 75.0282 102.119 75.0688C102.143 75.1095 102.159 75.1545 102.165 75.2014C103.514 84.5363 103.603 92.1321 102.396 97.7579C101.349 102.656 99.3789 105.975 96.5394 107.643C95.2299 108.386 93.7503 108.778 92.2446 108.779Z" fill="#212529"/>
<path id="Vector_15" d="M115.547 108.424H0.474609V109.134H115.547V108.424Z" fill="#212529"/>
<path id="Vector_16" d="M101.171 76.3727C101.171 76.3727 106.904 64.145 101.171 63.7545C101.171 63.7545 103.07 57.9335 97.906 58.6789C97.906 58.6789 97.8527 50.4442 89.7423 52.4851C89.7423 52.4851 88.9259 56.9929 84.8619 54.3841C84.8619 54.3841 81.2415 48.8825 80.4074 54.1179C80.2476 55.0762 84.8796 58.8563 85.696 60.3648C87.8611 64.3934 89.3696 72.0956 88.855 80.1351C88.642 83.578 88.358 87.9438 88.429 91.5997L101.171 76.3727Z" fill="#F8F9FA"/>
<path id="Vector_17" d="M90.8961 52.0237C93.7888 50.7637 92.3336 57.8093 89.2988 60.0987C89.1412 60.2176 88.9592 60.3001 88.7658 60.34C88.5724 60.3799 88.3726 60.3762 88.1808 60.3294C87.4531 60.1341 86.2463 58.7499 87.0094 56.6202" fill="#F8F9FA"/>
<path id="Vector_18" d="M88.5004 60.7199C88.3625 60.7209 88.2252 60.703 88.0922 60.6666C87.613 60.5424 87.0984 60.081 86.7789 59.4776C86.4595 58.8742 86.282 57.5786 86.6724 56.5138C86.6798 56.4618 86.6985 56.412 86.7274 56.3682C86.7563 56.3243 86.7945 56.2873 86.8394 56.26C86.8843 56.2327 86.9347 56.2157 86.9869 56.2103C87.0392 56.2048 87.092 56.211 87.1416 56.2284C87.1912 56.2458 87.2362 56.274 87.2736 56.311C87.3109 56.3479 87.3396 56.3927 87.3575 56.4421C87.3755 56.4914 87.3822 56.5442 87.3773 56.5965C87.3724 56.6488 87.3559 56.6994 87.3291 56.7445C86.9386 57.8626 87.1516 58.679 87.4001 59.1581C87.6485 59.6373 88.0212 59.9213 88.2697 59.9745C88.4091 60.0097 88.5546 60.0136 88.6957 59.986C88.8369 59.9583 88.9701 59.8999 89.086 59.8148C91.3577 58.0933 92.6355 53.692 91.9078 52.4675C91.8368 52.361 91.6771 52.0771 91.0382 52.3433C90.9572 52.3634 90.8717 52.3544 90.7967 52.3178C90.7217 52.2812 90.662 52.2193 90.6281 52.143C90.5942 52.0667 90.5882 51.9809 90.6113 51.9007C90.6344 51.8205 90.685 51.751 90.7543 51.7044C91.8546 51.2252 92.3693 51.8286 92.529 52.1126C93.4696 53.7275 91.9788 58.5192 89.512 60.3827C89.2214 60.6039 88.8656 60.7225 88.5004 60.7199Z" fill="#212529"/>
<path id="Vector_19" d="M95.0489 55.378C99.3082 53.834 95.6878 63.5948 91.748 64.6597C91.748 64.6597 89.7603 64.8726 89.8136 62.5655" fill="#F8F9FA"/>
<path id="Vector_20" d="M91.6236 65.0145C91.0776 65.0298 90.5457 64.8399 90.1329 64.4821C89.6714 64.0562 89.4407 63.3995 89.4585 62.5654C89.4585 62.4713 89.4959 62.381 89.5624 62.3144C89.629 62.2479 89.7193 62.2105 89.8134 62.2105H89.8312C89.9237 62.2193 90.0096 62.2625 90.072 62.3314C90.1344 62.4004 90.1688 62.4902 90.1684 62.5832C90.1506 63.2043 90.3103 63.6657 90.612 63.9497C90.909 64.199 91.2897 64.3259 91.6769 64.3046C93.7355 63.719 95.8297 60.4713 96.4508 57.8802C96.6993 56.8331 96.646 56.0168 96.3088 55.7151C95.9716 55.4134 95.528 55.5731 95.1553 55.7151C95.0658 55.7457 94.9679 55.7395 94.8831 55.6979C94.7982 55.6563 94.7333 55.5826 94.7027 55.4932C94.6721 55.4038 94.6783 55.3059 94.7199 55.221C94.7615 55.1361 94.8351 55.0713 94.9246 55.0407C95.7232 54.7567 96.3443 54.81 96.788 55.1826C97.2317 55.5553 97.4624 56.6734 97.143 58.0399C96.5573 60.5245 94.3921 64.3046 91.8366 64.9968H91.6236V65.0145Z" fill="#212529"/>
<path id="Vector_21" d="M99.0058 59.5485C103.034 58.7676 100.248 68.3333 94.2318 68.777C94.2318 68.777 91.5698 68.8657 91.8715 66.4343" fill="#F8F9FA"/>
<path id="Vector_22" d="M94.2148 69.1319C93.9486 69.1319 92.7418 69.0786 92.0319 68.2977C91.5882 67.8186 91.4285 67.1797 91.5172 66.3988C91.5217 66.3521 91.5353 66.3068 91.5574 66.2654C91.5794 66.224 91.6095 66.1874 91.6458 66.1577C91.6821 66.128 91.724 66.1057 91.7689 66.0923C91.8138 66.0789 91.861 66.0745 91.9077 66.0794C92.0016 66.0965 92.086 66.1476 92.1449 66.2228C92.2038 66.298 92.233 66.3922 92.2271 66.4876C92.1561 67.0555 92.2626 67.4991 92.5465 67.8186C93.1145 68.4397 94.2148 68.422 94.2148 68.422C97.0721 68.209 99.0952 65.7954 99.9648 63.79C100.621 62.2637 100.728 60.8262 100.231 60.1873C99.9826 59.8856 99.5921 59.7969 99.0597 59.9034C98.9681 59.919 98.8739 59.8979 98.7976 59.8448C98.7213 59.7917 98.6688 59.7108 98.6515 59.6194C98.6355 59.5256 98.656 59.4292 98.7088 59.35C98.7616 59.2708 98.8427 59.2148 98.9355 59.1935C99.9293 58.9983 100.497 59.3887 100.781 59.7437C101.473 60.5955 101.402 62.2637 100.621 64.0739C99.6276 66.3633 97.427 68.9012 94.2503 69.1319H94.2148Z" fill="#212529"/>
<path id="Vector_23" d="M89.2279 53.9404L80.2124 41.9789L76.5742 45.7413L86.761 56.3895C86.846 56.4731 86.951 56.5334 87.0661 56.5645C87.1811 56.5956 87.3022 56.5964 87.4177 56.567C87.8969 56.425 88.731 55.9991 89.3166 54.597C89.3596 54.4892 89.374 54.3721 89.3585 54.2571C89.3429 54.142 89.2979 54.033 89.2279 53.9404Z" fill="#F8F9FA"/>
<path id="Vector_24" d="M87.2394 56.9397C87.1025 56.9405 86.967 56.9124 86.8416 56.8574C86.7162 56.8024 86.6039 56.7216 86.5118 56.6203L76.0942 45.7413L80.247 41.4288L89.511 53.7275C89.6191 53.8665 89.6891 54.0313 89.714 54.2056C89.7389 54.3799 89.7179 54.5576 89.653 54.7213C88.9964 56.3008 88.0203 56.7622 87.5056 56.9042C87.42 56.9333 87.3296 56.9454 87.2394 56.9397ZM77.0703 45.7413L87.0264 56.1411C87.0638 56.1766 87.1089 56.2031 87.1581 56.2185C87.2073 56.2339 87.2594 56.2377 87.3104 56.2298C87.7186 56.1233 88.4462 55.7507 88.9963 54.4551C89.0152 54.4047 89.0202 54.3501 89.0109 54.297C89.0015 54.244 88.9781 54.1944 88.9431 54.1534L80.1761 42.5113L77.0703 45.7413Z" fill="#212529"/>
<path id="Vector_25" d="M37.1404 24.0899C35.2415 25.3145 34.6381 26.0421 34.8865 28.296C35.0463 29.6093 36.0756 31.8987 37.1404 32.6795C38.2052 33.4604 38.9861 33.4427 39.412 33.8508C40.4236 34.8269 40.4769 35.874 40.6011 36.9388C40.9205 39.6009 43.3874 41.2691 45.6945 42.6534C49.3682 44.854 54.4971 44.2506 57.5673 41.2691C59.3065 39.5831 60.815 37.5245 61.4539 35.1819C62.2348 32.2891 65.1453 30.0707 65.2163 29.9642C65.9972 28.5977 66.3521 27.5151 66.1746 25.9356C65.9439 23.877 63.0334 22.1023 61.3652 20.8777C57.4963 18.0027 54.5325 14.9857 50.9121 11.4185C50.7783 11.2894 50.6182 11.1907 50.4428 11.1289C50.2673 11.0672 50.0807 11.044 49.8955 11.0608C49.7103 11.0776 49.5308 11.1342 49.3694 11.2265C49.208 11.3189 49.0683 11.4449 48.96 11.596C46.3866 15.1277 46.1382 18.0027 39.412 21.9071" fill="#F8F9FA"/>
<path id="Vector_26" d="M50.539 44.2506H50.4325C44.7534 44.1973 41.9671 40.7544 40.6184 37.8794C39.7199 35.9039 39.1906 33.7807 39.0566 31.6146C39.0542 31.5689 39.0611 31.5231 39.077 31.4801C39.0929 31.4372 39.1173 31.3979 39.1489 31.3646C39.1804 31.3314 39.2184 31.305 39.2605 31.287C39.3026 31.2689 39.348 31.2596 39.3938 31.2597H39.4116C39.4573 31.2573 39.5031 31.2642 39.5461 31.2801C39.589 31.2959 39.6283 31.3204 39.6615 31.352C39.6948 31.3835 39.7212 31.4215 39.7392 31.4636C39.7573 31.5057 39.7666 31.5511 39.7665 31.5969C39.908 33.6703 40.4189 35.7017 41.275 37.5954C43.103 41.4998 46.1909 43.5052 50.4325 43.5407H50.5567C55.0645 43.5407 58.3477 41.1981 60.2999 36.5661C61.7729 33.0522 61.8794 29.485 61.8971 29.4495C61.8867 29.3973 61.8881 29.3433 61.9014 29.2917C61.9146 29.2401 61.9393 29.1922 61.9736 29.1514C62.0079 29.1107 62.051 29.0782 62.0996 29.0563C62.1481 29.0345 62.201 29.0238 62.2543 29.0252C62.3075 29.0266 62.3598 29.0399 62.4072 29.0642C62.4546 29.0885 62.4959 29.1232 62.5281 29.1657C62.5602 29.2081 62.5824 29.2573 62.593 29.3095C62.6036 29.3617 62.6023 29.4156 62.5892 29.4672C62.4649 32.0026 61.9129 34.4987 60.9565 36.85C58.9156 41.695 55.3129 44.2506 50.539 44.2506Z" fill="#212529"/>
<path id="Vector_27" d="M39.1814 33.8508C38.23 33.8471 37.3066 33.5289 36.5548 32.9457C35.4545 32.0584 34.7801 30.6386 34.5672 28.7219C34.23 25.6872 35.1173 25.0128 35.9159 24.4094C36.7146 23.806 36.9808 23.593 36.821 21.9426C36.8157 21.8493 36.8455 21.7574 36.9047 21.6851C36.9638 21.6128 37.048 21.5653 37.1405 21.5521C37.1871 21.5472 37.2343 21.5516 37.2793 21.565C37.3242 21.5785 37.366 21.6007 37.4023 21.6304C37.4386 21.6601 37.4687 21.6967 37.4908 21.7381C37.5128 21.7795 37.5265 21.8249 37.5309 21.8716C37.7261 23.9125 36.9808 24.4804 36.3419 24.9773C35.703 25.4742 34.9931 26.0066 35.277 28.6332C35.8095 33.4781 39.2346 33.1587 39.3766 33.141C39.4223 33.1334 39.469 33.1354 39.5139 33.1468C39.5588 33.1581 39.6008 33.1786 39.6375 33.2069C39.6741 33.2352 39.7045 33.2707 39.7268 33.3113C39.7491 33.3518 39.7628 33.3966 39.7671 33.4427C39.772 33.4893 39.7676 33.5365 39.7541 33.5814C39.7407 33.6264 39.7185 33.6682 39.6888 33.7045C39.6591 33.7408 39.6225 33.7709 39.5811 33.7929C39.5397 33.815 39.4943 33.8287 39.4476 33.8331L39.1814 33.8508Z" fill="#212529"/>
<path id="Vector_28" d="M44.3458 28.4202C44.7771 28.4202 45.1267 27.8878 45.1267 27.2311C45.1267 26.5744 44.7771 26.0421 44.3458 26.0421C43.9145 26.0421 43.5649 26.5744 43.5649 27.2311C43.5649 27.8878 43.9145 28.4202 44.3458 28.4202Z" fill="#212529"/>
<path id="Vector_29" d="M42.3755 24.8353C42.278 24.8314 42.1842 24.7966 42.1077 24.736C42.0311 24.6754 41.9758 24.5921 41.9496 24.4981C41.9336 24.441 41.9292 24.3812 41.9366 24.3224C41.9441 24.2636 41.9633 24.2068 41.9931 24.1555C42.0229 24.1042 42.0626 24.0594 42.11 24.0238C42.1574 23.9881 42.2115 23.9623 42.269 23.9479L46.1911 22.9186C46.2459 22.9025 46.3033 22.8976 46.36 22.9041C46.4168 22.9107 46.4716 22.9285 46.5212 22.9567C46.5709 22.9848 46.6144 23.0227 46.6492 23.0679C46.6839 23.1132 46.7092 23.165 46.7235 23.2203C46.7565 23.3333 46.7432 23.4547 46.6866 23.5579C46.63 23.661 46.5348 23.7375 46.4218 23.7705L42.4997 24.8175L42.3755 24.8353Z" fill="#212529"/>
<path id="Vector_30" d="M48.7824 33.8508H48.7647C47.9838 33.7798 47.4869 33.5136 47.3094 33.0344C46.919 32.0228 48.25 30.5853 48.534 30.3191C48.598 30.2516 48.6859 30.212 48.7788 30.2087C48.8717 30.2053 48.9622 30.2386 49.0309 30.3013C49.0971 30.3707 49.134 30.4628 49.134 30.5587C49.134 30.6545 49.0971 30.7467 49.0309 30.816C48.5162 31.3484 47.8063 32.36 47.9838 32.7859C48.1613 33.2119 48.534 33.1231 48.8002 33.1409C48.8476 33.1406 48.8946 33.1504 48.938 33.1695C48.9814 33.1886 49.0203 33.2167 49.0521 33.2518C49.0839 33.287 49.108 33.3285 49.1226 33.3736C49.1373 33.4187 49.1424 33.4664 49.1374 33.5136C49.1289 33.6031 49.0883 33.6866 49.023 33.7486C48.9578 33.8106 48.8723 33.8469 48.7824 33.8508Z" fill="#212529"/>
<path id="Vector_31" d="M69.99 47.6579C80.1737 47.6579 88.4292 39.4024 88.4292 29.2187C88.4292 19.0351 80.1737 10.7795 69.99 10.7795C59.8063 10.7795 51.5508 19.0351 51.5508 29.2187C51.5508 39.4024 59.8063 47.6579 69.99 47.6579Z" fill="#F8F9FA"/>
<path id="Vector_32" d="M69.9899 48.0307C59.6257 48.0307 51.1958 39.5831 51.1958 29.2188C51.1958 24.2343 53.1759 19.4539 56.7005 15.9293C60.2251 12.4047 65.0054 10.4246 69.9899 10.4246C74.9745 10.4246 79.7548 12.4047 83.2794 15.9293C86.804 19.4539 88.7841 24.2343 88.7841 29.2188C88.7841 39.5831 80.3542 48.0307 69.9899 48.0307ZM69.9899 11.1345C65.1951 11.1392 60.5981 13.046 57.2076 16.4365C53.8172 19.8269 51.9104 24.424 51.9057 29.2188C51.9057 39.1926 60.0161 47.3208 69.9899 47.3208C79.9638 47.3208 88.0742 39.1926 88.0742 29.2188C88.0695 24.424 86.1627 19.8269 82.7723 16.4365C79.3818 13.046 74.7847 11.1392 69.9899 11.1345Z" fill="#212529"/>
<path id="Vector_33" d="M69.9902 44.4813C78.2332 44.4813 84.9155 37.799 84.9155 29.556C84.9155 21.313 78.2332 14.6307 69.9902 14.6307C61.7472 14.6307 55.0649 21.313 55.0649 29.556C55.0649 37.799 61.7472 44.4813 69.9902 44.4813Z" fill="#F8F9FA"/>
<path id="Vector_34" d="M69.9897 44.8362C66.9676 44.8362 64.0133 43.94 61.5005 42.261C58.9876 40.582 57.0291 38.1956 55.8726 35.4035C54.7161 32.6114 54.4135 29.539 55.0031 26.575C55.5927 23.6109 57.048 20.8882 59.185 18.7512C61.3219 16.6143 64.0446 15.159 67.0087 14.5694C69.9728 13.9798 73.0451 14.2824 75.8372 15.4389C78.6293 16.5954 81.0157 18.5539 82.6948 21.0668C84.3738 23.5796 85.2699 26.5338 85.2699 29.556C85.2652 33.6071 83.6539 37.491 80.7893 40.3556C77.9247 43.2201 74.0408 44.8315 69.9897 44.8362ZM69.9897 14.9856C67.108 14.9856 64.2909 15.8402 61.8949 17.4412C59.4988 19.0422 57.6313 21.3178 56.5285 23.9802C55.4257 26.6425 55.1371 29.5722 55.6993 32.3985C56.2615 35.2249 57.6492 37.8211 59.6869 39.8588C61.7246 41.8965 64.3208 43.2842 67.1472 43.8464C69.9735 44.4086 72.9032 44.12 75.5655 43.0172C78.2279 41.9144 80.5035 40.0469 82.1045 37.6508C83.7055 35.2548 84.56 32.4377 84.56 29.556C84.5553 25.6931 83.0188 21.9898 80.2873 19.2584C77.5559 16.5269 73.8526 14.9903 69.9897 14.9856Z" fill="#212529"/>
<path id="Vector_35" d="M58.5248 28.4557C59.3971 28.4557 60.1043 27.3751 60.1043 26.0421C60.1043 24.7091 59.3971 23.6285 58.5248 23.6285C57.6525 23.6285 56.9453 24.7091 56.9453 26.0421C56.9453 27.3751 57.6525 28.4557 58.5248 28.4557Z" fill="#212529"/>
<path id="Vector_36" d="M63.1392 42.8307C63.1392 42.8307 73.4325 30.9402 66.6353 15.0033L63.1392 42.8307Z" fill="#F8F9FA"/>
<path id="Vector_37" d="M63.1393 43.1856C63.0545 43.1832 62.9731 43.1519 62.9086 43.0969C62.8386 43.0353 62.7956 42.9487 62.789 42.8557C62.7823 42.7627 62.8125 42.6709 62.8731 42.6C62.8908 42.5645 65.4286 39.6007 67.1146 34.738C68.6586 30.2835 69.7767 23.2557 66.316 15.1453C66.2798 15.0604 66.2781 14.9647 66.3112 14.8786C66.3443 14.7924 66.4097 14.7226 66.4935 14.6838C66.5364 14.6631 66.5831 14.6513 66.6308 14.6491C66.6784 14.6468 66.726 14.6542 66.7707 14.6708C66.8155 14.6873 66.8564 14.7128 66.8911 14.7455C66.9258 14.7782 66.9535 14.8176 66.9726 14.8613C70.522 23.2024 69.3685 30.4255 67.7713 35.0042C66.0498 39.9734 63.512 42.9372 63.4055 43.0614C63.3718 43.0991 63.3309 43.1295 63.2851 43.1508C63.2394 43.1722 63.1897 43.184 63.1393 43.1856Z" fill="#212529"/>
<path id="Vector_38" d="M26.8286 101.875C26.8286 101.875 27.0948 107.288 26.8286 108.779V101.875Z" fill="#F8F9FA"/>
<path id="Vector_39" d="M26.8295 109.134H26.7763C26.6835 109.113 26.6024 109.057 26.5496 108.977C26.4968 108.898 26.4763 108.802 26.4923 108.708C26.7408 107.27 26.4923 101.946 26.4746 101.893C26.4722 101.847 26.4791 101.802 26.495 101.759C26.5108 101.716 26.5353 101.676 26.5668 101.643C26.5984 101.61 26.6364 101.583 26.6785 101.565C26.7206 101.547 26.766 101.538 26.8118 101.538C26.859 101.533 26.9066 101.538 26.9517 101.553C26.9968 101.568 27.0383 101.592 27.0735 101.623C27.1087 101.655 27.1367 101.694 27.1559 101.738C27.175 101.781 27.1847 101.828 27.1845 101.875C27.2022 102.088 27.4507 107.324 27.1845 108.832C27.1716 108.917 27.1286 108.994 27.0634 109.049C26.9982 109.105 26.9151 109.135 26.8295 109.134Z" fill="#212529"/>
<path id="Vector_40" d="M47.5223 40.4527C46.8301 40.4527 46.2622 39.7606 46.2622 38.9265C46.2622 38.0924 46.8301 37.3825 47.5223 37.3825C48.2144 37.3825 48.7823 38.0746 48.7823 38.9265C48.7823 39.7784 48.2144 40.4527 47.5223 40.4527ZM47.5223 38.0924C47.2205 38.0924 46.9721 38.4828 46.9721 38.9265C46.9721 39.3702 47.2205 39.7429 47.5223 39.7429C47.824 39.7429 48.0724 39.3702 48.0724 38.9265C48.0724 38.4828 47.824 38.0924 47.5223 38.0924Z" fill="#212529"/>
<path id="Vector_41" d="M96.3623 72.9653C96.0771 72.9593 95.7926 72.9356 95.5104 72.8943C93.9664 72.6636 92.9903 72.2377 92.5999 71.6343C92.5222 71.525 92.4693 71.4001 92.4448 71.2684C92.4203 71.1366 92.4247 71.001 92.4579 70.8711L93.1323 71.0664C93.131 71.1088 93.1382 71.151 93.1535 71.1907C93.1687 71.2303 93.1917 71.2664 93.221 71.2971C93.3985 71.5455 93.9309 71.9715 95.5991 72.2022L96.3445 72.2554C99.4858 72.2554 101.935 69.3981 102.538 67.7832C102.685 67.3901 102.715 66.9628 102.624 66.5532C102.532 66.1436 102.324 65.7693 102.024 65.476C101.988 65.4457 101.959 65.4083 101.939 65.3662C101.918 65.3241 101.907 65.2782 101.905 65.2315C101.904 65.1848 101.912 65.1382 101.929 65.0947C101.946 65.0513 101.973 65.0119 102.006 64.9791C102.067 64.9091 102.154 64.8662 102.247 64.8595C102.34 64.8529 102.432 64.8831 102.503 64.9436C102.556 64.9969 103.887 66.2214 103.195 68.0316C102.503 69.8418 99.8762 72.9653 96.3623 72.9653Z" fill="#212529"/>
<path id="Vector_42" d="M101.42 75.6629C101.279 75.6692 101.138 75.6386 101.012 75.5741C100.97 75.5534 100.932 75.5245 100.901 75.4891C100.871 75.4537 100.847 75.4125 100.832 75.3679C100.817 75.3233 100.811 75.2763 100.815 75.2294C100.818 75.1825 100.831 75.1368 100.852 75.0949C100.873 75.0525 100.902 75.0148 100.938 74.9843C100.974 74.9538 101.015 74.9311 101.061 74.9177C101.106 74.9044 101.153 74.9006 101.2 74.9067C101.246 74.9127 101.291 74.9285 101.332 74.953C101.508 74.9698 101.686 74.9392 101.846 74.8642C102.645 74.527 103.568 73.6929 103.656 73.4267C103.675 73.3763 103.68 73.3217 103.671 73.2686C103.662 73.2156 103.638 73.166 103.603 73.125L101.474 70.0193C101.447 69.9823 101.428 69.9404 101.418 69.896C101.408 69.8515 101.407 69.8055 101.416 69.7608C101.424 69.716 101.441 69.6733 101.466 69.6354C101.492 69.5975 101.524 69.5651 101.562 69.5401C101.601 69.5131 101.644 69.4939 101.69 69.4837C101.736 69.4735 101.783 69.4725 101.829 69.4807C101.876 69.489 101.92 69.5063 101.959 69.5318C101.999 69.5572 102.033 69.5902 102.059 69.6289L104.189 72.7168C104.281 72.853 104.342 73.0082 104.367 73.171C104.391 73.3338 104.379 73.5 104.331 73.6574C104.136 74.2076 103 75.1659 102.112 75.5209C101.893 75.6137 101.658 75.6619 101.42 75.6629Z" fill="#212529"/>
<path id="Vector_43" d="M101.172 75.6096C101.117 75.6083 101.063 75.5949 101.014 75.5703C100.965 75.5458 100.922 75.5107 100.888 75.4676L98.7047 72.2909C98.6779 72.2524 98.659 72.2091 98.6489 72.1633C98.6389 72.1175 98.6379 72.0702 98.6462 72.024C98.6544 71.9779 98.6717 71.9338 98.6969 71.8944C98.7222 71.8549 98.755 71.8208 98.7935 71.794C98.8319 71.7672 98.8753 71.7482 98.9211 71.7381C98.9668 71.7281 99.0142 71.7272 99.0603 71.7354C99.1064 71.7437 99.1505 71.7609 99.19 71.7862C99.2295 71.8114 99.2636 71.8442 99.2904 71.8827L101.473 75.0594C101.499 75.0989 101.518 75.1431 101.526 75.1897C101.535 75.2362 101.535 75.284 101.525 75.3303C101.515 75.3766 101.496 75.4205 101.469 75.4593C101.441 75.4981 101.407 75.5311 101.367 75.5563C101.308 75.5927 101.24 75.6112 101.172 75.6096Z" fill="#212529"/>
<path id="Vector_44" d="M70.0966 117.422C74.37 117.422 77.8343 113.997 77.8343 109.773C77.8343 105.548 74.37 102.124 70.0966 102.124C65.8232 102.124 62.3589 105.548 62.3589 109.773C62.3589 113.997 65.8232 117.422 70.0966 117.422Z" fill="#F8F9FA"/>
<path id="Vector_45" d="M70.1854 117.777H69.6175L66.3521 117.386L68.9786 117.067V116.978L69.2803 117.013C71.0415 116.792 72.6606 115.933 73.8313 114.599C75.002 113.265 75.6433 111.548 75.6338 109.773C75.6338 105.975 73.1492 103.011 69.5998 102.585L66.6892 102.248L69.5998 101.893L69.7417 101.84C69.878 101.789 70.0225 101.765 70.1677 101.769C71.2981 101.766 72.4163 102.003 73.4486 102.464C74.4809 102.925 75.4038 103.599 76.1566 104.443C76.9094 105.286 77.4751 106.279 77.8163 107.357C78.1574 108.435 78.2665 109.573 78.1361 110.696C77.9024 112.642 76.9652 114.437 75.5009 115.741C74.0366 117.045 72.1462 117.769 70.1854 117.777ZM72.7587 102.958C74.9594 104.324 76.3436 106.809 76.3436 109.773C76.3462 111.192 75.9733 112.586 75.2626 113.814C74.5519 115.042 73.5288 116.06 72.2973 116.765C73.1809 116.487 74.0053 116.048 74.7287 115.469C75.4787 114.879 76.1036 114.144 76.5668 113.31C77.0299 112.475 77.3221 111.556 77.4262 110.607C77.5474 109.583 77.4486 108.545 77.1364 107.563C76.8242 106.58 76.3059 105.676 75.616 104.91C74.8295 104.045 73.8508 103.376 72.7587 102.958Z" fill="#212529"/>
<path id="Vector_46" d="M69.7239 117.741H69.2979C65.2694 117.741 62.0039 114.156 62.0039 109.773C62.0039 105.389 65.2161 101.769 69.1737 101.769C69.4644 101.769 69.7548 101.787 70.0433 101.822C73.6282 102.319 76.3435 105.726 76.3435 109.773C76.3435 113.819 73.6282 117.244 70.0433 117.723L69.7239 117.741ZM69.1737 102.479C65.6066 102.479 62.7138 105.762 62.7138 109.773C62.7138 113.784 65.6775 117.031 69.2979 117.031H69.5642C69.6886 117.043 69.814 117.037 69.9368 117.014C73.1846 116.588 75.6337 113.464 75.6337 109.773C75.6337 106.081 73.1846 102.976 69.9368 102.532C69.684 102.497 69.429 102.479 69.1737 102.479Z" fill="#212529"/>
<path id="Vector_47" d="M69.1732 115.647C66.2627 115.647 63.9023 113.02 63.9023 109.773C63.9023 106.525 66.2627 103.916 69.1732 103.916L69.8121 103.952C72.4387 104.307 74.4264 106.809 74.4264 109.773C74.4264 112.736 72.4387 115.239 69.8121 115.594C69.601 115.629 69.3873 115.647 69.1732 115.647ZM69.1732 104.626C66.6531 104.626 64.6122 106.933 64.6122 109.773C64.6122 112.612 66.6531 114.937 69.1732 114.937L69.7056 114.902C71.995 114.582 73.7165 112.381 73.7165 109.773C73.7165 107.164 71.995 104.963 69.7056 104.662C69.5298 104.632 69.3514 104.62 69.1732 104.626Z" fill="#212529"/>
<path id="Vector_48" d="M76.5923 106.17H74.9951C74.9009 106.17 74.8107 106.133 74.7441 106.066C74.6775 106 74.6401 105.909 74.6401 105.815C74.6401 105.721 74.6775 105.631 74.7441 105.564C74.8107 105.498 74.9009 105.46 74.9951 105.46H76.5923C76.6865 105.46 76.7767 105.498 76.8433 105.564C76.9099 105.631 76.9473 105.721 76.9473 105.815C76.9473 105.909 76.9099 106 76.8433 106.066C76.7767 106.133 76.6865 106.17 76.5923 106.17Z" fill="#212529"/>
<path id="Vector_49" d="M77.2135 107.98H75.705C75.6109 107.98 75.5206 107.943 75.4541 107.876C75.3875 107.81 75.3501 107.719 75.3501 107.625C75.3501 107.531 75.3875 107.441 75.4541 107.374C75.5206 107.308 75.6109 107.27 75.705 107.27H77.2135C77.3077 107.27 77.398 107.308 77.4645 107.374C77.5311 107.441 77.5685 107.531 77.5685 107.625C77.5685 107.719 77.5311 107.81 77.4645 107.876C77.398 107.943 77.3077 107.98 77.2135 107.98Z" fill="#212529"/>
<path id="Vector_50" d="M77.8167 110.429H75.9887C75.8946 110.429 75.8043 110.392 75.7378 110.325C75.6712 110.259 75.6338 110.169 75.6338 110.074C75.6338 109.98 75.6712 109.89 75.7378 109.823C75.8043 109.757 75.8946 109.719 75.9887 109.719H77.8167C77.9108 109.719 78.0011 109.757 78.0677 109.823C78.1342 109.89 78.1716 109.98 78.1716 110.074C78.1716 110.169 78.1342 110.259 78.0677 110.325C78.0011 110.392 77.9108 110.429 77.8167 110.429Z" fill="#212529"/>
<path id="Vector_51" d="M77.1062 112.985H75.4912C75.397 112.985 75.3068 112.948 75.2402 112.881C75.1736 112.815 75.1362 112.724 75.1362 112.63C75.1362 112.536 75.1736 112.446 75.2402 112.379C75.3068 112.313 75.397 112.275 75.4912 112.275H77.1062C77.2003 112.275 77.2906 112.313 77.3571 112.379C77.4237 112.446 77.4611 112.536 77.4611 112.63C77.4611 112.724 77.4237 112.815 77.3571 112.881C77.2906 112.948 77.2003 112.985 77.1062 112.985Z" fill="#212529"/>
<path id="Vector_52" d="M75.4914 115.611H73.9296C73.8355 115.611 73.7452 115.574 73.6787 115.508C73.6121 115.441 73.5747 115.351 73.5747 115.257C73.5747 115.162 73.6121 115.072 73.6787 115.006C73.7452 114.939 73.8355 114.902 73.9296 114.902H75.4914C75.5855 114.902 75.6758 114.939 75.7424 115.006C75.8089 115.072 75.8463 115.162 75.8463 115.257C75.8463 115.351 75.8089 115.441 75.7424 115.508C75.6758 115.574 75.5855 115.611 75.4914 115.611Z" fill="#212529"/>
<path id="Vector_53" d="M69.7414 113.375C69.2024 113.384 68.6745 113.223 68.2329 112.914C67.381 112.275 66.9551 110.997 66.9551 109.134C66.9728 107.537 67.3455 106.614 68.0909 106.294C69.2444 105.797 70.7175 107.128 70.8772 107.27C70.9446 107.334 70.9843 107.422 70.9876 107.515C70.9909 107.608 70.9576 107.699 70.8949 107.767C70.8646 107.803 70.8272 107.832 70.7851 107.852C70.743 107.872 70.6971 107.884 70.6504 107.885C70.6036 107.887 70.5571 107.879 70.5136 107.862C70.4702 107.844 70.4308 107.818 70.398 107.785C70.0608 107.483 68.996 106.685 68.3748 106.951C67.7537 107.217 67.6827 107.909 67.665 109.134C67.665 110.767 67.9844 111.849 68.6588 112.328C69.3332 112.807 70.3803 112.63 71.0724 112.417C71.1166 112.401 71.1637 112.394 71.2107 112.397C71.2577 112.399 71.3036 112.412 71.3454 112.434C71.3872 112.456 71.424 112.486 71.4534 112.523C71.4828 112.56 71.5041 112.602 71.5161 112.648C71.5325 112.692 71.5395 112.739 71.5365 112.786C71.5336 112.833 71.5209 112.879 71.4992 112.921C71.4774 112.963 71.4472 112.999 71.4103 113.029C71.3735 113.058 71.3309 113.079 71.2854 113.091C70.7889 113.267 70.2678 113.363 69.7414 113.375Z" fill="#212529"/>
<path id="Vector_54" d="M41.4354 97.2787C41.4354 97.2787 25.0016 99.7456 25.534 102.674C26.0665 105.602 27.22 107.519 25.6583 110.749C24.8774 112.364 23.1737 114.44 22.7123 116.8C22.2508 119.161 23.2624 121.947 25.534 123.828C30.095 127.608 29.9708 130.554 51.1431 123.828C51.1431 123.828 58.6678 121.912 55.4379 115.665C52.2079 109.418 50.7526 112.31 53.6632 103.898C53.6632 103.898 54.9942 100.42 50.8059 100.988C50.8059 100.988 47.4694 101.13 46.4756 99.5503C45.4818 97.9708 44.7719 95.575 41.4354 97.2787Z" fill="#F8F9FA"/>
<path id="Vector_55" d="M31.0353 113.446C31.0353 113.446 33.8039 106.756 35.8803 106.17C37.9567 105.584 50.7878 101.893 51.6042 102.816C52.4205 103.739 51.2492 109.861 49.5278 110.216C47.8063 110.571 36.0045 114.263 36.8209 115.186C37.6372 116.108 49.865 112.878 51.0185 113.571C52.1721 114.263 55.2423 118.078 51.8704 122.107C48.4984 126.136 32.7745 128.993 31.3903 127.839C30.006 126.686 24.2205 120.261 24.6819 118.309C25.1433 116.357 24.0962 114.174 26.1904 115.132C28.2845 116.091 29.793 116.126 31.0353 113.446Z" fill="#212529"/>
<path id="Vector_56" d="M33.5733 128.389C31.4081 128.389 29.3672 128.052 28.2492 126.987C24.0076 122.977 20.6712 119.818 22.9783 114.99C25.1434 110.447 26.3325 108.335 26.3502 108.3C26.3722 108.259 26.4025 108.223 26.439 108.194C26.4756 108.165 26.5177 108.145 26.5627 108.133C26.6077 108.121 26.6546 108.119 26.7005 108.126C26.7464 108.134 26.7903 108.15 26.8294 108.176C26.9115 108.221 26.9724 108.296 26.999 108.386C27.0256 108.476 27.0157 108.572 26.9714 108.655C26.9536 108.672 25.7823 110.784 23.6172 115.292C21.452 119.8 24.5578 122.515 28.7461 126.473C30.1659 127.822 34.017 128.052 39.2878 127.076C46.5819 125.745 54.4438 122.533 55.4377 120.456C56.7865 117.706 54.852 115.15 53.2903 113.109C52.8617 112.571 52.4647 112.008 52.1012 111.423C51.4091 110.234 52.0657 108.087 52.7046 105.993C53.2725 104.182 53.9114 102.106 53.2015 101.609C51.8173 100.615 43.3697 102.496 39.3056 103.402L37.2292 103.845C33.6265 104.608 30.3433 110.784 30.3078 110.838C30.2927 110.887 30.2668 110.933 30.232 110.972C30.1973 111.01 30.1544 111.041 30.1065 111.061C30.0587 111.081 30.0069 111.091 29.955 111.089C29.903 111.087 29.8522 111.074 29.8059 111.05C29.7597 111.026 29.7193 110.992 29.6875 110.951C29.6557 110.91 29.6333 110.863 29.6219 110.812C29.6106 110.761 29.6105 110.709 29.6217 110.658C29.6328 110.607 29.655 110.559 29.6867 110.518C29.8287 110.252 33.1474 103.987 37.0872 103.153L39.1459 102.709C45.6413 101.254 52.1012 99.9409 53.6097 101.023C54.7278 101.822 54.0712 103.952 53.379 106.206C52.8111 108.051 52.1722 110.145 52.7224 111.068C53.0661 111.63 53.4455 112.17 53.8582 112.683C55.4377 114.76 57.6028 117.617 56.0766 120.758C54.8343 123.332 46.2979 126.526 39.4121 127.786C37.8326 128.07 35.6497 128.389 33.5733 128.389Z" fill="#212529"/>
<path id="Vector_57" d="M27.7523 111.494C27.6822 111.492 27.6138 111.472 27.5545 111.434C27.4951 111.397 27.447 111.344 27.4151 111.281C27.0779 110.429 24.0964 102.993 26.4568 101.378C28.8171 99.7634 40.7609 97.2079 41.5595 97.5273C41.6042 97.5431 41.6452 97.5677 41.6802 97.5996C41.7152 97.6315 41.7434 97.6701 41.7633 97.7131C41.7831 97.7561 41.7942 97.8027 41.7958 97.85C41.7973 97.8973 41.7894 97.9445 41.7725 97.9887C41.7318 98.0677 41.6664 98.1312 41.5864 98.1696C41.5063 98.208 41.4159 98.2193 41.3288 98.2017C40.5125 98.113 28.9769 100.491 26.865 101.964C25.4452 102.94 26.8472 108.016 28.0718 110.997C28.0922 111.039 28.1038 111.084 28.1058 111.131C28.1079 111.177 28.1004 111.223 28.0837 111.267C28.067 111.31 28.0416 111.349 28.009 111.383C27.9764 111.416 27.9374 111.442 27.8943 111.459L27.7523 111.494Z" fill="#212529"/>
<path id="Vector_58" d="M37.9563 96.9415C36.714 96.9415 35.4362 96.6399 34.673 95.646C34.6166 95.5707 34.5923 95.476 34.6056 95.3829C34.6189 95.2897 34.6687 95.2056 34.744 95.1491C34.7803 95.1187 34.8226 95.0962 34.8682 95.0833C34.9137 95.0703 34.9615 95.067 35.0083 95.0737C35.0552 95.0804 35.1002 95.0969 35.1402 95.1221C35.1803 95.1473 35.2146 95.1807 35.241 95.2201C36.7672 97.2078 41.275 95.646 41.3104 95.6283C41.3547 95.6113 41.4018 95.6034 41.4492 95.605C41.4965 95.6066 41.543 95.6176 41.586 95.6375C41.629 95.6573 41.6676 95.6856 41.6996 95.7206C41.7315 95.7556 41.7561 95.7966 41.7719 95.8412C41.8013 95.9308 41.7958 96.0282 41.7562 96.1139C41.7167 96.1995 41.6462 96.267 41.5589 96.3026C41.4347 96.3381 39.731 96.9415 37.9563 96.9415Z" fill="#212529"/>
<path id="Vector_59" d="M35.7027 103.029C35.6171 103.032 35.5331 103.005 35.4662 102.951C35.3994 102.897 35.3542 102.821 35.3391 102.737C35.3239 102.652 35.3398 102.566 35.3838 102.492C35.4278 102.418 35.497 102.363 35.5785 102.337C37.3709 101.68 41.6657 100.189 42.5708 100.668H42.6241C42.908 100.544 43.263 99.6214 43.4404 98.8228C43.4616 98.7347 43.5157 98.658 43.5916 98.6085C43.6675 98.559 43.7595 98.5405 43.8486 98.5566C43.9414 98.5779 44.0225 98.6339 44.0753 98.7131C44.1281 98.7923 44.1486 98.8887 44.1326 98.9825C44.0616 99.3019 43.6712 100.97 42.9258 101.307C42.818 101.362 42.6983 101.389 42.5775 101.386C42.4566 101.383 42.3385 101.35 42.2336 101.29C41.7545 101.077 38.5245 102.017 35.8092 103.011L35.7027 103.029Z" fill="#212529"/>
<path id="Vector_60" d="M28.2134 114.831C29.2327 114.831 30.0591 114.004 30.0591 112.985C30.0591 111.965 29.2327 111.139 28.2134 111.139C27.194 111.139 26.3677 111.965 26.3677 112.985C26.3677 114.004 27.194 114.831 28.2134 114.831Z" fill="#212529"/>
<path id="Vector_61" d="M34.3008 96.0011C35.3201 96.0011 36.1465 95.1747 36.1465 94.1554C36.1465 93.136 35.3201 92.3097 34.3008 92.3097C33.2814 92.3097 32.4551 93.136 32.4551 94.1554C32.4551 95.1747 33.2814 96.0011 34.3008 96.0011Z" fill="#212529"/>
<path id="Vector_62" d="M43.7773 99.1245C44.7967 99.1245 45.623 98.2981 45.623 97.2788C45.623 96.2594 44.7967 95.4331 43.7773 95.4331C42.758 95.4331 41.9316 96.2594 41.9316 97.2788C41.9316 98.2981 42.758 99.1245 43.7773 99.1245Z" fill="#212529"/>
<path id="Vector_63" d="M40.5295 131.211L40.1568 130.785C39.8565 130.352 39.6453 129.863 39.5356 129.348C39.1274 127.378 40.1568 125 42.3042 123.456C44.4516 121.912 47.4331 121.592 49.1545 122.87C49.4536 123.095 49.7169 123.365 49.9354 123.669C50.0506 123.815 50.1461 123.976 50.2194 124.148C51.3019 126.224 50.2903 129.17 47.8058 130.998C45.3212 132.826 42.1799 132.862 40.5295 131.211Z" fill="#F8F9FA"/>
<path id="Vector_64" d="M43.7064 132.755C42.3754 132.755 41.1508 132.329 40.2812 131.46C40.1359 131.314 39.9996 131.16 39.873 130.998C39.5863 130.587 39.3704 130.132 39.2342 129.65C39.2121 129.564 39.2173 129.473 39.2491 129.39C39.2809 129.308 39.3377 129.237 39.4116 129.188C39.4822 129.133 39.5681 129.102 39.6572 129.099C39.7464 129.096 39.8343 129.121 39.9085 129.17C41.559 130.253 44.1323 129.987 46.1733 128.496C48.2142 127.005 49.208 124.822 48.7998 122.941L48.6046 122.036L49.3677 122.586C49.6948 122.83 49.9822 123.124 50.2196 123.456C50.339 123.625 50.4458 123.803 50.539 123.988C51.7103 126.242 50.61 129.383 48.0012 131.282C46.7587 132.21 45.2568 132.725 43.7064 132.755ZM40.1747 130.129C40.2635 130.271 40.3522 130.43 40.4587 130.572C40.5554 130.71 40.6622 130.841 40.7781 130.963C42.3399 132.507 45.2682 132.4 47.593 130.714C49.9179 129.011 50.9117 126.26 49.9179 124.308C49.8292 124.166 49.7582 124.024 49.6517 123.864L49.5984 123.811C49.5807 125.692 48.4626 127.715 46.5992 129.064C44.7357 130.413 42.0382 130.927 40.1747 130.129Z" fill="#212529"/>
<path id="Vector_65" d="M42.2867 130.555C41.2245 130.579 40.1835 130.255 39.3229 129.632L39.2164 129.543L39.1809 129.419C38.7373 127.271 39.9086 124.751 42.0915 123.154C44.2743 121.557 47.4688 121.184 49.3678 122.586L49.4742 122.675V122.799C49.9357 124.947 48.7644 127.467 46.5815 129.064C45.2504 130.04 43.7064 130.555 42.2867 130.555ZM39.8553 129.135C41.5058 130.271 44.0791 130.022 46.1733 128.496C48.1077 127.094 49.1548 124.929 48.8353 123.083C47.1849 121.947 44.6115 122.213 42.4996 123.74C40.3877 125.266 39.5359 127.289 39.8553 129.135Z" fill="#212529"/>
<path id="Vector_66" d="M49.297 128.23C49.229 128.228 49.1627 128.208 49.106 128.17C49.0494 128.132 49.0048 128.079 48.9776 128.017L48.2322 126.455C48.1922 126.368 48.1884 126.268 48.2217 126.179C48.255 126.089 48.3226 126.016 48.4097 125.976C48.4968 125.936 48.5962 125.932 48.686 125.965C48.7759 125.999 48.8488 126.066 48.8889 126.153L49.6165 127.715C49.6535 127.802 49.6558 127.901 49.6228 127.99C49.5898 128.079 49.5241 128.152 49.439 128.194L49.297 128.23Z" fill="#212529"/>
<path id="Vector_67" d="M47.5404 129.738C47.4772 129.735 47.416 129.716 47.363 129.682C47.3099 129.647 47.267 129.599 47.2387 129.543L46.653 128.496C46.6282 128.454 46.6122 128.408 46.606 128.36C46.5997 128.312 46.6034 128.263 46.6167 128.217C46.63 128.17 46.6527 128.127 46.6833 128.089C46.714 128.052 46.752 128.021 46.795 127.999C46.8782 127.959 46.9734 127.952 47.0619 127.978C47.1504 128.004 47.2261 128.062 47.2742 128.141L47.8598 129.206C47.9041 129.288 47.914 129.385 47.8874 129.475C47.8609 129.564 47.7999 129.64 47.7178 129.685C47.6657 129.721 47.6036 129.74 47.5404 129.738Z" fill="#212529"/>
<path id="Vector_68" d="M44.4342 131.619C44.3676 131.622 44.3018 131.605 44.2449 131.57C44.188 131.535 44.1428 131.485 44.1148 131.424L43.4581 130.164C43.4158 130.079 43.4088 129.981 43.4387 129.891C43.4687 129.802 43.5331 129.727 43.6178 129.685C43.7026 129.643 43.8006 129.636 43.8905 129.666C43.9804 129.695 44.0547 129.76 44.097 129.845L44.7359 131.105C44.7802 131.187 44.7901 131.284 44.7635 131.373C44.737 131.463 44.676 131.539 44.5939 131.584L44.4342 131.619Z" fill="#212529"/>
<path id="Vector_69" d="M41.5774 129.064C41.2934 129.064 40.7965 128.939 40.619 128.514C40.4415 128.088 40.9207 126.81 42.4647 125.284C44.0087 123.757 45.3042 123.03 46.3336 123.118C46.53 123.126 46.7227 123.175 46.8997 123.26C47.0768 123.346 47.2344 123.467 47.3629 123.615C47.4131 123.694 47.4319 123.789 47.4155 123.881C47.399 123.973 47.3486 124.056 47.2742 124.112C47.2002 124.163 47.1095 124.184 47.0206 124.171C46.9316 124.158 46.851 124.112 46.795 124.041C46.6465 123.901 46.449 123.825 46.2448 123.828C45.7834 123.793 44.7541 124.024 42.9616 125.781C41.1692 127.537 41.2402 128.176 41.2757 128.23C41.3111 128.283 41.5241 128.354 41.5774 128.354H41.5951C41.685 128.358 41.7705 128.394 41.8357 128.456C41.9009 128.518 41.9416 128.601 41.95 128.691C41.9461 128.786 41.908 128.876 41.8427 128.944C41.7774 129.013 41.6894 129.055 41.5951 129.064H41.5774Z" fill="#212529"/>
<path id="Vector_70" d="M97.977 130.058C97.9829 129.791 97.971 129.524 97.9415 129.259C97.8703 128.51 97.6273 127.787 97.2316 127.147C95.7941 124.698 92.4222 123.19 88.6953 123.598C84.6667 124.024 81.5255 126.562 80.9398 129.543C80.842 130.064 80.824 130.596 80.8866 131.123C80.9065 131.387 80.9541 131.649 81.0286 131.903C81.8982 135.116 85.767 137.263 90.1328 136.784C94.4986 136.305 97.8173 133.394 97.977 130.058Z" fill="#F8F9FA"/>
<path id="Vector_71" d="M88.9259 137.21C84.9506 137.21 81.5254 135.098 80.6913 131.992C80.6177 131.718 80.5643 131.439 80.5315 131.158C80.4724 130.656 80.4844 130.148 80.567 129.649C80.5808 129.565 80.6208 129.487 80.6813 129.426C80.7418 129.366 80.8198 129.326 80.9042 129.312C80.9848 129.295 81.0687 129.303 81.1447 129.335C81.2207 129.367 81.2854 129.421 81.3302 129.49C82.7854 131.815 86.0331 133.128 89.4583 132.755C93.203 132.347 96.2554 130.058 96.8766 127.183C96.8902 127.103 96.9282 127.029 96.9854 126.972C97.0427 126.915 97.1163 126.877 97.196 126.863C97.2755 126.854 97.356 126.868 97.4282 126.902C97.5004 126.937 97.5614 126.991 97.6042 127.058C97.9822 127.724 98.2179 128.462 98.2964 129.223C98.3256 129.506 98.3374 129.791 98.3319 130.075C98.1544 133.625 94.6582 136.642 90.1682 137.139C89.76 137.174 89.3341 137.21 88.9259 137.21ZM81.2059 130.537C81.2059 130.714 81.2059 130.892 81.2237 131.069C81.2414 131.247 81.3124 131.584 81.3657 131.815C82.1998 134.903 85.9444 136.89 90.0972 136.429C94.2323 135.985 97.4623 133.234 97.622 130.04C97.627 129.791 97.6152 129.542 97.5865 129.294C97.5508 128.9 97.4612 128.511 97.3203 128.141C96.2909 130.927 93.2207 133.057 89.5293 133.447C86.1929 133.82 82.9451 132.666 81.2059 130.537Z" fill="#212529"/>
<path id="Vector_72" d="M88.3056 133.518C85.0046 133.518 82.0231 132.081 80.6389 129.72L80.5679 129.614L80.6034 129.472C81.2245 126.26 84.5432 123.686 88.6605 123.243C92.4229 122.835 95.9901 124.325 97.5518 126.97L97.6051 127.076V127.218C96.9839 130.448 93.6652 133.004 89.5479 133.447C89.1358 133.498 88.7208 133.522 88.3056 133.518ZM81.331 129.49C82.7685 131.815 86.0162 133.128 89.4592 132.755C93.2038 132.347 96.2385 130.075 96.8597 127.218C95.4222 124.876 92.1745 123.58 88.7315 123.953C84.9869 124.361 81.9522 126.615 81.331 129.49Z" fill="#212529"/>
<path id="Vector_73" d="M85.2168 136.216C85.1312 136.217 85.0481 136.187 84.9829 136.131C84.9177 136.076 84.8747 135.999 84.8618 135.914L84.5069 132.631C84.4994 132.585 84.5014 132.538 84.5127 132.494C84.5241 132.449 84.5445 132.407 84.5728 132.37C84.6011 132.333 84.6367 132.303 84.6772 132.281C84.7178 132.258 84.7625 132.245 84.8086 132.24C84.8553 132.236 84.9024 132.24 84.9474 132.253C84.9923 132.267 85.0341 132.289 85.0704 132.319C85.1068 132.348 85.1368 132.385 85.1589 132.426C85.181 132.468 85.1946 132.513 85.199 132.56L85.5717 135.825C85.5766 135.872 85.5722 135.919 85.5588 135.964C85.5454 136.009 85.5231 136.051 85.4934 136.087C85.4637 136.124 85.4271 136.154 85.3857 136.176C85.3443 136.198 85.299 136.211 85.2523 136.216H85.2168Z" fill="#212529"/>
<path id="Vector_74" d="M88.8552 136.855C88.7669 136.855 88.6816 136.823 88.616 136.764C88.5503 136.704 88.5091 136.623 88.5002 136.535L88.0921 133.217C88.0862 133.121 88.1154 133.027 88.1743 132.952C88.2331 132.877 88.3175 132.826 88.4115 132.808C88.4582 132.803 88.5053 132.808 88.5503 132.821C88.5952 132.835 88.637 132.857 88.6734 132.887C88.7097 132.916 88.7397 132.953 88.7618 132.994C88.7839 133.036 88.7975 133.081 88.8019 133.128L89.2101 136.464C89.215 136.511 89.2106 136.558 89.1972 136.603C89.1837 136.648 89.1615 136.69 89.1318 136.726C89.1021 136.762 89.0655 136.792 89.0241 136.815C88.9827 136.837 88.9374 136.85 88.8907 136.855H88.8552Z" fill="#212529"/>
<path id="Vector_75" d="M94.1081 135.896C94.025 135.898 93.944 135.871 93.8792 135.819C93.8143 135.767 93.7697 135.694 93.7531 135.612L93.061 131.974C93.045 131.88 93.0655 131.784 93.1183 131.705C93.1711 131.626 93.2522 131.57 93.3449 131.548C93.4366 131.533 93.5307 131.554 93.607 131.607C93.6834 131.66 93.7358 131.741 93.7531 131.832L94.463 135.488C94.4786 135.58 94.4575 135.674 94.4044 135.75C94.3513 135.827 94.2704 135.879 94.179 135.896H94.1081Z" fill="#212529"/>
<path id="Vector_76" d="M84.0454 128.904C83.9571 128.904 83.8718 128.872 83.8062 128.813C83.7406 128.754 83.6993 128.672 83.6905 128.585C83.6727 128.514 83.6195 127.875 84.2406 127.218C85.2167 126.171 87.2399 125.692 90.2746 125.834C93.3094 125.976 94.8356 126.455 95.1551 127.36C95.368 127.928 94.9599 128.478 94.6937 128.709C94.6217 128.757 94.5347 128.777 94.4488 128.766C94.363 128.754 94.2843 128.712 94.2276 128.647C94.1708 128.581 94.14 128.497 94.1409 128.411C94.1417 128.324 94.1742 128.241 94.2322 128.176C94.2322 128.176 94.5872 127.857 94.4807 127.591C94.3742 127.325 93.895 126.686 90.2391 126.544C86.5832 126.402 85.3587 127.076 84.7908 127.679C84.2229 128.283 84.4003 128.496 84.4003 128.514C84.4057 128.607 84.3759 128.699 84.3167 128.771C84.2576 128.843 84.1734 128.891 84.0809 128.904H84.0454Z" fill="#212529"/>
<path id="Vector_77" d="M52.7933 69.6999C51.2493 69.6999 50.3974 68.6706 50.007 67.9607C49.5811 68.4576 48.7115 69.061 47.061 68.8835C44.7539 68.6173 44.2569 66.5587 44.1682 65.5293C43.5116 65.7955 42.1983 66.2392 41.098 65.3519C40.2639 64.6775 39.9622 63.6481 40.2639 62.4946C39.341 62.6011 37.7083 62.3881 36.7144 61.3055C35.7206 60.223 35.6674 59.1936 36.0401 57.6141C35.1527 57.7916 34.1411 57.8094 33.7152 57.2414C33.2893 56.6735 33.5022 56.1944 33.9991 55.3958L34.6025 55.7684C34.1411 56.5138 34.2476 56.7623 34.2831 56.8155C34.3186 56.8688 35.0817 57.1172 36.1998 56.851C36.2852 56.8337 36.3735 56.8375 36.4571 56.8623C36.5406 56.887 36.6168 56.9319 36.6789 56.993C36.7371 57.0603 36.7787 57.1403 36.8003 57.2266C36.8218 57.313 36.8228 57.4031 36.8032 57.4899C36.395 58.9629 36.5547 60.081 37.2291 60.8264C37.9035 61.5717 39.6782 61.8912 40.2994 61.7847C40.4012 61.7589 40.5081 61.7618 40.6084 61.7931C40.7087 61.8244 40.7983 61.883 40.8673 61.9622C40.9356 62.0414 40.9829 62.1367 41.0046 62.239C41.0263 62.3414 41.0218 62.4476 40.9915 62.5478C40.7963 63.2045 40.7253 64.1273 41.5416 64.8017C42.358 65.4761 43.4051 65.1034 44.115 64.7662L44.186 64.7307C44.2565 64.697 44.3347 64.6826 44.4126 64.6888C44.4905 64.695 44.5654 64.7217 44.6296 64.7662C44.6954 64.8093 44.7503 64.867 44.7903 64.9346C44.8303 65.0023 44.8543 65.0783 44.8603 65.1566C44.8781 65.7955 45.0911 67.9429 47.132 68.1736C48.7292 68.3511 49.3858 67.6945 49.6343 67.2863C49.6783 67.2093 49.7435 67.1465 49.8222 67.1056C49.9009 67.0647 49.9897 67.0473 50.078 67.0556C50.1621 67.0564 50.244 67.0822 50.3135 67.1296C50.383 67.1769 50.4369 67.2438 50.4684 67.3218C50.7169 67.8542 51.4268 69.0787 52.953 68.99C54.4793 68.9013 54.7987 68.0317 54.9407 67.4993C54.959 67.4168 55.0004 67.3412 55.0601 67.2815C55.1199 67.2218 55.1954 67.1803 55.2779 67.1621C55.3633 67.1447 55.4516 67.1486 55.5352 67.1733C55.6187 67.1981 55.6949 67.243 55.757 67.304C56.2717 67.8897 57.656 69.1497 59.3242 68.1736C60.9924 67.1976 60.602 66.3634 60.2471 65.6713C60.2051 65.5824 60.1895 65.4833 60.2021 65.3858C60.2147 65.2883 60.2549 65.1965 60.318 65.1211C60.3869 65.0537 60.4739 65.0077 60.5684 64.9888C60.663 64.9699 60.7609 64.9789 60.8505 65.0147C61.6668 65.3341 63.548 65.6358 64.0627 65.0324C64.5773 64.429 63.8852 62.8673 63.619 62.4413C63.5784 62.3689 63.5542 62.2885 63.5481 62.2057C63.5419 62.1229 63.554 62.0398 63.5835 61.9622C63.6177 61.8862 63.6692 61.8194 63.734 61.767C63.7987 61.7146 63.8748 61.6781 63.9562 61.6605C64.4709 61.554 66.1568 61.1103 66.7425 59.9213C67.0619 59.2469 66.9909 58.4128 66.5295 57.4544C66.4805 57.3591 66.4595 57.2518 66.469 57.145C66.4784 57.0382 66.5178 56.9363 66.5828 56.851C66.6504 56.764 66.7413 56.6978 66.8449 56.6602C66.9485 56.6225 67.0606 56.6148 67.1684 56.638C67.8428 56.7623 69.4578 56.9752 69.6353 56.0524L70.3274 56.1944C70.1144 57.2414 69.0141 57.6674 67.2749 57.3657C67.7363 58.4482 67.7718 59.4066 67.3814 60.223C66.7425 61.5185 65.1985 62.0864 64.3644 62.2994C64.7903 63.0802 65.4292 64.5532 64.6128 65.4938C63.7965 66.4344 62.0218 66.0972 61.0634 65.831C61.2941 66.5764 61.3296 67.8364 59.6791 68.7948C58.0287 69.7531 56.2185 68.7593 55.4908 68.0672C55.2246 68.7061 54.568 69.6112 52.9885 69.6999H52.7933Z" fill="#212529"/>
<path id="Vector_78" d="M29.083 50.9589C28.2471 50.9396 27.4271 50.727 26.6871 50.3377L26.6162 50.3022C26.5429 50.2763 26.4796 50.2282 26.435 50.1646C26.3905 50.1009 26.367 50.025 26.3677 49.9473C26.3677 49.8531 26.4051 49.7629 26.4717 49.6963C26.5382 49.6297 26.6285 49.5923 26.7226 49.5923C26.8308 49.6009 26.9348 49.6376 27.0243 49.6988C29.3315 50.8879 31.4611 50.1247 33.1826 47.4804C33.2078 47.4404 33.2408 47.4057 33.2796 47.3786C33.3184 47.3515 33.3623 47.3324 33.4086 47.3225C33.4549 47.3125 33.5027 47.312 33.5492 47.3208C33.5958 47.3297 33.64 47.3477 33.6795 47.3739C33.7176 47.3989 33.7502 47.4313 33.7754 47.4692C33.8006 47.5072 33.8179 47.5498 33.8262 47.5946C33.8345 47.6394 33.8336 47.6853 33.8237 47.7298C33.8137 47.7742 33.7948 47.8162 33.7682 47.8531C32.4549 49.9118 30.84 50.9589 29.083 50.9589Z" fill="#F8F9FA"/>
<path id="Vector_79" d="M87.3291 93.6583H87.2759C87.1833 93.641 87.1008 93.5893 87.0448 93.5135C86.9888 93.4378 86.9636 93.3437 86.9742 93.2502C87.0274 93.0017 90.7188 67.3039 85.1462 60.2228C85.1107 60.1874 82.3067 56.6024 80.8514 55.5554C79.8221 54.81 79.8576 53.3547 80.461 52.4319C81.0644 51.509 81.9695 51.2961 82.8746 51.8285C82.9155 51.8505 82.9515 51.8807 82.9802 51.9173C83.0089 51.9538 83.0298 51.9959 83.0414 52.0409C83.0531 52.0859 83.0553 52.1328 83.048 52.1787C83.0407 52.2246 83.0239 52.2685 82.9988 52.3077C82.9509 52.3867 82.874 52.4439 82.7845 52.4671C82.695 52.4903 82.6 52.4777 82.5196 52.4319C81.721 51.9705 81.2241 52.5384 81.0466 52.8046C80.6207 53.479 80.603 54.5083 81.2596 54.9697C82.8036 56.0878 85.5899 59.6372 85.6964 59.7792C91.4642 67.1087 87.8438 92.2918 87.6841 93.3566C87.6712 93.4413 87.6282 93.5184 87.563 93.5739C87.4978 93.6293 87.4147 93.6593 87.3291 93.6583Z" fill="#212529"/>
</g>
</svg>
