<svg xmlns="http://www.w3.org/2000/svg" width="500" height="343" fill="none"><path fill="#fff" d="M451.116 124.542c.967 5.724-.839 9.249-4.909 9.922-4.112.68-6.906-2.402-7.872-8.654-.714-4.624-1.415-9.26-2.167-13.885-5.484.048-10.924.076-16.363.114.707 5.088 1.361 10.187 2.078 15.256 1.008 7.123 3.221 13.004 6.457 17.204 3.177 4.124 7.386 6.526 12.339 7.084.486 3.197.95 6.388 1.459 9.581.509 3.191 1.018 6.375 1.504 9.562 5.484-1.92 10.879-4.143 16.319-6.356-.486-2.856-1.039-5.728-1.548-8.588a368.241 368.241 0 0 1-1.415-8.606c4.157-2.715 7.135-6.293 8.933-10.452 1.74-4.022 2.348-8.664 1.372-13.837-.704-3.727-1.371-7.462-2.079-11.198-5.44.038-10.835.085-16.231.123.708 4.246 1.409 8.504 2.123 12.73ZM405.21 184.62c6.288-1.847 11.41-5.571 14.771-10.536 3.317-4.9 4.88-11.134 3.892-18.198-.869-6.215-3.18-10.231-6.81-13.033-3.712-2.864-8.641-4.506-14.993-5.76-5.148-1.016-7.113-2.445-7.341-4.625-.259-2.474 1.151-3.211 3.317-3.376 4.777-.365 9.774 2.506 14.682 5.854 1.46-5.712 2.875-11.311 4.335-16.816-5.75-4.871-12.472-7.354-20.211-7.349-5.971.004-11.018 1.992-14.285 6.081-3.322 4.158-4.971 10.478-4.157 18.813.778 7.98 3.323 13.261 7.12 16.693 3.81 3.444 8.882 5.081 14.55 5.751 4.814.569 7.204.965 7.518 3.849.261 2.393-1.418 3.685-3.493 4.152-5.487 1.235-12.207-1.362-17.646-5.542-1.681 6.583-3.229 13.241-4.821 19.975 5.351 4.824 14.602 6.703 23.572 4.067ZM345.108 148.963c-.537-8.105 1.857-13.634 5.838-13.856 3.98-.222 7.268 4.813 7.872 12.674.192 2.505.398 5.013.531 7.519-4.6.473-9.155.936-13.755 1.409-.176-2.582-.315-5.163-.486-7.746Zm4.201-38.286c-6.81 0-12.385 3.933-16.053 10.81-3.718 6.97-5.61 16.9-5.086 28.621.36 8.075.685 16.153 1.061 24.203.376 8.057.708 16.135 1.106 24.184 5.926-.785 11.852-1.56 17.69-2.554l-.929-14.896c4.688-.728 9.376-1.447 14.02-2.156.398 4.814.751 9.637 1.149 14.432a335.941 335.941 0 0 0 17.204-3.622c-.708-7.254-1.371-14.509-2.034-21.763-.664-7.254-1.341-14.511-1.991-21.782-.942-10.558-4.232-19.251-8.844-25.442-4.676-6.275-10.57-10.035-17.293-10.035ZM318.44 170.228c-2.609 3.328-5.661 5.633-10.128 5.901-4.997.3-7.262-1.314-7.341-4.707l-.056-6.721 6.867-.262c3.007-.148 6.014-.289 9.066-.503a2409.23 2409.23 0 0 1-.619-17.88c-2.742.131-5.484.227-8.182.317l-7.038.004.006-4.777c-.047-3.888 2.433-5.315 6.103-5.407 3.804-.095 6.899 1.809 9.642 4.904a2130.093 2130.093 0 0 1 7.075-20.322c-4.068-5.939-12.029-9.966-19.591-9.966-6.192 0-11.576 2.507-15.391 7.048-3.836 4.567-6.191 11.168-6.191 19.352 0 17.157-.537 24.072-.575 39.629-.021 8.576 2.103 15.165 6.147 19.446 3.962 4.194 10.084 5.963 17.646 5.351 8.536-.693 17.16-5.668 20.963-12.138-2.831-6.376-5.661-12.799-8.403-19.269ZM259.842 110.809c-6.723 0-11.897 5.174-15.922 13.44-3.14-8.266-7.606-13.44-13.754-13.44-4.953 0-9.671 3.851-13.4 10.811-3.745 6.991-6.591 17.081-7.474 29.783a4817.429 4817.429 0 0 1-1.813 24.866c-.619 8.273-1.15 16.551-1.681 24.818 5.838.416 11.808.823 17.823 1.229.398-8.219.863-16.446 1.327-24.666.464-8.228.88-16.437 1.327-24.686.394-7.29 2.388-10.58 4.909-10.517 2.432.06 4.024 3.575 3.67 10.933-.397 8.266-.774 16.534-1.15 24.78-.376 8.249-.751 16.514-1.105 24.752 5.97.104 11.941.227 17.999.331.177-8.295.421-16.609.664-24.913.243-8.314.473-16.608.707-24.922.208-7.377 2.035-10.725 4.6-10.716 2.476.01 4.191 3.386 4.024 10.792-.187 8.332-.331 16.646-.53 24.969s-.31 16.637-.487 24.96c5.926-.113 11.941-.302 17.956-.473 0-8.455.066-16.901.088-25.347.022-8.446.089-16.911.089-25.367 0-12.957-2.059-23.294-5.307-30.408-3.253-7.121-7.651-11.009-12.56-11.009ZM177.804 148.547c.812-8.218 3.272-12.968 6.633-12.844 3.538.131 5.002 4.871 4.511 10.035-.526 5.543-3.184 8.216-6.766 8.001a208.362 208.362 0 0 1-4.865-.349c.177-1.618.326-3.224.487-4.843Zm25.783 52.379c-1.548-4.871-3.004-9.746-4.467-14.566-1.456-4.799-2.963-9.581-4.334-14.347 2.786-2.488 5.072-5.992 6.678-10.461 1.623-4.516 2.793-10.009 3.273-16.419.669-8.941-.626-17.57-3.759-23.948-3.103-6.315-8.005-10.371-14.683-10.376-6.988-.005-12.555 3.247-16.85 9.666-4.285 6.406-7.256 15.999-8.801 29.018a8005.002 8005.002 0 0 1-2.698 22.387c-.906 7.46-1.769 14.925-2.609 22.378 5.794.974 11.631 1.948 17.513 2.922.708-7.074 1.416-14.177 2.167-21.29 1.062.133 2.123.275 3.229.388a1255.04 1255.04 0 0 0 6.501 22.425c6.28.757 12.56 1.476 18.84 2.223ZM125.662 144.877c1.108-7.244 4.467-11.864 8.403-11.614 3.98.252 6.17 5.432 5.13 12.957-.331 2.396-.708 4.796-1.017 7.188-4.556-.539-9.111-1.078-13.577-1.617.353-2.308.709-4.615 1.061-6.914Zm11.72-34.2c-6.811 0-13.024 3.45-18 9.127-4.931 5.626-8.726 13.501-10.349 23.059a4370.274 4370.274 0 0 1-3.405 19.767c-1.148 6.574-2.211 13.156-3.317 19.73a2229.968 2229.968 0 0 0 16.894 4.492c.708-4.445 1.327-8.871 2.034-13.317 4.556.814 9.155 1.646 13.754 2.469-.707 4.625-1.282 9.221-1.946 13.837 5.661 1.23 11.322 2.459 17.072 3.537.928-7.585 1.899-15.166 2.83-22.775.926-7.571 1.831-15.187 2.786-22.784 1.389-11.055.142-20.434-3.14-27.022-3.219-6.464-8.491-10.12-15.213-10.12ZM91.52 110.772c-6.766-.006-12.427 3.414-17.204 8.71-2.255-5.429-6.368-8.72-12.516-8.72-4.953 0-9.916 2.182-14.107 5.968-4.08 3.686-7.433 8.956-9.067 15.767a3283.446 3283.446 0 0 1-3.228 13.307c-1.082 4.431-2.123 8.872-3.184 13.298 5.218 1.949 10.525 3.935 15.833 5.921a1769.95 1769.95 0 0 1 3.272-14.622c1.111-4.898 2.214-9.751 3.317-14.651.975-4.331 3.097-6.102 5.572-5.779 2.302.301 3.568 2.674 2.566 7.264a2443.936 2443.936 0 0 0-3.317 15.388c-1.086 5.131-2.256 10.281-3.317 15.398 5.35 1.949 10.79 3.689 16.23 5.439 1.062-5.628 2.212-11.265 3.361-16.902 1.15-5.637 2.239-11.268 3.362-16.902 1-5.016 3.096-7.105 5.66-6.828 2.345.253 3.61 2.824 2.61 8.048-1.123 5.871-2.233 11.734-3.361 17.611-1.127 5.87-2.3 11.747-3.361 17.611a359.212 359.212 0 0 0 16.628 4.938c1.106-6.441 2.234-12.886 3.361-19.323 1.129-6.445 2.272-12.906 3.406-19.352 1.741-9.897 1.041-17.914-1.327-23.389-2.32-5.364-6.324-8.197-11.189-8.2Z"/><path fill="#fff" d="M183.171 302.425c-7.328-2.417-13.457-5.003-16.494-7.012-2.034-1.359-4.486-3.608-6.381-5.917-2.981-3.585-4.903-7.085-8.358-15.251a237.482 237.482 0 0 0-2.285-5.22c-.223-.517-.501-1.191-.641-1.516-.139-.313-.445-1.034-.696-1.587a180.219 180.219 0 0 1-1.393-3.176 9.305 9.305 0 0 0-.53-1.178c-.139-.265-.25-.542-.25-.638 0-.096-.112-.373-.251-.601a9.548 9.548 0 0 1-.502-1.083c-.139-.36-.473-1.118-.696-1.671-.251-.542-.613-1.323-.78-1.72-.613-1.408-1.756-4.006-2.09-4.703-.669-1.528-1.226-2.766-1.755-3.981-.279-.698-.613-1.444-.697-1.636-.111-.204-.474-1.022-.836-1.84-.362-.818-.975-2.213-1.365-3.103a63.49 63.49 0 0 1-.975-2.238 8.83 8.83 0 0 0-.418-.89c-.084-.132-.418-.89-.752-1.683a70.269 70.269 0 0 0-1.143-2.586c-.306-.614-.64-1.384-.78-1.696-.111-.301-.418-.986-.668-1.552-.251-.541-.558-1.239-.697-1.551-.139-.313-.446-1.023-.697-1.564-.25-.553-.585-1.299-.696-1.648a9.706 9.706 0 0 0-.53-1.07c-.139-.241-.25-.493-.25-.589 0-.097-.112-.373-.251-.626-.251-.457-.808-1.744-1.142-2.586-.084-.24-.307-.529-.474-.637-.167-.121-1.059-.457-1.978-.794-4.642-1.626-9.353-3.15-9.891-8.732v-13.519c.705-2.554 3.274-3.968 6.046-3.536 92.61 22.061 181.364 21.509 266.583.228 2.914-.841 5.43.227 5.99 3.657-.028 2.249-.028 4.498-.028 6.747 0 6.179-.597 9.524-4.402 12.449a15.92 15.92 0 0 1-2.532 1.722c-.868.478-4.79 1.956-4.991 2.151-.139.12-.529.842-.863 1.623-.335.77-1.087 2.502-1.7 3.837-.585 1.335-1.226 2.754-1.393 3.151-.334.758-1.727 3.945-2.257 5.136-1.393 3.175-1.811 4.077-2.173 4.895-.251.518-.529 1.179-.669 1.504-.139.3-.446 1.01-.696 1.575-.808 1.792-1.338 3.007-1.505 3.452-.083.253-.279.65-.418.878-.139.241-.251.517-.251.614 0 .108-.111.384-.25.613-.14.241-.39.734-.53 1.095a36.871 36.871 0 0 1-.696 1.683c-.251.554-.557 1.275-.697 1.588-.139.325-.446 1.034-.696 1.6-.78 1.756-1.143 2.598-1.393 3.259-.14.349-.335.782-.418.95-.112.181-.474 1.023-.864 1.913-.585 1.419-2.062 4.823-3.26 7.589-.223.505-.529 1.203-.641 1.516-.139.324-.446 1.034-.696 1.599a44.618 44.618 0 0 0-.725 1.612 28.123 28.123 0 0 1-.668 1.588 51.553 51.553 0 0 0-.78 1.828c-.196.433-.53 1.239-.781 1.816-.25.565-.808 1.84-1.253 2.85-1.254 2.935-3.288 6.772-4.235 8.071-.195.241-.335.457-.335.505 0 .048-.557.818-1.226 1.684-2.34 3.031-4.987 5.581-8.33 7.818-1.31.866-5.043 2.826-6.214 3.259-.418.157-1.226.493-1.783.746-1.504.674-2.291 1.126-12.064 3.223-9.731 2.089-28.447 4.655-65.698 6.447-33.491-2.009-51.224-4.423-60.823-6.326-9.626-1.909-11.173-2.406-12.343-2.815Zm26.859-1.864c.334-.217.334-.301.307-17.404-.028-5.737-.028-11.462-.028-17.187-.168-.325-.307-.65-.446-.987-.864-1.852-1.755-2.898-3.511-4.113-3.204-2.273-7.717-2.995-11.089-1.816-1.922.649-3.232 1.864-3.901 3.548-.362.878-.362 1.191-.362 17.777-.028 15.936-.028 16.886.279 17.067.195.12 3.511.782 9.334 1.84 8.86 1.479 9.055 1.491 9.417 1.275Zm25.744 2.826a5.85 5.85 0 0 0 .39-.18c0-5.809 0-11.631.028-17.44 0-10.885.084-17.801.195-18.378.195-1.01.669-2.309 1.254-3.392 1.755-3.163 5.238-5.809 9.529-7.288 1.449-.506 1.922-.614 4.012-.927 2.424-.42 7.189-.312 8.721.193.334.096.724.18.864.18.501-.024 3.538 1.071 4.848 1.708 1.643.818 3.928 2.55 5.07 3.813 1.087 1.239 2.118 2.911 2.703 4.402.139.373.279.758.446 1.131l.083 18.318c.056 10.067.14 18.354.223 18.402.195.168 15.714-.926 16.049-1.119.223-.132.278-2.345.362-18.089.111-17.861.111-17.945.502-19.184.334-1.131.696-1.949 1.476-3.428.446-.842 1.923-2.622 3.009-3.644 3.372-3.188 7.356-5.172 12.148-6.098 5.628-1.203 10.81-.614 14.906 1.72 3.009 1.695 4.932 4.197 5.628 7.3.223 1.047.279 3.356.251 18.09-.028 16.526 0 16.874.307 17.031.195.084.417.096.501.036.084-.06.919-.373 1.867-.686 5.544-1.828 9.612-4.63 12.482-8.599 1.003-1.396 3.176-5.341 3.176-5.726 0-.084.084-.264.195-.433.084-.144.641-1.395 1.226-2.766 1.449-3.38 2.368-5.533 2.87-6.675.223-.529.529-1.215.669-1.54.139-.325.445-1.046.696-1.611.251-.554.557-1.275.697-1.6.139-.325.418-.998.668-1.54a876.644 876.644 0 0 0 3.065-7.012c.167-.385.613-1.455 1.031-2.369.418-.926 1.059-2.37 1.421-3.247.39-.879.892-2.009 1.142-2.538.223-.518.53-1.251.697-1.648.139-.385.307-.77.39-.866.084-.096.223-.385.307-.662.111-.264.39-.95.64-1.527.251-.553.641-1.431.864-1.961.947-2.249 2.257-5.184 2.535-5.701.084-.18.223-.517.335-.793.083-.265.362-.939.613-1.492.251-.565.641-1.431.864-1.948.222-.505.724-1.66 1.114-2.55.418-.926.836-1.901.975-2.213.14-.313.446-.987.669-1.492 1.449-3.211 1.672-3.788 1.644-4.113-.028-.12-.056-.229-.056-.361-19.503 4.775-38.943 9.102-58.482 11.703-48.651 6.475-110.407 3.189-157.754-7.65-15.699-3.593-17.693-4.33-17.721-4.245-.139.192.223 1.238.892 2.682.251.541.557 1.227.696 1.551.14.301.446.987.697 1.528.251.553.557 1.251.696 1.551.112.313.419 1.011.669 1.552.251.541.613 1.335.78 1.756.167.421.53 1.215.78 1.768.251.553.558 1.251.697 1.564.139.312.446 1.01.697 1.551.25.553.557 1.263.696 1.576.112.3.418.998.669 1.551.501 1.107.724 1.576 1.867 4.21.418.974 1.086 2.49 1.476 3.344.362.866 1.171 2.67 1.756 4.005s1.225 2.754 1.393 3.151c.167.397.668 1.539 1.114 2.55.446 1.01.92 2.093 1.059 2.405.139.313.306.698.418.866.083.157.278.578.418.926.111.337.446 1.071.696 1.624.251.553.558 1.263.697 1.576.139.325.446 1.022.696 1.575.251.542.558 1.251.697 1.576.111.301.418.974.641 1.491.223.518.891 2.033 1.476 3.368.586 1.335 1.143 2.586 1.226 2.742.084.169.363.806.613 1.432 2.814 6.783 5.656 10.572 10.114 13.374.613.373 1.254.746 1.393.83.697.421 3.873 1.708 5.489 2.201 1.393.445 1.811.542 2.034.457.223-.096.251-1.888.279-16.67.027-14.541.055-16.694.306-17.68.697-2.839 2.118-4.847 4.625-6.519 4.04-2.743 9.975-3.561 16.104-2.189 6.353 1.287 11.898 4.823 14.795 9.525.892 1.444 1.338 2.478 1.755 4.114.335 1.275.363 1.912.335 18.607-.028 15.431 0 17.319.251 17.608.083.12.167.228.278.337 2.536.336 5.071.625 7.634.817 6.659.53 7.718.578 8.052.421Zm28.698.698c.223-.265.251-2.141.279-17.332.028-18.282.028-18.137-.864-19.677-.864-1.479-2.396-2.706-4.318-3.452-1.449-.613-2.731-.854-4.598-.866-2.284-.024-4.095.445-5.907 1.516-.835.493-2.646 2.117-2.646 2.393 0 .061-.14.373-.335.686-.696 1.179-.724 2.225-.696 19.665.028 13.916.083 16.742.278 16.935.223.204 1.087.252 9.39.457 3.037.072 6.074.084 9.139-.012.083-.096.167-.205.278-.313Zm54.359-5.46c.306-.229.306-.939.362-17.404 0-5.725 0-11.438.028-17.176a8.647 8.647 0 0 1-.362-.818c-.836-1.828-2.034-2.886-4.012-3.596-1.561-.577-3.177-.685-5.266-.409-3.204.409-5.573 1.588-7.746 3.849-.529.565-1.087 1.468-1.532 2.502-.167.361-.335.709-.474 1.058-.028 5.81-.028 11.607-.028 17.416 0 17.079 0 17.404.335 17.548.473.217 18.221-2.61 18.695-2.97Zm65.643-86.046c.835-.396.891-.817.835-6.591-.037-2.627-.075-4.134-.146-4.884.01-.585-.28-1.006-.884-.793-.196 0-8.997 2.926-29.701 6.76-69.428 12.856-137.779 10.23-205.51-1.323-18.633-3.179-22.993-5.043-23.244-5.043-.474.013-.613.097-.724.433-.195.554-.132 9.746.035 10.371.083.349.25.553.613.746 86.61 24.373 172.855 24.713 258.726.324Z"/><path fill="#fff" d="M259.842 110.809c-6.723 0-11.897 5.174-15.922 13.44-3.14-8.266-7.606-13.44-13.754-13.44-4.953 0-9.671 3.85-13.4 10.811-3.745 6.991-6.591 17.081-7.474 29.783a4817.429 4817.429 0 0 1-1.813 24.866c-.619 8.272-1.15 16.551-1.681 24.817 5.838.417 11.808.824 17.823 1.23.398-8.219.863-16.446 1.327-24.667.464-8.227.88-16.436 1.327-24.685.394-7.29 2.388-10.58 4.908-10.517 2.433.06 4.025 3.575 3.671 10.933-.397 8.266-.774 16.534-1.15 24.78-.376 8.249-.751 16.514-1.105 24.752 5.97.104 11.941.227 17.999.331.177-8.295.421-16.609.664-24.913.243-8.314.473-16.608.707-24.922.208-7.377 2.035-10.725 4.6-10.716 2.476.01 4.191 3.386 4.024 10.792-.187 8.332-.331 16.646-.53 24.969s-.31 16.637-.487 24.96c5.926-.113 11.941-.302 17.956-.473 0-8.455.066-16.901.088-25.347.022-8.446.089-16.911.089-25.367 0-12.957-2.059-23.294-5.307-30.408-3.253-7.121-7.652-11.009-12.56-11.009Zm-168.322-.038c-6.766-.005-12.427 3.415-17.204 8.711-2.255-5.429-6.368-8.72-12.516-8.72-4.953 0-9.916 2.182-14.107 5.968-4.08 3.686-7.433 8.956-9.067 15.767a3283.446 3283.446 0 0 1-3.228 13.307c-1.082 4.431-2.123 8.872-3.184 13.298 5.218 1.949 10.525 3.935 15.833 5.921a1769.95 1769.95 0 0 1 3.272-14.622c1.111-4.898 2.214-9.751 3.317-14.651.975-4.331 3.097-6.102 5.572-5.779 2.302.301 3.568 2.674 2.566 7.264a2443.936 2443.936 0 0 0-3.317 15.388c-1.086 5.131-2.256 10.281-3.317 15.398 5.35 1.949 10.79 3.689 16.23 5.439 1.062-5.628 2.212-11.265 3.361-16.902 1.15-5.637 2.239-11.268 3.362-16.902 1-5.016 3.096-7.105 5.66-6.828 2.345.253 3.61 2.824 2.61 8.048-1.123 5.871-2.233 11.734-3.361 17.611-1.127 5.87-2.3 11.747-3.361 17.611a359.212 359.212 0 0 0 16.628 4.938c1.106-6.442 2.234-12.886 3.361-19.323 1.129-6.445 2.272-12.906 3.406-19.352 1.741-9.897 1.041-17.914-1.327-23.389-2.32-5.364-6.324-8.197-11.189-8.201Zm34.142 34.106c1.108-7.244 4.467-11.864 8.403-11.614 3.98.252 6.17 5.432 5.13 12.957-.331 2.396-.708 4.796-1.017 7.188-4.556-.539-9.111-1.078-13.578-1.617.354-2.308.71-4.615 1.062-6.914Zm11.72-34.2c-6.811 0-13.024 3.45-18 9.127-4.931 5.626-8.726 13.501-10.349 23.059a4370.274 4370.274 0 0 1-3.405 19.767c-1.148 6.574-2.211 13.156-3.317 19.73a2229.968 2229.968 0 0 0 16.894 4.492c.708-4.445 1.327-8.871 2.034-13.317 4.556.814 9.155 1.646 13.754 2.469-.707 4.625-1.282 9.221-1.946 13.837 5.661 1.23 11.322 2.459 17.072 3.537.928-7.585 1.899-15.166 2.83-22.775.926-7.571 1.831-15.187 2.786-22.784 1.389-11.055.142-20.434-3.14-27.022-3.219-6.464-8.491-10.12-15.213-10.12Zm40.422 37.87c.812-8.218 3.272-12.968 6.633-12.844 3.538.131 5.002 4.871 4.511 10.035-.526 5.543-3.184 8.216-6.766 8.001a208.362 208.362 0 0 1-4.865-.349c.177-1.618.326-3.224.487-4.843Zm25.783 52.379c-1.548-4.871-3.004-9.746-4.467-14.566-1.456-4.799-2.963-9.581-4.334-14.347 2.786-2.488 5.072-5.992 6.678-10.461 1.623-4.516 2.793-10.009 3.273-16.419.669-8.941-.626-17.571-3.759-23.948-3.103-6.315-8.005-10.371-14.683-10.376-6.988-.005-12.555 3.247-16.85 9.666-4.285 6.406-7.256 15.999-8.801 29.018a8005.002 8005.002 0 0 1-2.698 22.387c-.906 7.46-1.769 14.925-2.609 22.378 5.794.974 11.631 1.948 17.513 2.922.708-7.074 1.415-14.177 2.167-21.29 1.062.133 2.123.275 3.229.388a1255.04 1255.04 0 0 0 6.501 22.425c6.28.757 12.56 1.476 18.84 2.223ZM384.476 89.155c.838.16.89.547.84 6.234-.035 3.84-.102 5.272-.259 5.462-.117.141-.46.317-.761.39-.399.096-35.712.175-129.181.286-110.9.132-128.713.13-129.222-.016-.476-.137-.617-.259-.727-.627-.178-.598-.198-10.257-.023-10.83.1-.326.256-.47.605-.56.541-.137 258.015-.475 258.728-.34ZM178.819 34.812c-7.769.638-14.247 1.643-17.469 2.709-2.16.714-4.74 2.182-6.768 3.85-3.147 2.59-5.186 5.41-8.859 12.26-.493.92-1.765 3.21-2.393 4.31a52.86 52.86 0 0 0-.697 1.257 50.04 50.04 0 0 1-.733 1.318 78.976 78.976 0 0 0-1.466 2.634c-.173.329-.43.768-.571.976-.141.207-.258.45-.258.538 0 .09-.123.315-.273.502a5.766 5.766 0 0 0-.539.898c-.148.307-.484.935-.746 1.396-.262.461-.626 1.108-.808 1.437a533.942 533.942 0 0 1-2.208 3.951 132.774 132.774 0 0 0-1.857 3.353 50.435 50.435 0 0 1-.755 1.377c-.1.164-.494.864-.875 1.556-.382.691-1.04 1.877-1.463 2.634-.134.24-.272.49-.403.73h-1.639a.838.838 0 0 1-.321.258c-.163.058-1.059.144-1.992.191-4.285.215-7.678 1.975-9.367 4.859l-.53.904.008 6.761.009 6.761.416.777c.664 1.238 1.395 2.031 2.701 2.932a11.157 11.157 0 0 0 2.939 1.44l266.563-.319c1.023-.333 1.948-.805 2.882-1.447 1.29-.888 1.993-1.659 2.682-2.937l.419-.779-.008-6.76-.009-6.761-.425-.777c-.533-.975-.929-1.456-1.818-2.212-.843-.716-.81-.694-2.147-1.392-1.545-.807-3.457-1.275-5.592-1.369a18.557 18.557 0 0 1-1.6-.13h-2.348l-.126-.234c-.14-.263-.468-.855-.731-1.316-.856-1.502-1.405-2.504-1.585-2.893a4.233 4.233 0 0 0-.446-.718c-.148-.184-.269-.415-.271-.514-.002-.099-.125-.332-.275-.52a5.748 5.748 0 0 1-.542-.896 28.797 28.797 0 0 0-.753-1.394 51.923 51.923 0 0 1-.736-1.316 59.775 59.775 0 0 0-.732-1.315c-.824-1.442-1.205-2.135-1.478-2.69a5.846 5.846 0 0 0-.45-.778c-.103-.132-.507-.831-.898-1.555a407.97 407.97 0 0 0-3.452-6.158 68.499 68.499 0 0 1-.7-1.256 55.188 55.188 0 0 0-.743-1.315 48.195 48.195 0 0 1-.74-1.315c-.14-.264-.471-.855-.737-1.316a48.885 48.885 0 0 1-.825-1.495 46.656 46.656 0 0 0-.824-1.494c-.265-.46-.857-1.51-1.316-2.332-1.336-2.398-3.47-5.417-4.492-6.356-.19-.174-.346-.351-.346-.393 0-.042-.592-.59-1.315-1.219-2.46-2.14-5.284-3.74-8.818-4.995-1.372-.487-5.347-1.421-6.589-1.548a39.103 39.103 0 0 1-1.867-.255c-3.176-.517-3.446-.518-82.398-.416-70.898.092-74.978.109-77.497.316Zm-38.867 47.96c.327-.582.69-1.239 1.559-2.812l1.555-2.813c.4-.725 1.244-2.234 1.875-3.353a336.383 336.383 0 0 0 2.658-4.79c.472-.856.974-1.771 1.116-2.035.142-.263.339-.586.437-.718.098-.132.295-.482.437-.779.142-.296.477-.915.744-1.376.266-.461.599-1.054.74-1.318.14-.263.471-.856.735-1.316.264-.462.593-1.054.732-1.318.138-.263.45-.829.693-1.257.243-.428.948-1.694 1.566-2.813.619-1.12 1.198-2.144 1.286-2.275.088-.132.387-.671.665-1.198 2.673-5.078 4.757-8.037 12.189-10.485 7.062-2.326 164.563-1.256 164.649-1.222.085.035.978.121 1.983.192 5.866.415 10.181 2.07 13.213 5.068 1.072 1.059 3.393 4.118 3.394 4.472 0 .078.084.236.187.35.103.115.692 1.123 1.309 2.24 1.516 2.746 2.5 4.509 3.036 5.442.246.428.562.993.703 1.256.141.263.476.855.743 1.315.268.46.601 1.052.741 1.315.139.264.453.829.698 1.256a604.517 604.517 0 0 1 3.242 5.8c.177.329.674 1.217 1.105 1.973.43.756 1.113 1.967 1.517 2.69.403.724.937 1.666 1.186 2.093.248.428.58 1.047.737 1.376.158.328.35.651.428.717.078.066.225.308.327.538.103.23.407.795.677 1.256.271.46.68 1.187.91 1.614l.373.687-114.936.167c-86.749.126-109.495.15-115.209.06Z"/></svg>